M48
;DRILL file {KiCad 4.0.4-stable} date 06/23/17 15:39:09
;FORMAT={-:-/ absolute / inch / decimal}
FMAT,2
INCH,TZ
T1C0.016
T2C0.031
T3C0.032
T4C0.039
T5C0.040
%
G90
G05
M72
T1
X5.3098Y-4.3793
T2
X5.2Y-3.7
X5.2Y-3.8
X5.2Y-3.9
X5.2Y-4.
X5.2Y-4.1
X5.2Y-4.2
X5.2Y-4.3
X5.2Y-4.4
X5.3016Y-3.6
X5.4Y-3.6
X5.5Y-3.7
X5.5Y-3.8
X5.5Y-3.9
X5.5Y-4.
X5.5Y-4.1
X5.5Y-4.2
X5.5Y-4.3
X5.5Y-4.4
X5.7Y-3.7
X5.7Y-3.8
X5.7Y-3.9
X5.7Y-4.
X5.7Y-4.1
X5.7Y-4.2
X5.7Y-4.3
X5.7Y-4.4
X5.8016Y-3.6
X5.9Y-3.6
X6.Y-3.7
X6.Y-3.8
X6.Y-3.9
X6.Y-4.
X6.Y-4.1
X6.Y-4.2
X6.Y-4.3
X6.Y-4.4
T3
X5.8Y-3.8
X5.8Y-4.1
T4
X5.35Y-4.55
X5.45Y-4.55
X5.55Y-4.55
X5.65Y-4.55
X5.75Y-4.55
X5.85Y-4.55
T5
X5.6Y-3.8
X5.6Y-3.9
X5.6Y-4.
X5.6Y-4.1
X5.6Y-4.2
X5.6Y-4.3
X5.6Y-4.4
X5.9Y-3.8
X5.9Y-3.9
X5.9Y-4.
X5.9Y-4.1
X5.9Y-4.2
X5.9Y-4.3
X5.9Y-4.4
T0
M30
