%TF.GenerationSoftware,KiCad,Pcbnew,5.1.6*%
%TF.CreationDate,2020-10-07T16:50:06+02:00*%
%TF.ProjectId,potmux,706f746d-7578-42e6-9b69-6361645f7063,2*%
%TF.SameCoordinates,Original*%
%TF.FileFunction,Soldermask,Bot*%
%TF.FilePolarity,Negative*%
%FSLAX46Y46*%
G04 Gerber Fmt 4.6, Leading zero omitted, Abs format (unit mm)*
G04 Created by KiCad (PCBNEW 5.1.6) date 2020-10-07 16:50:06*
%MOMM*%
%LPD*%
G01*
G04 APERTURE LIST*
%ADD10R,2.432000X2.127200*%
%ADD11O,2.432000X2.127200*%
%ADD12C,1.797000*%
%ADD13R,2.100000X2.100000*%
%ADD14O,2.100000X2.100000*%
%ADD15O,2.000000X2.000000*%
%ADD16C,2.000000*%
%ADD17C,1.000000*%
G04 APERTURE END LIST*
D10*
%TO.C,P1*%
X142240000Y-96520000D03*
D11*
X142240000Y-99060000D03*
X142240000Y-101600000D03*
X142240000Y-104140000D03*
X142240000Y-106680000D03*
X142240000Y-109220000D03*
X142240000Y-111760000D03*
%TD*%
D10*
%TO.C,P3*%
X149860000Y-96520000D03*
D11*
X149860000Y-99060000D03*
X149860000Y-101600000D03*
X149860000Y-104140000D03*
X149860000Y-106680000D03*
X149860000Y-109220000D03*
X149860000Y-111760000D03*
%TD*%
D12*
%TO.C,R1*%
X147320000Y-96520000D03*
X147320000Y-104140000D03*
%TD*%
D13*
%TO.C,P4*%
X148590000Y-115570000D03*
D14*
X146050000Y-115570000D03*
X143510000Y-115570000D03*
X140970000Y-115570000D03*
X138430000Y-115570000D03*
X135890000Y-115570000D03*
%TD*%
D15*
%TO.C,U2*%
X144780000Y-93980000D03*
X144780000Y-96520000D03*
X144780000Y-99060000D03*
X144780000Y-101600000D03*
X144780000Y-104140000D03*
X144780000Y-106680000D03*
X144780000Y-109220000D03*
X144780000Y-111760000D03*
X152400000Y-111760000D03*
X152400000Y-109220000D03*
X152400000Y-106680000D03*
X152400000Y-104140000D03*
X152400000Y-101600000D03*
X152400000Y-99060000D03*
X152400000Y-96520000D03*
X152400000Y-93980000D03*
%TD*%
%TO.C,U1*%
X132080000Y-93980000D03*
X132080000Y-96520000D03*
X132080000Y-99060000D03*
X132080000Y-101600000D03*
X132080000Y-104140000D03*
X132080000Y-106680000D03*
X132080000Y-109220000D03*
X132080000Y-111760000D03*
X139700000Y-111760000D03*
X139700000Y-109220000D03*
X139700000Y-106680000D03*
X139700000Y-104140000D03*
X139700000Y-101600000D03*
X139700000Y-99060000D03*
X139700000Y-96520000D03*
X139700000Y-93980000D03*
%TD*%
D16*
%TO.C,C1*%
X137160000Y-91440000D03*
X134660000Y-91440000D03*
%TD*%
%TO.C,C2*%
X149860000Y-91440000D03*
X147360000Y-91440000D03*
%TD*%
D17*
X134867800Y-111234500D03*
M02*
