%TF.GenerationSoftware,KiCad,Pcbnew,4.0.4-stable*%
%TF.CreationDate,2017-05-05T16:15:10+02:00*%
%TF.ProjectId,potmux,706F746D75782E6B696361645F706362,2*%
%TF.FileFunction,Legend,Top*%
%FSLAX46Y46*%
G04 Gerber Fmt 4.6, Leading zero omitted, Abs format (unit mm)*
G04 Created by KiCad (PCBNEW 4.0.4-stable) date 05/05/17 16:15:10*
%MOMM*%
%LPD*%
G01*
G04 APERTURE LIST*
%ADD10C,0.100000*%
%ADD11C,0.150000*%
%ADD12C,0.300000*%
%ADD13C,0.120000*%
%ADD14R,2.432000X2.127200*%
%ADD15O,2.432000X2.127200*%
%ADD16C,1.797000*%
%ADD17R,2.100000X2.100000*%
%ADD18O,2.100000X2.100000*%
%ADD19O,2.000000X2.000000*%
%ADD20C,2.000000*%
G04 APERTURE END LIST*
D10*
D11*
X141329286Y-93303286D02*
X141079286Y-92946143D01*
X140900714Y-93303286D02*
X140900714Y-92553286D01*
X141186429Y-92553286D01*
X141257857Y-92589000D01*
X141293572Y-92624714D01*
X141329286Y-92696143D01*
X141329286Y-92803286D01*
X141293572Y-92874714D01*
X141257857Y-92910429D01*
X141186429Y-92946143D01*
X140900714Y-92946143D01*
X141936429Y-93267571D02*
X141865000Y-93303286D01*
X141722143Y-93303286D01*
X141650714Y-93267571D01*
X141615000Y-93196143D01*
X141615000Y-92910429D01*
X141650714Y-92839000D01*
X141722143Y-92803286D01*
X141865000Y-92803286D01*
X141936429Y-92839000D01*
X141972143Y-92910429D01*
X141972143Y-92981857D01*
X141615000Y-93053286D01*
X142222143Y-92803286D02*
X142400714Y-93303286D01*
X142579286Y-92803286D01*
X142865000Y-93231857D02*
X142900715Y-93267571D01*
X142865000Y-93303286D01*
X142829286Y-93267571D01*
X142865000Y-93231857D01*
X142865000Y-93303286D01*
X143186429Y-92624714D02*
X143222143Y-92589000D01*
X143293572Y-92553286D01*
X143472143Y-92553286D01*
X143543572Y-92589000D01*
X143579286Y-92624714D01*
X143615001Y-92696143D01*
X143615001Y-92767571D01*
X143579286Y-92874714D01*
X143150715Y-93303286D01*
X143615001Y-93303286D01*
D12*
X138597143Y-92118571D02*
X138597143Y-90618571D01*
X139168571Y-90618571D01*
X139311429Y-90690000D01*
X139382857Y-90761429D01*
X139454286Y-90904286D01*
X139454286Y-91118571D01*
X139382857Y-91261429D01*
X139311429Y-91332857D01*
X139168571Y-91404286D01*
X138597143Y-91404286D01*
X140311429Y-92118571D02*
X140168571Y-92047143D01*
X140097143Y-91975714D01*
X140025714Y-91832857D01*
X140025714Y-91404286D01*
X140097143Y-91261429D01*
X140168571Y-91190000D01*
X140311429Y-91118571D01*
X140525714Y-91118571D01*
X140668571Y-91190000D01*
X140740000Y-91261429D01*
X140811429Y-91404286D01*
X140811429Y-91832857D01*
X140740000Y-91975714D01*
X140668571Y-92047143D01*
X140525714Y-92118571D01*
X140311429Y-92118571D01*
X141240000Y-91118571D02*
X141811429Y-91118571D01*
X141454286Y-90618571D02*
X141454286Y-91904286D01*
X141525714Y-92047143D01*
X141668572Y-92118571D01*
X141811429Y-92118571D01*
X142311429Y-92118571D02*
X142311429Y-90618571D01*
X142811429Y-91690000D01*
X143311429Y-90618571D01*
X143311429Y-92118571D01*
X144668572Y-91118571D02*
X144668572Y-92118571D01*
X144025715Y-91118571D02*
X144025715Y-91904286D01*
X144097143Y-92047143D01*
X144240001Y-92118571D01*
X144454286Y-92118571D01*
X144597143Y-92047143D01*
X144668572Y-91975714D01*
X145240001Y-92118571D02*
X146025715Y-91118571D01*
X145240001Y-91118571D02*
X146025715Y-92118571D01*
D11*
X136906429Y-109698571D02*
X136906429Y-109984285D01*
X136306429Y-109984285D01*
X136906429Y-109498571D02*
X136506429Y-109498571D01*
X136306429Y-109498571D02*
X136335000Y-109527142D01*
X136363571Y-109498571D01*
X136335000Y-109469999D01*
X136306429Y-109498571D01*
X136363571Y-109498571D01*
X136877857Y-108955714D02*
X136906429Y-109012857D01*
X136906429Y-109127143D01*
X136877857Y-109184285D01*
X136849286Y-109212857D01*
X136792143Y-109241428D01*
X136620714Y-109241428D01*
X136563571Y-109212857D01*
X136535000Y-109184285D01*
X136506429Y-109127143D01*
X136506429Y-109012857D01*
X136535000Y-108955714D01*
X136877857Y-108469999D02*
X136906429Y-108527142D01*
X136906429Y-108641428D01*
X136877857Y-108698571D01*
X136820714Y-108727142D01*
X136592143Y-108727142D01*
X136535000Y-108698571D01*
X136506429Y-108641428D01*
X136506429Y-108527142D01*
X136535000Y-108469999D01*
X136592143Y-108441428D01*
X136649286Y-108441428D01*
X136706429Y-108727142D01*
X136506429Y-108184285D02*
X136906429Y-108184285D01*
X136563571Y-108184285D02*
X136535000Y-108155713D01*
X136506429Y-108098571D01*
X136506429Y-108012856D01*
X136535000Y-107955713D01*
X136592143Y-107927142D01*
X136906429Y-107927142D01*
X136877857Y-107669999D02*
X136906429Y-107612856D01*
X136906429Y-107498571D01*
X136877857Y-107441428D01*
X136820714Y-107412856D01*
X136792143Y-107412856D01*
X136735000Y-107441428D01*
X136706429Y-107498571D01*
X136706429Y-107584285D01*
X136677857Y-107641428D01*
X136620714Y-107669999D01*
X136592143Y-107669999D01*
X136535000Y-107641428D01*
X136506429Y-107584285D01*
X136506429Y-107498571D01*
X136535000Y-107441428D01*
X136877857Y-106927142D02*
X136906429Y-106984285D01*
X136906429Y-107098571D01*
X136877857Y-107155714D01*
X136820714Y-107184285D01*
X136592143Y-107184285D01*
X136535000Y-107155714D01*
X136506429Y-107098571D01*
X136506429Y-106984285D01*
X136535000Y-106927142D01*
X136592143Y-106898571D01*
X136649286Y-106898571D01*
X136706429Y-107184285D01*
X136906429Y-106384285D02*
X136306429Y-106384285D01*
X136877857Y-106384285D02*
X136906429Y-106441428D01*
X136906429Y-106555714D01*
X136877857Y-106612856D01*
X136849286Y-106641428D01*
X136792143Y-106669999D01*
X136620714Y-106669999D01*
X136563571Y-106641428D01*
X136535000Y-106612856D01*
X136506429Y-106555714D01*
X136506429Y-106441428D01*
X136535000Y-106384285D01*
X136506429Y-105384285D02*
X136906429Y-105384285D01*
X136506429Y-105641428D02*
X136820714Y-105641428D01*
X136877857Y-105612856D01*
X136906429Y-105555714D01*
X136906429Y-105469999D01*
X136877857Y-105412856D01*
X136849286Y-105384285D01*
X136506429Y-105098571D02*
X136906429Y-105098571D01*
X136563571Y-105098571D02*
X136535000Y-105069999D01*
X136506429Y-105012857D01*
X136506429Y-104927142D01*
X136535000Y-104869999D01*
X136592143Y-104841428D01*
X136906429Y-104841428D01*
X136906429Y-104298571D02*
X136306429Y-104298571D01*
X136877857Y-104298571D02*
X136906429Y-104355714D01*
X136906429Y-104470000D01*
X136877857Y-104527142D01*
X136849286Y-104555714D01*
X136792143Y-104584285D01*
X136620714Y-104584285D01*
X136563571Y-104555714D01*
X136535000Y-104527142D01*
X136506429Y-104470000D01*
X136506429Y-104355714D01*
X136535000Y-104298571D01*
X136877857Y-103784285D02*
X136906429Y-103841428D01*
X136906429Y-103955714D01*
X136877857Y-104012857D01*
X136820714Y-104041428D01*
X136592143Y-104041428D01*
X136535000Y-104012857D01*
X136506429Y-103955714D01*
X136506429Y-103841428D01*
X136535000Y-103784285D01*
X136592143Y-103755714D01*
X136649286Y-103755714D01*
X136706429Y-104041428D01*
X136906429Y-103498571D02*
X136506429Y-103498571D01*
X136620714Y-103498571D02*
X136563571Y-103469999D01*
X136535000Y-103441428D01*
X136506429Y-103384285D01*
X136506429Y-103327142D01*
X136849286Y-102327142D02*
X136877857Y-102355713D01*
X136906429Y-102441427D01*
X136906429Y-102498570D01*
X136877857Y-102584285D01*
X136820714Y-102641427D01*
X136763571Y-102669999D01*
X136649286Y-102698570D01*
X136563571Y-102698570D01*
X136449286Y-102669999D01*
X136392143Y-102641427D01*
X136335000Y-102584285D01*
X136306429Y-102498570D01*
X136306429Y-102441427D01*
X136335000Y-102355713D01*
X136363571Y-102327142D01*
X136592143Y-102069999D02*
X136592143Y-101869999D01*
X136906429Y-101784285D02*
X136906429Y-102069999D01*
X136306429Y-102069999D01*
X136306429Y-101784285D01*
X136906429Y-101184285D02*
X136620714Y-101384285D01*
X136906429Y-101527142D02*
X136306429Y-101527142D01*
X136306429Y-101298570D01*
X136335000Y-101241428D01*
X136363571Y-101212856D01*
X136420714Y-101184285D01*
X136506429Y-101184285D01*
X136563571Y-101212856D01*
X136592143Y-101241428D01*
X136620714Y-101298570D01*
X136620714Y-101527142D01*
X136906429Y-100927142D02*
X136306429Y-100927142D01*
X136906429Y-100584285D01*
X136306429Y-100584285D01*
X136306429Y-99727142D02*
X136306429Y-99612856D01*
X136335000Y-99555714D01*
X136392143Y-99498571D01*
X136506429Y-99469999D01*
X136706429Y-99469999D01*
X136820714Y-99498571D01*
X136877857Y-99555714D01*
X136906429Y-99612856D01*
X136906429Y-99727142D01*
X136877857Y-99784285D01*
X136820714Y-99841428D01*
X136706429Y-99869999D01*
X136506429Y-99869999D01*
X136392143Y-99841428D01*
X136335000Y-99784285D01*
X136306429Y-99727142D01*
X136906429Y-99212857D02*
X136306429Y-99212857D01*
X136592143Y-99212857D02*
X136592143Y-98870000D01*
X136906429Y-98870000D02*
X136306429Y-98870000D01*
X136906429Y-98298572D02*
X136906429Y-98584286D01*
X136306429Y-98584286D01*
X136506429Y-97698572D02*
X136906429Y-97555715D01*
X136506429Y-97412857D01*
X136849286Y-97184286D02*
X136877857Y-97155714D01*
X136906429Y-97184286D01*
X136877857Y-97212857D01*
X136849286Y-97184286D01*
X136906429Y-97184286D01*
X136906429Y-96584286D02*
X136906429Y-96927143D01*
X136906429Y-96755715D02*
X136306429Y-96755715D01*
X136392143Y-96812858D01*
X136449286Y-96870000D01*
X136477857Y-96927143D01*
X136849286Y-96327143D02*
X136877857Y-96298571D01*
X136906429Y-96327143D01*
X136877857Y-96355714D01*
X136849286Y-96327143D01*
X136906429Y-96327143D01*
X136363571Y-96070000D02*
X136335000Y-96041429D01*
X136306429Y-95984286D01*
X136306429Y-95841429D01*
X136335000Y-95784286D01*
X136363571Y-95755715D01*
X136420714Y-95727143D01*
X136477857Y-95727143D01*
X136563571Y-95755715D01*
X136906429Y-96098572D01*
X136906429Y-95727143D01*
X137556429Y-110412856D02*
X137956429Y-110298570D01*
X137670714Y-110184284D01*
X137956429Y-110069999D01*
X137556429Y-109955713D01*
X137556429Y-109784285D02*
X137956429Y-109669999D01*
X137670714Y-109555713D01*
X137956429Y-109441428D01*
X137556429Y-109327142D01*
X137556429Y-109155714D02*
X137956429Y-109041428D01*
X137670714Y-108927142D01*
X137956429Y-108812857D01*
X137556429Y-108698571D01*
X137899286Y-108470000D02*
X137927857Y-108441428D01*
X137956429Y-108470000D01*
X137927857Y-108498571D01*
X137899286Y-108470000D01*
X137956429Y-108470000D01*
X137956429Y-108184286D02*
X137356429Y-108184286D01*
X137956429Y-107927143D02*
X137642143Y-107927143D01*
X137585000Y-107955714D01*
X137556429Y-108012857D01*
X137556429Y-108098572D01*
X137585000Y-108155714D01*
X137613571Y-108184286D01*
X137927857Y-107412857D02*
X137956429Y-107470000D01*
X137956429Y-107584286D01*
X137927857Y-107641429D01*
X137870714Y-107670000D01*
X137642143Y-107670000D01*
X137585000Y-107641429D01*
X137556429Y-107584286D01*
X137556429Y-107470000D01*
X137585000Y-107412857D01*
X137642143Y-107384286D01*
X137699286Y-107384286D01*
X137756429Y-107670000D01*
X137556429Y-107127143D02*
X137956429Y-107127143D01*
X137613571Y-107127143D02*
X137585000Y-107098571D01*
X137556429Y-107041429D01*
X137556429Y-106955714D01*
X137585000Y-106898571D01*
X137642143Y-106870000D01*
X137956429Y-106870000D01*
X137556429Y-106584286D02*
X137956429Y-106584286D01*
X137613571Y-106584286D02*
X137585000Y-106555714D01*
X137556429Y-106498572D01*
X137556429Y-106412857D01*
X137585000Y-106355714D01*
X137642143Y-106327143D01*
X137956429Y-106327143D01*
X137956429Y-106041429D02*
X137556429Y-106041429D01*
X137356429Y-106041429D02*
X137385000Y-106070000D01*
X137413571Y-106041429D01*
X137385000Y-106012857D01*
X137356429Y-106041429D01*
X137413571Y-106041429D01*
X137556429Y-105755715D02*
X137956429Y-105755715D01*
X137613571Y-105755715D02*
X137585000Y-105727143D01*
X137556429Y-105670001D01*
X137556429Y-105584286D01*
X137585000Y-105527143D01*
X137642143Y-105498572D01*
X137956429Y-105498572D01*
X137556429Y-104955715D02*
X138042143Y-104955715D01*
X138099286Y-104984286D01*
X138127857Y-105012858D01*
X138156429Y-105070001D01*
X138156429Y-105155715D01*
X138127857Y-105212858D01*
X137927857Y-104955715D02*
X137956429Y-105012858D01*
X137956429Y-105127144D01*
X137927857Y-105184286D01*
X137899286Y-105212858D01*
X137842143Y-105241429D01*
X137670714Y-105241429D01*
X137613571Y-105212858D01*
X137585000Y-105184286D01*
X137556429Y-105127144D01*
X137556429Y-105012858D01*
X137585000Y-104955715D01*
X137727857Y-104670001D02*
X137727857Y-104212858D01*
X137956429Y-103927144D02*
X137356429Y-103927144D01*
X137585000Y-103927144D02*
X137556429Y-103870001D01*
X137556429Y-103755715D01*
X137585000Y-103698572D01*
X137613571Y-103670001D01*
X137670714Y-103641430D01*
X137842143Y-103641430D01*
X137899286Y-103670001D01*
X137927857Y-103698572D01*
X137956429Y-103755715D01*
X137956429Y-103870001D01*
X137927857Y-103927144D01*
X137927857Y-103155715D02*
X137956429Y-103212858D01*
X137956429Y-103327144D01*
X137927857Y-103384287D01*
X137870714Y-103412858D01*
X137642143Y-103412858D01*
X137585000Y-103384287D01*
X137556429Y-103327144D01*
X137556429Y-103212858D01*
X137585000Y-103155715D01*
X137642143Y-103127144D01*
X137699286Y-103127144D01*
X137756429Y-103412858D01*
X137956429Y-102870001D02*
X137356429Y-102870001D01*
X137727857Y-102812858D02*
X137956429Y-102641429D01*
X137556429Y-102641429D02*
X137785000Y-102870001D01*
X137927857Y-102155715D02*
X137956429Y-102212858D01*
X137956429Y-102327144D01*
X137927857Y-102384287D01*
X137870714Y-102412858D01*
X137642143Y-102412858D01*
X137585000Y-102384287D01*
X137556429Y-102327144D01*
X137556429Y-102212858D01*
X137585000Y-102155715D01*
X137642143Y-102127144D01*
X137699286Y-102127144D01*
X137756429Y-102412858D01*
X137956429Y-101784287D02*
X137927857Y-101841429D01*
X137870714Y-101870001D01*
X137356429Y-101870001D01*
X137899286Y-101555715D02*
X137927857Y-101527143D01*
X137956429Y-101555715D01*
X137927857Y-101584286D01*
X137899286Y-101555715D01*
X137956429Y-101555715D01*
X137956429Y-101012858D02*
X137356429Y-101012858D01*
X137927857Y-101012858D02*
X137956429Y-101070001D01*
X137956429Y-101184287D01*
X137927857Y-101241429D01*
X137899286Y-101270001D01*
X137842143Y-101298572D01*
X137670714Y-101298572D01*
X137613571Y-101270001D01*
X137585000Y-101241429D01*
X137556429Y-101184287D01*
X137556429Y-101070001D01*
X137585000Y-101012858D01*
X137927857Y-100498572D02*
X137956429Y-100555715D01*
X137956429Y-100670001D01*
X137927857Y-100727144D01*
X137870714Y-100755715D01*
X137642143Y-100755715D01*
X137585000Y-100727144D01*
X137556429Y-100670001D01*
X137556429Y-100555715D01*
X137585000Y-100498572D01*
X137642143Y-100470001D01*
X137699286Y-100470001D01*
X137756429Y-100755715D01*
X137327857Y-99784286D02*
X138099286Y-100298572D01*
X137956429Y-99584287D02*
X137356429Y-99584287D01*
X137727857Y-99527144D02*
X137956429Y-99355715D01*
X137556429Y-99355715D02*
X137785000Y-99584287D01*
X137927857Y-98870001D02*
X137956429Y-98927144D01*
X137956429Y-99041430D01*
X137927857Y-99098573D01*
X137870714Y-99127144D01*
X137642143Y-99127144D01*
X137585000Y-99098573D01*
X137556429Y-99041430D01*
X137556429Y-98927144D01*
X137585000Y-98870001D01*
X137642143Y-98841430D01*
X137699286Y-98841430D01*
X137756429Y-99127144D01*
X137556429Y-98641430D02*
X137956429Y-98498573D01*
X137556429Y-98355715D02*
X137956429Y-98498573D01*
X138099286Y-98555715D01*
X138127857Y-98584287D01*
X138156429Y-98641430D01*
X137956429Y-98127144D02*
X137556429Y-98127144D01*
X137613571Y-98127144D02*
X137585000Y-98098572D01*
X137556429Y-98041430D01*
X137556429Y-97955715D01*
X137585000Y-97898572D01*
X137642143Y-97870001D01*
X137956429Y-97870001D01*
X137642143Y-97870001D02*
X137585000Y-97841430D01*
X137556429Y-97784287D01*
X137556429Y-97698572D01*
X137585000Y-97641430D01*
X137642143Y-97612858D01*
X137956429Y-97612858D01*
X137956429Y-97070001D02*
X137642143Y-97070001D01*
X137585000Y-97098572D01*
X137556429Y-97155715D01*
X137556429Y-97270001D01*
X137585000Y-97327144D01*
X137927857Y-97070001D02*
X137956429Y-97127144D01*
X137956429Y-97270001D01*
X137927857Y-97327144D01*
X137870714Y-97355715D01*
X137813571Y-97355715D01*
X137756429Y-97327144D01*
X137727857Y-97270001D01*
X137727857Y-97127144D01*
X137699286Y-97070001D01*
X137556429Y-96784287D02*
X137956429Y-96784287D01*
X137613571Y-96784287D02*
X137585000Y-96755715D01*
X137556429Y-96698573D01*
X137556429Y-96612858D01*
X137585000Y-96555715D01*
X137642143Y-96527144D01*
X137956429Y-96527144D01*
X137356429Y-95984287D02*
X137356429Y-96098573D01*
X137385000Y-96155716D01*
X137413571Y-96184287D01*
X137499286Y-96241430D01*
X137613571Y-96270001D01*
X137842143Y-96270001D01*
X137899286Y-96241430D01*
X137927857Y-96212858D01*
X137956429Y-96155716D01*
X137956429Y-96041430D01*
X137927857Y-95984287D01*
X137899286Y-95955716D01*
X137842143Y-95927144D01*
X137699286Y-95927144D01*
X137642143Y-95955716D01*
X137613571Y-95984287D01*
X137585000Y-96041430D01*
X137585000Y-96155716D01*
X137613571Y-96212858D01*
X137642143Y-96241430D01*
X137699286Y-96270001D01*
X137556429Y-95412858D02*
X137956429Y-95412858D01*
X137327857Y-95555715D02*
X137756429Y-95698572D01*
X137756429Y-95327144D01*
X135354286Y-113917000D02*
X135711429Y-113917000D01*
X135282858Y-114131286D02*
X135532858Y-113381286D01*
X135782858Y-114131286D01*
X136425715Y-114131286D02*
X135997143Y-114131286D01*
X136211429Y-114131286D02*
X136211429Y-113381286D01*
X136140000Y-113488429D01*
X136068572Y-113559857D01*
X135997143Y-113595571D01*
X137894286Y-113917000D02*
X138251429Y-113917000D01*
X137822858Y-114131286D02*
X138072858Y-113381286D01*
X138322858Y-114131286D01*
X138537143Y-113452714D02*
X138572857Y-113417000D01*
X138644286Y-113381286D01*
X138822857Y-113381286D01*
X138894286Y-113417000D01*
X138930000Y-113452714D01*
X138965715Y-113524143D01*
X138965715Y-113595571D01*
X138930000Y-113702714D01*
X138501429Y-114131286D01*
X138965715Y-114131286D01*
X140920428Y-113738429D02*
X141027571Y-113774143D01*
X141063286Y-113809857D01*
X141099000Y-113881286D01*
X141099000Y-113988429D01*
X141063286Y-114059857D01*
X141027571Y-114095571D01*
X140956143Y-114131286D01*
X140670428Y-114131286D01*
X140670428Y-113381286D01*
X140920428Y-113381286D01*
X140991857Y-113417000D01*
X141027571Y-113452714D01*
X141063286Y-113524143D01*
X141063286Y-113595571D01*
X141027571Y-113667000D01*
X140991857Y-113702714D01*
X140920428Y-113738429D01*
X140670428Y-113738429D01*
X141813286Y-114131286D02*
X141384714Y-114131286D01*
X141599000Y-114131286D02*
X141599000Y-113381286D01*
X141527571Y-113488429D01*
X141456143Y-113559857D01*
X141384714Y-113595571D01*
X143206428Y-113738429D02*
X143313571Y-113774143D01*
X143349286Y-113809857D01*
X143385000Y-113881286D01*
X143385000Y-113988429D01*
X143349286Y-114059857D01*
X143313571Y-114095571D01*
X143242143Y-114131286D01*
X142956428Y-114131286D01*
X142956428Y-113381286D01*
X143206428Y-113381286D01*
X143277857Y-113417000D01*
X143313571Y-113452714D01*
X143349286Y-113524143D01*
X143349286Y-113595571D01*
X143313571Y-113667000D01*
X143277857Y-113702714D01*
X143206428Y-113738429D01*
X142956428Y-113738429D01*
X143670714Y-113452714D02*
X143706428Y-113417000D01*
X143777857Y-113381286D01*
X143956428Y-113381286D01*
X144027857Y-113417000D01*
X144063571Y-113452714D01*
X144099286Y-113524143D01*
X144099286Y-113595571D01*
X144063571Y-113702714D01*
X143635000Y-114131286D01*
X144099286Y-114131286D01*
X145496429Y-113738429D02*
X145746429Y-113738429D01*
X145853572Y-114131286D02*
X145496429Y-114131286D01*
X145496429Y-113381286D01*
X145853572Y-113381286D01*
X146175000Y-114131286D02*
X146175000Y-113381286D01*
X146603572Y-114131286D01*
X146603572Y-113381286D01*
X148018572Y-113417000D02*
X147947143Y-113381286D01*
X147840000Y-113381286D01*
X147732857Y-113417000D01*
X147661429Y-113488429D01*
X147625714Y-113559857D01*
X147590000Y-113702714D01*
X147590000Y-113809857D01*
X147625714Y-113952714D01*
X147661429Y-114024143D01*
X147732857Y-114095571D01*
X147840000Y-114131286D01*
X147911429Y-114131286D01*
X148018572Y-114095571D01*
X148054286Y-114059857D01*
X148054286Y-113809857D01*
X147911429Y-113809857D01*
X148375714Y-114131286D02*
X148375714Y-113381286D01*
X148804286Y-114131286D01*
X148804286Y-113381286D01*
X149161428Y-114131286D02*
X149161428Y-113381286D01*
X149340000Y-113381286D01*
X149447143Y-113417000D01*
X149518571Y-113488429D01*
X149554286Y-113559857D01*
X149590000Y-113702714D01*
X149590000Y-113809857D01*
X149554286Y-113952714D01*
X149518571Y-114024143D01*
X149447143Y-114095571D01*
X149340000Y-114131286D01*
X149161428Y-114131286D01*
X134321786Y-107941429D02*
X133571786Y-107941429D01*
X133571786Y-107655714D01*
X133607500Y-107584286D01*
X133643214Y-107548571D01*
X133714643Y-107512857D01*
X133821786Y-107512857D01*
X133893214Y-107548571D01*
X133928929Y-107584286D01*
X133964643Y-107655714D01*
X133964643Y-107941429D01*
X134321786Y-107084286D02*
X134286071Y-107155714D01*
X134250357Y-107191429D01*
X134178929Y-107227143D01*
X133964643Y-107227143D01*
X133893214Y-107191429D01*
X133857500Y-107155714D01*
X133821786Y-107084286D01*
X133821786Y-106977143D01*
X133857500Y-106905714D01*
X133893214Y-106870000D01*
X133964643Y-106834286D01*
X134178929Y-106834286D01*
X134250357Y-106870000D01*
X134286071Y-106905714D01*
X134321786Y-106977143D01*
X134321786Y-107084286D01*
X133821786Y-106620000D02*
X133821786Y-106334286D01*
X133571786Y-106512858D02*
X134214643Y-106512858D01*
X134286071Y-106477143D01*
X134321786Y-106405715D01*
X134321786Y-106334286D01*
X134321786Y-106084287D02*
X133571786Y-106084287D01*
X134107500Y-105834287D01*
X133571786Y-105584287D01*
X134321786Y-105584287D01*
X133821786Y-104905715D02*
X134321786Y-104905715D01*
X133821786Y-105227144D02*
X134214643Y-105227144D01*
X134286071Y-105191429D01*
X134321786Y-105120001D01*
X134321786Y-105012858D01*
X134286071Y-104941429D01*
X134250357Y-104905715D01*
X134321786Y-104620001D02*
X133821786Y-104227144D01*
X133821786Y-104620001D02*
X134321786Y-104227144D01*
X134321786Y-102941429D02*
X133964643Y-103191429D01*
X134321786Y-103370001D02*
X133571786Y-103370001D01*
X133571786Y-103084286D01*
X133607500Y-103012858D01*
X133643214Y-102977143D01*
X133714643Y-102941429D01*
X133821786Y-102941429D01*
X133893214Y-102977143D01*
X133928929Y-103012858D01*
X133964643Y-103084286D01*
X133964643Y-103370001D01*
X134286071Y-102334286D02*
X134321786Y-102405715D01*
X134321786Y-102548572D01*
X134286071Y-102620001D01*
X134214643Y-102655715D01*
X133928929Y-102655715D01*
X133857500Y-102620001D01*
X133821786Y-102548572D01*
X133821786Y-102405715D01*
X133857500Y-102334286D01*
X133928929Y-102298572D01*
X134000357Y-102298572D01*
X134071786Y-102655715D01*
X133821786Y-102048572D02*
X134321786Y-101870001D01*
X133821786Y-101691429D01*
X134321786Y-101405715D02*
X133821786Y-101405715D01*
X133571786Y-101405715D02*
X133607500Y-101441429D01*
X133643214Y-101405715D01*
X133607500Y-101370000D01*
X133571786Y-101405715D01*
X133643214Y-101405715D01*
X134286071Y-101084286D02*
X134321786Y-101012857D01*
X134321786Y-100870000D01*
X134286071Y-100798572D01*
X134214643Y-100762857D01*
X134178929Y-100762857D01*
X134107500Y-100798572D01*
X134071786Y-100870000D01*
X134071786Y-100977143D01*
X134036071Y-101048572D01*
X133964643Y-101084286D01*
X133928929Y-101084286D01*
X133857500Y-101048572D01*
X133821786Y-100977143D01*
X133821786Y-100870000D01*
X133857500Y-100798572D01*
X134321786Y-100441429D02*
X133821786Y-100441429D01*
X133571786Y-100441429D02*
X133607500Y-100477143D01*
X133643214Y-100441429D01*
X133607500Y-100405714D01*
X133571786Y-100441429D01*
X133643214Y-100441429D01*
X134321786Y-99977143D02*
X134286071Y-100048571D01*
X134250357Y-100084286D01*
X134178929Y-100120000D01*
X133964643Y-100120000D01*
X133893214Y-100084286D01*
X133857500Y-100048571D01*
X133821786Y-99977143D01*
X133821786Y-99870000D01*
X133857500Y-99798571D01*
X133893214Y-99762857D01*
X133964643Y-99727143D01*
X134178929Y-99727143D01*
X134250357Y-99762857D01*
X134286071Y-99798571D01*
X134321786Y-99870000D01*
X134321786Y-99977143D01*
X133821786Y-99405715D02*
X134321786Y-99405715D01*
X133893214Y-99405715D02*
X133857500Y-99370000D01*
X133821786Y-99298572D01*
X133821786Y-99191429D01*
X133857500Y-99120000D01*
X133928929Y-99084286D01*
X134321786Y-99084286D01*
X133643214Y-98191429D02*
X133607500Y-98155715D01*
X133571786Y-98084286D01*
X133571786Y-97905715D01*
X133607500Y-97834286D01*
X133643214Y-97798572D01*
X133714643Y-97762857D01*
X133786071Y-97762857D01*
X133893214Y-97798572D01*
X134321786Y-98227143D01*
X134321786Y-97762857D01*
X135025357Y-108495000D02*
X134989643Y-108566428D01*
X134989643Y-108709285D01*
X135025357Y-108780714D01*
X135096786Y-108852143D01*
X135168214Y-108887857D01*
X135311071Y-108887857D01*
X135382500Y-108852143D01*
X135453929Y-108780714D01*
X135489643Y-108709285D01*
X135489643Y-108566428D01*
X135453929Y-108495000D01*
X134739643Y-108637857D02*
X134775357Y-108816428D01*
X134882500Y-108995000D01*
X135061071Y-109102143D01*
X135239643Y-109137857D01*
X135418214Y-109102143D01*
X135596786Y-108995000D01*
X135703929Y-108816428D01*
X135739643Y-108637857D01*
X135703929Y-108459285D01*
X135596786Y-108280714D01*
X135418214Y-108173571D01*
X135239643Y-108137857D01*
X135061071Y-108173571D01*
X134882500Y-108280714D01*
X134775357Y-108459285D01*
X134739643Y-108637857D01*
X134918214Y-107852143D02*
X134882500Y-107816429D01*
X134846786Y-107745000D01*
X134846786Y-107566429D01*
X134882500Y-107495000D01*
X134918214Y-107459286D01*
X134989643Y-107423571D01*
X135061071Y-107423571D01*
X135168214Y-107459286D01*
X135596786Y-107887857D01*
X135596786Y-107423571D01*
X134846786Y-106959285D02*
X134846786Y-106887857D01*
X134882500Y-106816428D01*
X134918214Y-106780714D01*
X134989643Y-106745000D01*
X135132500Y-106709285D01*
X135311071Y-106709285D01*
X135453929Y-106745000D01*
X135525357Y-106780714D01*
X135561071Y-106816428D01*
X135596786Y-106887857D01*
X135596786Y-106959285D01*
X135561071Y-107030714D01*
X135525357Y-107066428D01*
X135453929Y-107102143D01*
X135311071Y-107137857D01*
X135132500Y-107137857D01*
X134989643Y-107102143D01*
X134918214Y-107066428D01*
X134882500Y-107030714D01*
X134846786Y-106959285D01*
X135596786Y-105994999D02*
X135596786Y-106423571D01*
X135596786Y-106209285D02*
X134846786Y-106209285D01*
X134953929Y-106280714D01*
X135025357Y-106352142D01*
X135061071Y-106423571D01*
X134846786Y-105744999D02*
X134846786Y-105244999D01*
X135596786Y-105566428D01*
X135596786Y-104387856D02*
X134846786Y-104387856D01*
X135203929Y-104387856D02*
X135203929Y-103959284D01*
X135596786Y-103959284D02*
X134846786Y-103959284D01*
X135561071Y-103316427D02*
X135596786Y-103387856D01*
X135596786Y-103530713D01*
X135561071Y-103602142D01*
X135489643Y-103637856D01*
X135203929Y-103637856D01*
X135132500Y-103602142D01*
X135096786Y-103530713D01*
X135096786Y-103387856D01*
X135132500Y-103316427D01*
X135203929Y-103280713D01*
X135275357Y-103280713D01*
X135346786Y-103637856D01*
X135096786Y-102959285D02*
X135596786Y-102959285D01*
X135168214Y-102959285D02*
X135132500Y-102923570D01*
X135096786Y-102852142D01*
X135096786Y-102744999D01*
X135132500Y-102673570D01*
X135203929Y-102637856D01*
X135596786Y-102637856D01*
X135096786Y-102280714D02*
X135596786Y-102280714D01*
X135168214Y-102280714D02*
X135132500Y-102244999D01*
X135096786Y-102173571D01*
X135096786Y-102066428D01*
X135132500Y-101994999D01*
X135203929Y-101959285D01*
X135596786Y-101959285D01*
X135596786Y-101602143D02*
X135096786Y-101602143D01*
X134846786Y-101602143D02*
X134882500Y-101637857D01*
X134918214Y-101602143D01*
X134882500Y-101566428D01*
X134846786Y-101602143D01*
X134918214Y-101602143D01*
X135096786Y-101245000D02*
X135596786Y-101245000D01*
X135168214Y-101245000D02*
X135132500Y-101209285D01*
X135096786Y-101137857D01*
X135096786Y-101030714D01*
X135132500Y-100959285D01*
X135203929Y-100923571D01*
X135596786Y-100923571D01*
X135096786Y-100245000D02*
X135703929Y-100245000D01*
X135775357Y-100280714D01*
X135811071Y-100316429D01*
X135846786Y-100387857D01*
X135846786Y-100495000D01*
X135811071Y-100566429D01*
X135561071Y-100245000D02*
X135596786Y-100316429D01*
X135596786Y-100459286D01*
X135561071Y-100530714D01*
X135525357Y-100566429D01*
X135453929Y-100602143D01*
X135239643Y-100602143D01*
X135168214Y-100566429D01*
X135132500Y-100530714D01*
X135096786Y-100459286D01*
X135096786Y-100316429D01*
X135132500Y-100245000D01*
X135203929Y-99066429D02*
X135239643Y-98959286D01*
X135275357Y-98923571D01*
X135346786Y-98887857D01*
X135453929Y-98887857D01*
X135525357Y-98923571D01*
X135561071Y-98959286D01*
X135596786Y-99030714D01*
X135596786Y-99316429D01*
X134846786Y-99316429D01*
X134846786Y-99066429D01*
X134882500Y-98995000D01*
X134918214Y-98959286D01*
X134989643Y-98923571D01*
X135061071Y-98923571D01*
X135132500Y-98959286D01*
X135168214Y-98995000D01*
X135203929Y-99066429D01*
X135203929Y-99316429D01*
X135561071Y-98280714D02*
X135596786Y-98352143D01*
X135596786Y-98495000D01*
X135561071Y-98566429D01*
X135489643Y-98602143D01*
X135203929Y-98602143D01*
X135132500Y-98566429D01*
X135096786Y-98495000D01*
X135096786Y-98352143D01*
X135132500Y-98280714D01*
X135203929Y-98245000D01*
X135275357Y-98245000D01*
X135346786Y-98602143D01*
X135596786Y-97923572D02*
X134846786Y-97923572D01*
X135311071Y-97852143D02*
X135596786Y-97637857D01*
X135096786Y-97637857D02*
X135382500Y-97923572D01*
X135561071Y-97030714D02*
X135596786Y-97102143D01*
X135596786Y-97245000D01*
X135561071Y-97316429D01*
X135489643Y-97352143D01*
X135203929Y-97352143D01*
X135132500Y-97316429D01*
X135096786Y-97245000D01*
X135096786Y-97102143D01*
X135132500Y-97030714D01*
X135203929Y-96995000D01*
X135275357Y-96995000D01*
X135346786Y-97352143D01*
X135596786Y-96566429D02*
X135561071Y-96637857D01*
X135489643Y-96673572D01*
X134846786Y-96673572D01*
X147661428Y-93819286D02*
X147661428Y-94319286D01*
X147482857Y-93533571D02*
X147304285Y-94069286D01*
X147768571Y-94069286D01*
X148197143Y-93569286D02*
X148268571Y-93569286D01*
X148340000Y-93605000D01*
X148375714Y-93640714D01*
X148411428Y-93712143D01*
X148447143Y-93855000D01*
X148447143Y-94033571D01*
X148411428Y-94176429D01*
X148375714Y-94247857D01*
X148340000Y-94283571D01*
X148268571Y-94319286D01*
X148197143Y-94319286D01*
X148125714Y-94283571D01*
X148090000Y-94247857D01*
X148054285Y-94176429D01*
X148018571Y-94033571D01*
X148018571Y-93855000D01*
X148054285Y-93712143D01*
X148090000Y-93640714D01*
X148125714Y-93605000D01*
X148197143Y-93569286D01*
X149125714Y-93569286D02*
X148768571Y-93569286D01*
X148732857Y-93926429D01*
X148768571Y-93890714D01*
X148840000Y-93855000D01*
X149018571Y-93855000D01*
X149090000Y-93890714D01*
X149125714Y-93926429D01*
X149161429Y-93997857D01*
X149161429Y-94176429D01*
X149125714Y-94247857D01*
X149090000Y-94283571D01*
X149018571Y-94319286D01*
X148840000Y-94319286D01*
X148768571Y-94283571D01*
X148732857Y-94247857D01*
X149447143Y-93640714D02*
X149482857Y-93605000D01*
X149554286Y-93569286D01*
X149732857Y-93569286D01*
X149804286Y-93605000D01*
X149840000Y-93640714D01*
X149875715Y-93712143D01*
X149875715Y-93783571D01*
X149840000Y-93890714D01*
X149411429Y-94319286D01*
X149875715Y-94319286D01*
X134961428Y-93819286D02*
X134961428Y-94319286D01*
X134782857Y-93533571D02*
X134604285Y-94069286D01*
X135068571Y-94069286D01*
X135497143Y-93569286D02*
X135568571Y-93569286D01*
X135640000Y-93605000D01*
X135675714Y-93640714D01*
X135711428Y-93712143D01*
X135747143Y-93855000D01*
X135747143Y-94033571D01*
X135711428Y-94176429D01*
X135675714Y-94247857D01*
X135640000Y-94283571D01*
X135568571Y-94319286D01*
X135497143Y-94319286D01*
X135425714Y-94283571D01*
X135390000Y-94247857D01*
X135354285Y-94176429D01*
X135318571Y-94033571D01*
X135318571Y-93855000D01*
X135354285Y-93712143D01*
X135390000Y-93640714D01*
X135425714Y-93605000D01*
X135497143Y-93569286D01*
X136425714Y-93569286D02*
X136068571Y-93569286D01*
X136032857Y-93926429D01*
X136068571Y-93890714D01*
X136140000Y-93855000D01*
X136318571Y-93855000D01*
X136390000Y-93890714D01*
X136425714Y-93926429D01*
X136461429Y-93997857D01*
X136461429Y-94176429D01*
X136425714Y-94247857D01*
X136390000Y-94283571D01*
X136318571Y-94319286D01*
X136140000Y-94319286D01*
X136068571Y-94283571D01*
X136032857Y-94247857D01*
X136747143Y-93640714D02*
X136782857Y-93605000D01*
X136854286Y-93569286D01*
X137032857Y-93569286D01*
X137104286Y-93605000D01*
X137140000Y-93640714D01*
X137175715Y-93712143D01*
X137175715Y-93783571D01*
X137140000Y-93890714D01*
X136711429Y-94319286D01*
X137175715Y-94319286D01*
X143510000Y-97790000D02*
X143510000Y-113030000D01*
X143510000Y-113030000D02*
X140970000Y-113030000D01*
X140970000Y-113030000D02*
X140970000Y-97790000D01*
X143790000Y-94970000D02*
X143790000Y-96520000D01*
X143510000Y-97790000D02*
X140970000Y-97790000D01*
X140690000Y-96520000D02*
X140690000Y-94970000D01*
X140690000Y-94970000D02*
X143790000Y-94970000D01*
X151130000Y-97790000D02*
X151130000Y-113030000D01*
X151130000Y-113030000D02*
X148590000Y-113030000D01*
X148590000Y-113030000D02*
X148590000Y-97790000D01*
X151410000Y-94970000D02*
X151410000Y-96520000D01*
X151130000Y-97790000D02*
X148590000Y-97790000D01*
X148310000Y-96520000D02*
X148310000Y-94970000D01*
X148310000Y-94970000D02*
X151410000Y-94970000D01*
D13*
X149920000Y-116910000D02*
X147320000Y-116910000D01*
X147320000Y-116910000D02*
X147320000Y-119530000D01*
X147320000Y-119530000D02*
X149920000Y-119530000D01*
X149920000Y-119530000D02*
X149920000Y-116910000D01*
X148970000Y-119530000D02*
X148210000Y-119530000D01*
X148210000Y-119530000D02*
X148210000Y-125530000D01*
X148210000Y-125530000D02*
X148970000Y-125530000D01*
X148970000Y-125530000D02*
X148970000Y-119530000D01*
X148970000Y-116480000D02*
X148970000Y-116910000D01*
X148210000Y-116480000D02*
X148210000Y-116910000D01*
X148850000Y-119530000D02*
X148850000Y-125530000D01*
X148730000Y-119530000D02*
X148730000Y-125530000D01*
X148610000Y-119530000D02*
X148610000Y-125530000D01*
X148490000Y-119530000D02*
X148490000Y-125530000D01*
X148370000Y-119530000D02*
X148370000Y-125530000D01*
X148250000Y-119530000D02*
X148250000Y-125530000D01*
X147320000Y-116910000D02*
X144780000Y-116910000D01*
X144780000Y-116910000D02*
X144780000Y-119530000D01*
X144780000Y-119530000D02*
X147320000Y-119530000D01*
X147320000Y-119530000D02*
X147320000Y-116910000D01*
X146430000Y-119530000D02*
X145670000Y-119530000D01*
X145670000Y-119530000D02*
X145670000Y-125530000D01*
X145670000Y-125530000D02*
X146430000Y-125530000D01*
X146430000Y-125530000D02*
X146430000Y-119530000D01*
X146430000Y-116480000D02*
X146430000Y-116910000D01*
X145670000Y-116480000D02*
X145670000Y-116910000D01*
X144780000Y-116910000D02*
X142240000Y-116910000D01*
X142240000Y-116910000D02*
X142240000Y-119530000D01*
X142240000Y-119530000D02*
X144780000Y-119530000D01*
X144780000Y-119530000D02*
X144780000Y-116910000D01*
X143890000Y-119530000D02*
X143130000Y-119530000D01*
X143130000Y-119530000D02*
X143130000Y-125530000D01*
X143130000Y-125530000D02*
X143890000Y-125530000D01*
X143890000Y-125530000D02*
X143890000Y-119530000D01*
X143890000Y-116480000D02*
X143890000Y-116910000D01*
X143130000Y-116480000D02*
X143130000Y-116910000D01*
X142240000Y-116910000D02*
X139700000Y-116910000D01*
X139700000Y-116910000D02*
X139700000Y-119530000D01*
X139700000Y-119530000D02*
X142240000Y-119530000D01*
X142240000Y-119530000D02*
X142240000Y-116910000D01*
X141350000Y-119530000D02*
X140590000Y-119530000D01*
X140590000Y-119530000D02*
X140590000Y-125530000D01*
X140590000Y-125530000D02*
X141350000Y-125530000D01*
X141350000Y-125530000D02*
X141350000Y-119530000D01*
X141350000Y-116480000D02*
X141350000Y-116910000D01*
X140590000Y-116480000D02*
X140590000Y-116910000D01*
X139700000Y-116910000D02*
X137160000Y-116910000D01*
X137160000Y-116910000D02*
X137160000Y-119530000D01*
X137160000Y-119530000D02*
X139700000Y-119530000D01*
X139700000Y-119530000D02*
X139700000Y-116910000D01*
X138810000Y-119530000D02*
X138050000Y-119530000D01*
X138050000Y-119530000D02*
X138050000Y-125530000D01*
X138050000Y-125530000D02*
X138810000Y-125530000D01*
X138810000Y-125530000D02*
X138810000Y-119530000D01*
X138810000Y-116480000D02*
X138810000Y-116910000D01*
X138050000Y-116480000D02*
X138050000Y-116910000D01*
X137160000Y-116910000D02*
X134560000Y-116910000D01*
X134560000Y-116910000D02*
X134560000Y-119530000D01*
X134560000Y-119530000D02*
X137160000Y-119530000D01*
X137160000Y-119530000D02*
X137160000Y-116910000D01*
X136270000Y-119530000D02*
X135510000Y-119530000D01*
X135510000Y-119530000D02*
X135510000Y-125530000D01*
X135510000Y-125530000D02*
X136270000Y-125530000D01*
X136270000Y-125530000D02*
X136270000Y-119530000D01*
X136270000Y-116480000D02*
X136270000Y-116910000D01*
X135510000Y-116480000D02*
X135510000Y-116910000D01*
X148590000Y-114300000D02*
X149860000Y-114300000D01*
X149860000Y-114300000D02*
X149860000Y-115570000D01*
D11*
X144780000Y-111760000D02*
X144780000Y-113030000D01*
X144780000Y-113030000D02*
X152400000Y-113030000D01*
X152400000Y-113030000D02*
X152400000Y-111760000D01*
X144780000Y-93980000D02*
X144780000Y-92710000D01*
X144780000Y-92710000D02*
X152400000Y-92710000D01*
X152400000Y-92710000D02*
X152400000Y-93980000D01*
X132080000Y-111760000D02*
X132080000Y-113030000D01*
X132080000Y-113030000D02*
X139700000Y-113030000D01*
X139700000Y-113030000D02*
X139700000Y-111760000D01*
X132080000Y-93980000D02*
X132080000Y-92710000D01*
X132080000Y-92710000D02*
X139700000Y-92710000D01*
X139700000Y-92710000D02*
X139700000Y-93980000D01*
D13*
X136497000Y-92301000D02*
X135323000Y-92301000D01*
X136497000Y-90579000D02*
X135323000Y-90579000D01*
X149197000Y-92301000D02*
X148023000Y-92301000D01*
X149197000Y-90579000D02*
X148023000Y-90579000D01*
D11*
X146558095Y-111212381D02*
X146558095Y-112021905D01*
X146605714Y-112117143D01*
X146653333Y-112164762D01*
X146748571Y-112212381D01*
X146939048Y-112212381D01*
X147034286Y-112164762D01*
X147081905Y-112117143D01*
X147129524Y-112021905D01*
X147129524Y-111212381D01*
X147558095Y-111307619D02*
X147605714Y-111260000D01*
X147700952Y-111212381D01*
X147939048Y-111212381D01*
X148034286Y-111260000D01*
X148081905Y-111307619D01*
X148129524Y-111402857D01*
X148129524Y-111498095D01*
X148081905Y-111640952D01*
X147510476Y-112212381D01*
X148129524Y-112212381D01*
X133858095Y-111212381D02*
X133858095Y-112021905D01*
X133905714Y-112117143D01*
X133953333Y-112164762D01*
X134048571Y-112212381D01*
X134239048Y-112212381D01*
X134334286Y-112164762D01*
X134381905Y-112117143D01*
X134429524Y-112021905D01*
X134429524Y-111212381D01*
X135429524Y-112212381D02*
X134858095Y-112212381D01*
X135143809Y-112212381D02*
X135143809Y-111212381D01*
X135048571Y-111355238D01*
X134953333Y-111450476D01*
X134858095Y-111498095D01*
%LPC*%
D14*
X142240000Y-96520000D03*
D15*
X142240000Y-99060000D03*
X142240000Y-101600000D03*
X142240000Y-104140000D03*
X142240000Y-106680000D03*
X142240000Y-109220000D03*
X142240000Y-111760000D03*
D14*
X149860000Y-96520000D03*
D15*
X149860000Y-99060000D03*
X149860000Y-101600000D03*
X149860000Y-104140000D03*
X149860000Y-106680000D03*
X149860000Y-109220000D03*
X149860000Y-111760000D03*
D16*
X147320000Y-96520000D03*
X147320000Y-104140000D03*
D17*
X148590000Y-115570000D03*
D18*
X146050000Y-115570000D03*
X143510000Y-115570000D03*
X140970000Y-115570000D03*
X138430000Y-115570000D03*
X135890000Y-115570000D03*
D19*
X144780000Y-93980000D03*
X144780000Y-96520000D03*
X144780000Y-99060000D03*
X144780000Y-101600000D03*
X144780000Y-104140000D03*
X144780000Y-106680000D03*
X144780000Y-109220000D03*
X144780000Y-111760000D03*
X152400000Y-111760000D03*
X152400000Y-109220000D03*
X152400000Y-106680000D03*
X152400000Y-104140000D03*
X152400000Y-101600000D03*
X152400000Y-99060000D03*
X152400000Y-96520000D03*
X152400000Y-93980000D03*
X132080000Y-93980000D03*
X132080000Y-96520000D03*
X132080000Y-99060000D03*
X132080000Y-101600000D03*
X132080000Y-104140000D03*
X132080000Y-106680000D03*
X132080000Y-109220000D03*
X132080000Y-111760000D03*
X139700000Y-111760000D03*
X139700000Y-109220000D03*
X139700000Y-106680000D03*
X139700000Y-104140000D03*
X139700000Y-101600000D03*
X139700000Y-99060000D03*
X139700000Y-96520000D03*
X139700000Y-93980000D03*
D20*
X137160000Y-91440000D03*
X134660000Y-91440000D03*
X149860000Y-91440000D03*
X147360000Y-91440000D03*
M02*
