%TF.GenerationSoftware,KiCad,Pcbnew,5.1.6*%
%TF.CreationDate,2020-10-07T16:50:06+02:00*%
%TF.ProjectId,potmux,706f746d-7578-42e6-9b69-6361645f7063,2*%
%TF.SameCoordinates,Original*%
%TF.FileFunction,Copper,L1,Top*%
%TF.FilePolarity,Positive*%
%FSLAX46Y46*%
G04 Gerber Fmt 4.6, Leading zero omitted, Abs format (unit mm)*
G04 Created by KiCad (PCBNEW 5.1.6) date 2020-10-07 16:50:06*
%MOMM*%
%LPD*%
G01*
G04 APERTURE LIST*
%TA.AperFunction,ComponentPad*%
%ADD10R,2.032000X1.727200*%
%TD*%
%TA.AperFunction,ComponentPad*%
%ADD11O,2.032000X1.727200*%
%TD*%
%TA.AperFunction,ComponentPad*%
%ADD12C,1.397000*%
%TD*%
%TA.AperFunction,ComponentPad*%
%ADD13R,1.700000X1.700000*%
%TD*%
%TA.AperFunction,ComponentPad*%
%ADD14O,1.700000X1.700000*%
%TD*%
%TA.AperFunction,ComponentPad*%
%ADD15O,1.600000X1.600000*%
%TD*%
%TA.AperFunction,ComponentPad*%
%ADD16C,1.600000*%
%TD*%
%TA.AperFunction,ViaPad*%
%ADD17C,0.600000*%
%TD*%
%TA.AperFunction,Conductor*%
%ADD18C,0.381000*%
%TD*%
%TA.AperFunction,Conductor*%
%ADD19C,0.250000*%
%TD*%
%TA.AperFunction,Conductor*%
%ADD20C,0.025400*%
%TD*%
G04 APERTURE END LIST*
D10*
%TO.P,P1,1*%
%TO.N,/POTBX*%
X142240000Y-96520000D03*
D11*
%TO.P,P1,2*%
%TO.N,/POTX*%
X142240000Y-99060000D03*
%TO.P,P1,3*%
%TO.N,/POTY*%
X142240000Y-101600000D03*
%TO.P,P1,4*%
%TO.N,/POTBY*%
X142240000Y-104140000D03*
%TO.P,P1,5*%
%TO.N,/PA7*%
X142240000Y-106680000D03*
%TO.P,P1,6*%
%TO.N,/PA6*%
X142240000Y-109220000D03*
%TO.P,P1,7*%
%TO.N,GND*%
X142240000Y-111760000D03*
%TD*%
D10*
%TO.P,P3,1*%
%TO.N,VCC*%
X149860000Y-96520000D03*
D11*
%TO.P,P3,2*%
%TO.N,Net-(P3-Pad2)*%
X149860000Y-99060000D03*
%TO.P,P3,3*%
%TO.N,Net-(P3-Pad3)*%
X149860000Y-101600000D03*
%TO.P,P3,4*%
%TO.N,/POTAY*%
X149860000Y-104140000D03*
%TO.P,P3,5*%
%TO.N,Net-(P3-Pad5)*%
X149860000Y-106680000D03*
%TO.P,P3,6*%
%TO.N,Net-(P3-Pad6)*%
X149860000Y-109220000D03*
%TO.P,P3,7*%
%TO.N,/POTAX*%
X149860000Y-111760000D03*
%TD*%
D12*
%TO.P,R1,1*%
%TO.N,VCC*%
X147320000Y-96520000D03*
%TO.P,R1,2*%
%TO.N,/~EN*%
X147320000Y-104140000D03*
%TD*%
D13*
%TO.P,P4,1*%
%TO.N,GND*%
X148590000Y-115570000D03*
D14*
%TO.P,P4,2*%
%TO.N,/~EN*%
X146050000Y-115570000D03*
%TO.P,P4,3*%
%TO.N,/B2*%
X143510000Y-115570000D03*
%TO.P,P4,4*%
%TO.N,/B1*%
X140970000Y-115570000D03*
%TO.P,P4,5*%
%TO.N,/A2*%
X138430000Y-115570000D03*
%TO.P,P4,6*%
%TO.N,/A1*%
X135890000Y-115570000D03*
%TD*%
D15*
%TO.P,U2,1*%
%TO.N,/B2*%
X144780000Y-93980000D03*
%TO.P,U2,2*%
X144780000Y-96520000D03*
%TO.P,U2,3*%
%TO.N,/POTBY*%
X144780000Y-99060000D03*
%TO.P,U2,4*%
%TO.N,/POTY*%
X144780000Y-101600000D03*
%TO.P,U2,5*%
%TO.N,Net-(U2-Pad5)*%
X144780000Y-104140000D03*
%TO.P,U2,6*%
%TO.N,GND*%
X144780000Y-106680000D03*
%TO.P,U2,7*%
X144780000Y-109220000D03*
%TO.P,U2,8*%
X144780000Y-111760000D03*
%TO.P,U2,9*%
%TO.N,/PA7*%
X152400000Y-111760000D03*
%TO.P,U2,10*%
%TO.N,/~EN*%
X152400000Y-109220000D03*
%TO.P,U2,11*%
%TO.N,/POTX*%
X152400000Y-106680000D03*
%TO.P,U2,12*%
%TO.N,/B1*%
X152400000Y-104140000D03*
%TO.P,U2,13*%
%TO.N,/POTBX*%
X152400000Y-101600000D03*
%TO.P,U2,14*%
%TO.N,Net-(U2-Pad14)*%
X152400000Y-99060000D03*
%TO.P,U2,15*%
%TO.N,/B1*%
X152400000Y-96520000D03*
%TO.P,U2,16*%
%TO.N,VCC*%
X152400000Y-93980000D03*
%TD*%
%TO.P,U1,1*%
%TO.N,/A2*%
X132080000Y-93980000D03*
%TO.P,U1,2*%
X132080000Y-96520000D03*
%TO.P,U1,3*%
%TO.N,/POTAY*%
X132080000Y-99060000D03*
%TO.P,U1,4*%
%TO.N,/POTY*%
X132080000Y-101600000D03*
%TO.P,U1,5*%
%TO.N,Net-(U1-Pad5)*%
X132080000Y-104140000D03*
%TO.P,U1,6*%
%TO.N,GND*%
X132080000Y-106680000D03*
%TO.P,U1,7*%
X132080000Y-109220000D03*
%TO.P,U1,8*%
X132080000Y-111760000D03*
%TO.P,U1,9*%
%TO.N,/PA6*%
X139700000Y-111760000D03*
%TO.P,U1,10*%
%TO.N,/~EN*%
X139700000Y-109220000D03*
%TO.P,U1,11*%
%TO.N,/POTX*%
X139700000Y-106680000D03*
%TO.P,U1,12*%
%TO.N,/A1*%
X139700000Y-104140000D03*
%TO.P,U1,13*%
%TO.N,/POTAX*%
X139700000Y-101600000D03*
%TO.P,U1,14*%
%TO.N,Net-(U1-Pad14)*%
X139700000Y-99060000D03*
%TO.P,U1,15*%
%TO.N,/A1*%
X139700000Y-96520000D03*
%TO.P,U1,16*%
%TO.N,VCC*%
X139700000Y-93980000D03*
%TD*%
D16*
%TO.P,C1,1*%
%TO.N,VCC*%
X137160000Y-91440000D03*
%TO.P,C1,2*%
%TO.N,GND*%
X134660000Y-91440000D03*
%TD*%
%TO.P,C2,1*%
%TO.N,VCC*%
X149860000Y-91440000D03*
%TO.P,C2,2*%
%TO.N,GND*%
X147360000Y-91440000D03*
%TD*%
D17*
%TO.N,/B2*%
X134867800Y-111234500D03*
%TD*%
D18*
%TO.N,VCC*%
X149860000Y-96520000D02*
X152400000Y-93980000D01*
X152400000Y-93980000D02*
X149860000Y-91440000D01*
%TO.N,GND*%
X146000300Y-93980000D02*
X146000300Y-92660300D01*
X137160000Y-93940000D02*
X134660000Y-91440000D01*
X137160000Y-93980000D02*
X137160000Y-93940000D01*
X139700000Y-91440000D02*
X137160000Y-93980000D01*
X144780000Y-91440000D02*
X139700000Y-91440000D01*
X146000300Y-92660300D02*
X144780000Y-91440000D01*
X146000300Y-95250000D02*
X146000300Y-93980000D01*
X146000300Y-93980000D02*
X146000300Y-92799700D01*
X146000300Y-92799700D02*
X147360000Y-91440000D01*
X146000300Y-104140000D02*
X146000300Y-105459700D01*
X146000300Y-105459700D02*
X144780000Y-106680000D01*
X132080000Y-109220000D02*
X132080000Y-106680000D01*
X144780000Y-109220000D02*
X144780000Y-106680000D01*
X144780000Y-111760000D02*
X144780000Y-109220000D01*
X142240000Y-111760000D02*
X143646800Y-111760000D01*
X144780000Y-111760000D02*
X143646800Y-111760000D01*
X132080000Y-111760000D02*
X132080000Y-109220000D01*
X146000300Y-95250000D02*
X146000300Y-104140000D01*
D19*
%TO.N,/POTX*%
X140848900Y-102870000D02*
X140848900Y-100451100D01*
X140848900Y-102870000D02*
X140848900Y-105531100D01*
X140848900Y-105531100D02*
X139700000Y-106680000D01*
X140848900Y-100451100D02*
X142240000Y-99060000D01*
%TO.N,/POTBY*%
X143654700Y-101600000D02*
X143654700Y-102725300D01*
X143654700Y-102725300D02*
X142240000Y-104140000D01*
X143654700Y-101600000D02*
X143654700Y-100185300D01*
X143654700Y-100185300D02*
X144780000Y-99060000D01*
%TO.N,/PA6*%
X139700000Y-111760000D02*
X142240000Y-109220000D01*
%TO.N,/A1*%
X138049000Y-106172000D02*
X138049000Y-98171000D01*
X138049000Y-98171000D02*
X138176000Y-98044000D01*
X138049000Y-105791000D02*
X138049000Y-106172000D01*
X138049000Y-106172000D02*
X138049000Y-113411000D01*
X138049000Y-113411000D02*
X135890000Y-115570000D01*
X138049000Y-98171000D02*
X138176000Y-98044000D01*
X138176000Y-98044000D02*
X139700000Y-96520000D01*
X138049000Y-105791000D02*
X139700000Y-104140000D01*
%TO.N,/A2*%
X133655600Y-98939500D02*
X133655600Y-98095600D01*
X133655600Y-98095600D02*
X132080000Y-96520000D01*
X135890000Y-116745300D02*
X137254700Y-116745300D01*
X137254700Y-116745300D02*
X138430000Y-115570000D01*
X132080000Y-96520000D02*
X132080000Y-93980000D01*
X133655600Y-98939500D02*
X133655600Y-98939500D01*
X133655600Y-115016000D02*
X133655600Y-98939500D01*
X135384900Y-116745300D02*
X133655600Y-115016000D01*
X135890000Y-116745300D02*
X135384900Y-116745300D01*
%TO.N,/B1*%
X152400000Y-96520000D02*
X152400000Y-96647000D01*
X152400000Y-96647000D02*
X151257000Y-97790000D01*
X151257000Y-97790000D02*
X151257000Y-102997000D01*
X151257000Y-102997000D02*
X152400000Y-104140000D01*
X143510000Y-114394700D02*
X144458500Y-114394700D01*
X144458500Y-114394700D02*
X147096002Y-111757198D01*
X151130000Y-105410000D02*
X152400000Y-104140000D01*
X149226398Y-105410000D02*
X151130000Y-105410000D01*
X147096002Y-107540396D02*
X149226398Y-105410000D01*
X147096002Y-111757198D02*
X147096002Y-107540396D01*
X143510000Y-114394700D02*
X142145300Y-114394700D01*
X142145300Y-114394700D02*
X140970000Y-115570000D01*
X152400000Y-104140000D02*
X152400000Y-103627600D01*
%TO.N,/B2*%
X134867800Y-99742700D02*
X134867800Y-111234500D01*
X139281100Y-95329400D02*
X134867800Y-99742700D01*
X144780000Y-95329400D02*
X139281100Y-95329400D01*
X144780000Y-93980000D02*
X144780000Y-95329400D01*
X144780000Y-95329400D02*
X144780000Y-96520000D01*
%TO.N,/~EN*%
X150114000Y-113030000D02*
X148590000Y-113030000D01*
X148590000Y-113030000D02*
X146050000Y-115570000D01*
X150114000Y-113030000D02*
X150449500Y-113030000D01*
X150449500Y-113030000D02*
X151274700Y-112204800D01*
X151274700Y-112204800D02*
X151274700Y-111760000D01*
X151274700Y-110345300D02*
X152400000Y-109220000D01*
X151274700Y-111760000D02*
X151274700Y-110345300D01*
%TO.N,/POTAY*%
X142748000Y-113944698D02*
X140817302Y-113944698D01*
X140817302Y-113944698D02*
X139954000Y-114808000D01*
X143510000Y-113944698D02*
X142748000Y-113944698D01*
X139788600Y-115570000D02*
X139788600Y-114973400D01*
X133205300Y-101600000D02*
X133205300Y-115262600D01*
X133205300Y-115262600D02*
X135155100Y-117212400D01*
X135155100Y-117212400D02*
X138552900Y-117212400D01*
X138552900Y-117212400D02*
X139788600Y-115976700D01*
X139788600Y-115976700D02*
X139788600Y-115570000D01*
X133205300Y-100185300D02*
X132080000Y-99060000D01*
X133205300Y-101600000D02*
X133205300Y-100185300D01*
X139788600Y-114973400D02*
X139954000Y-114808000D01*
X146646000Y-111570802D02*
X146646000Y-107354000D01*
X144272104Y-113944698D02*
X146646000Y-111570802D01*
X143510000Y-113944698D02*
X144272104Y-113944698D01*
X146646000Y-107354000D02*
X149860000Y-104140000D01*
%TD*%
D20*
%TO.N,GND*%
G36*
X134001656Y-90440406D02*
G01*
X134660000Y-91098750D01*
X135318344Y-90440406D01*
X135271800Y-90333900D01*
X146748200Y-90333900D01*
X146701656Y-90440406D01*
X147360000Y-91098750D01*
X148018344Y-90440406D01*
X147971800Y-90333900D01*
X152391981Y-90333900D01*
X152614689Y-90355737D01*
X152821206Y-90418088D01*
X153011670Y-90519360D01*
X153178841Y-90655701D01*
X153316345Y-90821914D01*
X153418948Y-91011674D01*
X153482739Y-91217747D01*
X153506099Y-91440008D01*
X153506101Y-91440573D01*
X153506100Y-118101981D01*
X153484263Y-118324689D01*
X153421912Y-118531206D01*
X153320641Y-118721670D01*
X153184299Y-118888841D01*
X153018083Y-119026348D01*
X152828324Y-119128949D01*
X152622253Y-119192739D01*
X152399992Y-119216099D01*
X152399713Y-119216100D01*
X132088019Y-119216100D01*
X131865311Y-119194263D01*
X131658794Y-119131912D01*
X131468330Y-119030641D01*
X131301159Y-118894299D01*
X131163652Y-118728083D01*
X131061051Y-118538324D01*
X130997261Y-118332253D01*
X130973901Y-118109992D01*
X130973900Y-118109713D01*
X130973900Y-112470960D01*
X131021400Y-112549709D01*
X131195805Y-112741058D01*
X131404189Y-112894705D01*
X131638544Y-113004746D01*
X131838700Y-112928305D01*
X131838700Y-112001300D01*
X131818700Y-112001300D01*
X131818700Y-111518700D01*
X131838700Y-111518700D01*
X131838700Y-110591695D01*
X131638544Y-110515254D01*
X131404189Y-110625295D01*
X131195805Y-110778942D01*
X131021400Y-110970291D01*
X130973900Y-111049040D01*
X130973900Y-109930960D01*
X131021400Y-110009709D01*
X131195805Y-110201058D01*
X131404189Y-110354705D01*
X131638544Y-110464746D01*
X131838700Y-110388305D01*
X131838700Y-109461300D01*
X131818700Y-109461300D01*
X131818700Y-108978700D01*
X131838700Y-108978700D01*
X131838700Y-108051695D01*
X131638544Y-107975254D01*
X131404189Y-108085295D01*
X131195805Y-108238942D01*
X131021400Y-108430291D01*
X130973900Y-108509040D01*
X130973900Y-107390960D01*
X131021400Y-107469709D01*
X131195805Y-107661058D01*
X131404189Y-107814705D01*
X131638544Y-107924746D01*
X131838700Y-107848305D01*
X131838700Y-106921300D01*
X131818700Y-106921300D01*
X131818700Y-106438700D01*
X131838700Y-106438700D01*
X131838700Y-105511695D01*
X131638544Y-105435254D01*
X131404189Y-105545295D01*
X131195805Y-105698942D01*
X131021400Y-105890291D01*
X130973900Y-105969040D01*
X130973900Y-93880258D01*
X131067300Y-93880258D01*
X131067300Y-94079742D01*
X131106218Y-94275394D01*
X131182557Y-94459693D01*
X131293385Y-94625559D01*
X131434441Y-94766615D01*
X131600307Y-94877443D01*
X131742301Y-94936259D01*
X131742300Y-95563742D01*
X131600307Y-95622557D01*
X131434441Y-95733385D01*
X131293385Y-95874441D01*
X131182557Y-96040307D01*
X131106218Y-96224606D01*
X131067300Y-96420258D01*
X131067300Y-96619742D01*
X131106218Y-96815394D01*
X131182557Y-96999693D01*
X131293385Y-97165559D01*
X131434441Y-97306615D01*
X131600307Y-97417443D01*
X131784606Y-97493782D01*
X131980258Y-97532700D01*
X132179742Y-97532700D01*
X132375394Y-97493782D01*
X132517387Y-97434967D01*
X133317901Y-98235481D01*
X133317900Y-98922919D01*
X133316267Y-98939500D01*
X133317901Y-98956091D01*
X133317901Y-99820321D01*
X132994967Y-99497387D01*
X133053782Y-99355394D01*
X133092700Y-99159742D01*
X133092700Y-98960258D01*
X133053782Y-98764606D01*
X132977443Y-98580307D01*
X132866615Y-98414441D01*
X132725559Y-98273385D01*
X132559693Y-98162557D01*
X132375394Y-98086218D01*
X132179742Y-98047300D01*
X131980258Y-98047300D01*
X131784606Y-98086218D01*
X131600307Y-98162557D01*
X131434441Y-98273385D01*
X131293385Y-98414441D01*
X131182557Y-98580307D01*
X131106218Y-98764606D01*
X131067300Y-98960258D01*
X131067300Y-99159742D01*
X131106218Y-99355394D01*
X131182557Y-99539693D01*
X131293385Y-99705559D01*
X131434441Y-99846615D01*
X131600307Y-99957443D01*
X131784606Y-100033782D01*
X131980258Y-100072700D01*
X132179742Y-100072700D01*
X132375394Y-100033782D01*
X132517387Y-99974967D01*
X132867601Y-100325181D01*
X132867600Y-100955916D01*
X132866615Y-100954441D01*
X132725559Y-100813385D01*
X132559693Y-100702557D01*
X132375394Y-100626218D01*
X132179742Y-100587300D01*
X131980258Y-100587300D01*
X131784606Y-100626218D01*
X131600307Y-100702557D01*
X131434441Y-100813385D01*
X131293385Y-100954441D01*
X131182557Y-101120307D01*
X131106218Y-101304606D01*
X131067300Y-101500258D01*
X131067300Y-101699742D01*
X131106218Y-101895394D01*
X131182557Y-102079693D01*
X131293385Y-102245559D01*
X131434441Y-102386615D01*
X131600307Y-102497443D01*
X131784606Y-102573782D01*
X131980258Y-102612700D01*
X132179742Y-102612700D01*
X132375394Y-102573782D01*
X132559693Y-102497443D01*
X132725559Y-102386615D01*
X132866615Y-102245559D01*
X132867600Y-102244085D01*
X132867600Y-103495915D01*
X132866615Y-103494441D01*
X132725559Y-103353385D01*
X132559693Y-103242557D01*
X132375394Y-103166218D01*
X132179742Y-103127300D01*
X131980258Y-103127300D01*
X131784606Y-103166218D01*
X131600307Y-103242557D01*
X131434441Y-103353385D01*
X131293385Y-103494441D01*
X131182557Y-103660307D01*
X131106218Y-103844606D01*
X131067300Y-104040258D01*
X131067300Y-104239742D01*
X131106218Y-104435394D01*
X131182557Y-104619693D01*
X131293385Y-104785559D01*
X131434441Y-104926615D01*
X131600307Y-105037443D01*
X131784606Y-105113782D01*
X131980258Y-105152700D01*
X132179742Y-105152700D01*
X132375394Y-105113782D01*
X132559693Y-105037443D01*
X132725559Y-104926615D01*
X132866615Y-104785559D01*
X132867600Y-104784084D01*
X132867600Y-105627720D01*
X132755811Y-105545295D01*
X132521456Y-105435254D01*
X132321300Y-105511695D01*
X132321300Y-106438700D01*
X132341300Y-106438700D01*
X132341300Y-106921300D01*
X132321300Y-106921300D01*
X132321300Y-107848305D01*
X132521456Y-107924746D01*
X132755811Y-107814705D01*
X132867600Y-107732280D01*
X132867600Y-108167720D01*
X132755811Y-108085295D01*
X132521456Y-107975254D01*
X132321300Y-108051695D01*
X132321300Y-108978700D01*
X132341300Y-108978700D01*
X132341300Y-109461300D01*
X132321300Y-109461300D01*
X132321300Y-110388305D01*
X132521456Y-110464746D01*
X132755811Y-110354705D01*
X132867601Y-110272280D01*
X132867601Y-110707720D01*
X132755811Y-110625295D01*
X132521456Y-110515254D01*
X132321300Y-110591695D01*
X132321300Y-111518700D01*
X132341300Y-111518700D01*
X132341300Y-112001300D01*
X132321300Y-112001300D01*
X132321300Y-112928305D01*
X132521456Y-113004746D01*
X132755811Y-112894705D01*
X132867601Y-112812279D01*
X132867601Y-115246012D01*
X132865967Y-115262600D01*
X132870263Y-115306212D01*
X132872488Y-115328801D01*
X132888467Y-115381477D01*
X132891798Y-115392457D01*
X132923155Y-115451123D01*
X132951750Y-115485965D01*
X132965356Y-115502545D01*
X132978237Y-115513116D01*
X134904584Y-117439464D01*
X134915155Y-117452345D01*
X134928034Y-117462914D01*
X134966577Y-117494545D01*
X135025242Y-117525903D01*
X135040058Y-117530397D01*
X135088899Y-117545213D01*
X135138519Y-117550100D01*
X135138522Y-117550100D01*
X135155100Y-117551733D01*
X135171678Y-117550100D01*
X138536322Y-117550100D01*
X138552900Y-117551733D01*
X138569478Y-117550100D01*
X138569481Y-117550100D01*
X138619101Y-117545213D01*
X138682757Y-117525903D01*
X138741423Y-117494545D01*
X138792845Y-117452345D01*
X138803420Y-117439459D01*
X140015669Y-116227211D01*
X140028544Y-116216645D01*
X140070745Y-116165223D01*
X140070746Y-116165222D01*
X140079132Y-116149532D01*
X140144547Y-116247432D01*
X140292568Y-116395453D01*
X140466623Y-116511753D01*
X140660022Y-116591861D01*
X140865333Y-116632700D01*
X141074667Y-116632700D01*
X141279978Y-116591861D01*
X141473377Y-116511753D01*
X141647432Y-116395453D01*
X141795453Y-116247432D01*
X141911753Y-116073377D01*
X141991861Y-115879978D01*
X142032700Y-115674667D01*
X142032700Y-115465333D01*
X141991861Y-115260022D01*
X141923235Y-115094344D01*
X142285180Y-114732400D01*
X142850747Y-114732400D01*
X142832568Y-114744547D01*
X142684547Y-114892568D01*
X142568247Y-115066623D01*
X142488139Y-115260022D01*
X142447300Y-115465333D01*
X142447300Y-115674667D01*
X142488139Y-115879978D01*
X142568247Y-116073377D01*
X142684547Y-116247432D01*
X142832568Y-116395453D01*
X143006623Y-116511753D01*
X143200022Y-116591861D01*
X143405333Y-116632700D01*
X143614667Y-116632700D01*
X143819978Y-116591861D01*
X144013377Y-116511753D01*
X144187432Y-116395453D01*
X144335453Y-116247432D01*
X144451753Y-116073377D01*
X144531861Y-115879978D01*
X144572700Y-115674667D01*
X144572700Y-115465333D01*
X144987300Y-115465333D01*
X144987300Y-115674667D01*
X145028139Y-115879978D01*
X145108247Y-116073377D01*
X145224547Y-116247432D01*
X145372568Y-116395453D01*
X145546623Y-116511753D01*
X145740022Y-116591861D01*
X145945333Y-116632700D01*
X146154667Y-116632700D01*
X146359978Y-116591861D01*
X146553377Y-116511753D01*
X146690694Y-116420000D01*
X147216781Y-116420000D01*
X147226835Y-116522075D01*
X147256609Y-116620227D01*
X147304959Y-116710685D01*
X147370028Y-116789972D01*
X147449315Y-116855041D01*
X147539773Y-116903391D01*
X147637925Y-116933165D01*
X147740000Y-116943219D01*
X148218525Y-116940700D01*
X148348700Y-116810525D01*
X148348700Y-115811300D01*
X148831300Y-115811300D01*
X148831300Y-116810525D01*
X148961475Y-116940700D01*
X149440000Y-116943219D01*
X149542075Y-116933165D01*
X149640227Y-116903391D01*
X149730685Y-116855041D01*
X149809972Y-116789972D01*
X149875041Y-116710685D01*
X149923391Y-116620227D01*
X149953165Y-116522075D01*
X149963219Y-116420000D01*
X149960700Y-115941475D01*
X149830525Y-115811300D01*
X148831300Y-115811300D01*
X148348700Y-115811300D01*
X147349475Y-115811300D01*
X147219300Y-115941475D01*
X147216781Y-116420000D01*
X146690694Y-116420000D01*
X146727432Y-116395453D01*
X146875453Y-116247432D01*
X146991753Y-116073377D01*
X147071861Y-115879978D01*
X147112700Y-115674667D01*
X147112700Y-115465333D01*
X147071861Y-115260022D01*
X147003235Y-115094344D01*
X147217623Y-114879956D01*
X147219300Y-115198525D01*
X147349475Y-115328700D01*
X148348700Y-115328700D01*
X148348700Y-114329475D01*
X148831300Y-114329475D01*
X148831300Y-115328700D01*
X149830525Y-115328700D01*
X149960700Y-115198525D01*
X149963219Y-114720000D01*
X149953165Y-114617925D01*
X149923391Y-114519773D01*
X149875041Y-114429315D01*
X149809972Y-114350028D01*
X149730685Y-114284959D01*
X149640227Y-114236609D01*
X149542075Y-114206835D01*
X149440000Y-114196781D01*
X148961475Y-114199300D01*
X148831300Y-114329475D01*
X148348700Y-114329475D01*
X148218525Y-114199300D01*
X147899957Y-114197623D01*
X148729880Y-113367700D01*
X150432922Y-113367700D01*
X150449500Y-113369333D01*
X150466078Y-113367700D01*
X150466081Y-113367700D01*
X150515701Y-113362813D01*
X150579357Y-113343503D01*
X150638023Y-113312145D01*
X150689445Y-113269945D01*
X150700020Y-113257059D01*
X151501769Y-112455311D01*
X151514644Y-112444745D01*
X151525214Y-112431866D01*
X151556845Y-112393324D01*
X151578340Y-112353110D01*
X151613385Y-112405559D01*
X151754441Y-112546615D01*
X151920307Y-112657443D01*
X152104606Y-112733782D01*
X152300258Y-112772700D01*
X152499742Y-112772700D01*
X152695394Y-112733782D01*
X152879693Y-112657443D01*
X153045559Y-112546615D01*
X153186615Y-112405559D01*
X153297443Y-112239693D01*
X153373782Y-112055394D01*
X153412700Y-111859742D01*
X153412700Y-111660258D01*
X153373782Y-111464606D01*
X153297443Y-111280307D01*
X153186615Y-111114441D01*
X153045559Y-110973385D01*
X152879693Y-110862557D01*
X152695394Y-110786218D01*
X152499742Y-110747300D01*
X152300258Y-110747300D01*
X152104606Y-110786218D01*
X151920307Y-110862557D01*
X151754441Y-110973385D01*
X151613385Y-111114441D01*
X151612400Y-111115915D01*
X151612400Y-110485179D01*
X151962613Y-110134967D01*
X152104606Y-110193782D01*
X152300258Y-110232700D01*
X152499742Y-110232700D01*
X152695394Y-110193782D01*
X152879693Y-110117443D01*
X153045559Y-110006615D01*
X153186615Y-109865559D01*
X153297443Y-109699693D01*
X153373782Y-109515394D01*
X153412700Y-109319742D01*
X153412700Y-109120258D01*
X153373782Y-108924606D01*
X153297443Y-108740307D01*
X153186615Y-108574441D01*
X153045559Y-108433385D01*
X152879693Y-108322557D01*
X152695394Y-108246218D01*
X152499742Y-108207300D01*
X152300258Y-108207300D01*
X152104606Y-108246218D01*
X151920307Y-108322557D01*
X151754441Y-108433385D01*
X151613385Y-108574441D01*
X151502557Y-108740307D01*
X151426218Y-108924606D01*
X151387300Y-109120258D01*
X151387300Y-109319742D01*
X151426218Y-109515394D01*
X151485033Y-109657387D01*
X151047636Y-110094785D01*
X151034756Y-110105355D01*
X151024186Y-110118235D01*
X150992555Y-110156777D01*
X150961198Y-110215443D01*
X150941888Y-110279100D01*
X150935367Y-110345300D01*
X150937001Y-110361888D01*
X150937000Y-111206593D01*
X150911640Y-111159147D01*
X150777141Y-110995259D01*
X150613253Y-110860760D01*
X150426275Y-110760818D01*
X150223392Y-110699274D01*
X150065267Y-110683700D01*
X149654733Y-110683700D01*
X149496608Y-110699274D01*
X149293725Y-110760818D01*
X149106747Y-110860760D01*
X148942859Y-110995259D01*
X148808360Y-111159147D01*
X148708418Y-111346125D01*
X148646874Y-111549008D01*
X148626093Y-111760000D01*
X148646874Y-111970992D01*
X148708418Y-112173875D01*
X148808360Y-112360853D01*
X148942859Y-112524741D01*
X149106747Y-112659240D01*
X149168598Y-112692300D01*
X148606577Y-112692300D01*
X148589999Y-112690667D01*
X148573421Y-112692300D01*
X148573419Y-112692300D01*
X148523799Y-112697187D01*
X148460143Y-112716497D01*
X148432834Y-112731094D01*
X148401476Y-112747855D01*
X148372882Y-112771322D01*
X148350055Y-112790055D01*
X148339485Y-112802935D01*
X146525656Y-114616765D01*
X146359978Y-114548139D01*
X146154667Y-114507300D01*
X145945333Y-114507300D01*
X145740022Y-114548139D01*
X145546623Y-114628247D01*
X145372568Y-114744547D01*
X145224547Y-114892568D01*
X145108247Y-115066623D01*
X145028139Y-115260022D01*
X144987300Y-115465333D01*
X144572700Y-115465333D01*
X144531861Y-115260022D01*
X144451753Y-115066623D01*
X144335453Y-114892568D01*
X144187432Y-114744547D01*
X144169253Y-114732400D01*
X144441922Y-114732400D01*
X144458500Y-114734033D01*
X144475078Y-114732400D01*
X144475081Y-114732400D01*
X144524701Y-114727513D01*
X144588357Y-114708203D01*
X144647023Y-114676845D01*
X144698445Y-114634645D01*
X144709020Y-114621759D01*
X147323071Y-112007709D01*
X147335946Y-111997143D01*
X147357408Y-111970992D01*
X147378147Y-111945722D01*
X147408007Y-111889857D01*
X147409505Y-111887055D01*
X147428815Y-111823399D01*
X147433702Y-111773779D01*
X147433702Y-111773777D01*
X147435335Y-111757199D01*
X147433702Y-111740621D01*
X147433702Y-109220000D01*
X148626093Y-109220000D01*
X148646874Y-109430992D01*
X148708418Y-109633875D01*
X148808360Y-109820853D01*
X148942859Y-109984741D01*
X149106747Y-110119240D01*
X149293725Y-110219182D01*
X149496608Y-110280726D01*
X149654733Y-110296300D01*
X150065267Y-110296300D01*
X150223392Y-110280726D01*
X150426275Y-110219182D01*
X150613253Y-110119240D01*
X150777141Y-109984741D01*
X150911640Y-109820853D01*
X151011582Y-109633875D01*
X151073126Y-109430992D01*
X151093907Y-109220000D01*
X151073126Y-109009008D01*
X151011582Y-108806125D01*
X150911640Y-108619147D01*
X150777141Y-108455259D01*
X150613253Y-108320760D01*
X150426275Y-108220818D01*
X150223392Y-108159274D01*
X150065267Y-108143700D01*
X149654733Y-108143700D01*
X149496608Y-108159274D01*
X149293725Y-108220818D01*
X149106747Y-108320760D01*
X148942859Y-108455259D01*
X148808360Y-108619147D01*
X148708418Y-108806125D01*
X148646874Y-109009008D01*
X148626093Y-109220000D01*
X147433702Y-109220000D01*
X147433702Y-107680275D01*
X148647703Y-106466274D01*
X148646874Y-106469008D01*
X148626093Y-106680000D01*
X148646874Y-106890992D01*
X148708418Y-107093875D01*
X148808360Y-107280853D01*
X148942859Y-107444741D01*
X149106747Y-107579240D01*
X149293725Y-107679182D01*
X149496608Y-107740726D01*
X149654733Y-107756300D01*
X150065267Y-107756300D01*
X150223392Y-107740726D01*
X150426275Y-107679182D01*
X150613253Y-107579240D01*
X150777141Y-107444741D01*
X150911640Y-107280853D01*
X151011582Y-107093875D01*
X151073126Y-106890992D01*
X151093907Y-106680000D01*
X151084084Y-106580258D01*
X151387300Y-106580258D01*
X151387300Y-106779742D01*
X151426218Y-106975394D01*
X151502557Y-107159693D01*
X151613385Y-107325559D01*
X151754441Y-107466615D01*
X151920307Y-107577443D01*
X152104606Y-107653782D01*
X152300258Y-107692700D01*
X152499742Y-107692700D01*
X152695394Y-107653782D01*
X152879693Y-107577443D01*
X153045559Y-107466615D01*
X153186615Y-107325559D01*
X153297443Y-107159693D01*
X153373782Y-106975394D01*
X153412700Y-106779742D01*
X153412700Y-106580258D01*
X153373782Y-106384606D01*
X153297443Y-106200307D01*
X153186615Y-106034441D01*
X153045559Y-105893385D01*
X152879693Y-105782557D01*
X152695394Y-105706218D01*
X152499742Y-105667300D01*
X152300258Y-105667300D01*
X152104606Y-105706218D01*
X151920307Y-105782557D01*
X151754441Y-105893385D01*
X151613385Y-106034441D01*
X151502557Y-106200307D01*
X151426218Y-106384606D01*
X151387300Y-106580258D01*
X151084084Y-106580258D01*
X151073126Y-106469008D01*
X151011582Y-106266125D01*
X150911640Y-106079147D01*
X150777141Y-105915259D01*
X150613253Y-105780760D01*
X150551402Y-105747700D01*
X151113422Y-105747700D01*
X151130000Y-105749333D01*
X151146578Y-105747700D01*
X151146581Y-105747700D01*
X151196201Y-105742813D01*
X151259857Y-105723503D01*
X151318523Y-105692145D01*
X151369945Y-105649945D01*
X151380520Y-105637059D01*
X151962613Y-105054967D01*
X152104606Y-105113782D01*
X152300258Y-105152700D01*
X152499742Y-105152700D01*
X152695394Y-105113782D01*
X152879693Y-105037443D01*
X153045559Y-104926615D01*
X153186615Y-104785559D01*
X153297443Y-104619693D01*
X153373782Y-104435394D01*
X153412700Y-104239742D01*
X153412700Y-104040258D01*
X153373782Y-103844606D01*
X153297443Y-103660307D01*
X153186615Y-103494441D01*
X153045559Y-103353385D01*
X152879693Y-103242557D01*
X152695394Y-103166218D01*
X152499742Y-103127300D01*
X152300258Y-103127300D01*
X152104606Y-103166218D01*
X151962613Y-103225033D01*
X151594700Y-102857121D01*
X151594700Y-102217595D01*
X151613385Y-102245559D01*
X151754441Y-102386615D01*
X151920307Y-102497443D01*
X152104606Y-102573782D01*
X152300258Y-102612700D01*
X152499742Y-102612700D01*
X152695394Y-102573782D01*
X152879693Y-102497443D01*
X153045559Y-102386615D01*
X153186615Y-102245559D01*
X153297443Y-102079693D01*
X153373782Y-101895394D01*
X153412700Y-101699742D01*
X153412700Y-101500258D01*
X153373782Y-101304606D01*
X153297443Y-101120307D01*
X153186615Y-100954441D01*
X153045559Y-100813385D01*
X152879693Y-100702557D01*
X152695394Y-100626218D01*
X152499742Y-100587300D01*
X152300258Y-100587300D01*
X152104606Y-100626218D01*
X151920307Y-100702557D01*
X151754441Y-100813385D01*
X151613385Y-100954441D01*
X151594700Y-100982405D01*
X151594700Y-99677595D01*
X151613385Y-99705559D01*
X151754441Y-99846615D01*
X151920307Y-99957443D01*
X152104606Y-100033782D01*
X152300258Y-100072700D01*
X152499742Y-100072700D01*
X152695394Y-100033782D01*
X152879693Y-99957443D01*
X153045559Y-99846615D01*
X153186615Y-99705559D01*
X153297443Y-99539693D01*
X153373782Y-99355394D01*
X153412700Y-99159742D01*
X153412700Y-98960258D01*
X153373782Y-98764606D01*
X153297443Y-98580307D01*
X153186615Y-98414441D01*
X153045559Y-98273385D01*
X152879693Y-98162557D01*
X152695394Y-98086218D01*
X152499742Y-98047300D01*
X152300258Y-98047300D01*
X152104606Y-98086218D01*
X151920307Y-98162557D01*
X151754441Y-98273385D01*
X151613385Y-98414441D01*
X151594700Y-98442405D01*
X151594700Y-97929879D01*
X152052415Y-97472164D01*
X152104606Y-97493782D01*
X152300258Y-97532700D01*
X152499742Y-97532700D01*
X152695394Y-97493782D01*
X152879693Y-97417443D01*
X153045559Y-97306615D01*
X153186615Y-97165559D01*
X153297443Y-96999693D01*
X153373782Y-96815394D01*
X153412700Y-96619742D01*
X153412700Y-96420258D01*
X153373782Y-96224606D01*
X153297443Y-96040307D01*
X153186615Y-95874441D01*
X153045559Y-95733385D01*
X152879693Y-95622557D01*
X152695394Y-95546218D01*
X152499742Y-95507300D01*
X152300258Y-95507300D01*
X152104606Y-95546218D01*
X151920307Y-95622557D01*
X151754441Y-95733385D01*
X151613385Y-95874441D01*
X151502557Y-96040307D01*
X151426218Y-96224606D01*
X151387300Y-96420258D01*
X151387300Y-96619742D01*
X151426218Y-96815394D01*
X151502557Y-96999693D01*
X151529462Y-97039959D01*
X151029937Y-97539484D01*
X151017055Y-97550056D01*
X151006486Y-97562935D01*
X150974855Y-97601477D01*
X150958094Y-97632835D01*
X150943497Y-97660144D01*
X150924187Y-97723800D01*
X150919300Y-97773419D01*
X150917667Y-97790000D01*
X150919300Y-97806578D01*
X150919300Y-98473478D01*
X150911640Y-98459147D01*
X150777141Y-98295259D01*
X150613253Y-98160760D01*
X150426275Y-98060818D01*
X150223392Y-97999274D01*
X150065267Y-97983700D01*
X149654733Y-97983700D01*
X149496608Y-97999274D01*
X149293725Y-98060818D01*
X149106747Y-98160760D01*
X148942859Y-98295259D01*
X148808360Y-98459147D01*
X148708418Y-98646125D01*
X148646874Y-98849008D01*
X148626093Y-99060000D01*
X148646874Y-99270992D01*
X148708418Y-99473875D01*
X148808360Y-99660853D01*
X148942859Y-99824741D01*
X149106747Y-99959240D01*
X149293725Y-100059182D01*
X149496608Y-100120726D01*
X149654733Y-100136300D01*
X150065267Y-100136300D01*
X150223392Y-100120726D01*
X150426275Y-100059182D01*
X150613253Y-99959240D01*
X150777141Y-99824741D01*
X150911640Y-99660853D01*
X150919300Y-99646522D01*
X150919301Y-101013479D01*
X150911640Y-100999147D01*
X150777141Y-100835259D01*
X150613253Y-100700760D01*
X150426275Y-100600818D01*
X150223392Y-100539274D01*
X150065267Y-100523700D01*
X149654733Y-100523700D01*
X149496608Y-100539274D01*
X149293725Y-100600818D01*
X149106747Y-100700760D01*
X148942859Y-100835259D01*
X148808360Y-100999147D01*
X148708418Y-101186125D01*
X148646874Y-101389008D01*
X148626093Y-101600000D01*
X148646874Y-101810992D01*
X148708418Y-102013875D01*
X148808360Y-102200853D01*
X148942859Y-102364741D01*
X149106747Y-102499240D01*
X149293725Y-102599182D01*
X149496608Y-102660726D01*
X149654733Y-102676300D01*
X150065267Y-102676300D01*
X150223392Y-102660726D01*
X150426275Y-102599182D01*
X150613253Y-102499240D01*
X150777141Y-102364741D01*
X150911640Y-102200853D01*
X150919301Y-102186521D01*
X150919301Y-102980412D01*
X150917667Y-102997000D01*
X150921785Y-103038803D01*
X150924188Y-103063201D01*
X150938368Y-103109945D01*
X150943498Y-103126857D01*
X150974855Y-103185523D01*
X150989045Y-103202813D01*
X151017056Y-103236945D01*
X151029936Y-103247516D01*
X151485033Y-103702613D01*
X151426218Y-103844606D01*
X151387300Y-104040258D01*
X151387300Y-104239742D01*
X151426218Y-104435394D01*
X151485033Y-104577387D01*
X150990121Y-105072300D01*
X150551402Y-105072300D01*
X150613253Y-105039240D01*
X150777141Y-104904741D01*
X150911640Y-104740853D01*
X151011582Y-104553875D01*
X151073126Y-104350992D01*
X151093907Y-104140000D01*
X151073126Y-103929008D01*
X151011582Y-103726125D01*
X150911640Y-103539147D01*
X150777141Y-103375259D01*
X150613253Y-103240760D01*
X150426275Y-103140818D01*
X150223392Y-103079274D01*
X150065267Y-103063700D01*
X149654733Y-103063700D01*
X149496608Y-103079274D01*
X149293725Y-103140818D01*
X149106747Y-103240760D01*
X148942859Y-103375259D01*
X148808360Y-103539147D01*
X148708418Y-103726125D01*
X148646874Y-103929008D01*
X148626093Y-104140000D01*
X148646874Y-104350992D01*
X148708418Y-104553875D01*
X148799027Y-104723393D01*
X146418937Y-107103484D01*
X146406056Y-107114055D01*
X146395486Y-107126935D01*
X146363855Y-107165477D01*
X146332498Y-107224143D01*
X146322152Y-107258251D01*
X146313188Y-107287800D01*
X146306667Y-107354000D01*
X146308301Y-107370588D01*
X146308300Y-111430922D01*
X146100700Y-111638522D01*
X146100700Y-111518698D01*
X145945816Y-111518698D01*
X146024735Y-111318546D01*
X145972324Y-111191988D01*
X145838600Y-110970291D01*
X145664195Y-110778942D01*
X145455811Y-110625295D01*
X145221456Y-110515254D01*
X145021300Y-110591695D01*
X145021300Y-111518700D01*
X145041300Y-111518700D01*
X145041300Y-112001300D01*
X145021300Y-112001300D01*
X145021300Y-112021300D01*
X144538700Y-112021300D01*
X144538700Y-112001300D01*
X142481300Y-112001300D01*
X142481300Y-113006359D01*
X142695543Y-113105680D01*
X142952247Y-113020683D01*
X143187437Y-112887239D01*
X143392074Y-112710475D01*
X143558294Y-112497185D01*
X143618023Y-112378323D01*
X143721400Y-112549709D01*
X143895805Y-112741058D01*
X144104189Y-112894705D01*
X144338544Y-113004746D01*
X144538698Y-112928306D01*
X144538698Y-113080700D01*
X144658523Y-113080700D01*
X144132225Y-113606998D01*
X140833879Y-113606998D01*
X140817301Y-113605365D01*
X140800723Y-113606998D01*
X140800721Y-113606998D01*
X140751101Y-113611885D01*
X140687445Y-113631195D01*
X140660136Y-113645792D01*
X140628778Y-113662553D01*
X140600184Y-113686020D01*
X140577357Y-113704753D01*
X140566787Y-113717633D01*
X139726935Y-114557486D01*
X139561537Y-114722884D01*
X139548656Y-114733455D01*
X139538086Y-114746335D01*
X139506455Y-114784877D01*
X139475098Y-114843543D01*
X139460227Y-114892568D01*
X139455788Y-114907200D01*
X139449267Y-114973400D01*
X139450901Y-114989988D01*
X139450901Y-115257703D01*
X139371753Y-115066623D01*
X139255453Y-114892568D01*
X139107432Y-114744547D01*
X138933377Y-114628247D01*
X138739978Y-114548139D01*
X138534667Y-114507300D01*
X138325333Y-114507300D01*
X138120022Y-114548139D01*
X137926623Y-114628247D01*
X137752568Y-114744547D01*
X137604547Y-114892568D01*
X137488247Y-115066623D01*
X137408139Y-115260022D01*
X137367300Y-115465333D01*
X137367300Y-115674667D01*
X137408139Y-115879978D01*
X137476765Y-116045656D01*
X137114821Y-116407600D01*
X136549253Y-116407600D01*
X136567432Y-116395453D01*
X136715453Y-116247432D01*
X136831753Y-116073377D01*
X136911861Y-115879978D01*
X136952700Y-115674667D01*
X136952700Y-115465333D01*
X136911861Y-115260022D01*
X136843235Y-115094344D01*
X138276064Y-113661516D01*
X138288945Y-113650945D01*
X138307678Y-113628118D01*
X138331145Y-113599524D01*
X138362502Y-113540858D01*
X138362503Y-113540857D01*
X138381813Y-113477201D01*
X138386700Y-113427581D01*
X138386700Y-113427579D01*
X138388333Y-113411001D01*
X138386700Y-113394423D01*
X138386700Y-111660258D01*
X138687300Y-111660258D01*
X138687300Y-111859742D01*
X138726218Y-112055394D01*
X138802557Y-112239693D01*
X138913385Y-112405559D01*
X139054441Y-112546615D01*
X139220307Y-112657443D01*
X139404606Y-112733782D01*
X139600258Y-112772700D01*
X139799742Y-112772700D01*
X139995394Y-112733782D01*
X140179693Y-112657443D01*
X140345559Y-112546615D01*
X140486615Y-112405559D01*
X140597443Y-112239693D01*
X140673782Y-112055394D01*
X140703300Y-111906999D01*
X140703300Y-112001302D01*
X140856907Y-112001302D01*
X140779023Y-112211566D01*
X140800291Y-112255566D01*
X140921706Y-112497185D01*
X141087926Y-112710475D01*
X141292563Y-112887239D01*
X141527753Y-113020683D01*
X141784457Y-113105680D01*
X141998700Y-113006359D01*
X141998700Y-112001300D01*
X141978700Y-112001300D01*
X141978700Y-111518700D01*
X141998700Y-111518700D01*
X141998700Y-110513641D01*
X142481300Y-110513641D01*
X142481300Y-111518700D01*
X144538700Y-111518700D01*
X144538700Y-110591695D01*
X144338544Y-110515254D01*
X144104189Y-110625295D01*
X143895805Y-110778942D01*
X143721400Y-110970291D01*
X143618023Y-111141677D01*
X143558294Y-111022815D01*
X143392074Y-110809525D01*
X143187437Y-110632761D01*
X142952247Y-110499317D01*
X142695543Y-110414320D01*
X142481300Y-110513641D01*
X141998700Y-110513641D01*
X141784457Y-110414320D01*
X141527753Y-110499317D01*
X141320892Y-110616687D01*
X141708000Y-110229579D01*
X141876608Y-110280726D01*
X142034733Y-110296300D01*
X142445267Y-110296300D01*
X142603392Y-110280726D01*
X142806275Y-110219182D01*
X142993253Y-110119240D01*
X143157141Y-109984741D01*
X143291640Y-109820853D01*
X143391582Y-109633875D01*
X143453126Y-109430992D01*
X143459300Y-109368307D01*
X143459300Y-109461302D01*
X143614184Y-109461302D01*
X143535265Y-109661454D01*
X143587676Y-109788012D01*
X143721400Y-110009709D01*
X143895805Y-110201058D01*
X144104189Y-110354705D01*
X144338544Y-110464746D01*
X144538700Y-110388305D01*
X144538700Y-109461300D01*
X145021300Y-109461300D01*
X145021300Y-110388305D01*
X145221456Y-110464746D01*
X145455811Y-110354705D01*
X145664195Y-110201058D01*
X145838600Y-110009709D01*
X145972324Y-109788012D01*
X146024735Y-109661454D01*
X145945815Y-109461300D01*
X145021300Y-109461300D01*
X144538700Y-109461300D01*
X144518700Y-109461300D01*
X144518700Y-108978700D01*
X144538700Y-108978700D01*
X144538700Y-108051695D01*
X145021300Y-108051695D01*
X145021300Y-108978700D01*
X145945815Y-108978700D01*
X146024735Y-108778546D01*
X145972324Y-108651988D01*
X145838600Y-108430291D01*
X145664195Y-108238942D01*
X145455811Y-108085295D01*
X145221456Y-107975254D01*
X145021300Y-108051695D01*
X144538700Y-108051695D01*
X144338544Y-107975254D01*
X144104189Y-108085295D01*
X143895805Y-108238942D01*
X143721400Y-108430291D01*
X143587676Y-108651988D01*
X143535265Y-108778546D01*
X143614184Y-108978698D01*
X143459300Y-108978698D01*
X143459300Y-109071693D01*
X143453126Y-109009008D01*
X143391582Y-108806125D01*
X143291640Y-108619147D01*
X143157141Y-108455259D01*
X142993253Y-108320760D01*
X142806275Y-108220818D01*
X142603392Y-108159274D01*
X142445267Y-108143700D01*
X142034733Y-108143700D01*
X141876608Y-108159274D01*
X141673725Y-108220818D01*
X141486747Y-108320760D01*
X141322859Y-108455259D01*
X141188360Y-108619147D01*
X141088418Y-108806125D01*
X141026874Y-109009008D01*
X141006093Y-109220000D01*
X141026874Y-109430992D01*
X141088418Y-109633875D01*
X141179027Y-109803393D01*
X140137387Y-110845033D01*
X139995394Y-110786218D01*
X139799742Y-110747300D01*
X139600258Y-110747300D01*
X139404606Y-110786218D01*
X139220307Y-110862557D01*
X139054441Y-110973385D01*
X138913385Y-111114441D01*
X138802557Y-111280307D01*
X138726218Y-111464606D01*
X138687300Y-111660258D01*
X138386700Y-111660258D01*
X138386700Y-109120258D01*
X138687300Y-109120258D01*
X138687300Y-109319742D01*
X138726218Y-109515394D01*
X138802557Y-109699693D01*
X138913385Y-109865559D01*
X139054441Y-110006615D01*
X139220307Y-110117443D01*
X139404606Y-110193782D01*
X139600258Y-110232700D01*
X139799742Y-110232700D01*
X139995394Y-110193782D01*
X140179693Y-110117443D01*
X140345559Y-110006615D01*
X140486615Y-109865559D01*
X140597443Y-109699693D01*
X140673782Y-109515394D01*
X140712700Y-109319742D01*
X140712700Y-109120258D01*
X140673782Y-108924606D01*
X140597443Y-108740307D01*
X140486615Y-108574441D01*
X140345559Y-108433385D01*
X140179693Y-108322557D01*
X139995394Y-108246218D01*
X139799742Y-108207300D01*
X139600258Y-108207300D01*
X139404606Y-108246218D01*
X139220307Y-108322557D01*
X139054441Y-108433385D01*
X138913385Y-108574441D01*
X138802557Y-108740307D01*
X138726218Y-108924606D01*
X138687300Y-109120258D01*
X138386700Y-109120258D01*
X138386700Y-105930879D01*
X139262613Y-105054967D01*
X139404606Y-105113782D01*
X139600258Y-105152700D01*
X139799742Y-105152700D01*
X139995394Y-105113782D01*
X140179693Y-105037443D01*
X140345559Y-104926615D01*
X140486615Y-104785559D01*
X140511201Y-104748764D01*
X140511201Y-105391219D01*
X140137387Y-105765033D01*
X139995394Y-105706218D01*
X139799742Y-105667300D01*
X139600258Y-105667300D01*
X139404606Y-105706218D01*
X139220307Y-105782557D01*
X139054441Y-105893385D01*
X138913385Y-106034441D01*
X138802557Y-106200307D01*
X138726218Y-106384606D01*
X138687300Y-106580258D01*
X138687300Y-106779742D01*
X138726218Y-106975394D01*
X138802557Y-107159693D01*
X138913385Y-107325559D01*
X139054441Y-107466615D01*
X139220307Y-107577443D01*
X139404606Y-107653782D01*
X139600258Y-107692700D01*
X139799742Y-107692700D01*
X139995394Y-107653782D01*
X140179693Y-107577443D01*
X140345559Y-107466615D01*
X140486615Y-107325559D01*
X140597443Y-107159693D01*
X140673782Y-106975394D01*
X140712700Y-106779742D01*
X140712700Y-106680000D01*
X141006093Y-106680000D01*
X141026874Y-106890992D01*
X141088418Y-107093875D01*
X141188360Y-107280853D01*
X141322859Y-107444741D01*
X141486747Y-107579240D01*
X141673725Y-107679182D01*
X141876608Y-107740726D01*
X142034733Y-107756300D01*
X142445267Y-107756300D01*
X142603392Y-107740726D01*
X142806275Y-107679182D01*
X142993253Y-107579240D01*
X143157141Y-107444741D01*
X143291640Y-107280853D01*
X143391582Y-107093875D01*
X143453126Y-106890992D01*
X143459300Y-106828307D01*
X143459300Y-106921302D01*
X143614184Y-106921302D01*
X143535265Y-107121454D01*
X143587676Y-107248012D01*
X143721400Y-107469709D01*
X143895805Y-107661058D01*
X144104189Y-107814705D01*
X144338544Y-107924746D01*
X144538700Y-107848305D01*
X144538700Y-106921300D01*
X145021300Y-106921300D01*
X145021300Y-107848305D01*
X145221456Y-107924746D01*
X145455811Y-107814705D01*
X145664195Y-107661058D01*
X145838600Y-107469709D01*
X145972324Y-107248012D01*
X146024735Y-107121454D01*
X145945815Y-106921300D01*
X145021300Y-106921300D01*
X144538700Y-106921300D01*
X144518700Y-106921300D01*
X144518700Y-106438700D01*
X144538700Y-106438700D01*
X144538700Y-105511695D01*
X145021300Y-105511695D01*
X145021300Y-106438700D01*
X145945815Y-106438700D01*
X146024735Y-106238546D01*
X145972324Y-106111988D01*
X145838600Y-105890291D01*
X145664195Y-105698942D01*
X145455811Y-105545295D01*
X145221456Y-105435254D01*
X145021300Y-105511695D01*
X144538700Y-105511695D01*
X144338544Y-105435254D01*
X144104189Y-105545295D01*
X143895805Y-105698942D01*
X143721400Y-105890291D01*
X143587676Y-106111988D01*
X143535265Y-106238546D01*
X143614184Y-106438698D01*
X143459300Y-106438698D01*
X143459300Y-106531693D01*
X143453126Y-106469008D01*
X143391582Y-106266125D01*
X143291640Y-106079147D01*
X143157141Y-105915259D01*
X142993253Y-105780760D01*
X142806275Y-105680818D01*
X142603392Y-105619274D01*
X142445267Y-105603700D01*
X142034733Y-105603700D01*
X141876608Y-105619274D01*
X141673725Y-105680818D01*
X141486747Y-105780760D01*
X141322859Y-105915259D01*
X141188360Y-106079147D01*
X141088418Y-106266125D01*
X141026874Y-106469008D01*
X141006093Y-106680000D01*
X140712700Y-106680000D01*
X140712700Y-106580258D01*
X140673782Y-106384606D01*
X140614967Y-106242613D01*
X141075964Y-105781616D01*
X141088845Y-105771045D01*
X141112015Y-105742812D01*
X141131045Y-105719624D01*
X141151787Y-105680818D01*
X141162403Y-105660957D01*
X141181713Y-105597301D01*
X141186600Y-105547681D01*
X141186600Y-105547678D01*
X141188233Y-105531100D01*
X141186600Y-105514522D01*
X141186600Y-104737560D01*
X141188360Y-104740853D01*
X141322859Y-104904741D01*
X141486747Y-105039240D01*
X141673725Y-105139182D01*
X141876608Y-105200726D01*
X142034733Y-105216300D01*
X142445267Y-105216300D01*
X142603392Y-105200726D01*
X142806275Y-105139182D01*
X142993253Y-105039240D01*
X143157141Y-104904741D01*
X143291640Y-104740853D01*
X143391582Y-104553875D01*
X143453126Y-104350992D01*
X143473907Y-104140000D01*
X143464084Y-104040258D01*
X143767300Y-104040258D01*
X143767300Y-104239742D01*
X143806218Y-104435394D01*
X143882557Y-104619693D01*
X143993385Y-104785559D01*
X144134441Y-104926615D01*
X144300307Y-105037443D01*
X144484606Y-105113782D01*
X144680258Y-105152700D01*
X144879742Y-105152700D01*
X145075394Y-105113782D01*
X145259693Y-105037443D01*
X145425559Y-104926615D01*
X145566615Y-104785559D01*
X145677443Y-104619693D01*
X145753782Y-104435394D01*
X145792700Y-104239742D01*
X145792700Y-104050255D01*
X146408800Y-104050255D01*
X146408800Y-104229745D01*
X146443817Y-104405787D01*
X146512505Y-104571615D01*
X146612225Y-104720856D01*
X146739144Y-104847775D01*
X146888385Y-104947495D01*
X147054213Y-105016183D01*
X147230255Y-105051200D01*
X147409745Y-105051200D01*
X147585787Y-105016183D01*
X147751615Y-104947495D01*
X147900856Y-104847775D01*
X148027775Y-104720856D01*
X148127495Y-104571615D01*
X148196183Y-104405787D01*
X148231200Y-104229745D01*
X148231200Y-104050255D01*
X148196183Y-103874213D01*
X148127495Y-103708385D01*
X148027775Y-103559144D01*
X147900856Y-103432225D01*
X147751615Y-103332505D01*
X147585787Y-103263817D01*
X147409745Y-103228800D01*
X147230255Y-103228800D01*
X147054213Y-103263817D01*
X146888385Y-103332505D01*
X146739144Y-103432225D01*
X146612225Y-103559144D01*
X146512505Y-103708385D01*
X146443817Y-103874213D01*
X146408800Y-104050255D01*
X145792700Y-104050255D01*
X145792700Y-104040258D01*
X145753782Y-103844606D01*
X145677443Y-103660307D01*
X145566615Y-103494441D01*
X145425559Y-103353385D01*
X145259693Y-103242557D01*
X145075394Y-103166218D01*
X144879742Y-103127300D01*
X144680258Y-103127300D01*
X144484606Y-103166218D01*
X144300307Y-103242557D01*
X144134441Y-103353385D01*
X143993385Y-103494441D01*
X143882557Y-103660307D01*
X143806218Y-103844606D01*
X143767300Y-104040258D01*
X143464084Y-104040258D01*
X143453126Y-103929008D01*
X143391582Y-103726125D01*
X143300973Y-103556607D01*
X143881764Y-102975816D01*
X143894645Y-102965245D01*
X143922913Y-102930800D01*
X143936845Y-102913824D01*
X143968202Y-102855158D01*
X143968203Y-102855157D01*
X143987513Y-102791501D01*
X143992400Y-102741881D01*
X143992400Y-102741878D01*
X143994033Y-102725300D01*
X143992400Y-102708722D01*
X143992400Y-102244085D01*
X143993385Y-102245559D01*
X144134441Y-102386615D01*
X144300307Y-102497443D01*
X144484606Y-102573782D01*
X144680258Y-102612700D01*
X144879742Y-102612700D01*
X145075394Y-102573782D01*
X145259693Y-102497443D01*
X145425559Y-102386615D01*
X145566615Y-102245559D01*
X145677443Y-102079693D01*
X145753782Y-101895394D01*
X145792700Y-101699742D01*
X145792700Y-101500258D01*
X145753782Y-101304606D01*
X145677443Y-101120307D01*
X145566615Y-100954441D01*
X145425559Y-100813385D01*
X145259693Y-100702557D01*
X145075394Y-100626218D01*
X144879742Y-100587300D01*
X144680258Y-100587300D01*
X144484606Y-100626218D01*
X144300307Y-100702557D01*
X144134441Y-100813385D01*
X143993385Y-100954441D01*
X143992400Y-100955915D01*
X143992400Y-100325179D01*
X144342613Y-99974967D01*
X144484606Y-100033782D01*
X144680258Y-100072700D01*
X144879742Y-100072700D01*
X145075394Y-100033782D01*
X145259693Y-99957443D01*
X145425559Y-99846615D01*
X145566615Y-99705559D01*
X145677443Y-99539693D01*
X145753782Y-99355394D01*
X145792700Y-99159742D01*
X145792700Y-98960258D01*
X145753782Y-98764606D01*
X145677443Y-98580307D01*
X145566615Y-98414441D01*
X145425559Y-98273385D01*
X145259693Y-98162557D01*
X145075394Y-98086218D01*
X144879742Y-98047300D01*
X144680258Y-98047300D01*
X144484606Y-98086218D01*
X144300307Y-98162557D01*
X144134441Y-98273385D01*
X143993385Y-98414441D01*
X143882557Y-98580307D01*
X143806218Y-98764606D01*
X143767300Y-98960258D01*
X143767300Y-99159742D01*
X143806218Y-99355394D01*
X143865033Y-99497387D01*
X143427636Y-99934785D01*
X143414756Y-99945355D01*
X143404187Y-99958234D01*
X143404186Y-99958235D01*
X143372555Y-99996777D01*
X143357553Y-100024845D01*
X143341198Y-100055443D01*
X143322135Y-100118287D01*
X143321888Y-100119100D01*
X143315367Y-100185300D01*
X143317001Y-100201888D01*
X143317000Y-101046593D01*
X143291640Y-100999147D01*
X143157141Y-100835259D01*
X142993253Y-100700760D01*
X142806275Y-100600818D01*
X142603392Y-100539274D01*
X142445267Y-100523700D01*
X142034733Y-100523700D01*
X141876608Y-100539274D01*
X141673725Y-100600818D01*
X141486747Y-100700760D01*
X141322859Y-100835259D01*
X141188360Y-100999147D01*
X141186600Y-101002440D01*
X141186600Y-100590979D01*
X141708000Y-100069579D01*
X141876608Y-100120726D01*
X142034733Y-100136300D01*
X142445267Y-100136300D01*
X142603392Y-100120726D01*
X142806275Y-100059182D01*
X142993253Y-99959240D01*
X143157141Y-99824741D01*
X143291640Y-99660853D01*
X143391582Y-99473875D01*
X143453126Y-99270992D01*
X143473907Y-99060000D01*
X143453126Y-98849008D01*
X143391582Y-98646125D01*
X143291640Y-98459147D01*
X143157141Y-98295259D01*
X142993253Y-98160760D01*
X142806275Y-98060818D01*
X142603392Y-97999274D01*
X142445267Y-97983700D01*
X142034733Y-97983700D01*
X141876608Y-97999274D01*
X141673725Y-98060818D01*
X141486747Y-98160760D01*
X141322859Y-98295259D01*
X141188360Y-98459147D01*
X141088418Y-98646125D01*
X141026874Y-98849008D01*
X141006093Y-99060000D01*
X141026874Y-99270992D01*
X141088418Y-99473875D01*
X141179027Y-99643393D01*
X140621836Y-100200584D01*
X140608956Y-100211155D01*
X140598386Y-100224035D01*
X140566755Y-100262577D01*
X140535398Y-100321243D01*
X140516088Y-100384900D01*
X140509567Y-100451100D01*
X140511201Y-100467688D01*
X140511201Y-100991236D01*
X140486615Y-100954441D01*
X140345559Y-100813385D01*
X140179693Y-100702557D01*
X139995394Y-100626218D01*
X139799742Y-100587300D01*
X139600258Y-100587300D01*
X139404606Y-100626218D01*
X139220307Y-100702557D01*
X139054441Y-100813385D01*
X138913385Y-100954441D01*
X138802557Y-101120307D01*
X138726218Y-101304606D01*
X138687300Y-101500258D01*
X138687300Y-101699742D01*
X138726218Y-101895394D01*
X138802557Y-102079693D01*
X138913385Y-102245559D01*
X139054441Y-102386615D01*
X139220307Y-102497443D01*
X139404606Y-102573782D01*
X139600258Y-102612700D01*
X139799742Y-102612700D01*
X139995394Y-102573782D01*
X140179693Y-102497443D01*
X140345559Y-102386615D01*
X140486615Y-102245559D01*
X140511200Y-102208764D01*
X140511200Y-103531235D01*
X140486615Y-103494441D01*
X140345559Y-103353385D01*
X140179693Y-103242557D01*
X139995394Y-103166218D01*
X139799742Y-103127300D01*
X139600258Y-103127300D01*
X139404606Y-103166218D01*
X139220307Y-103242557D01*
X139054441Y-103353385D01*
X138913385Y-103494441D01*
X138802557Y-103660307D01*
X138726218Y-103844606D01*
X138687300Y-104040258D01*
X138687300Y-104239742D01*
X138726218Y-104435394D01*
X138785033Y-104577387D01*
X138386700Y-104975721D01*
X138386700Y-98960258D01*
X138687300Y-98960258D01*
X138687300Y-99159742D01*
X138726218Y-99355394D01*
X138802557Y-99539693D01*
X138913385Y-99705559D01*
X139054441Y-99846615D01*
X139220307Y-99957443D01*
X139404606Y-100033782D01*
X139600258Y-100072700D01*
X139799742Y-100072700D01*
X139995394Y-100033782D01*
X140179693Y-99957443D01*
X140345559Y-99846615D01*
X140486615Y-99705559D01*
X140597443Y-99539693D01*
X140673782Y-99355394D01*
X140712700Y-99159742D01*
X140712700Y-98960258D01*
X140673782Y-98764606D01*
X140597443Y-98580307D01*
X140486615Y-98414441D01*
X140345559Y-98273385D01*
X140179693Y-98162557D01*
X139995394Y-98086218D01*
X139799742Y-98047300D01*
X139600258Y-98047300D01*
X139404606Y-98086218D01*
X139220307Y-98162557D01*
X139054441Y-98273385D01*
X138913385Y-98414441D01*
X138802557Y-98580307D01*
X138726218Y-98764606D01*
X138687300Y-98960258D01*
X138386700Y-98960258D01*
X138386700Y-98310879D01*
X138426514Y-98271065D01*
X139262613Y-97434967D01*
X139404606Y-97493782D01*
X139600258Y-97532700D01*
X139799742Y-97532700D01*
X139995394Y-97493782D01*
X140179693Y-97417443D01*
X140345559Y-97306615D01*
X140486615Y-97165559D01*
X140597443Y-96999693D01*
X140673782Y-96815394D01*
X140712700Y-96619742D01*
X140712700Y-96420258D01*
X140673782Y-96224606D01*
X140597443Y-96040307D01*
X140486615Y-95874441D01*
X140345559Y-95733385D01*
X140246356Y-95667100D01*
X141010271Y-95667100D01*
X141010271Y-97383600D01*
X141014378Y-97425296D01*
X141026540Y-97465391D01*
X141046291Y-97502341D01*
X141072871Y-97534729D01*
X141105259Y-97561309D01*
X141142209Y-97581060D01*
X141182304Y-97593222D01*
X141224000Y-97597329D01*
X143256000Y-97597329D01*
X143297696Y-97593222D01*
X143337791Y-97581060D01*
X143374741Y-97561309D01*
X143407129Y-97534729D01*
X143433709Y-97502341D01*
X143453460Y-97465391D01*
X143465622Y-97425296D01*
X143469729Y-97383600D01*
X143469729Y-95667100D01*
X144233644Y-95667100D01*
X144134441Y-95733385D01*
X143993385Y-95874441D01*
X143882557Y-96040307D01*
X143806218Y-96224606D01*
X143767300Y-96420258D01*
X143767300Y-96619742D01*
X143806218Y-96815394D01*
X143882557Y-96999693D01*
X143993385Y-97165559D01*
X144134441Y-97306615D01*
X144300307Y-97417443D01*
X144484606Y-97493782D01*
X144680258Y-97532700D01*
X144879742Y-97532700D01*
X145075394Y-97493782D01*
X145259693Y-97417443D01*
X145425559Y-97306615D01*
X145566615Y-97165559D01*
X145677443Y-96999693D01*
X145753782Y-96815394D01*
X145792700Y-96619742D01*
X145792700Y-96430255D01*
X146408800Y-96430255D01*
X146408800Y-96609745D01*
X146443817Y-96785787D01*
X146512505Y-96951615D01*
X146612225Y-97100856D01*
X146739144Y-97227775D01*
X146888385Y-97327495D01*
X147054213Y-97396183D01*
X147230255Y-97431200D01*
X147409745Y-97431200D01*
X147585787Y-97396183D01*
X147751615Y-97327495D01*
X147900856Y-97227775D01*
X148027775Y-97100856D01*
X148127495Y-96951615D01*
X148196183Y-96785787D01*
X148231200Y-96609745D01*
X148231200Y-96430255D01*
X148196183Y-96254213D01*
X148127495Y-96088385D01*
X148027775Y-95939144D01*
X147900856Y-95812225D01*
X147751615Y-95712505D01*
X147616166Y-95656400D01*
X148630271Y-95656400D01*
X148630271Y-97383600D01*
X148634378Y-97425296D01*
X148646540Y-97465391D01*
X148666291Y-97502341D01*
X148692871Y-97534729D01*
X148725259Y-97561309D01*
X148762209Y-97581060D01*
X148802304Y-97593222D01*
X148844000Y-97597329D01*
X150876000Y-97597329D01*
X150917696Y-97593222D01*
X150957791Y-97581060D01*
X150994741Y-97561309D01*
X151027129Y-97534729D01*
X151053709Y-97502341D01*
X151073460Y-97465391D01*
X151085622Y-97425296D01*
X151089729Y-97383600D01*
X151089729Y-95860481D01*
X152028113Y-94922098D01*
X152104606Y-94953782D01*
X152300258Y-94992700D01*
X152499742Y-94992700D01*
X152695394Y-94953782D01*
X152879693Y-94877443D01*
X153045559Y-94766615D01*
X153186615Y-94625559D01*
X153297443Y-94459693D01*
X153373782Y-94275394D01*
X153412700Y-94079742D01*
X153412700Y-93880258D01*
X153373782Y-93684606D01*
X153297443Y-93500307D01*
X153186615Y-93334441D01*
X153045559Y-93193385D01*
X152879693Y-93082557D01*
X152695394Y-93006218D01*
X152499742Y-92967300D01*
X152300258Y-92967300D01*
X152104606Y-93006218D01*
X152028113Y-93037902D01*
X150802098Y-91811887D01*
X150833782Y-91735394D01*
X150872700Y-91539742D01*
X150872700Y-91340258D01*
X150833782Y-91144606D01*
X150757443Y-90960307D01*
X150646615Y-90794441D01*
X150505559Y-90653385D01*
X150339693Y-90542557D01*
X150155394Y-90466218D01*
X149959742Y-90427300D01*
X149760258Y-90427300D01*
X149564606Y-90466218D01*
X149380307Y-90542557D01*
X149214441Y-90653385D01*
X149073385Y-90794441D01*
X148962557Y-90960307D01*
X148886218Y-91144606D01*
X148847300Y-91340258D01*
X148847300Y-91539742D01*
X148886218Y-91735394D01*
X148962557Y-91919693D01*
X149073385Y-92085559D01*
X149214441Y-92226615D01*
X149380307Y-92337443D01*
X149564606Y-92413782D01*
X149760258Y-92452700D01*
X149959742Y-92452700D01*
X150155394Y-92413782D01*
X150231887Y-92382098D01*
X151457902Y-93608113D01*
X151426218Y-93684606D01*
X151387300Y-93880258D01*
X151387300Y-94079742D01*
X151426218Y-94275394D01*
X151457902Y-94351887D01*
X150367119Y-95442671D01*
X148844000Y-95442671D01*
X148802304Y-95446778D01*
X148762209Y-95458940D01*
X148725259Y-95478691D01*
X148692871Y-95505271D01*
X148666291Y-95537659D01*
X148646540Y-95574609D01*
X148634378Y-95614704D01*
X148630271Y-95656400D01*
X147616166Y-95656400D01*
X147585787Y-95643817D01*
X147409745Y-95608800D01*
X147230255Y-95608800D01*
X147054213Y-95643817D01*
X146888385Y-95712505D01*
X146739144Y-95812225D01*
X146612225Y-95939144D01*
X146512505Y-96088385D01*
X146443817Y-96254213D01*
X146408800Y-96430255D01*
X145792700Y-96430255D01*
X145792700Y-96420258D01*
X145753782Y-96224606D01*
X145677443Y-96040307D01*
X145566615Y-95874441D01*
X145425559Y-95733385D01*
X145259693Y-95622557D01*
X145117700Y-95563742D01*
X145117700Y-95345981D01*
X145119333Y-95329400D01*
X145117700Y-95312819D01*
X145117700Y-94936258D01*
X145259693Y-94877443D01*
X145425559Y-94766615D01*
X145566615Y-94625559D01*
X145677443Y-94459693D01*
X145753782Y-94275394D01*
X145792700Y-94079742D01*
X145792700Y-93880258D01*
X145753782Y-93684606D01*
X145677443Y-93500307D01*
X145566615Y-93334441D01*
X145425559Y-93193385D01*
X145259693Y-93082557D01*
X145075394Y-93006218D01*
X144879742Y-92967300D01*
X144680258Y-92967300D01*
X144484606Y-93006218D01*
X144300307Y-93082557D01*
X144134441Y-93193385D01*
X143993385Y-93334441D01*
X143882557Y-93500307D01*
X143806218Y-93684606D01*
X143767300Y-93880258D01*
X143767300Y-94079742D01*
X143806218Y-94275394D01*
X143882557Y-94459693D01*
X143993385Y-94625559D01*
X144134441Y-94766615D01*
X144300307Y-94877443D01*
X144442301Y-94936259D01*
X144442301Y-94991700D01*
X139804769Y-94991700D01*
X139995394Y-94953782D01*
X140179693Y-94877443D01*
X140345559Y-94766615D01*
X140486615Y-94625559D01*
X140597443Y-94459693D01*
X140673782Y-94275394D01*
X140712700Y-94079742D01*
X140712700Y-93880258D01*
X140673782Y-93684606D01*
X140597443Y-93500307D01*
X140486615Y-93334441D01*
X140345559Y-93193385D01*
X140179693Y-93082557D01*
X139995394Y-93006218D01*
X139799742Y-92967300D01*
X139600258Y-92967300D01*
X139404606Y-93006218D01*
X139220307Y-93082557D01*
X139054441Y-93193385D01*
X138913385Y-93334441D01*
X138802557Y-93500307D01*
X138726218Y-93684606D01*
X138687300Y-93880258D01*
X138687300Y-94079742D01*
X138726218Y-94275394D01*
X138802557Y-94459693D01*
X138913385Y-94625559D01*
X139054441Y-94766615D01*
X139220307Y-94877443D01*
X139404606Y-94953782D01*
X139595231Y-94991700D01*
X139297678Y-94991700D01*
X139281100Y-94990067D01*
X139264522Y-94991700D01*
X139264519Y-94991700D01*
X139214899Y-94996587D01*
X139166058Y-95011403D01*
X139151242Y-95015897D01*
X139092577Y-95047255D01*
X139041155Y-95089455D01*
X139030584Y-95102336D01*
X134640737Y-99492184D01*
X134627855Y-99502756D01*
X134617286Y-99515635D01*
X134585655Y-99554177D01*
X134568894Y-99585535D01*
X134554297Y-99612844D01*
X134534987Y-99676500D01*
X134530100Y-99726119D01*
X134528467Y-99742700D01*
X134530100Y-99759278D01*
X134530101Y-110847132D01*
X134469560Y-110907673D01*
X134413451Y-110991645D01*
X134374803Y-111084951D01*
X134355100Y-111184003D01*
X134355100Y-111284997D01*
X134374803Y-111384049D01*
X134413451Y-111477355D01*
X134469560Y-111561327D01*
X134540973Y-111632740D01*
X134624945Y-111688849D01*
X134718251Y-111727497D01*
X134817303Y-111747200D01*
X134918297Y-111747200D01*
X135017349Y-111727497D01*
X135110655Y-111688849D01*
X135194627Y-111632740D01*
X135266040Y-111561327D01*
X135322149Y-111477355D01*
X135360797Y-111384049D01*
X135380500Y-111284997D01*
X135380500Y-111184003D01*
X135360797Y-111084951D01*
X135322149Y-110991645D01*
X135266040Y-110907673D01*
X135205500Y-110847133D01*
X135205500Y-99882579D01*
X138692137Y-96395943D01*
X138687300Y-96420258D01*
X138687300Y-96619742D01*
X138726218Y-96815394D01*
X138785033Y-96957387D01*
X137948935Y-97793486D01*
X137821937Y-97920484D01*
X137809056Y-97931055D01*
X137798486Y-97943935D01*
X137766855Y-97982477D01*
X137741775Y-98029399D01*
X137735498Y-98041143D01*
X137716582Y-98103502D01*
X137716188Y-98104800D01*
X137709667Y-98171000D01*
X137711301Y-98187588D01*
X137711300Y-105774419D01*
X137709667Y-105791000D01*
X137711300Y-105807578D01*
X137711300Y-106155420D01*
X137711301Y-113271119D01*
X136365656Y-114616765D01*
X136199978Y-114548139D01*
X135994667Y-114507300D01*
X135785333Y-114507300D01*
X135580022Y-114548139D01*
X135386623Y-114628247D01*
X135212568Y-114744547D01*
X135064547Y-114892568D01*
X134948247Y-115066623D01*
X134868139Y-115260022D01*
X134827300Y-115465333D01*
X134827300Y-115674667D01*
X134836103Y-115718924D01*
X133993300Y-114876121D01*
X133993300Y-98956080D01*
X133994933Y-98939500D01*
X133993300Y-98922919D01*
X133993300Y-98112178D01*
X133994933Y-98095600D01*
X133991507Y-98060818D01*
X133988413Y-98029399D01*
X133969103Y-97965743D01*
X133941522Y-97914143D01*
X133937745Y-97907076D01*
X133906114Y-97868534D01*
X133895545Y-97855655D01*
X133882664Y-97845084D01*
X132994967Y-96957387D01*
X133053782Y-96815394D01*
X133092700Y-96619742D01*
X133092700Y-96420258D01*
X133053782Y-96224606D01*
X132977443Y-96040307D01*
X132866615Y-95874441D01*
X132725559Y-95733385D01*
X132559693Y-95622557D01*
X132417700Y-95563742D01*
X132417700Y-94936258D01*
X132559693Y-94877443D01*
X132725559Y-94766615D01*
X132866615Y-94625559D01*
X132977443Y-94459693D01*
X133053782Y-94275394D01*
X133092700Y-94079742D01*
X133092700Y-93880258D01*
X133053782Y-93684606D01*
X132977443Y-93500307D01*
X132866615Y-93334441D01*
X132725559Y-93193385D01*
X132559693Y-93082557D01*
X132375394Y-93006218D01*
X132179742Y-92967300D01*
X131980258Y-92967300D01*
X131784606Y-93006218D01*
X131600307Y-93082557D01*
X131434441Y-93193385D01*
X131293385Y-93334441D01*
X131182557Y-93500307D01*
X131106218Y-93684606D01*
X131067300Y-93880258D01*
X130973900Y-93880258D01*
X130973900Y-92439594D01*
X134001656Y-92439594D01*
X134088175Y-92637574D01*
X134332797Y-92726120D01*
X134589994Y-92765243D01*
X134849880Y-92753436D01*
X135102471Y-92691155D01*
X135231825Y-92637574D01*
X135318344Y-92439594D01*
X134660000Y-91781250D01*
X134001656Y-92439594D01*
X130973900Y-92439594D01*
X130973900Y-91448019D01*
X130981550Y-91369994D01*
X133334757Y-91369994D01*
X133346564Y-91629880D01*
X133408845Y-91882471D01*
X133462426Y-92011825D01*
X133660406Y-92098344D01*
X134318750Y-91440000D01*
X135001250Y-91440000D01*
X135659594Y-92098344D01*
X135857574Y-92011825D01*
X135946120Y-91767203D01*
X135985243Y-91510006D01*
X135977532Y-91340258D01*
X136147300Y-91340258D01*
X136147300Y-91539742D01*
X136186218Y-91735394D01*
X136262557Y-91919693D01*
X136373385Y-92085559D01*
X136514441Y-92226615D01*
X136680307Y-92337443D01*
X136864606Y-92413782D01*
X137060258Y-92452700D01*
X137259742Y-92452700D01*
X137325629Y-92439594D01*
X146701656Y-92439594D01*
X146788175Y-92637574D01*
X147032797Y-92726120D01*
X147289994Y-92765243D01*
X147549880Y-92753436D01*
X147802471Y-92691155D01*
X147931825Y-92637574D01*
X148018344Y-92439594D01*
X147360000Y-91781250D01*
X146701656Y-92439594D01*
X137325629Y-92439594D01*
X137455394Y-92413782D01*
X137639693Y-92337443D01*
X137805559Y-92226615D01*
X137946615Y-92085559D01*
X138057443Y-91919693D01*
X138133782Y-91735394D01*
X138172700Y-91539742D01*
X138172700Y-91369994D01*
X146034757Y-91369994D01*
X146046564Y-91629880D01*
X146108845Y-91882471D01*
X146162426Y-92011825D01*
X146360406Y-92098344D01*
X147018750Y-91440000D01*
X147701250Y-91440000D01*
X148359594Y-92098344D01*
X148557574Y-92011825D01*
X148646120Y-91767203D01*
X148685243Y-91510006D01*
X148673436Y-91250120D01*
X148611155Y-90997529D01*
X148557574Y-90868175D01*
X148359594Y-90781656D01*
X147701250Y-91440000D01*
X147018750Y-91440000D01*
X146360406Y-90781656D01*
X146162426Y-90868175D01*
X146073880Y-91112797D01*
X146034757Y-91369994D01*
X138172700Y-91369994D01*
X138172700Y-91340258D01*
X138133782Y-91144606D01*
X138057443Y-90960307D01*
X137946615Y-90794441D01*
X137805559Y-90653385D01*
X137639693Y-90542557D01*
X137455394Y-90466218D01*
X137259742Y-90427300D01*
X137060258Y-90427300D01*
X136864606Y-90466218D01*
X136680307Y-90542557D01*
X136514441Y-90653385D01*
X136373385Y-90794441D01*
X136262557Y-90960307D01*
X136186218Y-91144606D01*
X136147300Y-91340258D01*
X135977532Y-91340258D01*
X135973436Y-91250120D01*
X135911155Y-90997529D01*
X135857574Y-90868175D01*
X135659594Y-90781656D01*
X135001250Y-91440000D01*
X134318750Y-91440000D01*
X133660406Y-90781656D01*
X133462426Y-90868175D01*
X133373880Y-91112797D01*
X133334757Y-91369994D01*
X130981550Y-91369994D01*
X130995737Y-91225311D01*
X131058088Y-91018794D01*
X131159360Y-90828330D01*
X131295701Y-90661159D01*
X131461914Y-90523655D01*
X131651674Y-90421052D01*
X131857747Y-90357261D01*
X132080008Y-90333901D01*
X132080287Y-90333900D01*
X134048200Y-90333900D01*
X134001656Y-90440406D01*
G37*
X134001656Y-90440406D02*
X134660000Y-91098750D01*
X135318344Y-90440406D01*
X135271800Y-90333900D01*
X146748200Y-90333900D01*
X146701656Y-90440406D01*
X147360000Y-91098750D01*
X148018344Y-90440406D01*
X147971800Y-90333900D01*
X152391981Y-90333900D01*
X152614689Y-90355737D01*
X152821206Y-90418088D01*
X153011670Y-90519360D01*
X153178841Y-90655701D01*
X153316345Y-90821914D01*
X153418948Y-91011674D01*
X153482739Y-91217747D01*
X153506099Y-91440008D01*
X153506101Y-91440573D01*
X153506100Y-118101981D01*
X153484263Y-118324689D01*
X153421912Y-118531206D01*
X153320641Y-118721670D01*
X153184299Y-118888841D01*
X153018083Y-119026348D01*
X152828324Y-119128949D01*
X152622253Y-119192739D01*
X152399992Y-119216099D01*
X152399713Y-119216100D01*
X132088019Y-119216100D01*
X131865311Y-119194263D01*
X131658794Y-119131912D01*
X131468330Y-119030641D01*
X131301159Y-118894299D01*
X131163652Y-118728083D01*
X131061051Y-118538324D01*
X130997261Y-118332253D01*
X130973901Y-118109992D01*
X130973900Y-118109713D01*
X130973900Y-112470960D01*
X131021400Y-112549709D01*
X131195805Y-112741058D01*
X131404189Y-112894705D01*
X131638544Y-113004746D01*
X131838700Y-112928305D01*
X131838700Y-112001300D01*
X131818700Y-112001300D01*
X131818700Y-111518700D01*
X131838700Y-111518700D01*
X131838700Y-110591695D01*
X131638544Y-110515254D01*
X131404189Y-110625295D01*
X131195805Y-110778942D01*
X131021400Y-110970291D01*
X130973900Y-111049040D01*
X130973900Y-109930960D01*
X131021400Y-110009709D01*
X131195805Y-110201058D01*
X131404189Y-110354705D01*
X131638544Y-110464746D01*
X131838700Y-110388305D01*
X131838700Y-109461300D01*
X131818700Y-109461300D01*
X131818700Y-108978700D01*
X131838700Y-108978700D01*
X131838700Y-108051695D01*
X131638544Y-107975254D01*
X131404189Y-108085295D01*
X131195805Y-108238942D01*
X131021400Y-108430291D01*
X130973900Y-108509040D01*
X130973900Y-107390960D01*
X131021400Y-107469709D01*
X131195805Y-107661058D01*
X131404189Y-107814705D01*
X131638544Y-107924746D01*
X131838700Y-107848305D01*
X131838700Y-106921300D01*
X131818700Y-106921300D01*
X131818700Y-106438700D01*
X131838700Y-106438700D01*
X131838700Y-105511695D01*
X131638544Y-105435254D01*
X131404189Y-105545295D01*
X131195805Y-105698942D01*
X131021400Y-105890291D01*
X130973900Y-105969040D01*
X130973900Y-93880258D01*
X131067300Y-93880258D01*
X131067300Y-94079742D01*
X131106218Y-94275394D01*
X131182557Y-94459693D01*
X131293385Y-94625559D01*
X131434441Y-94766615D01*
X131600307Y-94877443D01*
X131742301Y-94936259D01*
X131742300Y-95563742D01*
X131600307Y-95622557D01*
X131434441Y-95733385D01*
X131293385Y-95874441D01*
X131182557Y-96040307D01*
X131106218Y-96224606D01*
X131067300Y-96420258D01*
X131067300Y-96619742D01*
X131106218Y-96815394D01*
X131182557Y-96999693D01*
X131293385Y-97165559D01*
X131434441Y-97306615D01*
X131600307Y-97417443D01*
X131784606Y-97493782D01*
X131980258Y-97532700D01*
X132179742Y-97532700D01*
X132375394Y-97493782D01*
X132517387Y-97434967D01*
X133317901Y-98235481D01*
X133317900Y-98922919D01*
X133316267Y-98939500D01*
X133317901Y-98956091D01*
X133317901Y-99820321D01*
X132994967Y-99497387D01*
X133053782Y-99355394D01*
X133092700Y-99159742D01*
X133092700Y-98960258D01*
X133053782Y-98764606D01*
X132977443Y-98580307D01*
X132866615Y-98414441D01*
X132725559Y-98273385D01*
X132559693Y-98162557D01*
X132375394Y-98086218D01*
X132179742Y-98047300D01*
X131980258Y-98047300D01*
X131784606Y-98086218D01*
X131600307Y-98162557D01*
X131434441Y-98273385D01*
X131293385Y-98414441D01*
X131182557Y-98580307D01*
X131106218Y-98764606D01*
X131067300Y-98960258D01*
X131067300Y-99159742D01*
X131106218Y-99355394D01*
X131182557Y-99539693D01*
X131293385Y-99705559D01*
X131434441Y-99846615D01*
X131600307Y-99957443D01*
X131784606Y-100033782D01*
X131980258Y-100072700D01*
X132179742Y-100072700D01*
X132375394Y-100033782D01*
X132517387Y-99974967D01*
X132867601Y-100325181D01*
X132867600Y-100955916D01*
X132866615Y-100954441D01*
X132725559Y-100813385D01*
X132559693Y-100702557D01*
X132375394Y-100626218D01*
X132179742Y-100587300D01*
X131980258Y-100587300D01*
X131784606Y-100626218D01*
X131600307Y-100702557D01*
X131434441Y-100813385D01*
X131293385Y-100954441D01*
X131182557Y-101120307D01*
X131106218Y-101304606D01*
X131067300Y-101500258D01*
X131067300Y-101699742D01*
X131106218Y-101895394D01*
X131182557Y-102079693D01*
X131293385Y-102245559D01*
X131434441Y-102386615D01*
X131600307Y-102497443D01*
X131784606Y-102573782D01*
X131980258Y-102612700D01*
X132179742Y-102612700D01*
X132375394Y-102573782D01*
X132559693Y-102497443D01*
X132725559Y-102386615D01*
X132866615Y-102245559D01*
X132867600Y-102244085D01*
X132867600Y-103495915D01*
X132866615Y-103494441D01*
X132725559Y-103353385D01*
X132559693Y-103242557D01*
X132375394Y-103166218D01*
X132179742Y-103127300D01*
X131980258Y-103127300D01*
X131784606Y-103166218D01*
X131600307Y-103242557D01*
X131434441Y-103353385D01*
X131293385Y-103494441D01*
X131182557Y-103660307D01*
X131106218Y-103844606D01*
X131067300Y-104040258D01*
X131067300Y-104239742D01*
X131106218Y-104435394D01*
X131182557Y-104619693D01*
X131293385Y-104785559D01*
X131434441Y-104926615D01*
X131600307Y-105037443D01*
X131784606Y-105113782D01*
X131980258Y-105152700D01*
X132179742Y-105152700D01*
X132375394Y-105113782D01*
X132559693Y-105037443D01*
X132725559Y-104926615D01*
X132866615Y-104785559D01*
X132867600Y-104784084D01*
X132867600Y-105627720D01*
X132755811Y-105545295D01*
X132521456Y-105435254D01*
X132321300Y-105511695D01*
X132321300Y-106438700D01*
X132341300Y-106438700D01*
X132341300Y-106921300D01*
X132321300Y-106921300D01*
X132321300Y-107848305D01*
X132521456Y-107924746D01*
X132755811Y-107814705D01*
X132867600Y-107732280D01*
X132867600Y-108167720D01*
X132755811Y-108085295D01*
X132521456Y-107975254D01*
X132321300Y-108051695D01*
X132321300Y-108978700D01*
X132341300Y-108978700D01*
X132341300Y-109461300D01*
X132321300Y-109461300D01*
X132321300Y-110388305D01*
X132521456Y-110464746D01*
X132755811Y-110354705D01*
X132867601Y-110272280D01*
X132867601Y-110707720D01*
X132755811Y-110625295D01*
X132521456Y-110515254D01*
X132321300Y-110591695D01*
X132321300Y-111518700D01*
X132341300Y-111518700D01*
X132341300Y-112001300D01*
X132321300Y-112001300D01*
X132321300Y-112928305D01*
X132521456Y-113004746D01*
X132755811Y-112894705D01*
X132867601Y-112812279D01*
X132867601Y-115246012D01*
X132865967Y-115262600D01*
X132870263Y-115306212D01*
X132872488Y-115328801D01*
X132888467Y-115381477D01*
X132891798Y-115392457D01*
X132923155Y-115451123D01*
X132951750Y-115485965D01*
X132965356Y-115502545D01*
X132978237Y-115513116D01*
X134904584Y-117439464D01*
X134915155Y-117452345D01*
X134928034Y-117462914D01*
X134966577Y-117494545D01*
X135025242Y-117525903D01*
X135040058Y-117530397D01*
X135088899Y-117545213D01*
X135138519Y-117550100D01*
X135138522Y-117550100D01*
X135155100Y-117551733D01*
X135171678Y-117550100D01*
X138536322Y-117550100D01*
X138552900Y-117551733D01*
X138569478Y-117550100D01*
X138569481Y-117550100D01*
X138619101Y-117545213D01*
X138682757Y-117525903D01*
X138741423Y-117494545D01*
X138792845Y-117452345D01*
X138803420Y-117439459D01*
X140015669Y-116227211D01*
X140028544Y-116216645D01*
X140070745Y-116165223D01*
X140070746Y-116165222D01*
X140079132Y-116149532D01*
X140144547Y-116247432D01*
X140292568Y-116395453D01*
X140466623Y-116511753D01*
X140660022Y-116591861D01*
X140865333Y-116632700D01*
X141074667Y-116632700D01*
X141279978Y-116591861D01*
X141473377Y-116511753D01*
X141647432Y-116395453D01*
X141795453Y-116247432D01*
X141911753Y-116073377D01*
X141991861Y-115879978D01*
X142032700Y-115674667D01*
X142032700Y-115465333D01*
X141991861Y-115260022D01*
X141923235Y-115094344D01*
X142285180Y-114732400D01*
X142850747Y-114732400D01*
X142832568Y-114744547D01*
X142684547Y-114892568D01*
X142568247Y-115066623D01*
X142488139Y-115260022D01*
X142447300Y-115465333D01*
X142447300Y-115674667D01*
X142488139Y-115879978D01*
X142568247Y-116073377D01*
X142684547Y-116247432D01*
X142832568Y-116395453D01*
X143006623Y-116511753D01*
X143200022Y-116591861D01*
X143405333Y-116632700D01*
X143614667Y-116632700D01*
X143819978Y-116591861D01*
X144013377Y-116511753D01*
X144187432Y-116395453D01*
X144335453Y-116247432D01*
X144451753Y-116073377D01*
X144531861Y-115879978D01*
X144572700Y-115674667D01*
X144572700Y-115465333D01*
X144987300Y-115465333D01*
X144987300Y-115674667D01*
X145028139Y-115879978D01*
X145108247Y-116073377D01*
X145224547Y-116247432D01*
X145372568Y-116395453D01*
X145546623Y-116511753D01*
X145740022Y-116591861D01*
X145945333Y-116632700D01*
X146154667Y-116632700D01*
X146359978Y-116591861D01*
X146553377Y-116511753D01*
X146690694Y-116420000D01*
X147216781Y-116420000D01*
X147226835Y-116522075D01*
X147256609Y-116620227D01*
X147304959Y-116710685D01*
X147370028Y-116789972D01*
X147449315Y-116855041D01*
X147539773Y-116903391D01*
X147637925Y-116933165D01*
X147740000Y-116943219D01*
X148218525Y-116940700D01*
X148348700Y-116810525D01*
X148348700Y-115811300D01*
X148831300Y-115811300D01*
X148831300Y-116810525D01*
X148961475Y-116940700D01*
X149440000Y-116943219D01*
X149542075Y-116933165D01*
X149640227Y-116903391D01*
X149730685Y-116855041D01*
X149809972Y-116789972D01*
X149875041Y-116710685D01*
X149923391Y-116620227D01*
X149953165Y-116522075D01*
X149963219Y-116420000D01*
X149960700Y-115941475D01*
X149830525Y-115811300D01*
X148831300Y-115811300D01*
X148348700Y-115811300D01*
X147349475Y-115811300D01*
X147219300Y-115941475D01*
X147216781Y-116420000D01*
X146690694Y-116420000D01*
X146727432Y-116395453D01*
X146875453Y-116247432D01*
X146991753Y-116073377D01*
X147071861Y-115879978D01*
X147112700Y-115674667D01*
X147112700Y-115465333D01*
X147071861Y-115260022D01*
X147003235Y-115094344D01*
X147217623Y-114879956D01*
X147219300Y-115198525D01*
X147349475Y-115328700D01*
X148348700Y-115328700D01*
X148348700Y-114329475D01*
X148831300Y-114329475D01*
X148831300Y-115328700D01*
X149830525Y-115328700D01*
X149960700Y-115198525D01*
X149963219Y-114720000D01*
X149953165Y-114617925D01*
X149923391Y-114519773D01*
X149875041Y-114429315D01*
X149809972Y-114350028D01*
X149730685Y-114284959D01*
X149640227Y-114236609D01*
X149542075Y-114206835D01*
X149440000Y-114196781D01*
X148961475Y-114199300D01*
X148831300Y-114329475D01*
X148348700Y-114329475D01*
X148218525Y-114199300D01*
X147899957Y-114197623D01*
X148729880Y-113367700D01*
X150432922Y-113367700D01*
X150449500Y-113369333D01*
X150466078Y-113367700D01*
X150466081Y-113367700D01*
X150515701Y-113362813D01*
X150579357Y-113343503D01*
X150638023Y-113312145D01*
X150689445Y-113269945D01*
X150700020Y-113257059D01*
X151501769Y-112455311D01*
X151514644Y-112444745D01*
X151525214Y-112431866D01*
X151556845Y-112393324D01*
X151578340Y-112353110D01*
X151613385Y-112405559D01*
X151754441Y-112546615D01*
X151920307Y-112657443D01*
X152104606Y-112733782D01*
X152300258Y-112772700D01*
X152499742Y-112772700D01*
X152695394Y-112733782D01*
X152879693Y-112657443D01*
X153045559Y-112546615D01*
X153186615Y-112405559D01*
X153297443Y-112239693D01*
X153373782Y-112055394D01*
X153412700Y-111859742D01*
X153412700Y-111660258D01*
X153373782Y-111464606D01*
X153297443Y-111280307D01*
X153186615Y-111114441D01*
X153045559Y-110973385D01*
X152879693Y-110862557D01*
X152695394Y-110786218D01*
X152499742Y-110747300D01*
X152300258Y-110747300D01*
X152104606Y-110786218D01*
X151920307Y-110862557D01*
X151754441Y-110973385D01*
X151613385Y-111114441D01*
X151612400Y-111115915D01*
X151612400Y-110485179D01*
X151962613Y-110134967D01*
X152104606Y-110193782D01*
X152300258Y-110232700D01*
X152499742Y-110232700D01*
X152695394Y-110193782D01*
X152879693Y-110117443D01*
X153045559Y-110006615D01*
X153186615Y-109865559D01*
X153297443Y-109699693D01*
X153373782Y-109515394D01*
X153412700Y-109319742D01*
X153412700Y-109120258D01*
X153373782Y-108924606D01*
X153297443Y-108740307D01*
X153186615Y-108574441D01*
X153045559Y-108433385D01*
X152879693Y-108322557D01*
X152695394Y-108246218D01*
X152499742Y-108207300D01*
X152300258Y-108207300D01*
X152104606Y-108246218D01*
X151920307Y-108322557D01*
X151754441Y-108433385D01*
X151613385Y-108574441D01*
X151502557Y-108740307D01*
X151426218Y-108924606D01*
X151387300Y-109120258D01*
X151387300Y-109319742D01*
X151426218Y-109515394D01*
X151485033Y-109657387D01*
X151047636Y-110094785D01*
X151034756Y-110105355D01*
X151024186Y-110118235D01*
X150992555Y-110156777D01*
X150961198Y-110215443D01*
X150941888Y-110279100D01*
X150935367Y-110345300D01*
X150937001Y-110361888D01*
X150937000Y-111206593D01*
X150911640Y-111159147D01*
X150777141Y-110995259D01*
X150613253Y-110860760D01*
X150426275Y-110760818D01*
X150223392Y-110699274D01*
X150065267Y-110683700D01*
X149654733Y-110683700D01*
X149496608Y-110699274D01*
X149293725Y-110760818D01*
X149106747Y-110860760D01*
X148942859Y-110995259D01*
X148808360Y-111159147D01*
X148708418Y-111346125D01*
X148646874Y-111549008D01*
X148626093Y-111760000D01*
X148646874Y-111970992D01*
X148708418Y-112173875D01*
X148808360Y-112360853D01*
X148942859Y-112524741D01*
X149106747Y-112659240D01*
X149168598Y-112692300D01*
X148606577Y-112692300D01*
X148589999Y-112690667D01*
X148573421Y-112692300D01*
X148573419Y-112692300D01*
X148523799Y-112697187D01*
X148460143Y-112716497D01*
X148432834Y-112731094D01*
X148401476Y-112747855D01*
X148372882Y-112771322D01*
X148350055Y-112790055D01*
X148339485Y-112802935D01*
X146525656Y-114616765D01*
X146359978Y-114548139D01*
X146154667Y-114507300D01*
X145945333Y-114507300D01*
X145740022Y-114548139D01*
X145546623Y-114628247D01*
X145372568Y-114744547D01*
X145224547Y-114892568D01*
X145108247Y-115066623D01*
X145028139Y-115260022D01*
X144987300Y-115465333D01*
X144572700Y-115465333D01*
X144531861Y-115260022D01*
X144451753Y-115066623D01*
X144335453Y-114892568D01*
X144187432Y-114744547D01*
X144169253Y-114732400D01*
X144441922Y-114732400D01*
X144458500Y-114734033D01*
X144475078Y-114732400D01*
X144475081Y-114732400D01*
X144524701Y-114727513D01*
X144588357Y-114708203D01*
X144647023Y-114676845D01*
X144698445Y-114634645D01*
X144709020Y-114621759D01*
X147323071Y-112007709D01*
X147335946Y-111997143D01*
X147357408Y-111970992D01*
X147378147Y-111945722D01*
X147408007Y-111889857D01*
X147409505Y-111887055D01*
X147428815Y-111823399D01*
X147433702Y-111773779D01*
X147433702Y-111773777D01*
X147435335Y-111757199D01*
X147433702Y-111740621D01*
X147433702Y-109220000D01*
X148626093Y-109220000D01*
X148646874Y-109430992D01*
X148708418Y-109633875D01*
X148808360Y-109820853D01*
X148942859Y-109984741D01*
X149106747Y-110119240D01*
X149293725Y-110219182D01*
X149496608Y-110280726D01*
X149654733Y-110296300D01*
X150065267Y-110296300D01*
X150223392Y-110280726D01*
X150426275Y-110219182D01*
X150613253Y-110119240D01*
X150777141Y-109984741D01*
X150911640Y-109820853D01*
X151011582Y-109633875D01*
X151073126Y-109430992D01*
X151093907Y-109220000D01*
X151073126Y-109009008D01*
X151011582Y-108806125D01*
X150911640Y-108619147D01*
X150777141Y-108455259D01*
X150613253Y-108320760D01*
X150426275Y-108220818D01*
X150223392Y-108159274D01*
X150065267Y-108143700D01*
X149654733Y-108143700D01*
X149496608Y-108159274D01*
X149293725Y-108220818D01*
X149106747Y-108320760D01*
X148942859Y-108455259D01*
X148808360Y-108619147D01*
X148708418Y-108806125D01*
X148646874Y-109009008D01*
X148626093Y-109220000D01*
X147433702Y-109220000D01*
X147433702Y-107680275D01*
X148647703Y-106466274D01*
X148646874Y-106469008D01*
X148626093Y-106680000D01*
X148646874Y-106890992D01*
X148708418Y-107093875D01*
X148808360Y-107280853D01*
X148942859Y-107444741D01*
X149106747Y-107579240D01*
X149293725Y-107679182D01*
X149496608Y-107740726D01*
X149654733Y-107756300D01*
X150065267Y-107756300D01*
X150223392Y-107740726D01*
X150426275Y-107679182D01*
X150613253Y-107579240D01*
X150777141Y-107444741D01*
X150911640Y-107280853D01*
X151011582Y-107093875D01*
X151073126Y-106890992D01*
X151093907Y-106680000D01*
X151084084Y-106580258D01*
X151387300Y-106580258D01*
X151387300Y-106779742D01*
X151426218Y-106975394D01*
X151502557Y-107159693D01*
X151613385Y-107325559D01*
X151754441Y-107466615D01*
X151920307Y-107577443D01*
X152104606Y-107653782D01*
X152300258Y-107692700D01*
X152499742Y-107692700D01*
X152695394Y-107653782D01*
X152879693Y-107577443D01*
X153045559Y-107466615D01*
X153186615Y-107325559D01*
X153297443Y-107159693D01*
X153373782Y-106975394D01*
X153412700Y-106779742D01*
X153412700Y-106580258D01*
X153373782Y-106384606D01*
X153297443Y-106200307D01*
X153186615Y-106034441D01*
X153045559Y-105893385D01*
X152879693Y-105782557D01*
X152695394Y-105706218D01*
X152499742Y-105667300D01*
X152300258Y-105667300D01*
X152104606Y-105706218D01*
X151920307Y-105782557D01*
X151754441Y-105893385D01*
X151613385Y-106034441D01*
X151502557Y-106200307D01*
X151426218Y-106384606D01*
X151387300Y-106580258D01*
X151084084Y-106580258D01*
X151073126Y-106469008D01*
X151011582Y-106266125D01*
X150911640Y-106079147D01*
X150777141Y-105915259D01*
X150613253Y-105780760D01*
X150551402Y-105747700D01*
X151113422Y-105747700D01*
X151130000Y-105749333D01*
X151146578Y-105747700D01*
X151146581Y-105747700D01*
X151196201Y-105742813D01*
X151259857Y-105723503D01*
X151318523Y-105692145D01*
X151369945Y-105649945D01*
X151380520Y-105637059D01*
X151962613Y-105054967D01*
X152104606Y-105113782D01*
X152300258Y-105152700D01*
X152499742Y-105152700D01*
X152695394Y-105113782D01*
X152879693Y-105037443D01*
X153045559Y-104926615D01*
X153186615Y-104785559D01*
X153297443Y-104619693D01*
X153373782Y-104435394D01*
X153412700Y-104239742D01*
X153412700Y-104040258D01*
X153373782Y-103844606D01*
X153297443Y-103660307D01*
X153186615Y-103494441D01*
X153045559Y-103353385D01*
X152879693Y-103242557D01*
X152695394Y-103166218D01*
X152499742Y-103127300D01*
X152300258Y-103127300D01*
X152104606Y-103166218D01*
X151962613Y-103225033D01*
X151594700Y-102857121D01*
X151594700Y-102217595D01*
X151613385Y-102245559D01*
X151754441Y-102386615D01*
X151920307Y-102497443D01*
X152104606Y-102573782D01*
X152300258Y-102612700D01*
X152499742Y-102612700D01*
X152695394Y-102573782D01*
X152879693Y-102497443D01*
X153045559Y-102386615D01*
X153186615Y-102245559D01*
X153297443Y-102079693D01*
X153373782Y-101895394D01*
X153412700Y-101699742D01*
X153412700Y-101500258D01*
X153373782Y-101304606D01*
X153297443Y-101120307D01*
X153186615Y-100954441D01*
X153045559Y-100813385D01*
X152879693Y-100702557D01*
X152695394Y-100626218D01*
X152499742Y-100587300D01*
X152300258Y-100587300D01*
X152104606Y-100626218D01*
X151920307Y-100702557D01*
X151754441Y-100813385D01*
X151613385Y-100954441D01*
X151594700Y-100982405D01*
X151594700Y-99677595D01*
X151613385Y-99705559D01*
X151754441Y-99846615D01*
X151920307Y-99957443D01*
X152104606Y-100033782D01*
X152300258Y-100072700D01*
X152499742Y-100072700D01*
X152695394Y-100033782D01*
X152879693Y-99957443D01*
X153045559Y-99846615D01*
X153186615Y-99705559D01*
X153297443Y-99539693D01*
X153373782Y-99355394D01*
X153412700Y-99159742D01*
X153412700Y-98960258D01*
X153373782Y-98764606D01*
X153297443Y-98580307D01*
X153186615Y-98414441D01*
X153045559Y-98273385D01*
X152879693Y-98162557D01*
X152695394Y-98086218D01*
X152499742Y-98047300D01*
X152300258Y-98047300D01*
X152104606Y-98086218D01*
X151920307Y-98162557D01*
X151754441Y-98273385D01*
X151613385Y-98414441D01*
X151594700Y-98442405D01*
X151594700Y-97929879D01*
X152052415Y-97472164D01*
X152104606Y-97493782D01*
X152300258Y-97532700D01*
X152499742Y-97532700D01*
X152695394Y-97493782D01*
X152879693Y-97417443D01*
X153045559Y-97306615D01*
X153186615Y-97165559D01*
X153297443Y-96999693D01*
X153373782Y-96815394D01*
X153412700Y-96619742D01*
X153412700Y-96420258D01*
X153373782Y-96224606D01*
X153297443Y-96040307D01*
X153186615Y-95874441D01*
X153045559Y-95733385D01*
X152879693Y-95622557D01*
X152695394Y-95546218D01*
X152499742Y-95507300D01*
X152300258Y-95507300D01*
X152104606Y-95546218D01*
X151920307Y-95622557D01*
X151754441Y-95733385D01*
X151613385Y-95874441D01*
X151502557Y-96040307D01*
X151426218Y-96224606D01*
X151387300Y-96420258D01*
X151387300Y-96619742D01*
X151426218Y-96815394D01*
X151502557Y-96999693D01*
X151529462Y-97039959D01*
X151029937Y-97539484D01*
X151017055Y-97550056D01*
X151006486Y-97562935D01*
X150974855Y-97601477D01*
X150958094Y-97632835D01*
X150943497Y-97660144D01*
X150924187Y-97723800D01*
X150919300Y-97773419D01*
X150917667Y-97790000D01*
X150919300Y-97806578D01*
X150919300Y-98473478D01*
X150911640Y-98459147D01*
X150777141Y-98295259D01*
X150613253Y-98160760D01*
X150426275Y-98060818D01*
X150223392Y-97999274D01*
X150065267Y-97983700D01*
X149654733Y-97983700D01*
X149496608Y-97999274D01*
X149293725Y-98060818D01*
X149106747Y-98160760D01*
X148942859Y-98295259D01*
X148808360Y-98459147D01*
X148708418Y-98646125D01*
X148646874Y-98849008D01*
X148626093Y-99060000D01*
X148646874Y-99270992D01*
X148708418Y-99473875D01*
X148808360Y-99660853D01*
X148942859Y-99824741D01*
X149106747Y-99959240D01*
X149293725Y-100059182D01*
X149496608Y-100120726D01*
X149654733Y-100136300D01*
X150065267Y-100136300D01*
X150223392Y-100120726D01*
X150426275Y-100059182D01*
X150613253Y-99959240D01*
X150777141Y-99824741D01*
X150911640Y-99660853D01*
X150919300Y-99646522D01*
X150919301Y-101013479D01*
X150911640Y-100999147D01*
X150777141Y-100835259D01*
X150613253Y-100700760D01*
X150426275Y-100600818D01*
X150223392Y-100539274D01*
X150065267Y-100523700D01*
X149654733Y-100523700D01*
X149496608Y-100539274D01*
X149293725Y-100600818D01*
X149106747Y-100700760D01*
X148942859Y-100835259D01*
X148808360Y-100999147D01*
X148708418Y-101186125D01*
X148646874Y-101389008D01*
X148626093Y-101600000D01*
X148646874Y-101810992D01*
X148708418Y-102013875D01*
X148808360Y-102200853D01*
X148942859Y-102364741D01*
X149106747Y-102499240D01*
X149293725Y-102599182D01*
X149496608Y-102660726D01*
X149654733Y-102676300D01*
X150065267Y-102676300D01*
X150223392Y-102660726D01*
X150426275Y-102599182D01*
X150613253Y-102499240D01*
X150777141Y-102364741D01*
X150911640Y-102200853D01*
X150919301Y-102186521D01*
X150919301Y-102980412D01*
X150917667Y-102997000D01*
X150921785Y-103038803D01*
X150924188Y-103063201D01*
X150938368Y-103109945D01*
X150943498Y-103126857D01*
X150974855Y-103185523D01*
X150989045Y-103202813D01*
X151017056Y-103236945D01*
X151029936Y-103247516D01*
X151485033Y-103702613D01*
X151426218Y-103844606D01*
X151387300Y-104040258D01*
X151387300Y-104239742D01*
X151426218Y-104435394D01*
X151485033Y-104577387D01*
X150990121Y-105072300D01*
X150551402Y-105072300D01*
X150613253Y-105039240D01*
X150777141Y-104904741D01*
X150911640Y-104740853D01*
X151011582Y-104553875D01*
X151073126Y-104350992D01*
X151093907Y-104140000D01*
X151073126Y-103929008D01*
X151011582Y-103726125D01*
X150911640Y-103539147D01*
X150777141Y-103375259D01*
X150613253Y-103240760D01*
X150426275Y-103140818D01*
X150223392Y-103079274D01*
X150065267Y-103063700D01*
X149654733Y-103063700D01*
X149496608Y-103079274D01*
X149293725Y-103140818D01*
X149106747Y-103240760D01*
X148942859Y-103375259D01*
X148808360Y-103539147D01*
X148708418Y-103726125D01*
X148646874Y-103929008D01*
X148626093Y-104140000D01*
X148646874Y-104350992D01*
X148708418Y-104553875D01*
X148799027Y-104723393D01*
X146418937Y-107103484D01*
X146406056Y-107114055D01*
X146395486Y-107126935D01*
X146363855Y-107165477D01*
X146332498Y-107224143D01*
X146322152Y-107258251D01*
X146313188Y-107287800D01*
X146306667Y-107354000D01*
X146308301Y-107370588D01*
X146308300Y-111430922D01*
X146100700Y-111638522D01*
X146100700Y-111518698D01*
X145945816Y-111518698D01*
X146024735Y-111318546D01*
X145972324Y-111191988D01*
X145838600Y-110970291D01*
X145664195Y-110778942D01*
X145455811Y-110625295D01*
X145221456Y-110515254D01*
X145021300Y-110591695D01*
X145021300Y-111518700D01*
X145041300Y-111518700D01*
X145041300Y-112001300D01*
X145021300Y-112001300D01*
X145021300Y-112021300D01*
X144538700Y-112021300D01*
X144538700Y-112001300D01*
X142481300Y-112001300D01*
X142481300Y-113006359D01*
X142695543Y-113105680D01*
X142952247Y-113020683D01*
X143187437Y-112887239D01*
X143392074Y-112710475D01*
X143558294Y-112497185D01*
X143618023Y-112378323D01*
X143721400Y-112549709D01*
X143895805Y-112741058D01*
X144104189Y-112894705D01*
X144338544Y-113004746D01*
X144538698Y-112928306D01*
X144538698Y-113080700D01*
X144658523Y-113080700D01*
X144132225Y-113606998D01*
X140833879Y-113606998D01*
X140817301Y-113605365D01*
X140800723Y-113606998D01*
X140800721Y-113606998D01*
X140751101Y-113611885D01*
X140687445Y-113631195D01*
X140660136Y-113645792D01*
X140628778Y-113662553D01*
X140600184Y-113686020D01*
X140577357Y-113704753D01*
X140566787Y-113717633D01*
X139726935Y-114557486D01*
X139561537Y-114722884D01*
X139548656Y-114733455D01*
X139538086Y-114746335D01*
X139506455Y-114784877D01*
X139475098Y-114843543D01*
X139460227Y-114892568D01*
X139455788Y-114907200D01*
X139449267Y-114973400D01*
X139450901Y-114989988D01*
X139450901Y-115257703D01*
X139371753Y-115066623D01*
X139255453Y-114892568D01*
X139107432Y-114744547D01*
X138933377Y-114628247D01*
X138739978Y-114548139D01*
X138534667Y-114507300D01*
X138325333Y-114507300D01*
X138120022Y-114548139D01*
X137926623Y-114628247D01*
X137752568Y-114744547D01*
X137604547Y-114892568D01*
X137488247Y-115066623D01*
X137408139Y-115260022D01*
X137367300Y-115465333D01*
X137367300Y-115674667D01*
X137408139Y-115879978D01*
X137476765Y-116045656D01*
X137114821Y-116407600D01*
X136549253Y-116407600D01*
X136567432Y-116395453D01*
X136715453Y-116247432D01*
X136831753Y-116073377D01*
X136911861Y-115879978D01*
X136952700Y-115674667D01*
X136952700Y-115465333D01*
X136911861Y-115260022D01*
X136843235Y-115094344D01*
X138276064Y-113661516D01*
X138288945Y-113650945D01*
X138307678Y-113628118D01*
X138331145Y-113599524D01*
X138362502Y-113540858D01*
X138362503Y-113540857D01*
X138381813Y-113477201D01*
X138386700Y-113427581D01*
X138386700Y-113427579D01*
X138388333Y-113411001D01*
X138386700Y-113394423D01*
X138386700Y-111660258D01*
X138687300Y-111660258D01*
X138687300Y-111859742D01*
X138726218Y-112055394D01*
X138802557Y-112239693D01*
X138913385Y-112405559D01*
X139054441Y-112546615D01*
X139220307Y-112657443D01*
X139404606Y-112733782D01*
X139600258Y-112772700D01*
X139799742Y-112772700D01*
X139995394Y-112733782D01*
X140179693Y-112657443D01*
X140345559Y-112546615D01*
X140486615Y-112405559D01*
X140597443Y-112239693D01*
X140673782Y-112055394D01*
X140703300Y-111906999D01*
X140703300Y-112001302D01*
X140856907Y-112001302D01*
X140779023Y-112211566D01*
X140800291Y-112255566D01*
X140921706Y-112497185D01*
X141087926Y-112710475D01*
X141292563Y-112887239D01*
X141527753Y-113020683D01*
X141784457Y-113105680D01*
X141998700Y-113006359D01*
X141998700Y-112001300D01*
X141978700Y-112001300D01*
X141978700Y-111518700D01*
X141998700Y-111518700D01*
X141998700Y-110513641D01*
X142481300Y-110513641D01*
X142481300Y-111518700D01*
X144538700Y-111518700D01*
X144538700Y-110591695D01*
X144338544Y-110515254D01*
X144104189Y-110625295D01*
X143895805Y-110778942D01*
X143721400Y-110970291D01*
X143618023Y-111141677D01*
X143558294Y-111022815D01*
X143392074Y-110809525D01*
X143187437Y-110632761D01*
X142952247Y-110499317D01*
X142695543Y-110414320D01*
X142481300Y-110513641D01*
X141998700Y-110513641D01*
X141784457Y-110414320D01*
X141527753Y-110499317D01*
X141320892Y-110616687D01*
X141708000Y-110229579D01*
X141876608Y-110280726D01*
X142034733Y-110296300D01*
X142445267Y-110296300D01*
X142603392Y-110280726D01*
X142806275Y-110219182D01*
X142993253Y-110119240D01*
X143157141Y-109984741D01*
X143291640Y-109820853D01*
X143391582Y-109633875D01*
X143453126Y-109430992D01*
X143459300Y-109368307D01*
X143459300Y-109461302D01*
X143614184Y-109461302D01*
X143535265Y-109661454D01*
X143587676Y-109788012D01*
X143721400Y-110009709D01*
X143895805Y-110201058D01*
X144104189Y-110354705D01*
X144338544Y-110464746D01*
X144538700Y-110388305D01*
X144538700Y-109461300D01*
X145021300Y-109461300D01*
X145021300Y-110388305D01*
X145221456Y-110464746D01*
X145455811Y-110354705D01*
X145664195Y-110201058D01*
X145838600Y-110009709D01*
X145972324Y-109788012D01*
X146024735Y-109661454D01*
X145945815Y-109461300D01*
X145021300Y-109461300D01*
X144538700Y-109461300D01*
X144518700Y-109461300D01*
X144518700Y-108978700D01*
X144538700Y-108978700D01*
X144538700Y-108051695D01*
X145021300Y-108051695D01*
X145021300Y-108978700D01*
X145945815Y-108978700D01*
X146024735Y-108778546D01*
X145972324Y-108651988D01*
X145838600Y-108430291D01*
X145664195Y-108238942D01*
X145455811Y-108085295D01*
X145221456Y-107975254D01*
X145021300Y-108051695D01*
X144538700Y-108051695D01*
X144338544Y-107975254D01*
X144104189Y-108085295D01*
X143895805Y-108238942D01*
X143721400Y-108430291D01*
X143587676Y-108651988D01*
X143535265Y-108778546D01*
X143614184Y-108978698D01*
X143459300Y-108978698D01*
X143459300Y-109071693D01*
X143453126Y-109009008D01*
X143391582Y-108806125D01*
X143291640Y-108619147D01*
X143157141Y-108455259D01*
X142993253Y-108320760D01*
X142806275Y-108220818D01*
X142603392Y-108159274D01*
X142445267Y-108143700D01*
X142034733Y-108143700D01*
X141876608Y-108159274D01*
X141673725Y-108220818D01*
X141486747Y-108320760D01*
X141322859Y-108455259D01*
X141188360Y-108619147D01*
X141088418Y-108806125D01*
X141026874Y-109009008D01*
X141006093Y-109220000D01*
X141026874Y-109430992D01*
X141088418Y-109633875D01*
X141179027Y-109803393D01*
X140137387Y-110845033D01*
X139995394Y-110786218D01*
X139799742Y-110747300D01*
X139600258Y-110747300D01*
X139404606Y-110786218D01*
X139220307Y-110862557D01*
X139054441Y-110973385D01*
X138913385Y-111114441D01*
X138802557Y-111280307D01*
X138726218Y-111464606D01*
X138687300Y-111660258D01*
X138386700Y-111660258D01*
X138386700Y-109120258D01*
X138687300Y-109120258D01*
X138687300Y-109319742D01*
X138726218Y-109515394D01*
X138802557Y-109699693D01*
X138913385Y-109865559D01*
X139054441Y-110006615D01*
X139220307Y-110117443D01*
X139404606Y-110193782D01*
X139600258Y-110232700D01*
X139799742Y-110232700D01*
X139995394Y-110193782D01*
X140179693Y-110117443D01*
X140345559Y-110006615D01*
X140486615Y-109865559D01*
X140597443Y-109699693D01*
X140673782Y-109515394D01*
X140712700Y-109319742D01*
X140712700Y-109120258D01*
X140673782Y-108924606D01*
X140597443Y-108740307D01*
X140486615Y-108574441D01*
X140345559Y-108433385D01*
X140179693Y-108322557D01*
X139995394Y-108246218D01*
X139799742Y-108207300D01*
X139600258Y-108207300D01*
X139404606Y-108246218D01*
X139220307Y-108322557D01*
X139054441Y-108433385D01*
X138913385Y-108574441D01*
X138802557Y-108740307D01*
X138726218Y-108924606D01*
X138687300Y-109120258D01*
X138386700Y-109120258D01*
X138386700Y-105930879D01*
X139262613Y-105054967D01*
X139404606Y-105113782D01*
X139600258Y-105152700D01*
X139799742Y-105152700D01*
X139995394Y-105113782D01*
X140179693Y-105037443D01*
X140345559Y-104926615D01*
X140486615Y-104785559D01*
X140511201Y-104748764D01*
X140511201Y-105391219D01*
X140137387Y-105765033D01*
X139995394Y-105706218D01*
X139799742Y-105667300D01*
X139600258Y-105667300D01*
X139404606Y-105706218D01*
X139220307Y-105782557D01*
X139054441Y-105893385D01*
X138913385Y-106034441D01*
X138802557Y-106200307D01*
X138726218Y-106384606D01*
X138687300Y-106580258D01*
X138687300Y-106779742D01*
X138726218Y-106975394D01*
X138802557Y-107159693D01*
X138913385Y-107325559D01*
X139054441Y-107466615D01*
X139220307Y-107577443D01*
X139404606Y-107653782D01*
X139600258Y-107692700D01*
X139799742Y-107692700D01*
X139995394Y-107653782D01*
X140179693Y-107577443D01*
X140345559Y-107466615D01*
X140486615Y-107325559D01*
X140597443Y-107159693D01*
X140673782Y-106975394D01*
X140712700Y-106779742D01*
X140712700Y-106680000D01*
X141006093Y-106680000D01*
X141026874Y-106890992D01*
X141088418Y-107093875D01*
X141188360Y-107280853D01*
X141322859Y-107444741D01*
X141486747Y-107579240D01*
X141673725Y-107679182D01*
X141876608Y-107740726D01*
X142034733Y-107756300D01*
X142445267Y-107756300D01*
X142603392Y-107740726D01*
X142806275Y-107679182D01*
X142993253Y-107579240D01*
X143157141Y-107444741D01*
X143291640Y-107280853D01*
X143391582Y-107093875D01*
X143453126Y-106890992D01*
X143459300Y-106828307D01*
X143459300Y-106921302D01*
X143614184Y-106921302D01*
X143535265Y-107121454D01*
X143587676Y-107248012D01*
X143721400Y-107469709D01*
X143895805Y-107661058D01*
X144104189Y-107814705D01*
X144338544Y-107924746D01*
X144538700Y-107848305D01*
X144538700Y-106921300D01*
X145021300Y-106921300D01*
X145021300Y-107848305D01*
X145221456Y-107924746D01*
X145455811Y-107814705D01*
X145664195Y-107661058D01*
X145838600Y-107469709D01*
X145972324Y-107248012D01*
X146024735Y-107121454D01*
X145945815Y-106921300D01*
X145021300Y-106921300D01*
X144538700Y-106921300D01*
X144518700Y-106921300D01*
X144518700Y-106438700D01*
X144538700Y-106438700D01*
X144538700Y-105511695D01*
X145021300Y-105511695D01*
X145021300Y-106438700D01*
X145945815Y-106438700D01*
X146024735Y-106238546D01*
X145972324Y-106111988D01*
X145838600Y-105890291D01*
X145664195Y-105698942D01*
X145455811Y-105545295D01*
X145221456Y-105435254D01*
X145021300Y-105511695D01*
X144538700Y-105511695D01*
X144338544Y-105435254D01*
X144104189Y-105545295D01*
X143895805Y-105698942D01*
X143721400Y-105890291D01*
X143587676Y-106111988D01*
X143535265Y-106238546D01*
X143614184Y-106438698D01*
X143459300Y-106438698D01*
X143459300Y-106531693D01*
X143453126Y-106469008D01*
X143391582Y-106266125D01*
X143291640Y-106079147D01*
X143157141Y-105915259D01*
X142993253Y-105780760D01*
X142806275Y-105680818D01*
X142603392Y-105619274D01*
X142445267Y-105603700D01*
X142034733Y-105603700D01*
X141876608Y-105619274D01*
X141673725Y-105680818D01*
X141486747Y-105780760D01*
X141322859Y-105915259D01*
X141188360Y-106079147D01*
X141088418Y-106266125D01*
X141026874Y-106469008D01*
X141006093Y-106680000D01*
X140712700Y-106680000D01*
X140712700Y-106580258D01*
X140673782Y-106384606D01*
X140614967Y-106242613D01*
X141075964Y-105781616D01*
X141088845Y-105771045D01*
X141112015Y-105742812D01*
X141131045Y-105719624D01*
X141151787Y-105680818D01*
X141162403Y-105660957D01*
X141181713Y-105597301D01*
X141186600Y-105547681D01*
X141186600Y-105547678D01*
X141188233Y-105531100D01*
X141186600Y-105514522D01*
X141186600Y-104737560D01*
X141188360Y-104740853D01*
X141322859Y-104904741D01*
X141486747Y-105039240D01*
X141673725Y-105139182D01*
X141876608Y-105200726D01*
X142034733Y-105216300D01*
X142445267Y-105216300D01*
X142603392Y-105200726D01*
X142806275Y-105139182D01*
X142993253Y-105039240D01*
X143157141Y-104904741D01*
X143291640Y-104740853D01*
X143391582Y-104553875D01*
X143453126Y-104350992D01*
X143473907Y-104140000D01*
X143464084Y-104040258D01*
X143767300Y-104040258D01*
X143767300Y-104239742D01*
X143806218Y-104435394D01*
X143882557Y-104619693D01*
X143993385Y-104785559D01*
X144134441Y-104926615D01*
X144300307Y-105037443D01*
X144484606Y-105113782D01*
X144680258Y-105152700D01*
X144879742Y-105152700D01*
X145075394Y-105113782D01*
X145259693Y-105037443D01*
X145425559Y-104926615D01*
X145566615Y-104785559D01*
X145677443Y-104619693D01*
X145753782Y-104435394D01*
X145792700Y-104239742D01*
X145792700Y-104050255D01*
X146408800Y-104050255D01*
X146408800Y-104229745D01*
X146443817Y-104405787D01*
X146512505Y-104571615D01*
X146612225Y-104720856D01*
X146739144Y-104847775D01*
X146888385Y-104947495D01*
X147054213Y-105016183D01*
X147230255Y-105051200D01*
X147409745Y-105051200D01*
X147585787Y-105016183D01*
X147751615Y-104947495D01*
X147900856Y-104847775D01*
X148027775Y-104720856D01*
X148127495Y-104571615D01*
X148196183Y-104405787D01*
X148231200Y-104229745D01*
X148231200Y-104050255D01*
X148196183Y-103874213D01*
X148127495Y-103708385D01*
X148027775Y-103559144D01*
X147900856Y-103432225D01*
X147751615Y-103332505D01*
X147585787Y-103263817D01*
X147409745Y-103228800D01*
X147230255Y-103228800D01*
X147054213Y-103263817D01*
X146888385Y-103332505D01*
X146739144Y-103432225D01*
X146612225Y-103559144D01*
X146512505Y-103708385D01*
X146443817Y-103874213D01*
X146408800Y-104050255D01*
X145792700Y-104050255D01*
X145792700Y-104040258D01*
X145753782Y-103844606D01*
X145677443Y-103660307D01*
X145566615Y-103494441D01*
X145425559Y-103353385D01*
X145259693Y-103242557D01*
X145075394Y-103166218D01*
X144879742Y-103127300D01*
X144680258Y-103127300D01*
X144484606Y-103166218D01*
X144300307Y-103242557D01*
X144134441Y-103353385D01*
X143993385Y-103494441D01*
X143882557Y-103660307D01*
X143806218Y-103844606D01*
X143767300Y-104040258D01*
X143464084Y-104040258D01*
X143453126Y-103929008D01*
X143391582Y-103726125D01*
X143300973Y-103556607D01*
X143881764Y-102975816D01*
X143894645Y-102965245D01*
X143922913Y-102930800D01*
X143936845Y-102913824D01*
X143968202Y-102855158D01*
X143968203Y-102855157D01*
X143987513Y-102791501D01*
X143992400Y-102741881D01*
X143992400Y-102741878D01*
X143994033Y-102725300D01*
X143992400Y-102708722D01*
X143992400Y-102244085D01*
X143993385Y-102245559D01*
X144134441Y-102386615D01*
X144300307Y-102497443D01*
X144484606Y-102573782D01*
X144680258Y-102612700D01*
X144879742Y-102612700D01*
X145075394Y-102573782D01*
X145259693Y-102497443D01*
X145425559Y-102386615D01*
X145566615Y-102245559D01*
X145677443Y-102079693D01*
X145753782Y-101895394D01*
X145792700Y-101699742D01*
X145792700Y-101500258D01*
X145753782Y-101304606D01*
X145677443Y-101120307D01*
X145566615Y-100954441D01*
X145425559Y-100813385D01*
X145259693Y-100702557D01*
X145075394Y-100626218D01*
X144879742Y-100587300D01*
X144680258Y-100587300D01*
X144484606Y-100626218D01*
X144300307Y-100702557D01*
X144134441Y-100813385D01*
X143993385Y-100954441D01*
X143992400Y-100955915D01*
X143992400Y-100325179D01*
X144342613Y-99974967D01*
X144484606Y-100033782D01*
X144680258Y-100072700D01*
X144879742Y-100072700D01*
X145075394Y-100033782D01*
X145259693Y-99957443D01*
X145425559Y-99846615D01*
X145566615Y-99705559D01*
X145677443Y-99539693D01*
X145753782Y-99355394D01*
X145792700Y-99159742D01*
X145792700Y-98960258D01*
X145753782Y-98764606D01*
X145677443Y-98580307D01*
X145566615Y-98414441D01*
X145425559Y-98273385D01*
X145259693Y-98162557D01*
X145075394Y-98086218D01*
X144879742Y-98047300D01*
X144680258Y-98047300D01*
X144484606Y-98086218D01*
X144300307Y-98162557D01*
X144134441Y-98273385D01*
X143993385Y-98414441D01*
X143882557Y-98580307D01*
X143806218Y-98764606D01*
X143767300Y-98960258D01*
X143767300Y-99159742D01*
X143806218Y-99355394D01*
X143865033Y-99497387D01*
X143427636Y-99934785D01*
X143414756Y-99945355D01*
X143404187Y-99958234D01*
X143404186Y-99958235D01*
X143372555Y-99996777D01*
X143357553Y-100024845D01*
X143341198Y-100055443D01*
X143322135Y-100118287D01*
X143321888Y-100119100D01*
X143315367Y-100185300D01*
X143317001Y-100201888D01*
X143317000Y-101046593D01*
X143291640Y-100999147D01*
X143157141Y-100835259D01*
X142993253Y-100700760D01*
X142806275Y-100600818D01*
X142603392Y-100539274D01*
X142445267Y-100523700D01*
X142034733Y-100523700D01*
X141876608Y-100539274D01*
X141673725Y-100600818D01*
X141486747Y-100700760D01*
X141322859Y-100835259D01*
X141188360Y-100999147D01*
X141186600Y-101002440D01*
X141186600Y-100590979D01*
X141708000Y-100069579D01*
X141876608Y-100120726D01*
X142034733Y-100136300D01*
X142445267Y-100136300D01*
X142603392Y-100120726D01*
X142806275Y-100059182D01*
X142993253Y-99959240D01*
X143157141Y-99824741D01*
X143291640Y-99660853D01*
X143391582Y-99473875D01*
X143453126Y-99270992D01*
X143473907Y-99060000D01*
X143453126Y-98849008D01*
X143391582Y-98646125D01*
X143291640Y-98459147D01*
X143157141Y-98295259D01*
X142993253Y-98160760D01*
X142806275Y-98060818D01*
X142603392Y-97999274D01*
X142445267Y-97983700D01*
X142034733Y-97983700D01*
X141876608Y-97999274D01*
X141673725Y-98060818D01*
X141486747Y-98160760D01*
X141322859Y-98295259D01*
X141188360Y-98459147D01*
X141088418Y-98646125D01*
X141026874Y-98849008D01*
X141006093Y-99060000D01*
X141026874Y-99270992D01*
X141088418Y-99473875D01*
X141179027Y-99643393D01*
X140621836Y-100200584D01*
X140608956Y-100211155D01*
X140598386Y-100224035D01*
X140566755Y-100262577D01*
X140535398Y-100321243D01*
X140516088Y-100384900D01*
X140509567Y-100451100D01*
X140511201Y-100467688D01*
X140511201Y-100991236D01*
X140486615Y-100954441D01*
X140345559Y-100813385D01*
X140179693Y-100702557D01*
X139995394Y-100626218D01*
X139799742Y-100587300D01*
X139600258Y-100587300D01*
X139404606Y-100626218D01*
X139220307Y-100702557D01*
X139054441Y-100813385D01*
X138913385Y-100954441D01*
X138802557Y-101120307D01*
X138726218Y-101304606D01*
X138687300Y-101500258D01*
X138687300Y-101699742D01*
X138726218Y-101895394D01*
X138802557Y-102079693D01*
X138913385Y-102245559D01*
X139054441Y-102386615D01*
X139220307Y-102497443D01*
X139404606Y-102573782D01*
X139600258Y-102612700D01*
X139799742Y-102612700D01*
X139995394Y-102573782D01*
X140179693Y-102497443D01*
X140345559Y-102386615D01*
X140486615Y-102245559D01*
X140511200Y-102208764D01*
X140511200Y-103531235D01*
X140486615Y-103494441D01*
X140345559Y-103353385D01*
X140179693Y-103242557D01*
X139995394Y-103166218D01*
X139799742Y-103127300D01*
X139600258Y-103127300D01*
X139404606Y-103166218D01*
X139220307Y-103242557D01*
X139054441Y-103353385D01*
X138913385Y-103494441D01*
X138802557Y-103660307D01*
X138726218Y-103844606D01*
X138687300Y-104040258D01*
X138687300Y-104239742D01*
X138726218Y-104435394D01*
X138785033Y-104577387D01*
X138386700Y-104975721D01*
X138386700Y-98960258D01*
X138687300Y-98960258D01*
X138687300Y-99159742D01*
X138726218Y-99355394D01*
X138802557Y-99539693D01*
X138913385Y-99705559D01*
X139054441Y-99846615D01*
X139220307Y-99957443D01*
X139404606Y-100033782D01*
X139600258Y-100072700D01*
X139799742Y-100072700D01*
X139995394Y-100033782D01*
X140179693Y-99957443D01*
X140345559Y-99846615D01*
X140486615Y-99705559D01*
X140597443Y-99539693D01*
X140673782Y-99355394D01*
X140712700Y-99159742D01*
X140712700Y-98960258D01*
X140673782Y-98764606D01*
X140597443Y-98580307D01*
X140486615Y-98414441D01*
X140345559Y-98273385D01*
X140179693Y-98162557D01*
X139995394Y-98086218D01*
X139799742Y-98047300D01*
X139600258Y-98047300D01*
X139404606Y-98086218D01*
X139220307Y-98162557D01*
X139054441Y-98273385D01*
X138913385Y-98414441D01*
X138802557Y-98580307D01*
X138726218Y-98764606D01*
X138687300Y-98960258D01*
X138386700Y-98960258D01*
X138386700Y-98310879D01*
X138426514Y-98271065D01*
X139262613Y-97434967D01*
X139404606Y-97493782D01*
X139600258Y-97532700D01*
X139799742Y-97532700D01*
X139995394Y-97493782D01*
X140179693Y-97417443D01*
X140345559Y-97306615D01*
X140486615Y-97165559D01*
X140597443Y-96999693D01*
X140673782Y-96815394D01*
X140712700Y-96619742D01*
X140712700Y-96420258D01*
X140673782Y-96224606D01*
X140597443Y-96040307D01*
X140486615Y-95874441D01*
X140345559Y-95733385D01*
X140246356Y-95667100D01*
X141010271Y-95667100D01*
X141010271Y-97383600D01*
X141014378Y-97425296D01*
X141026540Y-97465391D01*
X141046291Y-97502341D01*
X141072871Y-97534729D01*
X141105259Y-97561309D01*
X141142209Y-97581060D01*
X141182304Y-97593222D01*
X141224000Y-97597329D01*
X143256000Y-97597329D01*
X143297696Y-97593222D01*
X143337791Y-97581060D01*
X143374741Y-97561309D01*
X143407129Y-97534729D01*
X143433709Y-97502341D01*
X143453460Y-97465391D01*
X143465622Y-97425296D01*
X143469729Y-97383600D01*
X143469729Y-95667100D01*
X144233644Y-95667100D01*
X144134441Y-95733385D01*
X143993385Y-95874441D01*
X143882557Y-96040307D01*
X143806218Y-96224606D01*
X143767300Y-96420258D01*
X143767300Y-96619742D01*
X143806218Y-96815394D01*
X143882557Y-96999693D01*
X143993385Y-97165559D01*
X144134441Y-97306615D01*
X144300307Y-97417443D01*
X144484606Y-97493782D01*
X144680258Y-97532700D01*
X144879742Y-97532700D01*
X145075394Y-97493782D01*
X145259693Y-97417443D01*
X145425559Y-97306615D01*
X145566615Y-97165559D01*
X145677443Y-96999693D01*
X145753782Y-96815394D01*
X145792700Y-96619742D01*
X145792700Y-96430255D01*
X146408800Y-96430255D01*
X146408800Y-96609745D01*
X146443817Y-96785787D01*
X146512505Y-96951615D01*
X146612225Y-97100856D01*
X146739144Y-97227775D01*
X146888385Y-97327495D01*
X147054213Y-97396183D01*
X147230255Y-97431200D01*
X147409745Y-97431200D01*
X147585787Y-97396183D01*
X147751615Y-97327495D01*
X147900856Y-97227775D01*
X148027775Y-97100856D01*
X148127495Y-96951615D01*
X148196183Y-96785787D01*
X148231200Y-96609745D01*
X148231200Y-96430255D01*
X148196183Y-96254213D01*
X148127495Y-96088385D01*
X148027775Y-95939144D01*
X147900856Y-95812225D01*
X147751615Y-95712505D01*
X147616166Y-95656400D01*
X148630271Y-95656400D01*
X148630271Y-97383600D01*
X148634378Y-97425296D01*
X148646540Y-97465391D01*
X148666291Y-97502341D01*
X148692871Y-97534729D01*
X148725259Y-97561309D01*
X148762209Y-97581060D01*
X148802304Y-97593222D01*
X148844000Y-97597329D01*
X150876000Y-97597329D01*
X150917696Y-97593222D01*
X150957791Y-97581060D01*
X150994741Y-97561309D01*
X151027129Y-97534729D01*
X151053709Y-97502341D01*
X151073460Y-97465391D01*
X151085622Y-97425296D01*
X151089729Y-97383600D01*
X151089729Y-95860481D01*
X152028113Y-94922098D01*
X152104606Y-94953782D01*
X152300258Y-94992700D01*
X152499742Y-94992700D01*
X152695394Y-94953782D01*
X152879693Y-94877443D01*
X153045559Y-94766615D01*
X153186615Y-94625559D01*
X153297443Y-94459693D01*
X153373782Y-94275394D01*
X153412700Y-94079742D01*
X153412700Y-93880258D01*
X153373782Y-93684606D01*
X153297443Y-93500307D01*
X153186615Y-93334441D01*
X153045559Y-93193385D01*
X152879693Y-93082557D01*
X152695394Y-93006218D01*
X152499742Y-92967300D01*
X152300258Y-92967300D01*
X152104606Y-93006218D01*
X152028113Y-93037902D01*
X150802098Y-91811887D01*
X150833782Y-91735394D01*
X150872700Y-91539742D01*
X150872700Y-91340258D01*
X150833782Y-91144606D01*
X150757443Y-90960307D01*
X150646615Y-90794441D01*
X150505559Y-90653385D01*
X150339693Y-90542557D01*
X150155394Y-90466218D01*
X149959742Y-90427300D01*
X149760258Y-90427300D01*
X149564606Y-90466218D01*
X149380307Y-90542557D01*
X149214441Y-90653385D01*
X149073385Y-90794441D01*
X148962557Y-90960307D01*
X148886218Y-91144606D01*
X148847300Y-91340258D01*
X148847300Y-91539742D01*
X148886218Y-91735394D01*
X148962557Y-91919693D01*
X149073385Y-92085559D01*
X149214441Y-92226615D01*
X149380307Y-92337443D01*
X149564606Y-92413782D01*
X149760258Y-92452700D01*
X149959742Y-92452700D01*
X150155394Y-92413782D01*
X150231887Y-92382098D01*
X151457902Y-93608113D01*
X151426218Y-93684606D01*
X151387300Y-93880258D01*
X151387300Y-94079742D01*
X151426218Y-94275394D01*
X151457902Y-94351887D01*
X150367119Y-95442671D01*
X148844000Y-95442671D01*
X148802304Y-95446778D01*
X148762209Y-95458940D01*
X148725259Y-95478691D01*
X148692871Y-95505271D01*
X148666291Y-95537659D01*
X148646540Y-95574609D01*
X148634378Y-95614704D01*
X148630271Y-95656400D01*
X147616166Y-95656400D01*
X147585787Y-95643817D01*
X147409745Y-95608800D01*
X147230255Y-95608800D01*
X147054213Y-95643817D01*
X146888385Y-95712505D01*
X146739144Y-95812225D01*
X146612225Y-95939144D01*
X146512505Y-96088385D01*
X146443817Y-96254213D01*
X146408800Y-96430255D01*
X145792700Y-96430255D01*
X145792700Y-96420258D01*
X145753782Y-96224606D01*
X145677443Y-96040307D01*
X145566615Y-95874441D01*
X145425559Y-95733385D01*
X145259693Y-95622557D01*
X145117700Y-95563742D01*
X145117700Y-95345981D01*
X145119333Y-95329400D01*
X145117700Y-95312819D01*
X145117700Y-94936258D01*
X145259693Y-94877443D01*
X145425559Y-94766615D01*
X145566615Y-94625559D01*
X145677443Y-94459693D01*
X145753782Y-94275394D01*
X145792700Y-94079742D01*
X145792700Y-93880258D01*
X145753782Y-93684606D01*
X145677443Y-93500307D01*
X145566615Y-93334441D01*
X145425559Y-93193385D01*
X145259693Y-93082557D01*
X145075394Y-93006218D01*
X144879742Y-92967300D01*
X144680258Y-92967300D01*
X144484606Y-93006218D01*
X144300307Y-93082557D01*
X144134441Y-93193385D01*
X143993385Y-93334441D01*
X143882557Y-93500307D01*
X143806218Y-93684606D01*
X143767300Y-93880258D01*
X143767300Y-94079742D01*
X143806218Y-94275394D01*
X143882557Y-94459693D01*
X143993385Y-94625559D01*
X144134441Y-94766615D01*
X144300307Y-94877443D01*
X144442301Y-94936259D01*
X144442301Y-94991700D01*
X139804769Y-94991700D01*
X139995394Y-94953782D01*
X140179693Y-94877443D01*
X140345559Y-94766615D01*
X140486615Y-94625559D01*
X140597443Y-94459693D01*
X140673782Y-94275394D01*
X140712700Y-94079742D01*
X140712700Y-93880258D01*
X140673782Y-93684606D01*
X140597443Y-93500307D01*
X140486615Y-93334441D01*
X140345559Y-93193385D01*
X140179693Y-93082557D01*
X139995394Y-93006218D01*
X139799742Y-92967300D01*
X139600258Y-92967300D01*
X139404606Y-93006218D01*
X139220307Y-93082557D01*
X139054441Y-93193385D01*
X138913385Y-93334441D01*
X138802557Y-93500307D01*
X138726218Y-93684606D01*
X138687300Y-93880258D01*
X138687300Y-94079742D01*
X138726218Y-94275394D01*
X138802557Y-94459693D01*
X138913385Y-94625559D01*
X139054441Y-94766615D01*
X139220307Y-94877443D01*
X139404606Y-94953782D01*
X139595231Y-94991700D01*
X139297678Y-94991700D01*
X139281100Y-94990067D01*
X139264522Y-94991700D01*
X139264519Y-94991700D01*
X139214899Y-94996587D01*
X139166058Y-95011403D01*
X139151242Y-95015897D01*
X139092577Y-95047255D01*
X139041155Y-95089455D01*
X139030584Y-95102336D01*
X134640737Y-99492184D01*
X134627855Y-99502756D01*
X134617286Y-99515635D01*
X134585655Y-99554177D01*
X134568894Y-99585535D01*
X134554297Y-99612844D01*
X134534987Y-99676500D01*
X134530100Y-99726119D01*
X134528467Y-99742700D01*
X134530100Y-99759278D01*
X134530101Y-110847132D01*
X134469560Y-110907673D01*
X134413451Y-110991645D01*
X134374803Y-111084951D01*
X134355100Y-111184003D01*
X134355100Y-111284997D01*
X134374803Y-111384049D01*
X134413451Y-111477355D01*
X134469560Y-111561327D01*
X134540973Y-111632740D01*
X134624945Y-111688849D01*
X134718251Y-111727497D01*
X134817303Y-111747200D01*
X134918297Y-111747200D01*
X135017349Y-111727497D01*
X135110655Y-111688849D01*
X135194627Y-111632740D01*
X135266040Y-111561327D01*
X135322149Y-111477355D01*
X135360797Y-111384049D01*
X135380500Y-111284997D01*
X135380500Y-111184003D01*
X135360797Y-111084951D01*
X135322149Y-110991645D01*
X135266040Y-110907673D01*
X135205500Y-110847133D01*
X135205500Y-99882579D01*
X138692137Y-96395943D01*
X138687300Y-96420258D01*
X138687300Y-96619742D01*
X138726218Y-96815394D01*
X138785033Y-96957387D01*
X137948935Y-97793486D01*
X137821937Y-97920484D01*
X137809056Y-97931055D01*
X137798486Y-97943935D01*
X137766855Y-97982477D01*
X137741775Y-98029399D01*
X137735498Y-98041143D01*
X137716582Y-98103502D01*
X137716188Y-98104800D01*
X137709667Y-98171000D01*
X137711301Y-98187588D01*
X137711300Y-105774419D01*
X137709667Y-105791000D01*
X137711300Y-105807578D01*
X137711300Y-106155420D01*
X137711301Y-113271119D01*
X136365656Y-114616765D01*
X136199978Y-114548139D01*
X135994667Y-114507300D01*
X135785333Y-114507300D01*
X135580022Y-114548139D01*
X135386623Y-114628247D01*
X135212568Y-114744547D01*
X135064547Y-114892568D01*
X134948247Y-115066623D01*
X134868139Y-115260022D01*
X134827300Y-115465333D01*
X134827300Y-115674667D01*
X134836103Y-115718924D01*
X133993300Y-114876121D01*
X133993300Y-98956080D01*
X133994933Y-98939500D01*
X133993300Y-98922919D01*
X133993300Y-98112178D01*
X133994933Y-98095600D01*
X133991507Y-98060818D01*
X133988413Y-98029399D01*
X133969103Y-97965743D01*
X133941522Y-97914143D01*
X133937745Y-97907076D01*
X133906114Y-97868534D01*
X133895545Y-97855655D01*
X133882664Y-97845084D01*
X132994967Y-96957387D01*
X133053782Y-96815394D01*
X133092700Y-96619742D01*
X133092700Y-96420258D01*
X133053782Y-96224606D01*
X132977443Y-96040307D01*
X132866615Y-95874441D01*
X132725559Y-95733385D01*
X132559693Y-95622557D01*
X132417700Y-95563742D01*
X132417700Y-94936258D01*
X132559693Y-94877443D01*
X132725559Y-94766615D01*
X132866615Y-94625559D01*
X132977443Y-94459693D01*
X133053782Y-94275394D01*
X133092700Y-94079742D01*
X133092700Y-93880258D01*
X133053782Y-93684606D01*
X132977443Y-93500307D01*
X132866615Y-93334441D01*
X132725559Y-93193385D01*
X132559693Y-93082557D01*
X132375394Y-93006218D01*
X132179742Y-92967300D01*
X131980258Y-92967300D01*
X131784606Y-93006218D01*
X131600307Y-93082557D01*
X131434441Y-93193385D01*
X131293385Y-93334441D01*
X131182557Y-93500307D01*
X131106218Y-93684606D01*
X131067300Y-93880258D01*
X130973900Y-93880258D01*
X130973900Y-92439594D01*
X134001656Y-92439594D01*
X134088175Y-92637574D01*
X134332797Y-92726120D01*
X134589994Y-92765243D01*
X134849880Y-92753436D01*
X135102471Y-92691155D01*
X135231825Y-92637574D01*
X135318344Y-92439594D01*
X134660000Y-91781250D01*
X134001656Y-92439594D01*
X130973900Y-92439594D01*
X130973900Y-91448019D01*
X130981550Y-91369994D01*
X133334757Y-91369994D01*
X133346564Y-91629880D01*
X133408845Y-91882471D01*
X133462426Y-92011825D01*
X133660406Y-92098344D01*
X134318750Y-91440000D01*
X135001250Y-91440000D01*
X135659594Y-92098344D01*
X135857574Y-92011825D01*
X135946120Y-91767203D01*
X135985243Y-91510006D01*
X135977532Y-91340258D01*
X136147300Y-91340258D01*
X136147300Y-91539742D01*
X136186218Y-91735394D01*
X136262557Y-91919693D01*
X136373385Y-92085559D01*
X136514441Y-92226615D01*
X136680307Y-92337443D01*
X136864606Y-92413782D01*
X137060258Y-92452700D01*
X137259742Y-92452700D01*
X137325629Y-92439594D01*
X146701656Y-92439594D01*
X146788175Y-92637574D01*
X147032797Y-92726120D01*
X147289994Y-92765243D01*
X147549880Y-92753436D01*
X147802471Y-92691155D01*
X147931825Y-92637574D01*
X148018344Y-92439594D01*
X147360000Y-91781250D01*
X146701656Y-92439594D01*
X137325629Y-92439594D01*
X137455394Y-92413782D01*
X137639693Y-92337443D01*
X137805559Y-92226615D01*
X137946615Y-92085559D01*
X138057443Y-91919693D01*
X138133782Y-91735394D01*
X138172700Y-91539742D01*
X138172700Y-91369994D01*
X146034757Y-91369994D01*
X146046564Y-91629880D01*
X146108845Y-91882471D01*
X146162426Y-92011825D01*
X146360406Y-92098344D01*
X147018750Y-91440000D01*
X147701250Y-91440000D01*
X148359594Y-92098344D01*
X148557574Y-92011825D01*
X148646120Y-91767203D01*
X148685243Y-91510006D01*
X148673436Y-91250120D01*
X148611155Y-90997529D01*
X148557574Y-90868175D01*
X148359594Y-90781656D01*
X147701250Y-91440000D01*
X147018750Y-91440000D01*
X146360406Y-90781656D01*
X146162426Y-90868175D01*
X146073880Y-91112797D01*
X146034757Y-91369994D01*
X138172700Y-91369994D01*
X138172700Y-91340258D01*
X138133782Y-91144606D01*
X138057443Y-90960307D01*
X137946615Y-90794441D01*
X137805559Y-90653385D01*
X137639693Y-90542557D01*
X137455394Y-90466218D01*
X137259742Y-90427300D01*
X137060258Y-90427300D01*
X136864606Y-90466218D01*
X136680307Y-90542557D01*
X136514441Y-90653385D01*
X136373385Y-90794441D01*
X136262557Y-90960307D01*
X136186218Y-91144606D01*
X136147300Y-91340258D01*
X135977532Y-91340258D01*
X135973436Y-91250120D01*
X135911155Y-90997529D01*
X135857574Y-90868175D01*
X135659594Y-90781656D01*
X135001250Y-91440000D01*
X134318750Y-91440000D01*
X133660406Y-90781656D01*
X133462426Y-90868175D01*
X133373880Y-91112797D01*
X133334757Y-91369994D01*
X130981550Y-91369994D01*
X130995737Y-91225311D01*
X131058088Y-91018794D01*
X131159360Y-90828330D01*
X131295701Y-90661159D01*
X131461914Y-90523655D01*
X131651674Y-90421052D01*
X131857747Y-90357261D01*
X132080008Y-90333901D01*
X132080287Y-90333900D01*
X134048200Y-90333900D01*
X134001656Y-90440406D01*
%TD*%
M02*
