%TF.GenerationSoftware,KiCad,Pcbnew,5.1.6*%
%TF.CreationDate,2020-10-07T16:50:06+02:00*%
%TF.ProjectId,potmux,706f746d-7578-42e6-9b69-6361645f7063,2*%
%TF.SameCoordinates,Original*%
%TF.FileFunction,Legend,Top*%
%TF.FilePolarity,Positive*%
%FSLAX46Y46*%
G04 Gerber Fmt 4.6, Leading zero omitted, Abs format (unit mm)*
G04 Created by KiCad (PCBNEW 5.1.6) date 2020-10-07 16:50:06*
%MOMM*%
%LPD*%
G01*
G04 APERTURE LIST*
%ADD10C,0.150000*%
%ADD11C,0.300000*%
%ADD12C,0.120000*%
%ADD13R,2.432000X2.127200*%
%ADD14O,2.432000X2.127200*%
%ADD15C,1.797000*%
%ADD16R,2.100000X2.100000*%
%ADD17O,2.100000X2.100000*%
%ADD18O,2.000000X2.000000*%
%ADD19C,2.000000*%
%ADD20C,1.000000*%
G04 APERTURE END LIST*
D10*
X141329285Y-93303285D02*
X141079285Y-92946142D01*
X140900714Y-93303285D02*
X140900714Y-92553285D01*
X141186428Y-92553285D01*
X141257857Y-92589000D01*
X141293571Y-92624714D01*
X141329285Y-92696142D01*
X141329285Y-92803285D01*
X141293571Y-92874714D01*
X141257857Y-92910428D01*
X141186428Y-92946142D01*
X140900714Y-92946142D01*
X141936428Y-93267571D02*
X141865000Y-93303285D01*
X141722142Y-93303285D01*
X141650714Y-93267571D01*
X141615000Y-93196142D01*
X141615000Y-92910428D01*
X141650714Y-92839000D01*
X141722142Y-92803285D01*
X141865000Y-92803285D01*
X141936428Y-92839000D01*
X141972142Y-92910428D01*
X141972142Y-92981857D01*
X141615000Y-93053285D01*
X142222142Y-92803285D02*
X142400714Y-93303285D01*
X142579285Y-92803285D01*
X142865000Y-93231857D02*
X142900714Y-93267571D01*
X142865000Y-93303285D01*
X142829285Y-93267571D01*
X142865000Y-93231857D01*
X142865000Y-93303285D01*
X143186428Y-92624714D02*
X143222142Y-92589000D01*
X143293571Y-92553285D01*
X143472142Y-92553285D01*
X143543571Y-92589000D01*
X143579285Y-92624714D01*
X143615000Y-92696142D01*
X143615000Y-92767571D01*
X143579285Y-92874714D01*
X143150714Y-93303285D01*
X143615000Y-93303285D01*
D11*
X138597142Y-92118571D02*
X138597142Y-90618571D01*
X139168571Y-90618571D01*
X139311428Y-90690000D01*
X139382857Y-90761428D01*
X139454285Y-90904285D01*
X139454285Y-91118571D01*
X139382857Y-91261428D01*
X139311428Y-91332857D01*
X139168571Y-91404285D01*
X138597142Y-91404285D01*
X140311428Y-92118571D02*
X140168571Y-92047142D01*
X140097142Y-91975714D01*
X140025714Y-91832857D01*
X140025714Y-91404285D01*
X140097142Y-91261428D01*
X140168571Y-91190000D01*
X140311428Y-91118571D01*
X140525714Y-91118571D01*
X140668571Y-91190000D01*
X140740000Y-91261428D01*
X140811428Y-91404285D01*
X140811428Y-91832857D01*
X140740000Y-91975714D01*
X140668571Y-92047142D01*
X140525714Y-92118571D01*
X140311428Y-92118571D01*
X141240000Y-91118571D02*
X141811428Y-91118571D01*
X141454285Y-90618571D02*
X141454285Y-91904285D01*
X141525714Y-92047142D01*
X141668571Y-92118571D01*
X141811428Y-92118571D01*
X142311428Y-92118571D02*
X142311428Y-90618571D01*
X142811428Y-91690000D01*
X143311428Y-90618571D01*
X143311428Y-92118571D01*
X144668571Y-91118571D02*
X144668571Y-92118571D01*
X144025714Y-91118571D02*
X144025714Y-91904285D01*
X144097142Y-92047142D01*
X144240000Y-92118571D01*
X144454285Y-92118571D01*
X144597142Y-92047142D01*
X144668571Y-91975714D01*
X145240000Y-92118571D02*
X146025714Y-91118571D01*
X145240000Y-91118571D02*
X146025714Y-92118571D01*
D10*
X137031428Y-110512857D02*
X137431428Y-110398571D01*
X137145714Y-110284285D01*
X137431428Y-110170000D01*
X137031428Y-110055714D01*
X137031428Y-109884285D02*
X137431428Y-109770000D01*
X137145714Y-109655714D01*
X137431428Y-109541428D01*
X137031428Y-109427142D01*
X137031428Y-109255714D02*
X137431428Y-109141428D01*
X137145714Y-109027142D01*
X137431428Y-108912857D01*
X137031428Y-108798571D01*
X137374285Y-108570000D02*
X137402857Y-108541428D01*
X137431428Y-108570000D01*
X137402857Y-108598571D01*
X137374285Y-108570000D01*
X137431428Y-108570000D01*
X137431428Y-108284285D02*
X136831428Y-108284285D01*
X137431428Y-108027142D02*
X137117142Y-108027142D01*
X137060000Y-108055714D01*
X137031428Y-108112857D01*
X137031428Y-108198571D01*
X137060000Y-108255714D01*
X137088571Y-108284285D01*
X137402857Y-107512857D02*
X137431428Y-107570000D01*
X137431428Y-107684285D01*
X137402857Y-107741428D01*
X137345714Y-107770000D01*
X137117142Y-107770000D01*
X137060000Y-107741428D01*
X137031428Y-107684285D01*
X137031428Y-107570000D01*
X137060000Y-107512857D01*
X137117142Y-107484285D01*
X137174285Y-107484285D01*
X137231428Y-107770000D01*
X137031428Y-107227142D02*
X137431428Y-107227142D01*
X137088571Y-107227142D02*
X137060000Y-107198571D01*
X137031428Y-107141428D01*
X137031428Y-107055714D01*
X137060000Y-106998571D01*
X137117142Y-106970000D01*
X137431428Y-106970000D01*
X137031428Y-106684285D02*
X137431428Y-106684285D01*
X137088571Y-106684285D02*
X137060000Y-106655714D01*
X137031428Y-106598571D01*
X137031428Y-106512857D01*
X137060000Y-106455714D01*
X137117142Y-106427142D01*
X137431428Y-106427142D01*
X137431428Y-106141428D02*
X137031428Y-106141428D01*
X136831428Y-106141428D02*
X136860000Y-106170000D01*
X136888571Y-106141428D01*
X136860000Y-106112857D01*
X136831428Y-106141428D01*
X136888571Y-106141428D01*
X137031428Y-105855714D02*
X137431428Y-105855714D01*
X137088571Y-105855714D02*
X137060000Y-105827142D01*
X137031428Y-105770000D01*
X137031428Y-105684285D01*
X137060000Y-105627142D01*
X137117142Y-105598571D01*
X137431428Y-105598571D01*
X137031428Y-105055714D02*
X137517142Y-105055714D01*
X137574285Y-105084285D01*
X137602857Y-105112857D01*
X137631428Y-105170000D01*
X137631428Y-105255714D01*
X137602857Y-105312857D01*
X137402857Y-105055714D02*
X137431428Y-105112857D01*
X137431428Y-105227142D01*
X137402857Y-105284285D01*
X137374285Y-105312857D01*
X137317142Y-105341428D01*
X137145714Y-105341428D01*
X137088571Y-105312857D01*
X137060000Y-105284285D01*
X137031428Y-105227142D01*
X137031428Y-105112857D01*
X137060000Y-105055714D01*
X137202857Y-104770000D02*
X137202857Y-104312857D01*
X137431428Y-103941428D02*
X137402857Y-103998571D01*
X137345714Y-104027142D01*
X136831428Y-104027142D01*
X137431428Y-103712857D02*
X137031428Y-103712857D01*
X136831428Y-103712857D02*
X136860000Y-103741428D01*
X136888571Y-103712857D01*
X136860000Y-103684285D01*
X136831428Y-103712857D01*
X136888571Y-103712857D01*
X137402857Y-103198571D02*
X137431428Y-103255714D01*
X137431428Y-103370000D01*
X137402857Y-103427142D01*
X137345714Y-103455714D01*
X137117142Y-103455714D01*
X137060000Y-103427142D01*
X137031428Y-103370000D01*
X137031428Y-103255714D01*
X137060000Y-103198571D01*
X137117142Y-103170000D01*
X137174285Y-103170000D01*
X137231428Y-103455714D01*
X137431428Y-102912857D02*
X136831428Y-102912857D01*
X137060000Y-102912857D02*
X137031428Y-102855714D01*
X137031428Y-102741428D01*
X137060000Y-102684285D01*
X137088571Y-102655714D01*
X137145714Y-102627142D01*
X137317142Y-102627142D01*
X137374285Y-102655714D01*
X137402857Y-102684285D01*
X137431428Y-102741428D01*
X137431428Y-102855714D01*
X137402857Y-102912857D01*
X137402857Y-102141428D02*
X137431428Y-102198571D01*
X137431428Y-102312857D01*
X137402857Y-102370000D01*
X137345714Y-102398571D01*
X137117142Y-102398571D01*
X137060000Y-102370000D01*
X137031428Y-102312857D01*
X137031428Y-102198571D01*
X137060000Y-102141428D01*
X137117142Y-102112857D01*
X137174285Y-102112857D01*
X137231428Y-102398571D01*
X137031428Y-101855714D02*
X137431428Y-101855714D01*
X137088571Y-101855714D02*
X137060000Y-101827142D01*
X137031428Y-101770000D01*
X137031428Y-101684285D01*
X137060000Y-101627142D01*
X137117142Y-101598571D01*
X137431428Y-101598571D01*
X137431428Y-101055714D02*
X137117142Y-101055714D01*
X137060000Y-101084285D01*
X137031428Y-101141428D01*
X137031428Y-101255714D01*
X137060000Y-101312857D01*
X137402857Y-101055714D02*
X137431428Y-101112857D01*
X137431428Y-101255714D01*
X137402857Y-101312857D01*
X137345714Y-101341428D01*
X137288571Y-101341428D01*
X137231428Y-101312857D01*
X137202857Y-101255714D01*
X137202857Y-101112857D01*
X137174285Y-101055714D01*
X137031428Y-100512857D02*
X137431428Y-100512857D01*
X137031428Y-100770000D02*
X137345714Y-100770000D01*
X137402857Y-100741428D01*
X137431428Y-100684285D01*
X137431428Y-100598571D01*
X137402857Y-100541428D01*
X137374285Y-100512857D01*
X137374285Y-100227142D02*
X137402857Y-100198571D01*
X137431428Y-100227142D01*
X137402857Y-100255714D01*
X137374285Y-100227142D01*
X137431428Y-100227142D01*
X137431428Y-99684285D02*
X136831428Y-99684285D01*
X137402857Y-99684285D02*
X137431428Y-99741428D01*
X137431428Y-99855714D01*
X137402857Y-99912857D01*
X137374285Y-99941428D01*
X137317142Y-99970000D01*
X137145714Y-99970000D01*
X137088571Y-99941428D01*
X137060000Y-99912857D01*
X137031428Y-99855714D01*
X137031428Y-99741428D01*
X137060000Y-99684285D01*
X137402857Y-99170000D02*
X137431428Y-99227142D01*
X137431428Y-99341428D01*
X137402857Y-99398571D01*
X137345714Y-99427142D01*
X137117142Y-99427142D01*
X137060000Y-99398571D01*
X137031428Y-99341428D01*
X137031428Y-99227142D01*
X137060000Y-99170000D01*
X137117142Y-99141428D01*
X137174285Y-99141428D01*
X137231428Y-99427142D01*
X136802857Y-98455714D02*
X137574285Y-98970000D01*
X137031428Y-98255714D02*
X137631428Y-98255714D01*
X137060000Y-98255714D02*
X137031428Y-98198571D01*
X137031428Y-98084285D01*
X137060000Y-98027142D01*
X137088571Y-97998571D01*
X137145714Y-97970000D01*
X137317142Y-97970000D01*
X137374285Y-97998571D01*
X137402857Y-98027142D01*
X137431428Y-98084285D01*
X137431428Y-98198571D01*
X137402857Y-98255714D01*
X137431428Y-97627142D02*
X137402857Y-97684285D01*
X137374285Y-97712857D01*
X137317142Y-97741428D01*
X137145714Y-97741428D01*
X137088571Y-97712857D01*
X137060000Y-97684285D01*
X137031428Y-97627142D01*
X137031428Y-97541428D01*
X137060000Y-97484285D01*
X137088571Y-97455714D01*
X137145714Y-97427142D01*
X137317142Y-97427142D01*
X137374285Y-97455714D01*
X137402857Y-97484285D01*
X137431428Y-97541428D01*
X137431428Y-97627142D01*
X137031428Y-97255714D02*
X137031428Y-97027142D01*
X136831428Y-97170000D02*
X137345714Y-97170000D01*
X137402857Y-97141428D01*
X137431428Y-97084285D01*
X137431428Y-97027142D01*
X137431428Y-96827142D02*
X137031428Y-96827142D01*
X137088571Y-96827142D02*
X137060000Y-96798571D01*
X137031428Y-96741428D01*
X137031428Y-96655714D01*
X137060000Y-96598571D01*
X137117142Y-96570000D01*
X137431428Y-96570000D01*
X137117142Y-96570000D02*
X137060000Y-96541428D01*
X137031428Y-96484285D01*
X137031428Y-96398571D01*
X137060000Y-96341428D01*
X137117142Y-96312857D01*
X137431428Y-96312857D01*
X137031428Y-95770000D02*
X137431428Y-95770000D01*
X137031428Y-96027142D02*
X137345714Y-96027142D01*
X137402857Y-95998571D01*
X137431428Y-95941428D01*
X137431428Y-95855714D01*
X137402857Y-95798571D01*
X137374285Y-95770000D01*
X137431428Y-95541428D02*
X137031428Y-95227142D01*
X137031428Y-95541428D02*
X137431428Y-95227142D01*
X135354285Y-113917000D02*
X135711428Y-113917000D01*
X135282857Y-114131285D02*
X135532857Y-113381285D01*
X135782857Y-114131285D01*
X136425714Y-114131285D02*
X135997142Y-114131285D01*
X136211428Y-114131285D02*
X136211428Y-113381285D01*
X136140000Y-113488428D01*
X136068571Y-113559857D01*
X135997142Y-113595571D01*
X137894285Y-113917000D02*
X138251428Y-113917000D01*
X137822857Y-114131285D02*
X138072857Y-113381285D01*
X138322857Y-114131285D01*
X138537142Y-113452714D02*
X138572857Y-113417000D01*
X138644285Y-113381285D01*
X138822857Y-113381285D01*
X138894285Y-113417000D01*
X138930000Y-113452714D01*
X138965714Y-113524142D01*
X138965714Y-113595571D01*
X138930000Y-113702714D01*
X138501428Y-114131285D01*
X138965714Y-114131285D01*
X140920428Y-113738428D02*
X141027571Y-113774142D01*
X141063285Y-113809857D01*
X141099000Y-113881285D01*
X141099000Y-113988428D01*
X141063285Y-114059857D01*
X141027571Y-114095571D01*
X140956142Y-114131285D01*
X140670428Y-114131285D01*
X140670428Y-113381285D01*
X140920428Y-113381285D01*
X140991857Y-113417000D01*
X141027571Y-113452714D01*
X141063285Y-113524142D01*
X141063285Y-113595571D01*
X141027571Y-113667000D01*
X140991857Y-113702714D01*
X140920428Y-113738428D01*
X140670428Y-113738428D01*
X141813285Y-114131285D02*
X141384714Y-114131285D01*
X141599000Y-114131285D02*
X141599000Y-113381285D01*
X141527571Y-113488428D01*
X141456142Y-113559857D01*
X141384714Y-113595571D01*
X143206428Y-113738428D02*
X143313571Y-113774142D01*
X143349285Y-113809857D01*
X143385000Y-113881285D01*
X143385000Y-113988428D01*
X143349285Y-114059857D01*
X143313571Y-114095571D01*
X143242142Y-114131285D01*
X142956428Y-114131285D01*
X142956428Y-113381285D01*
X143206428Y-113381285D01*
X143277857Y-113417000D01*
X143313571Y-113452714D01*
X143349285Y-113524142D01*
X143349285Y-113595571D01*
X143313571Y-113667000D01*
X143277857Y-113702714D01*
X143206428Y-113738428D01*
X142956428Y-113738428D01*
X143670714Y-113452714D02*
X143706428Y-113417000D01*
X143777857Y-113381285D01*
X143956428Y-113381285D01*
X144027857Y-113417000D01*
X144063571Y-113452714D01*
X144099285Y-113524142D01*
X144099285Y-113595571D01*
X144063571Y-113702714D01*
X143635000Y-114131285D01*
X144099285Y-114131285D01*
X145496428Y-113738428D02*
X145746428Y-113738428D01*
X145853571Y-114131285D02*
X145496428Y-114131285D01*
X145496428Y-113381285D01*
X145853571Y-113381285D01*
X146175000Y-114131285D02*
X146175000Y-113381285D01*
X146603571Y-114131285D01*
X146603571Y-113381285D01*
X148018571Y-113417000D02*
X147947142Y-113381285D01*
X147840000Y-113381285D01*
X147732857Y-113417000D01*
X147661428Y-113488428D01*
X147625714Y-113559857D01*
X147590000Y-113702714D01*
X147590000Y-113809857D01*
X147625714Y-113952714D01*
X147661428Y-114024142D01*
X147732857Y-114095571D01*
X147840000Y-114131285D01*
X147911428Y-114131285D01*
X148018571Y-114095571D01*
X148054285Y-114059857D01*
X148054285Y-113809857D01*
X147911428Y-113809857D01*
X148375714Y-114131285D02*
X148375714Y-113381285D01*
X148804285Y-114131285D01*
X148804285Y-113381285D01*
X149161428Y-114131285D02*
X149161428Y-113381285D01*
X149340000Y-113381285D01*
X149447142Y-113417000D01*
X149518571Y-113488428D01*
X149554285Y-113559857D01*
X149590000Y-113702714D01*
X149590000Y-113809857D01*
X149554285Y-113952714D01*
X149518571Y-114024142D01*
X149447142Y-114095571D01*
X149340000Y-114131285D01*
X149161428Y-114131285D01*
X134321785Y-107941428D02*
X133571785Y-107941428D01*
X133571785Y-107655714D01*
X133607500Y-107584285D01*
X133643214Y-107548571D01*
X133714642Y-107512857D01*
X133821785Y-107512857D01*
X133893214Y-107548571D01*
X133928928Y-107584285D01*
X133964642Y-107655714D01*
X133964642Y-107941428D01*
X134321785Y-107084285D02*
X134286071Y-107155714D01*
X134250357Y-107191428D01*
X134178928Y-107227142D01*
X133964642Y-107227142D01*
X133893214Y-107191428D01*
X133857500Y-107155714D01*
X133821785Y-107084285D01*
X133821785Y-106977142D01*
X133857500Y-106905714D01*
X133893214Y-106870000D01*
X133964642Y-106834285D01*
X134178928Y-106834285D01*
X134250357Y-106870000D01*
X134286071Y-106905714D01*
X134321785Y-106977142D01*
X134321785Y-107084285D01*
X133821785Y-106620000D02*
X133821785Y-106334285D01*
X133571785Y-106512857D02*
X134214642Y-106512857D01*
X134286071Y-106477142D01*
X134321785Y-106405714D01*
X134321785Y-106334285D01*
X134321785Y-106084285D02*
X133571785Y-106084285D01*
X134107500Y-105834285D01*
X133571785Y-105584285D01*
X134321785Y-105584285D01*
X133821785Y-104905714D02*
X134321785Y-104905714D01*
X133821785Y-105227142D02*
X134214642Y-105227142D01*
X134286071Y-105191428D01*
X134321785Y-105120000D01*
X134321785Y-105012857D01*
X134286071Y-104941428D01*
X134250357Y-104905714D01*
X134321785Y-104620000D02*
X133821785Y-104227142D01*
X133821785Y-104620000D02*
X134321785Y-104227142D01*
X134321785Y-102941428D02*
X133964642Y-103191428D01*
X134321785Y-103370000D02*
X133571785Y-103370000D01*
X133571785Y-103084285D01*
X133607500Y-103012857D01*
X133643214Y-102977142D01*
X133714642Y-102941428D01*
X133821785Y-102941428D01*
X133893214Y-102977142D01*
X133928928Y-103012857D01*
X133964642Y-103084285D01*
X133964642Y-103370000D01*
X134286071Y-102334285D02*
X134321785Y-102405714D01*
X134321785Y-102548571D01*
X134286071Y-102620000D01*
X134214642Y-102655714D01*
X133928928Y-102655714D01*
X133857500Y-102620000D01*
X133821785Y-102548571D01*
X133821785Y-102405714D01*
X133857500Y-102334285D01*
X133928928Y-102298571D01*
X134000357Y-102298571D01*
X134071785Y-102655714D01*
X133821785Y-102048571D02*
X134321785Y-101870000D01*
X133821785Y-101691428D01*
X134321785Y-101405714D02*
X133821785Y-101405714D01*
X133571785Y-101405714D02*
X133607500Y-101441428D01*
X133643214Y-101405714D01*
X133607500Y-101370000D01*
X133571785Y-101405714D01*
X133643214Y-101405714D01*
X134286071Y-101084285D02*
X134321785Y-101012857D01*
X134321785Y-100870000D01*
X134286071Y-100798571D01*
X134214642Y-100762857D01*
X134178928Y-100762857D01*
X134107500Y-100798571D01*
X134071785Y-100870000D01*
X134071785Y-100977142D01*
X134036071Y-101048571D01*
X133964642Y-101084285D01*
X133928928Y-101084285D01*
X133857500Y-101048571D01*
X133821785Y-100977142D01*
X133821785Y-100870000D01*
X133857500Y-100798571D01*
X134321785Y-100441428D02*
X133821785Y-100441428D01*
X133571785Y-100441428D02*
X133607500Y-100477142D01*
X133643214Y-100441428D01*
X133607500Y-100405714D01*
X133571785Y-100441428D01*
X133643214Y-100441428D01*
X134321785Y-99977142D02*
X134286071Y-100048571D01*
X134250357Y-100084285D01*
X134178928Y-100120000D01*
X133964642Y-100120000D01*
X133893214Y-100084285D01*
X133857500Y-100048571D01*
X133821785Y-99977142D01*
X133821785Y-99870000D01*
X133857500Y-99798571D01*
X133893214Y-99762857D01*
X133964642Y-99727142D01*
X134178928Y-99727142D01*
X134250357Y-99762857D01*
X134286071Y-99798571D01*
X134321785Y-99870000D01*
X134321785Y-99977142D01*
X133821785Y-99405714D02*
X134321785Y-99405714D01*
X133893214Y-99405714D02*
X133857500Y-99370000D01*
X133821785Y-99298571D01*
X133821785Y-99191428D01*
X133857500Y-99120000D01*
X133928928Y-99084285D01*
X134321785Y-99084285D01*
X133643214Y-98191428D02*
X133607500Y-98155714D01*
X133571785Y-98084285D01*
X133571785Y-97905714D01*
X133607500Y-97834285D01*
X133643214Y-97798571D01*
X133714642Y-97762857D01*
X133786071Y-97762857D01*
X133893214Y-97798571D01*
X134321785Y-98227142D01*
X134321785Y-97762857D01*
X135025357Y-109459285D02*
X134989642Y-109530714D01*
X134989642Y-109673571D01*
X135025357Y-109745000D01*
X135096785Y-109816428D01*
X135168214Y-109852142D01*
X135311071Y-109852142D01*
X135382500Y-109816428D01*
X135453928Y-109745000D01*
X135489642Y-109673571D01*
X135489642Y-109530714D01*
X135453928Y-109459285D01*
X134739642Y-109602142D02*
X134775357Y-109780714D01*
X134882500Y-109959285D01*
X135061071Y-110066428D01*
X135239642Y-110102142D01*
X135418214Y-110066428D01*
X135596785Y-109959285D01*
X135703928Y-109780714D01*
X135739642Y-109602142D01*
X135703928Y-109423571D01*
X135596785Y-109245000D01*
X135418214Y-109137857D01*
X135239642Y-109102142D01*
X135061071Y-109137857D01*
X134882500Y-109245000D01*
X134775357Y-109423571D01*
X134739642Y-109602142D01*
X134918214Y-108816428D02*
X134882500Y-108780714D01*
X134846785Y-108709285D01*
X134846785Y-108530714D01*
X134882500Y-108459285D01*
X134918214Y-108423571D01*
X134989642Y-108387857D01*
X135061071Y-108387857D01*
X135168214Y-108423571D01*
X135596785Y-108852142D01*
X135596785Y-108387857D01*
X134846785Y-107923571D02*
X134846785Y-107852142D01*
X134882500Y-107780714D01*
X134918214Y-107745000D01*
X134989642Y-107709285D01*
X135132500Y-107673571D01*
X135311071Y-107673571D01*
X135453928Y-107709285D01*
X135525357Y-107745000D01*
X135561071Y-107780714D01*
X135596785Y-107852142D01*
X135596785Y-107923571D01*
X135561071Y-107995000D01*
X135525357Y-108030714D01*
X135453928Y-108066428D01*
X135311071Y-108102142D01*
X135132500Y-108102142D01*
X134989642Y-108066428D01*
X134918214Y-108030714D01*
X134882500Y-107995000D01*
X134846785Y-107923571D01*
X134918214Y-107387857D02*
X134882500Y-107352142D01*
X134846785Y-107280714D01*
X134846785Y-107102142D01*
X134882500Y-107030714D01*
X134918214Y-106995000D01*
X134989642Y-106959285D01*
X135061071Y-106959285D01*
X135168214Y-106995000D01*
X135596785Y-107423571D01*
X135596785Y-106959285D01*
X134846785Y-106495000D02*
X134846785Y-106423571D01*
X134882500Y-106352142D01*
X134918214Y-106316428D01*
X134989642Y-106280714D01*
X135132500Y-106245000D01*
X135311071Y-106245000D01*
X135453928Y-106280714D01*
X135525357Y-106316428D01*
X135561071Y-106352142D01*
X135596785Y-106423571D01*
X135596785Y-106495000D01*
X135561071Y-106566428D01*
X135525357Y-106602142D01*
X135453928Y-106637857D01*
X135311071Y-106673571D01*
X135132500Y-106673571D01*
X134989642Y-106637857D01*
X134918214Y-106602142D01*
X134882500Y-106566428D01*
X134846785Y-106495000D01*
X135596785Y-105352142D02*
X134846785Y-105352142D01*
X135203928Y-105352142D02*
X135203928Y-104923571D01*
X135596785Y-104923571D02*
X134846785Y-104923571D01*
X135561071Y-104280714D02*
X135596785Y-104352142D01*
X135596785Y-104495000D01*
X135561071Y-104566428D01*
X135489642Y-104602142D01*
X135203928Y-104602142D01*
X135132500Y-104566428D01*
X135096785Y-104495000D01*
X135096785Y-104352142D01*
X135132500Y-104280714D01*
X135203928Y-104245000D01*
X135275357Y-104245000D01*
X135346785Y-104602142D01*
X135096785Y-103923571D02*
X135596785Y-103923571D01*
X135168214Y-103923571D02*
X135132500Y-103887857D01*
X135096785Y-103816428D01*
X135096785Y-103709285D01*
X135132500Y-103637857D01*
X135203928Y-103602142D01*
X135596785Y-103602142D01*
X135096785Y-103245000D02*
X135596785Y-103245000D01*
X135168214Y-103245000D02*
X135132500Y-103209285D01*
X135096785Y-103137857D01*
X135096785Y-103030714D01*
X135132500Y-102959285D01*
X135203928Y-102923571D01*
X135596785Y-102923571D01*
X135596785Y-102566428D02*
X135096785Y-102566428D01*
X134846785Y-102566428D02*
X134882500Y-102602142D01*
X134918214Y-102566428D01*
X134882500Y-102530714D01*
X134846785Y-102566428D01*
X134918214Y-102566428D01*
X135096785Y-102209285D02*
X135596785Y-102209285D01*
X135168214Y-102209285D02*
X135132500Y-102173571D01*
X135096785Y-102102142D01*
X135096785Y-101995000D01*
X135132500Y-101923571D01*
X135203928Y-101887857D01*
X135596785Y-101887857D01*
X135096785Y-101209285D02*
X135703928Y-101209285D01*
X135775357Y-101245000D01*
X135811071Y-101280714D01*
X135846785Y-101352142D01*
X135846785Y-101459285D01*
X135811071Y-101530714D01*
X135561071Y-101209285D02*
X135596785Y-101280714D01*
X135596785Y-101423571D01*
X135561071Y-101495000D01*
X135525357Y-101530714D01*
X135453928Y-101566428D01*
X135239642Y-101566428D01*
X135168214Y-101530714D01*
X135132500Y-101495000D01*
X135096785Y-101423571D01*
X135096785Y-101280714D01*
X135132500Y-101209285D01*
X135596785Y-99923571D02*
X135596785Y-100280714D01*
X134846785Y-100280714D01*
X135596785Y-99673571D02*
X135096785Y-99673571D01*
X134846785Y-99673571D02*
X134882500Y-99709285D01*
X134918214Y-99673571D01*
X134882500Y-99637857D01*
X134846785Y-99673571D01*
X134918214Y-99673571D01*
X135561071Y-99030714D02*
X135596785Y-99102142D01*
X135596785Y-99245000D01*
X135561071Y-99316428D01*
X135489642Y-99352142D01*
X135203928Y-99352142D01*
X135132500Y-99316428D01*
X135096785Y-99245000D01*
X135096785Y-99102142D01*
X135132500Y-99030714D01*
X135203928Y-98995000D01*
X135275357Y-98995000D01*
X135346785Y-99352142D01*
X135596785Y-98673571D02*
X134846785Y-98673571D01*
X135132500Y-98673571D02*
X135096785Y-98602142D01*
X135096785Y-98459285D01*
X135132500Y-98387857D01*
X135168214Y-98352142D01*
X135239642Y-98316428D01*
X135453928Y-98316428D01*
X135525357Y-98352142D01*
X135561071Y-98387857D01*
X135596785Y-98459285D01*
X135596785Y-98602142D01*
X135561071Y-98673571D01*
X135561071Y-97709285D02*
X135596785Y-97780714D01*
X135596785Y-97923571D01*
X135561071Y-97995000D01*
X135489642Y-98030714D01*
X135203928Y-98030714D01*
X135132500Y-97995000D01*
X135096785Y-97923571D01*
X135096785Y-97780714D01*
X135132500Y-97709285D01*
X135203928Y-97673571D01*
X135275357Y-97673571D01*
X135346785Y-98030714D01*
X135096785Y-97352142D02*
X135596785Y-97352142D01*
X135168214Y-97352142D02*
X135132500Y-97316428D01*
X135096785Y-97245000D01*
X135096785Y-97137857D01*
X135132500Y-97066428D01*
X135203928Y-97030714D01*
X135596785Y-97030714D01*
X135596785Y-96352142D02*
X135203928Y-96352142D01*
X135132500Y-96387857D01*
X135096785Y-96459285D01*
X135096785Y-96602142D01*
X135132500Y-96673571D01*
X135561071Y-96352142D02*
X135596785Y-96423571D01*
X135596785Y-96602142D01*
X135561071Y-96673571D01*
X135489642Y-96709285D01*
X135418214Y-96709285D01*
X135346785Y-96673571D01*
X135311071Y-96602142D01*
X135311071Y-96423571D01*
X135275357Y-96352142D01*
X135096785Y-95673571D02*
X135596785Y-95673571D01*
X135096785Y-95995000D02*
X135489642Y-95995000D01*
X135561071Y-95959285D01*
X135596785Y-95887857D01*
X135596785Y-95780714D01*
X135561071Y-95709285D01*
X135525357Y-95673571D01*
X147661428Y-93819285D02*
X147661428Y-94319285D01*
X147482857Y-93533571D02*
X147304285Y-94069285D01*
X147768571Y-94069285D01*
X148197142Y-93569285D02*
X148268571Y-93569285D01*
X148340000Y-93605000D01*
X148375714Y-93640714D01*
X148411428Y-93712142D01*
X148447142Y-93855000D01*
X148447142Y-94033571D01*
X148411428Y-94176428D01*
X148375714Y-94247857D01*
X148340000Y-94283571D01*
X148268571Y-94319285D01*
X148197142Y-94319285D01*
X148125714Y-94283571D01*
X148090000Y-94247857D01*
X148054285Y-94176428D01*
X148018571Y-94033571D01*
X148018571Y-93855000D01*
X148054285Y-93712142D01*
X148090000Y-93640714D01*
X148125714Y-93605000D01*
X148197142Y-93569285D01*
X149125714Y-93569285D02*
X148768571Y-93569285D01*
X148732857Y-93926428D01*
X148768571Y-93890714D01*
X148840000Y-93855000D01*
X149018571Y-93855000D01*
X149090000Y-93890714D01*
X149125714Y-93926428D01*
X149161428Y-93997857D01*
X149161428Y-94176428D01*
X149125714Y-94247857D01*
X149090000Y-94283571D01*
X149018571Y-94319285D01*
X148840000Y-94319285D01*
X148768571Y-94283571D01*
X148732857Y-94247857D01*
X149447142Y-93640714D02*
X149482857Y-93605000D01*
X149554285Y-93569285D01*
X149732857Y-93569285D01*
X149804285Y-93605000D01*
X149840000Y-93640714D01*
X149875714Y-93712142D01*
X149875714Y-93783571D01*
X149840000Y-93890714D01*
X149411428Y-94319285D01*
X149875714Y-94319285D01*
X134961428Y-93819285D02*
X134961428Y-94319285D01*
X134782857Y-93533571D02*
X134604285Y-94069285D01*
X135068571Y-94069285D01*
X135497142Y-93569285D02*
X135568571Y-93569285D01*
X135640000Y-93605000D01*
X135675714Y-93640714D01*
X135711428Y-93712142D01*
X135747142Y-93855000D01*
X135747142Y-94033571D01*
X135711428Y-94176428D01*
X135675714Y-94247857D01*
X135640000Y-94283571D01*
X135568571Y-94319285D01*
X135497142Y-94319285D01*
X135425714Y-94283571D01*
X135390000Y-94247857D01*
X135354285Y-94176428D01*
X135318571Y-94033571D01*
X135318571Y-93855000D01*
X135354285Y-93712142D01*
X135390000Y-93640714D01*
X135425714Y-93605000D01*
X135497142Y-93569285D01*
X136425714Y-93569285D02*
X136068571Y-93569285D01*
X136032857Y-93926428D01*
X136068571Y-93890714D01*
X136140000Y-93855000D01*
X136318571Y-93855000D01*
X136390000Y-93890714D01*
X136425714Y-93926428D01*
X136461428Y-93997857D01*
X136461428Y-94176428D01*
X136425714Y-94247857D01*
X136390000Y-94283571D01*
X136318571Y-94319285D01*
X136140000Y-94319285D01*
X136068571Y-94283571D01*
X136032857Y-94247857D01*
X136747142Y-93640714D02*
X136782857Y-93605000D01*
X136854285Y-93569285D01*
X137032857Y-93569285D01*
X137104285Y-93605000D01*
X137140000Y-93640714D01*
X137175714Y-93712142D01*
X137175714Y-93783571D01*
X137140000Y-93890714D01*
X136711428Y-94319285D01*
X137175714Y-94319285D01*
%TO.C,P1*%
X143510000Y-97790000D02*
X143510000Y-113030000D01*
X143510000Y-113030000D02*
X140970000Y-113030000D01*
X140970000Y-113030000D02*
X140970000Y-97790000D01*
X143790000Y-94970000D02*
X143790000Y-96520000D01*
X143510000Y-97790000D02*
X140970000Y-97790000D01*
X140690000Y-96520000D02*
X140690000Y-94970000D01*
X140690000Y-94970000D02*
X143790000Y-94970000D01*
%TO.C,P3*%
X151130000Y-97790000D02*
X151130000Y-113030000D01*
X151130000Y-113030000D02*
X148590000Y-113030000D01*
X148590000Y-113030000D02*
X148590000Y-97790000D01*
X151410000Y-94970000D02*
X151410000Y-96520000D01*
X151130000Y-97790000D02*
X148590000Y-97790000D01*
X148310000Y-96520000D02*
X148310000Y-94970000D01*
X148310000Y-94970000D02*
X151410000Y-94970000D01*
D12*
%TO.C,P4*%
X149920000Y-116910000D02*
X147320000Y-116910000D01*
X147320000Y-116910000D02*
X147320000Y-119530000D01*
X147320000Y-119530000D02*
X149920000Y-119530000D01*
X149920000Y-119530000D02*
X149920000Y-116910000D01*
X148970000Y-119530000D02*
X148210000Y-119530000D01*
X148210000Y-119530000D02*
X148210000Y-125530000D01*
X148210000Y-125530000D02*
X148970000Y-125530000D01*
X148970000Y-125530000D02*
X148970000Y-119530000D01*
X148970000Y-116480000D02*
X148970000Y-116910000D01*
X148210000Y-116480000D02*
X148210000Y-116910000D01*
X148850000Y-119530000D02*
X148850000Y-125530000D01*
X148730000Y-119530000D02*
X148730000Y-125530000D01*
X148610000Y-119530000D02*
X148610000Y-125530000D01*
X148490000Y-119530000D02*
X148490000Y-125530000D01*
X148370000Y-119530000D02*
X148370000Y-125530000D01*
X148250000Y-119530000D02*
X148250000Y-125530000D01*
X147320000Y-116910000D02*
X144780000Y-116910000D01*
X144780000Y-116910000D02*
X144780000Y-119530000D01*
X144780000Y-119530000D02*
X147320000Y-119530000D01*
X147320000Y-119530000D02*
X147320000Y-116910000D01*
X146430000Y-119530000D02*
X145670000Y-119530000D01*
X145670000Y-119530000D02*
X145670000Y-125530000D01*
X145670000Y-125530000D02*
X146430000Y-125530000D01*
X146430000Y-125530000D02*
X146430000Y-119530000D01*
X146430000Y-116480000D02*
X146430000Y-116910000D01*
X145670000Y-116480000D02*
X145670000Y-116910000D01*
X144780000Y-116910000D02*
X142240000Y-116910000D01*
X142240000Y-116910000D02*
X142240000Y-119530000D01*
X142240000Y-119530000D02*
X144780000Y-119530000D01*
X144780000Y-119530000D02*
X144780000Y-116910000D01*
X143890000Y-119530000D02*
X143130000Y-119530000D01*
X143130000Y-119530000D02*
X143130000Y-125530000D01*
X143130000Y-125530000D02*
X143890000Y-125530000D01*
X143890000Y-125530000D02*
X143890000Y-119530000D01*
X143890000Y-116480000D02*
X143890000Y-116910000D01*
X143130000Y-116480000D02*
X143130000Y-116910000D01*
X142240000Y-116910000D02*
X139700000Y-116910000D01*
X139700000Y-116910000D02*
X139700000Y-119530000D01*
X139700000Y-119530000D02*
X142240000Y-119530000D01*
X142240000Y-119530000D02*
X142240000Y-116910000D01*
X141350000Y-119530000D02*
X140590000Y-119530000D01*
X140590000Y-119530000D02*
X140590000Y-125530000D01*
X140590000Y-125530000D02*
X141350000Y-125530000D01*
X141350000Y-125530000D02*
X141350000Y-119530000D01*
X141350000Y-116480000D02*
X141350000Y-116910000D01*
X140590000Y-116480000D02*
X140590000Y-116910000D01*
X139700000Y-116910000D02*
X137160000Y-116910000D01*
X137160000Y-116910000D02*
X137160000Y-119530000D01*
X137160000Y-119530000D02*
X139700000Y-119530000D01*
X139700000Y-119530000D02*
X139700000Y-116910000D01*
X138810000Y-119530000D02*
X138050000Y-119530000D01*
X138050000Y-119530000D02*
X138050000Y-125530000D01*
X138050000Y-125530000D02*
X138810000Y-125530000D01*
X138810000Y-125530000D02*
X138810000Y-119530000D01*
X138810000Y-116480000D02*
X138810000Y-116910000D01*
X138050000Y-116480000D02*
X138050000Y-116910000D01*
X137160000Y-116910000D02*
X134560000Y-116910000D01*
X134560000Y-116910000D02*
X134560000Y-119530000D01*
X134560000Y-119530000D02*
X137160000Y-119530000D01*
X137160000Y-119530000D02*
X137160000Y-116910000D01*
X136270000Y-119530000D02*
X135510000Y-119530000D01*
X135510000Y-119530000D02*
X135510000Y-125530000D01*
X135510000Y-125530000D02*
X136270000Y-125530000D01*
X136270000Y-125530000D02*
X136270000Y-119530000D01*
X136270000Y-116480000D02*
X136270000Y-116910000D01*
X135510000Y-116480000D02*
X135510000Y-116910000D01*
X148590000Y-114300000D02*
X149860000Y-114300000D01*
X149860000Y-114300000D02*
X149860000Y-115570000D01*
D10*
%TO.C,U2*%
X144780000Y-111760000D02*
X144780000Y-113030000D01*
X144780000Y-113030000D02*
X152400000Y-113030000D01*
X152400000Y-113030000D02*
X152400000Y-111760000D01*
X144780000Y-93980000D02*
X144780000Y-92710000D01*
X144780000Y-92710000D02*
X152400000Y-92710000D01*
X152400000Y-92710000D02*
X152400000Y-93980000D01*
%TO.C,U1*%
X132080000Y-111760000D02*
X132080000Y-113030000D01*
X132080000Y-113030000D02*
X139700000Y-113030000D01*
X139700000Y-113030000D02*
X139700000Y-111760000D01*
X132080000Y-93980000D02*
X132080000Y-92710000D01*
X132080000Y-92710000D02*
X139700000Y-92710000D01*
X139700000Y-92710000D02*
X139700000Y-93980000D01*
D12*
%TO.C,C1*%
X136497000Y-92301000D02*
X135323000Y-92301000D01*
X136497000Y-90579000D02*
X135323000Y-90579000D01*
%TO.C,C2*%
X149197000Y-92301000D02*
X148023000Y-92301000D01*
X149197000Y-90579000D02*
X148023000Y-90579000D01*
%TO.C,U2*%
D10*
X146558095Y-111212380D02*
X146558095Y-112021904D01*
X146605714Y-112117142D01*
X146653333Y-112164761D01*
X146748571Y-112212380D01*
X146939047Y-112212380D01*
X147034285Y-112164761D01*
X147081904Y-112117142D01*
X147129523Y-112021904D01*
X147129523Y-111212380D01*
X147558095Y-111307619D02*
X147605714Y-111260000D01*
X147700952Y-111212380D01*
X147939047Y-111212380D01*
X148034285Y-111260000D01*
X148081904Y-111307619D01*
X148129523Y-111402857D01*
X148129523Y-111498095D01*
X148081904Y-111640952D01*
X147510476Y-112212380D01*
X148129523Y-112212380D01*
%TO.C,U1*%
X133858095Y-111212380D02*
X133858095Y-112021904D01*
X133905714Y-112117142D01*
X133953333Y-112164761D01*
X134048571Y-112212380D01*
X134239047Y-112212380D01*
X134334285Y-112164761D01*
X134381904Y-112117142D01*
X134429523Y-112021904D01*
X134429523Y-111212380D01*
X135429523Y-112212380D02*
X134858095Y-112212380D01*
X135143809Y-112212380D02*
X135143809Y-111212380D01*
X135048571Y-111355238D01*
X134953333Y-111450476D01*
X134858095Y-111498095D01*
%TD*%
%LPC*%
D13*
%TO.C,P1*%
X142240000Y-96520000D03*
D14*
X142240000Y-99060000D03*
X142240000Y-101600000D03*
X142240000Y-104140000D03*
X142240000Y-106680000D03*
X142240000Y-109220000D03*
X142240000Y-111760000D03*
%TD*%
D13*
%TO.C,P3*%
X149860000Y-96520000D03*
D14*
X149860000Y-99060000D03*
X149860000Y-101600000D03*
X149860000Y-104140000D03*
X149860000Y-106680000D03*
X149860000Y-109220000D03*
X149860000Y-111760000D03*
%TD*%
D15*
%TO.C,R1*%
X147320000Y-96520000D03*
X147320000Y-104140000D03*
%TD*%
D16*
%TO.C,P4*%
X148590000Y-115570000D03*
D17*
X146050000Y-115570000D03*
X143510000Y-115570000D03*
X140970000Y-115570000D03*
X138430000Y-115570000D03*
X135890000Y-115570000D03*
%TD*%
D18*
%TO.C,U2*%
X144780000Y-93980000D03*
X144780000Y-96520000D03*
X144780000Y-99060000D03*
X144780000Y-101600000D03*
X144780000Y-104140000D03*
X144780000Y-106680000D03*
X144780000Y-109220000D03*
X144780000Y-111760000D03*
X152400000Y-111760000D03*
X152400000Y-109220000D03*
X152400000Y-106680000D03*
X152400000Y-104140000D03*
X152400000Y-101600000D03*
X152400000Y-99060000D03*
X152400000Y-96520000D03*
X152400000Y-93980000D03*
%TD*%
%TO.C,U1*%
X132080000Y-93980000D03*
X132080000Y-96520000D03*
X132080000Y-99060000D03*
X132080000Y-101600000D03*
X132080000Y-104140000D03*
X132080000Y-106680000D03*
X132080000Y-109220000D03*
X132080000Y-111760000D03*
X139700000Y-111760000D03*
X139700000Y-109220000D03*
X139700000Y-106680000D03*
X139700000Y-104140000D03*
X139700000Y-101600000D03*
X139700000Y-99060000D03*
X139700000Y-96520000D03*
X139700000Y-93980000D03*
%TD*%
D19*
%TO.C,C1*%
X137160000Y-91440000D03*
X134660000Y-91440000D03*
%TD*%
%TO.C,C2*%
X149860000Y-91440000D03*
X147360000Y-91440000D03*
%TD*%
D20*
X134867800Y-111234500D03*
M02*
