%TF.GenerationSoftware,KiCad,Pcbnew,5.1.6*%
%TF.CreationDate,2020-10-07T16:50:06+02:00*%
%TF.ProjectId,potmux,706f746d-7578-42e6-9b69-6361645f7063,2*%
%TF.SameCoordinates,Original*%
%TF.FileFunction,Legend,Bot*%
%TF.FilePolarity,Positive*%
%FSLAX46Y46*%
G04 Gerber Fmt 4.6, Leading zero omitted, Abs format (unit mm)*
G04 Created by KiCad (PCBNEW 5.1.6) date 2020-10-07 16:50:06*
%MOMM*%
%LPD*%
G01*
G04 APERTURE LIST*
%ADD10C,0.150000*%
%ADD11R,2.432000X2.127200*%
%ADD12O,2.432000X2.127200*%
%ADD13C,1.797000*%
%ADD14R,2.100000X2.100000*%
%ADD15O,2.100000X2.100000*%
%ADD16O,2.000000X2.000000*%
%ADD17C,2.000000*%
%ADD18C,1.000000*%
G04 APERTURE END LIST*
D10*
%TO.C,R1*%
X147320000Y-96520000D02*
X147320000Y-97028000D01*
X147320000Y-104140000D02*
X147320000Y-103632000D01*
X147320000Y-103632000D02*
X146304000Y-103632000D01*
X146304000Y-103632000D02*
X146304000Y-97028000D01*
X146304000Y-97028000D02*
X148336000Y-97028000D01*
X148336000Y-97028000D02*
X148336000Y-103632000D01*
X148336000Y-103632000D02*
X147320000Y-103632000D01*
X146812000Y-97028000D02*
X146304000Y-97536000D01*
X147772380Y-98385333D02*
X147296190Y-98052000D01*
X147772380Y-97813904D02*
X146772380Y-97813904D01*
X146772380Y-98194857D01*
X146820000Y-98290095D01*
X146867619Y-98337714D01*
X146962857Y-98385333D01*
X147105714Y-98385333D01*
X147200952Y-98337714D01*
X147248571Y-98290095D01*
X147296190Y-98194857D01*
X147296190Y-97813904D01*
X147772380Y-99337714D02*
X147772380Y-98766285D01*
X147772380Y-99052000D02*
X146772380Y-99052000D01*
X146915238Y-98956761D01*
X147010476Y-98861523D01*
X147058095Y-98766285D01*
X147105714Y-101036523D02*
X147772380Y-101036523D01*
X146724761Y-100798428D02*
X147439047Y-100560333D01*
X147439047Y-101179380D01*
X147772380Y-101560333D02*
X146772380Y-101560333D01*
X147391428Y-101655571D02*
X147772380Y-101941285D01*
X147105714Y-101941285D02*
X147486666Y-101560333D01*
X146772380Y-102274619D02*
X146772380Y-102941285D01*
X147772380Y-102512714D01*
%TD*%
%LPC*%
D11*
%TO.C,P1*%
X142240000Y-96520000D03*
D12*
X142240000Y-99060000D03*
X142240000Y-101600000D03*
X142240000Y-104140000D03*
X142240000Y-106680000D03*
X142240000Y-109220000D03*
X142240000Y-111760000D03*
%TD*%
D11*
%TO.C,P3*%
X149860000Y-96520000D03*
D12*
X149860000Y-99060000D03*
X149860000Y-101600000D03*
X149860000Y-104140000D03*
X149860000Y-106680000D03*
X149860000Y-109220000D03*
X149860000Y-111760000D03*
%TD*%
D13*
%TO.C,R1*%
X147320000Y-96520000D03*
X147320000Y-104140000D03*
%TD*%
D14*
%TO.C,P4*%
X148590000Y-115570000D03*
D15*
X146050000Y-115570000D03*
X143510000Y-115570000D03*
X140970000Y-115570000D03*
X138430000Y-115570000D03*
X135890000Y-115570000D03*
%TD*%
D16*
%TO.C,U2*%
X144780000Y-93980000D03*
X144780000Y-96520000D03*
X144780000Y-99060000D03*
X144780000Y-101600000D03*
X144780000Y-104140000D03*
X144780000Y-106680000D03*
X144780000Y-109220000D03*
X144780000Y-111760000D03*
X152400000Y-111760000D03*
X152400000Y-109220000D03*
X152400000Y-106680000D03*
X152400000Y-104140000D03*
X152400000Y-101600000D03*
X152400000Y-99060000D03*
X152400000Y-96520000D03*
X152400000Y-93980000D03*
%TD*%
%TO.C,U1*%
X132080000Y-93980000D03*
X132080000Y-96520000D03*
X132080000Y-99060000D03*
X132080000Y-101600000D03*
X132080000Y-104140000D03*
X132080000Y-106680000D03*
X132080000Y-109220000D03*
X132080000Y-111760000D03*
X139700000Y-111760000D03*
X139700000Y-109220000D03*
X139700000Y-106680000D03*
X139700000Y-104140000D03*
X139700000Y-101600000D03*
X139700000Y-99060000D03*
X139700000Y-96520000D03*
X139700000Y-93980000D03*
%TD*%
D17*
%TO.C,C1*%
X137160000Y-91440000D03*
X134660000Y-91440000D03*
%TD*%
%TO.C,C2*%
X149860000Y-91440000D03*
X147360000Y-91440000D03*
%TD*%
D18*
X134867800Y-111234500D03*
M02*
