%TF.GenerationSoftware,KiCad,Pcbnew,5.1.6*%
%TF.CreationDate,2020-10-07T16:50:06+02:00*%
%TF.ProjectId,potmux,706f746d-7578-42e6-9b69-6361645f7063,2*%
%TF.SameCoordinates,Original*%
%TF.FileFunction,Copper,L2,Bot*%
%TF.FilePolarity,Positive*%
%FSLAX46Y46*%
G04 Gerber Fmt 4.6, Leading zero omitted, Abs format (unit mm)*
G04 Created by KiCad (PCBNEW 5.1.6) date 2020-10-07 16:50:06*
%MOMM*%
%LPD*%
G01*
G04 APERTURE LIST*
%TA.AperFunction,ComponentPad*%
%ADD10R,2.032000X1.727200*%
%TD*%
%TA.AperFunction,ComponentPad*%
%ADD11O,2.032000X1.727200*%
%TD*%
%TA.AperFunction,ComponentPad*%
%ADD12C,1.397000*%
%TD*%
%TA.AperFunction,ComponentPad*%
%ADD13R,1.700000X1.700000*%
%TD*%
%TA.AperFunction,ComponentPad*%
%ADD14O,1.700000X1.700000*%
%TD*%
%TA.AperFunction,ComponentPad*%
%ADD15O,1.600000X1.600000*%
%TD*%
%TA.AperFunction,ComponentPad*%
%ADD16C,1.600000*%
%TD*%
%TA.AperFunction,ViaPad*%
%ADD17C,0.600000*%
%TD*%
%TA.AperFunction,Conductor*%
%ADD18C,0.381000*%
%TD*%
%TA.AperFunction,Conductor*%
%ADD19C,0.250000*%
%TD*%
%TA.AperFunction,Conductor*%
%ADD20C,0.025400*%
%TD*%
G04 APERTURE END LIST*
D10*
%TO.P,P1,1*%
%TO.N,/POTBX*%
X142240000Y-96520000D03*
D11*
%TO.P,P1,2*%
%TO.N,/POTX*%
X142240000Y-99060000D03*
%TO.P,P1,3*%
%TO.N,/POTY*%
X142240000Y-101600000D03*
%TO.P,P1,4*%
%TO.N,/POTBY*%
X142240000Y-104140000D03*
%TO.P,P1,5*%
%TO.N,/PA7*%
X142240000Y-106680000D03*
%TO.P,P1,6*%
%TO.N,/PA6*%
X142240000Y-109220000D03*
%TO.P,P1,7*%
%TO.N,GND*%
X142240000Y-111760000D03*
%TD*%
D10*
%TO.P,P3,1*%
%TO.N,VCC*%
X149860000Y-96520000D03*
D11*
%TO.P,P3,2*%
%TO.N,Net-(P3-Pad2)*%
X149860000Y-99060000D03*
%TO.P,P3,3*%
%TO.N,Net-(P3-Pad3)*%
X149860000Y-101600000D03*
%TO.P,P3,4*%
%TO.N,/POTAY*%
X149860000Y-104140000D03*
%TO.P,P3,5*%
%TO.N,Net-(P3-Pad5)*%
X149860000Y-106680000D03*
%TO.P,P3,6*%
%TO.N,Net-(P3-Pad6)*%
X149860000Y-109220000D03*
%TO.P,P3,7*%
%TO.N,/POTAX*%
X149860000Y-111760000D03*
%TD*%
D12*
%TO.P,R1,1*%
%TO.N,VCC*%
X147320000Y-96520000D03*
%TO.P,R1,2*%
%TO.N,/~EN*%
X147320000Y-104140000D03*
%TD*%
D13*
%TO.P,P4,1*%
%TO.N,GND*%
X148590000Y-115570000D03*
D14*
%TO.P,P4,2*%
%TO.N,/~EN*%
X146050000Y-115570000D03*
%TO.P,P4,3*%
%TO.N,/B2*%
X143510000Y-115570000D03*
%TO.P,P4,4*%
%TO.N,/B1*%
X140970000Y-115570000D03*
%TO.P,P4,5*%
%TO.N,/A2*%
X138430000Y-115570000D03*
%TO.P,P4,6*%
%TO.N,/A1*%
X135890000Y-115570000D03*
%TD*%
D15*
%TO.P,U2,1*%
%TO.N,/B2*%
X144780000Y-93980000D03*
%TO.P,U2,2*%
X144780000Y-96520000D03*
%TO.P,U2,3*%
%TO.N,/POTBY*%
X144780000Y-99060000D03*
%TO.P,U2,4*%
%TO.N,/POTY*%
X144780000Y-101600000D03*
%TO.P,U2,5*%
%TO.N,Net-(U2-Pad5)*%
X144780000Y-104140000D03*
%TO.P,U2,6*%
%TO.N,GND*%
X144780000Y-106680000D03*
%TO.P,U2,7*%
X144780000Y-109220000D03*
%TO.P,U2,8*%
X144780000Y-111760000D03*
%TO.P,U2,9*%
%TO.N,/PA7*%
X152400000Y-111760000D03*
%TO.P,U2,10*%
%TO.N,/~EN*%
X152400000Y-109220000D03*
%TO.P,U2,11*%
%TO.N,/POTX*%
X152400000Y-106680000D03*
%TO.P,U2,12*%
%TO.N,/B1*%
X152400000Y-104140000D03*
%TO.P,U2,13*%
%TO.N,/POTBX*%
X152400000Y-101600000D03*
%TO.P,U2,14*%
%TO.N,Net-(U2-Pad14)*%
X152400000Y-99060000D03*
%TO.P,U2,15*%
%TO.N,/B1*%
X152400000Y-96520000D03*
%TO.P,U2,16*%
%TO.N,VCC*%
X152400000Y-93980000D03*
%TD*%
%TO.P,U1,1*%
%TO.N,/A2*%
X132080000Y-93980000D03*
%TO.P,U1,2*%
X132080000Y-96520000D03*
%TO.P,U1,3*%
%TO.N,/POTAY*%
X132080000Y-99060000D03*
%TO.P,U1,4*%
%TO.N,/POTY*%
X132080000Y-101600000D03*
%TO.P,U1,5*%
%TO.N,Net-(U1-Pad5)*%
X132080000Y-104140000D03*
%TO.P,U1,6*%
%TO.N,GND*%
X132080000Y-106680000D03*
%TO.P,U1,7*%
X132080000Y-109220000D03*
%TO.P,U1,8*%
X132080000Y-111760000D03*
%TO.P,U1,9*%
%TO.N,/PA6*%
X139700000Y-111760000D03*
%TO.P,U1,10*%
%TO.N,/~EN*%
X139700000Y-109220000D03*
%TO.P,U1,11*%
%TO.N,/POTX*%
X139700000Y-106680000D03*
%TO.P,U1,12*%
%TO.N,/A1*%
X139700000Y-104140000D03*
%TO.P,U1,13*%
%TO.N,/POTAX*%
X139700000Y-101600000D03*
%TO.P,U1,14*%
%TO.N,Net-(U1-Pad14)*%
X139700000Y-99060000D03*
%TO.P,U1,15*%
%TO.N,/A1*%
X139700000Y-96520000D03*
%TO.P,U1,16*%
%TO.N,VCC*%
X139700000Y-93980000D03*
%TD*%
D16*
%TO.P,C1,1*%
%TO.N,VCC*%
X137160000Y-91440000D03*
%TO.P,C1,2*%
%TO.N,GND*%
X134660000Y-91440000D03*
%TD*%
%TO.P,C2,1*%
%TO.N,VCC*%
X149860000Y-91440000D03*
%TO.P,C2,2*%
%TO.N,GND*%
X147360000Y-91440000D03*
%TD*%
D17*
%TO.N,/B2*%
X134867800Y-111234500D03*
%TD*%
D18*
%TO.N,VCC*%
X137160000Y-91440000D02*
X139700000Y-93980000D01*
X143510000Y-95170800D02*
X140890800Y-95170800D01*
X140890800Y-95170800D02*
X139700000Y-93980000D01*
X149860000Y-96520000D02*
X148453200Y-96520000D01*
X145970800Y-95170800D02*
X147320000Y-96520000D01*
X143510000Y-95170800D02*
X145970800Y-95170800D01*
X147320000Y-96520000D02*
X148453200Y-96520000D01*
%TO.N,GND*%
X142240000Y-111760000D02*
X142240000Y-113030000D01*
X135890000Y-110490000D02*
X135890000Y-110543700D01*
X135943700Y-110543700D02*
X135890000Y-110490000D01*
X138430000Y-113030000D02*
X135943700Y-110543700D01*
X142240000Y-113030000D02*
X138430000Y-113030000D01*
X132080000Y-111760000D02*
X133270800Y-111760000D01*
X135890000Y-110543700D02*
X134487100Y-110543700D01*
X134487100Y-110543700D02*
X133270800Y-111760000D01*
X148540000Y-114329200D02*
X145970800Y-111760000D01*
X148590000Y-114329200D02*
X148540000Y-114329200D01*
X148590000Y-115570000D02*
X148590000Y-114329200D01*
X144780000Y-111760000D02*
X145970800Y-111760000D01*
X142240000Y-111760000D02*
X141608400Y-111760000D01*
D19*
%TO.N,/POTBX*%
X144780000Y-97708900D02*
X143428900Y-97708900D01*
X143428900Y-97708900D02*
X142240000Y-96520000D01*
X149860000Y-100330000D02*
X151130000Y-100330000D01*
X151130000Y-100330000D02*
X152400000Y-101600000D01*
X145053300Y-97708900D02*
X144780000Y-97708900D01*
X147674400Y-100330000D02*
X145053300Y-97708900D01*
X149860000Y-100330000D02*
X147674400Y-100330000D01*
%TO.N,/POTX*%
X144780000Y-100248900D02*
X146222900Y-100248900D01*
X148478100Y-102504100D02*
X148478100Y-103670000D01*
X146222900Y-100248900D02*
X148478100Y-102504100D01*
X149860000Y-105410000D02*
X151130000Y-105410000D01*
X148478100Y-103670000D02*
X148478100Y-104648800D01*
X148478100Y-104648800D02*
X149239300Y-105410000D01*
X149239300Y-105410000D02*
X149860000Y-105410000D01*
X151130000Y-105410000D02*
X152400000Y-106680000D01*
X144780000Y-100248900D02*
X143428900Y-100248900D01*
X143428900Y-100248900D02*
X142240000Y-99060000D01*
%TO.N,/POTY*%
X132080000Y-101600000D02*
X137922000Y-101600000D01*
X137922000Y-101600000D02*
X139079600Y-100442400D01*
X144780000Y-101600000D02*
X142240000Y-101600000D01*
X142240000Y-101600000D02*
X142240000Y-101077500D01*
X141604900Y-100442400D02*
X142240000Y-101077500D01*
X139079600Y-100442400D02*
X141604900Y-100442400D01*
%TO.N,/PA7*%
X143510000Y-107868900D02*
X146984202Y-107868900D01*
X148058998Y-111859998D02*
X149149900Y-112950900D01*
X148058998Y-108943696D02*
X148058998Y-111859998D01*
X146984202Y-107868900D02*
X148058998Y-108943696D01*
X143510000Y-107868900D02*
X143428900Y-107868900D01*
X143428900Y-107868900D02*
X142240000Y-106680000D01*
X149860000Y-112950900D02*
X151209100Y-112950900D01*
X151209100Y-112950900D02*
X152400000Y-111760000D01*
X149860000Y-112950900D02*
X149149900Y-112950900D01*
%TO.N,/B2*%
X140970000Y-114394700D02*
X142334700Y-114394700D01*
X142334700Y-114394700D02*
X143510000Y-115570000D01*
X138028000Y-114394700D02*
X140970000Y-114394700D01*
X134867800Y-111234500D02*
X138028000Y-114394700D01*
%TO.N,/~EN*%
X149987000Y-107876600D02*
X149151600Y-107876600D01*
X148463000Y-105283000D02*
X147320000Y-104140000D01*
X148463000Y-107188000D02*
X148463000Y-105283000D01*
X149151600Y-107876600D02*
X148463000Y-107188000D01*
X149987000Y-107876600D02*
X151056600Y-107876600D01*
X151056600Y-107876600D02*
X152400000Y-109220000D01*
X143631100Y-111760000D02*
X143631100Y-113151100D01*
X143631100Y-113151100D02*
X146050000Y-115570000D01*
X142240000Y-110526600D02*
X141006600Y-110526600D01*
X141006600Y-110526600D02*
X139700000Y-109220000D01*
X142240000Y-110526600D02*
X142846800Y-110526600D01*
X142846800Y-110526600D02*
X143631100Y-111310900D01*
X143631100Y-111310900D02*
X143631100Y-111760000D01*
%TO.N,/POTAX*%
X142240000Y-102906600D02*
X141006600Y-102906600D01*
X141006600Y-102906600D02*
X139700000Y-101600000D01*
X148509000Y-109220000D02*
X148509000Y-110409000D01*
X148509000Y-110409000D02*
X149860000Y-111760000D01*
X148509000Y-108757300D02*
X148509000Y-109220000D01*
X145161700Y-105410000D02*
X148509000Y-108757300D01*
X144418100Y-105410000D02*
X145161700Y-105410000D01*
X143631100Y-104623000D02*
X144418100Y-105410000D01*
X143631100Y-103690900D02*
X143631100Y-104623000D01*
X142846800Y-102906600D02*
X143631100Y-103690900D01*
X142240000Y-102906600D02*
X142846800Y-102906600D01*
%TD*%
D20*
%TO.N,GND*%
G36*
X134001656Y-90440406D02*
G01*
X134660000Y-91098750D01*
X135318344Y-90440406D01*
X135271800Y-90333900D01*
X146748200Y-90333900D01*
X146701656Y-90440406D01*
X147360000Y-91098750D01*
X148018344Y-90440406D01*
X147971800Y-90333900D01*
X152391981Y-90333900D01*
X152614689Y-90355737D01*
X152821206Y-90418088D01*
X153011670Y-90519360D01*
X153178841Y-90655701D01*
X153316345Y-90821914D01*
X153418948Y-91011674D01*
X153482739Y-91217747D01*
X153506099Y-91440008D01*
X153506101Y-91440573D01*
X153506100Y-118101981D01*
X153484263Y-118324689D01*
X153421912Y-118531206D01*
X153320641Y-118721670D01*
X153184299Y-118888841D01*
X153018083Y-119026348D01*
X152828324Y-119128949D01*
X152622253Y-119192739D01*
X152399992Y-119216099D01*
X152399713Y-119216100D01*
X132088019Y-119216100D01*
X131865311Y-119194263D01*
X131658794Y-119131912D01*
X131468330Y-119030641D01*
X131301159Y-118894299D01*
X131163652Y-118728083D01*
X131061051Y-118538324D01*
X130997261Y-118332253D01*
X130973901Y-118109992D01*
X130973900Y-118109713D01*
X130973900Y-115465333D01*
X134827300Y-115465333D01*
X134827300Y-115674667D01*
X134868139Y-115879978D01*
X134948247Y-116073377D01*
X135064547Y-116247432D01*
X135212568Y-116395453D01*
X135386623Y-116511753D01*
X135580022Y-116591861D01*
X135785333Y-116632700D01*
X135994667Y-116632700D01*
X136199978Y-116591861D01*
X136393377Y-116511753D01*
X136567432Y-116395453D01*
X136715453Y-116247432D01*
X136831753Y-116073377D01*
X136911861Y-115879978D01*
X136952700Y-115674667D01*
X136952700Y-115465333D01*
X136911861Y-115260022D01*
X136831753Y-115066623D01*
X136715453Y-114892568D01*
X136567432Y-114744547D01*
X136393377Y-114628247D01*
X136199978Y-114548139D01*
X135994667Y-114507300D01*
X135785333Y-114507300D01*
X135580022Y-114548139D01*
X135386623Y-114628247D01*
X135212568Y-114744547D01*
X135064547Y-114892568D01*
X134948247Y-115066623D01*
X134868139Y-115260022D01*
X134827300Y-115465333D01*
X130973900Y-115465333D01*
X130973900Y-112470960D01*
X131021400Y-112549709D01*
X131195805Y-112741058D01*
X131404189Y-112894705D01*
X131638544Y-113004746D01*
X131838700Y-112928305D01*
X131838700Y-112001300D01*
X132321300Y-112001300D01*
X132321300Y-112928305D01*
X132521456Y-113004746D01*
X132755811Y-112894705D01*
X132964195Y-112741058D01*
X133138600Y-112549709D01*
X133272324Y-112328012D01*
X133324735Y-112201454D01*
X133245815Y-112001300D01*
X132321300Y-112001300D01*
X131838700Y-112001300D01*
X131818700Y-112001300D01*
X131818700Y-111518700D01*
X131838700Y-111518700D01*
X131838700Y-110591695D01*
X132321300Y-110591695D01*
X132321300Y-111518700D01*
X133245815Y-111518700D01*
X133324735Y-111318546D01*
X133272324Y-111191988D01*
X133267508Y-111184003D01*
X134355100Y-111184003D01*
X134355100Y-111284997D01*
X134374803Y-111384049D01*
X134413451Y-111477355D01*
X134469560Y-111561327D01*
X134540973Y-111632740D01*
X134624945Y-111688849D01*
X134718251Y-111727497D01*
X134817303Y-111747200D01*
X134902921Y-111747200D01*
X137777484Y-114621764D01*
X137788055Y-114634645D01*
X137800934Y-114645214D01*
X137839477Y-114676845D01*
X137847485Y-114681125D01*
X137752568Y-114744547D01*
X137604547Y-114892568D01*
X137488247Y-115066623D01*
X137408139Y-115260022D01*
X137367300Y-115465333D01*
X137367300Y-115674667D01*
X137408139Y-115879978D01*
X137488247Y-116073377D01*
X137604547Y-116247432D01*
X137752568Y-116395453D01*
X137926623Y-116511753D01*
X138120022Y-116591861D01*
X138325333Y-116632700D01*
X138534667Y-116632700D01*
X138739978Y-116591861D01*
X138933377Y-116511753D01*
X139107432Y-116395453D01*
X139255453Y-116247432D01*
X139371753Y-116073377D01*
X139451861Y-115879978D01*
X139492700Y-115674667D01*
X139492700Y-115465333D01*
X139451861Y-115260022D01*
X139371753Y-115066623D01*
X139255453Y-114892568D01*
X139107432Y-114744547D01*
X139089253Y-114732400D01*
X140310747Y-114732400D01*
X140292568Y-114744547D01*
X140144547Y-114892568D01*
X140028247Y-115066623D01*
X139948139Y-115260022D01*
X139907300Y-115465333D01*
X139907300Y-115674667D01*
X139948139Y-115879978D01*
X140028247Y-116073377D01*
X140144547Y-116247432D01*
X140292568Y-116395453D01*
X140466623Y-116511753D01*
X140660022Y-116591861D01*
X140865333Y-116632700D01*
X141074667Y-116632700D01*
X141279978Y-116591861D01*
X141473377Y-116511753D01*
X141647432Y-116395453D01*
X141795453Y-116247432D01*
X141911753Y-116073377D01*
X141991861Y-115879978D01*
X142032700Y-115674667D01*
X142032700Y-115465333D01*
X141991861Y-115260022D01*
X141911753Y-115066623D01*
X141795453Y-114892568D01*
X141647432Y-114744547D01*
X141629253Y-114732400D01*
X142194821Y-114732400D01*
X142556765Y-115094344D01*
X142488139Y-115260022D01*
X142447300Y-115465333D01*
X142447300Y-115674667D01*
X142488139Y-115879978D01*
X142568247Y-116073377D01*
X142684547Y-116247432D01*
X142832568Y-116395453D01*
X143006623Y-116511753D01*
X143200022Y-116591861D01*
X143405333Y-116632700D01*
X143614667Y-116632700D01*
X143819978Y-116591861D01*
X144013377Y-116511753D01*
X144187432Y-116395453D01*
X144335453Y-116247432D01*
X144451753Y-116073377D01*
X144531861Y-115879978D01*
X144572700Y-115674667D01*
X144572700Y-115465333D01*
X144531861Y-115260022D01*
X144451753Y-115066623D01*
X144335453Y-114892568D01*
X144187432Y-114744547D01*
X144013377Y-114628247D01*
X143819978Y-114548139D01*
X143614667Y-114507300D01*
X143405333Y-114507300D01*
X143200022Y-114548139D01*
X143034344Y-114616765D01*
X142585220Y-114167641D01*
X142574645Y-114154755D01*
X142523223Y-114112555D01*
X142464557Y-114081197D01*
X142400901Y-114061887D01*
X142351281Y-114057000D01*
X142351278Y-114057000D01*
X142334700Y-114055367D01*
X142318122Y-114057000D01*
X138167880Y-114057000D01*
X135380500Y-111269621D01*
X135380500Y-111184003D01*
X135360797Y-111084951D01*
X135322149Y-110991645D01*
X135266040Y-110907673D01*
X135194627Y-110836260D01*
X135110655Y-110780151D01*
X135017349Y-110741503D01*
X134918297Y-110721800D01*
X134817303Y-110721800D01*
X134718251Y-110741503D01*
X134624945Y-110780151D01*
X134540973Y-110836260D01*
X134469560Y-110907673D01*
X134413451Y-110991645D01*
X134374803Y-111084951D01*
X134355100Y-111184003D01*
X133267508Y-111184003D01*
X133138600Y-110970291D01*
X132964195Y-110778942D01*
X132755811Y-110625295D01*
X132521456Y-110515254D01*
X132321300Y-110591695D01*
X131838700Y-110591695D01*
X131638544Y-110515254D01*
X131404189Y-110625295D01*
X131195805Y-110778942D01*
X131021400Y-110970291D01*
X130973900Y-111049040D01*
X130973900Y-109930960D01*
X131021400Y-110009709D01*
X131195805Y-110201058D01*
X131404189Y-110354705D01*
X131638544Y-110464746D01*
X131838700Y-110388305D01*
X131838700Y-109461300D01*
X132321300Y-109461300D01*
X132321300Y-110388305D01*
X132521456Y-110464746D01*
X132755811Y-110354705D01*
X132964195Y-110201058D01*
X133138600Y-110009709D01*
X133272324Y-109788012D01*
X133324735Y-109661454D01*
X133245815Y-109461300D01*
X132321300Y-109461300D01*
X131838700Y-109461300D01*
X131818700Y-109461300D01*
X131818700Y-108978700D01*
X131838700Y-108978700D01*
X131838700Y-108051695D01*
X132321300Y-108051695D01*
X132321300Y-108978700D01*
X133245815Y-108978700D01*
X133324735Y-108778546D01*
X133272324Y-108651988D01*
X133138600Y-108430291D01*
X132964195Y-108238942D01*
X132755811Y-108085295D01*
X132521456Y-107975254D01*
X132321300Y-108051695D01*
X131838700Y-108051695D01*
X131638544Y-107975254D01*
X131404189Y-108085295D01*
X131195805Y-108238942D01*
X131021400Y-108430291D01*
X130973900Y-108509040D01*
X130973900Y-107390960D01*
X131021400Y-107469709D01*
X131195805Y-107661058D01*
X131404189Y-107814705D01*
X131638544Y-107924746D01*
X131838700Y-107848305D01*
X131838700Y-106921300D01*
X132321300Y-106921300D01*
X132321300Y-107848305D01*
X132521456Y-107924746D01*
X132755811Y-107814705D01*
X132964195Y-107661058D01*
X133138600Y-107469709D01*
X133272324Y-107248012D01*
X133324735Y-107121454D01*
X133245815Y-106921300D01*
X132321300Y-106921300D01*
X131838700Y-106921300D01*
X131818700Y-106921300D01*
X131818700Y-106580258D01*
X138687300Y-106580258D01*
X138687300Y-106779742D01*
X138726218Y-106975394D01*
X138802557Y-107159693D01*
X138913385Y-107325559D01*
X139054441Y-107466615D01*
X139220307Y-107577443D01*
X139404606Y-107653782D01*
X139600258Y-107692700D01*
X139799742Y-107692700D01*
X139995394Y-107653782D01*
X140179693Y-107577443D01*
X140345559Y-107466615D01*
X140486615Y-107325559D01*
X140597443Y-107159693D01*
X140673782Y-106975394D01*
X140712700Y-106779742D01*
X140712700Y-106580258D01*
X140673782Y-106384606D01*
X140597443Y-106200307D01*
X140486615Y-106034441D01*
X140345559Y-105893385D01*
X140179693Y-105782557D01*
X139995394Y-105706218D01*
X139799742Y-105667300D01*
X139600258Y-105667300D01*
X139404606Y-105706218D01*
X139220307Y-105782557D01*
X139054441Y-105893385D01*
X138913385Y-106034441D01*
X138802557Y-106200307D01*
X138726218Y-106384606D01*
X138687300Y-106580258D01*
X131818700Y-106580258D01*
X131818700Y-106438700D01*
X131838700Y-106438700D01*
X131838700Y-105511695D01*
X132321300Y-105511695D01*
X132321300Y-106438700D01*
X133245815Y-106438700D01*
X133324735Y-106238546D01*
X133272324Y-106111988D01*
X133138600Y-105890291D01*
X132964195Y-105698942D01*
X132755811Y-105545295D01*
X132521456Y-105435254D01*
X132321300Y-105511695D01*
X131838700Y-105511695D01*
X131638544Y-105435254D01*
X131404189Y-105545295D01*
X131195805Y-105698942D01*
X131021400Y-105890291D01*
X130973900Y-105969040D01*
X130973900Y-104040258D01*
X131067300Y-104040258D01*
X131067300Y-104239742D01*
X131106218Y-104435394D01*
X131182557Y-104619693D01*
X131293385Y-104785559D01*
X131434441Y-104926615D01*
X131600307Y-105037443D01*
X131784606Y-105113782D01*
X131980258Y-105152700D01*
X132179742Y-105152700D01*
X132375394Y-105113782D01*
X132559693Y-105037443D01*
X132725559Y-104926615D01*
X132866615Y-104785559D01*
X132977443Y-104619693D01*
X133053782Y-104435394D01*
X133092700Y-104239742D01*
X133092700Y-104040258D01*
X138687300Y-104040258D01*
X138687300Y-104239742D01*
X138726218Y-104435394D01*
X138802557Y-104619693D01*
X138913385Y-104785559D01*
X139054441Y-104926615D01*
X139220307Y-105037443D01*
X139404606Y-105113782D01*
X139600258Y-105152700D01*
X139799742Y-105152700D01*
X139995394Y-105113782D01*
X140179693Y-105037443D01*
X140345559Y-104926615D01*
X140486615Y-104785559D01*
X140597443Y-104619693D01*
X140673782Y-104435394D01*
X140712700Y-104239742D01*
X140712700Y-104040258D01*
X140673782Y-103844606D01*
X140597443Y-103660307D01*
X140486615Y-103494441D01*
X140345559Y-103353385D01*
X140179693Y-103242557D01*
X139995394Y-103166218D01*
X139799742Y-103127300D01*
X139600258Y-103127300D01*
X139404606Y-103166218D01*
X139220307Y-103242557D01*
X139054441Y-103353385D01*
X138913385Y-103494441D01*
X138802557Y-103660307D01*
X138726218Y-103844606D01*
X138687300Y-104040258D01*
X133092700Y-104040258D01*
X133053782Y-103844606D01*
X132977443Y-103660307D01*
X132866615Y-103494441D01*
X132725559Y-103353385D01*
X132559693Y-103242557D01*
X132375394Y-103166218D01*
X132179742Y-103127300D01*
X131980258Y-103127300D01*
X131784606Y-103166218D01*
X131600307Y-103242557D01*
X131434441Y-103353385D01*
X131293385Y-103494441D01*
X131182557Y-103660307D01*
X131106218Y-103844606D01*
X131067300Y-104040258D01*
X130973900Y-104040258D01*
X130973900Y-101500258D01*
X131067300Y-101500258D01*
X131067300Y-101699742D01*
X131106218Y-101895394D01*
X131182557Y-102079693D01*
X131293385Y-102245559D01*
X131434441Y-102386615D01*
X131600307Y-102497443D01*
X131784606Y-102573782D01*
X131980258Y-102612700D01*
X132179742Y-102612700D01*
X132375394Y-102573782D01*
X132559693Y-102497443D01*
X132725559Y-102386615D01*
X132866615Y-102245559D01*
X132977443Y-102079693D01*
X133036258Y-101937700D01*
X137905422Y-101937700D01*
X137922000Y-101939333D01*
X137938578Y-101937700D01*
X137938581Y-101937700D01*
X137988201Y-101932813D01*
X138051857Y-101913503D01*
X138110523Y-101882145D01*
X138161945Y-101839945D01*
X138172520Y-101827059D01*
X138748311Y-101251268D01*
X138726218Y-101304606D01*
X138687300Y-101500258D01*
X138687300Y-101699742D01*
X138726218Y-101895394D01*
X138802557Y-102079693D01*
X138913385Y-102245559D01*
X139054441Y-102386615D01*
X139220307Y-102497443D01*
X139404606Y-102573782D01*
X139600258Y-102612700D01*
X139799742Y-102612700D01*
X139995394Y-102573782D01*
X140137387Y-102514967D01*
X140756084Y-103133664D01*
X140766655Y-103146545D01*
X140779534Y-103157114D01*
X140818076Y-103188745D01*
X140849434Y-103205506D01*
X140876743Y-103220103D01*
X140940399Y-103239413D01*
X140990019Y-103244300D01*
X140990021Y-103244300D01*
X141006599Y-103245933D01*
X141023177Y-103244300D01*
X141482433Y-103244300D01*
X141322859Y-103375259D01*
X141188360Y-103539147D01*
X141088418Y-103726125D01*
X141026874Y-103929008D01*
X141006093Y-104140000D01*
X141026874Y-104350992D01*
X141088418Y-104553875D01*
X141188360Y-104740853D01*
X141322859Y-104904741D01*
X141486747Y-105039240D01*
X141673725Y-105139182D01*
X141876608Y-105200726D01*
X142034733Y-105216300D01*
X142445267Y-105216300D01*
X142603392Y-105200726D01*
X142806275Y-105139182D01*
X142993253Y-105039240D01*
X143157141Y-104904741D01*
X143291640Y-104740853D01*
X143305877Y-104714218D01*
X143307891Y-104720856D01*
X143317598Y-104752857D01*
X143348955Y-104811523D01*
X143370129Y-104837323D01*
X143391156Y-104862945D01*
X143404036Y-104873515D01*
X144087857Y-105557337D01*
X143895805Y-105698942D01*
X143721400Y-105890291D01*
X143587676Y-106111988D01*
X143535265Y-106238546D01*
X143614184Y-106438698D01*
X143459300Y-106438698D01*
X143459300Y-106531693D01*
X143453126Y-106469008D01*
X143391582Y-106266125D01*
X143291640Y-106079147D01*
X143157141Y-105915259D01*
X142993253Y-105780760D01*
X142806275Y-105680818D01*
X142603392Y-105619274D01*
X142445267Y-105603700D01*
X142034733Y-105603700D01*
X141876608Y-105619274D01*
X141673725Y-105680818D01*
X141486747Y-105780760D01*
X141322859Y-105915259D01*
X141188360Y-106079147D01*
X141088418Y-106266125D01*
X141026874Y-106469008D01*
X141006093Y-106680000D01*
X141026874Y-106890992D01*
X141088418Y-107093875D01*
X141188360Y-107280853D01*
X141322859Y-107444741D01*
X141486747Y-107579240D01*
X141673725Y-107679182D01*
X141876608Y-107740726D01*
X142034733Y-107756300D01*
X142445267Y-107756300D01*
X142603392Y-107740726D01*
X142772000Y-107689579D01*
X143178384Y-108095964D01*
X143188955Y-108108845D01*
X143240377Y-108151045D01*
X143299043Y-108182403D01*
X143362699Y-108201713D01*
X143412319Y-108206600D01*
X143412322Y-108206600D01*
X143428900Y-108208233D01*
X143445478Y-108206600D01*
X143939669Y-108206600D01*
X143895805Y-108238942D01*
X143721400Y-108430291D01*
X143587676Y-108651988D01*
X143535265Y-108778546D01*
X143614184Y-108978698D01*
X143459300Y-108978698D01*
X143459300Y-109071693D01*
X143453126Y-109009008D01*
X143391582Y-108806125D01*
X143291640Y-108619147D01*
X143157141Y-108455259D01*
X142993253Y-108320760D01*
X142806275Y-108220818D01*
X142603392Y-108159274D01*
X142445267Y-108143700D01*
X142034733Y-108143700D01*
X141876608Y-108159274D01*
X141673725Y-108220818D01*
X141486747Y-108320760D01*
X141322859Y-108455259D01*
X141188360Y-108619147D01*
X141088418Y-108806125D01*
X141026874Y-109009008D01*
X141006093Y-109220000D01*
X141026874Y-109430992D01*
X141088418Y-109633875D01*
X141188360Y-109820853D01*
X141322859Y-109984741D01*
X141486747Y-110119240D01*
X141617071Y-110188900D01*
X141146480Y-110188900D01*
X140614967Y-109657387D01*
X140673782Y-109515394D01*
X140712700Y-109319742D01*
X140712700Y-109120258D01*
X140673782Y-108924606D01*
X140597443Y-108740307D01*
X140486615Y-108574441D01*
X140345559Y-108433385D01*
X140179693Y-108322557D01*
X139995394Y-108246218D01*
X139799742Y-108207300D01*
X139600258Y-108207300D01*
X139404606Y-108246218D01*
X139220307Y-108322557D01*
X139054441Y-108433385D01*
X138913385Y-108574441D01*
X138802557Y-108740307D01*
X138726218Y-108924606D01*
X138687300Y-109120258D01*
X138687300Y-109319742D01*
X138726218Y-109515394D01*
X138802557Y-109699693D01*
X138913385Y-109865559D01*
X139054441Y-110006615D01*
X139220307Y-110117443D01*
X139404606Y-110193782D01*
X139600258Y-110232700D01*
X139799742Y-110232700D01*
X139995394Y-110193782D01*
X140137387Y-110134967D01*
X140756084Y-110753664D01*
X140766655Y-110766545D01*
X140789482Y-110785278D01*
X140818076Y-110808745D01*
X140849434Y-110825506D01*
X140876743Y-110840103D01*
X140940399Y-110859413D01*
X140990019Y-110864300D01*
X140990021Y-110864300D01*
X141006599Y-110865933D01*
X141023177Y-110864300D01*
X141045239Y-110864300D01*
X140921706Y-111022815D01*
X140800291Y-111264434D01*
X140779023Y-111308434D01*
X140856907Y-111518698D01*
X140703300Y-111518698D01*
X140703300Y-111613001D01*
X140673782Y-111464606D01*
X140597443Y-111280307D01*
X140486615Y-111114441D01*
X140345559Y-110973385D01*
X140179693Y-110862557D01*
X139995394Y-110786218D01*
X139799742Y-110747300D01*
X139600258Y-110747300D01*
X139404606Y-110786218D01*
X139220307Y-110862557D01*
X139054441Y-110973385D01*
X138913385Y-111114441D01*
X138802557Y-111280307D01*
X138726218Y-111464606D01*
X138687300Y-111660258D01*
X138687300Y-111859742D01*
X138726218Y-112055394D01*
X138802557Y-112239693D01*
X138913385Y-112405559D01*
X139054441Y-112546615D01*
X139220307Y-112657443D01*
X139404606Y-112733782D01*
X139600258Y-112772700D01*
X139799742Y-112772700D01*
X139995394Y-112733782D01*
X140179693Y-112657443D01*
X140345559Y-112546615D01*
X140486615Y-112405559D01*
X140597443Y-112239693D01*
X140673782Y-112055394D01*
X140703300Y-111906999D01*
X140703300Y-112001302D01*
X140856907Y-112001302D01*
X140779023Y-112211566D01*
X140800291Y-112255566D01*
X140921706Y-112497185D01*
X141087926Y-112710475D01*
X141292563Y-112887239D01*
X141527753Y-113020683D01*
X141784457Y-113105680D01*
X141998700Y-113006359D01*
X141998700Y-112001300D01*
X141978700Y-112001300D01*
X141978700Y-111518700D01*
X141998700Y-111518700D01*
X141998700Y-111498700D01*
X142481300Y-111498700D01*
X142481300Y-111518700D01*
X142501300Y-111518700D01*
X142501300Y-112001300D01*
X142481300Y-112001300D01*
X142481300Y-113006359D01*
X142695543Y-113105680D01*
X142952247Y-113020683D01*
X143187437Y-112887239D01*
X143293401Y-112795708D01*
X143293401Y-113134512D01*
X143291767Y-113151100D01*
X143298288Y-113217300D01*
X143317598Y-113280957D01*
X143348955Y-113339623D01*
X143377550Y-113374465D01*
X143391156Y-113391045D01*
X143404037Y-113401616D01*
X145096765Y-115094344D01*
X145028139Y-115260022D01*
X144987300Y-115465333D01*
X144987300Y-115674667D01*
X145028139Y-115879978D01*
X145108247Y-116073377D01*
X145224547Y-116247432D01*
X145372568Y-116395453D01*
X145546623Y-116511753D01*
X145740022Y-116591861D01*
X145945333Y-116632700D01*
X146154667Y-116632700D01*
X146359978Y-116591861D01*
X146553377Y-116511753D01*
X146690694Y-116420000D01*
X147216781Y-116420000D01*
X147226835Y-116522075D01*
X147256609Y-116620227D01*
X147304959Y-116710685D01*
X147370028Y-116789972D01*
X147449315Y-116855041D01*
X147539773Y-116903391D01*
X147637925Y-116933165D01*
X147740000Y-116943219D01*
X148218525Y-116940700D01*
X148348700Y-116810525D01*
X148348700Y-115811300D01*
X148831300Y-115811300D01*
X148831300Y-116810525D01*
X148961475Y-116940700D01*
X149440000Y-116943219D01*
X149542075Y-116933165D01*
X149640227Y-116903391D01*
X149730685Y-116855041D01*
X149809972Y-116789972D01*
X149875041Y-116710685D01*
X149923391Y-116620227D01*
X149953165Y-116522075D01*
X149963219Y-116420000D01*
X149960700Y-115941475D01*
X149830525Y-115811300D01*
X148831300Y-115811300D01*
X148348700Y-115811300D01*
X147349475Y-115811300D01*
X147219300Y-115941475D01*
X147216781Y-116420000D01*
X146690694Y-116420000D01*
X146727432Y-116395453D01*
X146875453Y-116247432D01*
X146991753Y-116073377D01*
X147071861Y-115879978D01*
X147112700Y-115674667D01*
X147112700Y-115465333D01*
X147071861Y-115260022D01*
X146991753Y-115066623D01*
X146875453Y-114892568D01*
X146727432Y-114744547D01*
X146690695Y-114720000D01*
X147216781Y-114720000D01*
X147219300Y-115198525D01*
X147349475Y-115328700D01*
X148348700Y-115328700D01*
X148348700Y-114329475D01*
X148831300Y-114329475D01*
X148831300Y-115328700D01*
X149830525Y-115328700D01*
X149960700Y-115198525D01*
X149963219Y-114720000D01*
X149953165Y-114617925D01*
X149923391Y-114519773D01*
X149875041Y-114429315D01*
X149809972Y-114350028D01*
X149730685Y-114284959D01*
X149640227Y-114236609D01*
X149542075Y-114206835D01*
X149440000Y-114196781D01*
X148961475Y-114199300D01*
X148831300Y-114329475D01*
X148348700Y-114329475D01*
X148218525Y-114199300D01*
X147740000Y-114196781D01*
X147637925Y-114206835D01*
X147539773Y-114236609D01*
X147449315Y-114284959D01*
X147370028Y-114350028D01*
X147304959Y-114429315D01*
X147256609Y-114519773D01*
X147226835Y-114617925D01*
X147216781Y-114720000D01*
X146690695Y-114720000D01*
X146553377Y-114628247D01*
X146359978Y-114548139D01*
X146154667Y-114507300D01*
X145945333Y-114507300D01*
X145740022Y-114548139D01*
X145574344Y-114616765D01*
X143968800Y-113011221D01*
X143968800Y-112794879D01*
X144104189Y-112894705D01*
X144338544Y-113004746D01*
X144538700Y-112928305D01*
X144538700Y-112001300D01*
X145021300Y-112001300D01*
X145021300Y-112928305D01*
X145221456Y-113004746D01*
X145455811Y-112894705D01*
X145664195Y-112741058D01*
X145838600Y-112549709D01*
X145972324Y-112328012D01*
X146024735Y-112201454D01*
X145945815Y-112001300D01*
X145021300Y-112001300D01*
X144538700Y-112001300D01*
X144518700Y-112001300D01*
X144518700Y-111518700D01*
X144538700Y-111518700D01*
X144538700Y-110591695D01*
X145021300Y-110591695D01*
X145021300Y-111518700D01*
X145945815Y-111518700D01*
X146024735Y-111318546D01*
X145972324Y-111191988D01*
X145838600Y-110970291D01*
X145664195Y-110778942D01*
X145455811Y-110625295D01*
X145221456Y-110515254D01*
X145021300Y-110591695D01*
X144538700Y-110591695D01*
X144338544Y-110515254D01*
X144104189Y-110625295D01*
X143895805Y-110778942D01*
X143743654Y-110945875D01*
X143097320Y-110299541D01*
X143086745Y-110286655D01*
X143035323Y-110244455D01*
X142976657Y-110213097D01*
X142913001Y-110193787D01*
X142863381Y-110188900D01*
X142863378Y-110188900D01*
X142862998Y-110188863D01*
X142993253Y-110119240D01*
X143157141Y-109984741D01*
X143291640Y-109820853D01*
X143391582Y-109633875D01*
X143453126Y-109430992D01*
X143459300Y-109368307D01*
X143459300Y-109461302D01*
X143614184Y-109461302D01*
X143535265Y-109661454D01*
X143587676Y-109788012D01*
X143721400Y-110009709D01*
X143895805Y-110201058D01*
X144104189Y-110354705D01*
X144338544Y-110464746D01*
X144538700Y-110388305D01*
X144538700Y-109461300D01*
X145021300Y-109461300D01*
X145021300Y-110388305D01*
X145221456Y-110464746D01*
X145455811Y-110354705D01*
X145664195Y-110201058D01*
X145838600Y-110009709D01*
X145972324Y-109788012D01*
X146024735Y-109661454D01*
X145945815Y-109461300D01*
X145021300Y-109461300D01*
X144538700Y-109461300D01*
X144518700Y-109461300D01*
X144518700Y-108978700D01*
X144538700Y-108978700D01*
X144538700Y-108958700D01*
X145021300Y-108958700D01*
X145021300Y-108978700D01*
X145945815Y-108978700D01*
X146024735Y-108778546D01*
X145972324Y-108651988D01*
X145838600Y-108430291D01*
X145664195Y-108238942D01*
X145620331Y-108206600D01*
X146844323Y-108206600D01*
X147721298Y-109083576D01*
X147721299Y-111843410D01*
X147719665Y-111859998D01*
X147726186Y-111926198D01*
X147745496Y-111989855D01*
X147776853Y-112048521D01*
X147805448Y-112083363D01*
X147819054Y-112099943D01*
X147831934Y-112110513D01*
X148899384Y-113177964D01*
X148909955Y-113190845D01*
X148922834Y-113201414D01*
X148961376Y-113233045D01*
X148992734Y-113249806D01*
X149020043Y-113264403D01*
X149083699Y-113283713D01*
X149133319Y-113288600D01*
X149133321Y-113288600D01*
X149149899Y-113290233D01*
X149166477Y-113288600D01*
X151192522Y-113288600D01*
X151209100Y-113290233D01*
X151225678Y-113288600D01*
X151225681Y-113288600D01*
X151275301Y-113283713D01*
X151338957Y-113264403D01*
X151397623Y-113233045D01*
X151449045Y-113190845D01*
X151459620Y-113177959D01*
X151962613Y-112674967D01*
X152104606Y-112733782D01*
X152300258Y-112772700D01*
X152499742Y-112772700D01*
X152695394Y-112733782D01*
X152879693Y-112657443D01*
X153045559Y-112546615D01*
X153186615Y-112405559D01*
X153297443Y-112239693D01*
X153373782Y-112055394D01*
X153412700Y-111859742D01*
X153412700Y-111660258D01*
X153373782Y-111464606D01*
X153297443Y-111280307D01*
X153186615Y-111114441D01*
X153045559Y-110973385D01*
X152879693Y-110862557D01*
X152695394Y-110786218D01*
X152499742Y-110747300D01*
X152300258Y-110747300D01*
X152104606Y-110786218D01*
X151920307Y-110862557D01*
X151754441Y-110973385D01*
X151613385Y-111114441D01*
X151502557Y-111280307D01*
X151426218Y-111464606D01*
X151387300Y-111660258D01*
X151387300Y-111859742D01*
X151426218Y-112055394D01*
X151485033Y-112197387D01*
X151069221Y-112613200D01*
X150669353Y-112613200D01*
X150777141Y-112524741D01*
X150911640Y-112360853D01*
X151011582Y-112173875D01*
X151073126Y-111970992D01*
X151093907Y-111760000D01*
X151073126Y-111549008D01*
X151011582Y-111346125D01*
X150911640Y-111159147D01*
X150777141Y-110995259D01*
X150613253Y-110860760D01*
X150426275Y-110760818D01*
X150223392Y-110699274D01*
X150065267Y-110683700D01*
X149654733Y-110683700D01*
X149496608Y-110699274D01*
X149328000Y-110750421D01*
X148846700Y-110269121D01*
X148846700Y-109867571D01*
X148942859Y-109984741D01*
X149106747Y-110119240D01*
X149293725Y-110219182D01*
X149496608Y-110280726D01*
X149654733Y-110296300D01*
X150065267Y-110296300D01*
X150223392Y-110280726D01*
X150426275Y-110219182D01*
X150613253Y-110119240D01*
X150777141Y-109984741D01*
X150911640Y-109820853D01*
X151011582Y-109633875D01*
X151073126Y-109430992D01*
X151093907Y-109220000D01*
X151073126Y-109009008D01*
X151011582Y-108806125D01*
X150911640Y-108619147D01*
X150777141Y-108455259D01*
X150613253Y-108320760D01*
X150426275Y-108220818D01*
X150404788Y-108214300D01*
X150916721Y-108214300D01*
X151485033Y-108782613D01*
X151426218Y-108924606D01*
X151387300Y-109120258D01*
X151387300Y-109319742D01*
X151426218Y-109515394D01*
X151502557Y-109699693D01*
X151613385Y-109865559D01*
X151754441Y-110006615D01*
X151920307Y-110117443D01*
X152104606Y-110193782D01*
X152300258Y-110232700D01*
X152499742Y-110232700D01*
X152695394Y-110193782D01*
X152879693Y-110117443D01*
X153045559Y-110006615D01*
X153186615Y-109865559D01*
X153297443Y-109699693D01*
X153373782Y-109515394D01*
X153412700Y-109319742D01*
X153412700Y-109120258D01*
X153373782Y-108924606D01*
X153297443Y-108740307D01*
X153186615Y-108574441D01*
X153045559Y-108433385D01*
X152879693Y-108322557D01*
X152695394Y-108246218D01*
X152499742Y-108207300D01*
X152300258Y-108207300D01*
X152104606Y-108246218D01*
X151962613Y-108305033D01*
X151307120Y-107649541D01*
X151296545Y-107636655D01*
X151245123Y-107594455D01*
X151186457Y-107563097D01*
X151122801Y-107543787D01*
X151073181Y-107538900D01*
X151073178Y-107538900D01*
X151056600Y-107537267D01*
X151040022Y-107538900D01*
X150662408Y-107538900D01*
X150777141Y-107444741D01*
X150911640Y-107280853D01*
X151011582Y-107093875D01*
X151073126Y-106890992D01*
X151093907Y-106680000D01*
X151073126Y-106469008D01*
X151011582Y-106266125D01*
X150911640Y-106079147D01*
X150777141Y-105915259D01*
X150613253Y-105780760D01*
X150551402Y-105747700D01*
X150990121Y-105747700D01*
X151485033Y-106242613D01*
X151426218Y-106384606D01*
X151387300Y-106580258D01*
X151387300Y-106779742D01*
X151426218Y-106975394D01*
X151502557Y-107159693D01*
X151613385Y-107325559D01*
X151754441Y-107466615D01*
X151920307Y-107577443D01*
X152104606Y-107653782D01*
X152300258Y-107692700D01*
X152499742Y-107692700D01*
X152695394Y-107653782D01*
X152879693Y-107577443D01*
X153045559Y-107466615D01*
X153186615Y-107325559D01*
X153297443Y-107159693D01*
X153373782Y-106975394D01*
X153412700Y-106779742D01*
X153412700Y-106580258D01*
X153373782Y-106384606D01*
X153297443Y-106200307D01*
X153186615Y-106034441D01*
X153045559Y-105893385D01*
X152879693Y-105782557D01*
X152695394Y-105706218D01*
X152499742Y-105667300D01*
X152300258Y-105667300D01*
X152104606Y-105706218D01*
X151962613Y-105765033D01*
X151380520Y-105182941D01*
X151369945Y-105170055D01*
X151318523Y-105127855D01*
X151259857Y-105096497D01*
X151196201Y-105077187D01*
X151146581Y-105072300D01*
X151146578Y-105072300D01*
X151130000Y-105070667D01*
X151113422Y-105072300D01*
X150551402Y-105072300D01*
X150613253Y-105039240D01*
X150777141Y-104904741D01*
X150911640Y-104740853D01*
X151011582Y-104553875D01*
X151073126Y-104350992D01*
X151093907Y-104140000D01*
X151084084Y-104040258D01*
X151387300Y-104040258D01*
X151387300Y-104239742D01*
X151426218Y-104435394D01*
X151502557Y-104619693D01*
X151613385Y-104785559D01*
X151754441Y-104926615D01*
X151920307Y-105037443D01*
X152104606Y-105113782D01*
X152300258Y-105152700D01*
X152499742Y-105152700D01*
X152695394Y-105113782D01*
X152879693Y-105037443D01*
X153045559Y-104926615D01*
X153186615Y-104785559D01*
X153297443Y-104619693D01*
X153373782Y-104435394D01*
X153412700Y-104239742D01*
X153412700Y-104040258D01*
X153373782Y-103844606D01*
X153297443Y-103660307D01*
X153186615Y-103494441D01*
X153045559Y-103353385D01*
X152879693Y-103242557D01*
X152695394Y-103166218D01*
X152499742Y-103127300D01*
X152300258Y-103127300D01*
X152104606Y-103166218D01*
X151920307Y-103242557D01*
X151754441Y-103353385D01*
X151613385Y-103494441D01*
X151502557Y-103660307D01*
X151426218Y-103844606D01*
X151387300Y-104040258D01*
X151084084Y-104040258D01*
X151073126Y-103929008D01*
X151011582Y-103726125D01*
X150911640Y-103539147D01*
X150777141Y-103375259D01*
X150613253Y-103240760D01*
X150426275Y-103140818D01*
X150223392Y-103079274D01*
X150065267Y-103063700D01*
X149654733Y-103063700D01*
X149496608Y-103079274D01*
X149293725Y-103140818D01*
X149106747Y-103240760D01*
X148942859Y-103375259D01*
X148815800Y-103530081D01*
X148815800Y-102520677D01*
X148817433Y-102504099D01*
X148815800Y-102487519D01*
X148810913Y-102437899D01*
X148791603Y-102374243D01*
X148760246Y-102315578D01*
X148760245Y-102315576D01*
X148728614Y-102277034D01*
X148728611Y-102277031D01*
X148718044Y-102264155D01*
X148705169Y-102253589D01*
X146473420Y-100021841D01*
X146462845Y-100008955D01*
X146411423Y-99966755D01*
X146352757Y-99935397D01*
X146289101Y-99916087D01*
X146239481Y-99911200D01*
X146239478Y-99911200D01*
X146222900Y-99909567D01*
X146206322Y-99911200D01*
X145328901Y-99911200D01*
X145425559Y-99846615D01*
X145566615Y-99705559D01*
X145677443Y-99539693D01*
X145753782Y-99355394D01*
X145792700Y-99159742D01*
X145792700Y-98960258D01*
X145784164Y-98917343D01*
X147423884Y-100557064D01*
X147434455Y-100569945D01*
X147457282Y-100588678D01*
X147485876Y-100612145D01*
X147512205Y-100626218D01*
X147544543Y-100643503D01*
X147608199Y-100662813D01*
X147657819Y-100667700D01*
X147657821Y-100667700D01*
X147674399Y-100669333D01*
X147690977Y-100667700D01*
X149168598Y-100667700D01*
X149106747Y-100700760D01*
X148942859Y-100835259D01*
X148808360Y-100999147D01*
X148708418Y-101186125D01*
X148646874Y-101389008D01*
X148626093Y-101600000D01*
X148646874Y-101810992D01*
X148708418Y-102013875D01*
X148808360Y-102200853D01*
X148942859Y-102364741D01*
X149106747Y-102499240D01*
X149293725Y-102599182D01*
X149496608Y-102660726D01*
X149654733Y-102676300D01*
X150065267Y-102676300D01*
X150223392Y-102660726D01*
X150426275Y-102599182D01*
X150613253Y-102499240D01*
X150777141Y-102364741D01*
X150911640Y-102200853D01*
X151011582Y-102013875D01*
X151073126Y-101810992D01*
X151093907Y-101600000D01*
X151073126Y-101389008D01*
X151011582Y-101186125D01*
X150911640Y-100999147D01*
X150777141Y-100835259D01*
X150613253Y-100700760D01*
X150551402Y-100667700D01*
X150990121Y-100667700D01*
X151485033Y-101162613D01*
X151426218Y-101304606D01*
X151387300Y-101500258D01*
X151387300Y-101699742D01*
X151426218Y-101895394D01*
X151502557Y-102079693D01*
X151613385Y-102245559D01*
X151754441Y-102386615D01*
X151920307Y-102497443D01*
X152104606Y-102573782D01*
X152300258Y-102612700D01*
X152499742Y-102612700D01*
X152695394Y-102573782D01*
X152879693Y-102497443D01*
X153045559Y-102386615D01*
X153186615Y-102245559D01*
X153297443Y-102079693D01*
X153373782Y-101895394D01*
X153412700Y-101699742D01*
X153412700Y-101500258D01*
X153373782Y-101304606D01*
X153297443Y-101120307D01*
X153186615Y-100954441D01*
X153045559Y-100813385D01*
X152879693Y-100702557D01*
X152695394Y-100626218D01*
X152499742Y-100587300D01*
X152300258Y-100587300D01*
X152104606Y-100626218D01*
X151962613Y-100685033D01*
X151380520Y-100102941D01*
X151369945Y-100090055D01*
X151318523Y-100047855D01*
X151259857Y-100016497D01*
X151196201Y-99997187D01*
X151146581Y-99992300D01*
X151146578Y-99992300D01*
X151130000Y-99990667D01*
X151113422Y-99992300D01*
X150551402Y-99992300D01*
X150613253Y-99959240D01*
X150777141Y-99824741D01*
X150911640Y-99660853D01*
X151011582Y-99473875D01*
X151073126Y-99270992D01*
X151093907Y-99060000D01*
X151084084Y-98960258D01*
X151387300Y-98960258D01*
X151387300Y-99159742D01*
X151426218Y-99355394D01*
X151502557Y-99539693D01*
X151613385Y-99705559D01*
X151754441Y-99846615D01*
X151920307Y-99957443D01*
X152104606Y-100033782D01*
X152300258Y-100072700D01*
X152499742Y-100072700D01*
X152695394Y-100033782D01*
X152879693Y-99957443D01*
X153045559Y-99846615D01*
X153186615Y-99705559D01*
X153297443Y-99539693D01*
X153373782Y-99355394D01*
X153412700Y-99159742D01*
X153412700Y-98960258D01*
X153373782Y-98764606D01*
X153297443Y-98580307D01*
X153186615Y-98414441D01*
X153045559Y-98273385D01*
X152879693Y-98162557D01*
X152695394Y-98086218D01*
X152499742Y-98047300D01*
X152300258Y-98047300D01*
X152104606Y-98086218D01*
X151920307Y-98162557D01*
X151754441Y-98273385D01*
X151613385Y-98414441D01*
X151502557Y-98580307D01*
X151426218Y-98764606D01*
X151387300Y-98960258D01*
X151084084Y-98960258D01*
X151073126Y-98849008D01*
X151011582Y-98646125D01*
X150911640Y-98459147D01*
X150777141Y-98295259D01*
X150613253Y-98160760D01*
X150426275Y-98060818D01*
X150223392Y-97999274D01*
X150065267Y-97983700D01*
X149654733Y-97983700D01*
X149496608Y-97999274D01*
X149293725Y-98060818D01*
X149106747Y-98160760D01*
X148942859Y-98295259D01*
X148808360Y-98459147D01*
X148708418Y-98646125D01*
X148646874Y-98849008D01*
X148626093Y-99060000D01*
X148646874Y-99270992D01*
X148708418Y-99473875D01*
X148808360Y-99660853D01*
X148942859Y-99824741D01*
X149106747Y-99959240D01*
X149168598Y-99992300D01*
X147814280Y-99992300D01*
X145303820Y-97481841D01*
X145293245Y-97468955D01*
X145241823Y-97426755D01*
X145239810Y-97425679D01*
X145259693Y-97417443D01*
X145425559Y-97306615D01*
X145566615Y-97165559D01*
X145677443Y-96999693D01*
X145753782Y-96815394D01*
X145792700Y-96619742D01*
X145792700Y-96420258D01*
X145753782Y-96224606D01*
X145677443Y-96040307D01*
X145566615Y-95874441D01*
X145425559Y-95733385D01*
X145259693Y-95622557D01*
X145142466Y-95574000D01*
X145803790Y-95574000D01*
X146455587Y-96225798D01*
X146443817Y-96254213D01*
X146408800Y-96430255D01*
X146408800Y-96609745D01*
X146443817Y-96785787D01*
X146512505Y-96951615D01*
X146612225Y-97100856D01*
X146739144Y-97227775D01*
X146888385Y-97327495D01*
X147054213Y-97396183D01*
X147230255Y-97431200D01*
X147409745Y-97431200D01*
X147585787Y-97396183D01*
X147751615Y-97327495D01*
X147900856Y-97227775D01*
X148027775Y-97100856D01*
X148127495Y-96951615D01*
X148139265Y-96923200D01*
X148630271Y-96923200D01*
X148630271Y-97383600D01*
X148634378Y-97425296D01*
X148646540Y-97465391D01*
X148666291Y-97502341D01*
X148692871Y-97534729D01*
X148725259Y-97561309D01*
X148762209Y-97581060D01*
X148802304Y-97593222D01*
X148844000Y-97597329D01*
X150876000Y-97597329D01*
X150917696Y-97593222D01*
X150957791Y-97581060D01*
X150994741Y-97561309D01*
X151027129Y-97534729D01*
X151053709Y-97502341D01*
X151073460Y-97465391D01*
X151085622Y-97425296D01*
X151089729Y-97383600D01*
X151089729Y-96420258D01*
X151387300Y-96420258D01*
X151387300Y-96619742D01*
X151426218Y-96815394D01*
X151502557Y-96999693D01*
X151613385Y-97165559D01*
X151754441Y-97306615D01*
X151920307Y-97417443D01*
X152104606Y-97493782D01*
X152300258Y-97532700D01*
X152499742Y-97532700D01*
X152695394Y-97493782D01*
X152879693Y-97417443D01*
X153045559Y-97306615D01*
X153186615Y-97165559D01*
X153297443Y-96999693D01*
X153373782Y-96815394D01*
X153412700Y-96619742D01*
X153412700Y-96420258D01*
X153373782Y-96224606D01*
X153297443Y-96040307D01*
X153186615Y-95874441D01*
X153045559Y-95733385D01*
X152879693Y-95622557D01*
X152695394Y-95546218D01*
X152499742Y-95507300D01*
X152300258Y-95507300D01*
X152104606Y-95546218D01*
X151920307Y-95622557D01*
X151754441Y-95733385D01*
X151613385Y-95874441D01*
X151502557Y-96040307D01*
X151426218Y-96224606D01*
X151387300Y-96420258D01*
X151089729Y-96420258D01*
X151089729Y-95656400D01*
X151085622Y-95614704D01*
X151073460Y-95574609D01*
X151053709Y-95537659D01*
X151027129Y-95505271D01*
X150994741Y-95478691D01*
X150957791Y-95458940D01*
X150917696Y-95446778D01*
X150876000Y-95442671D01*
X148844000Y-95442671D01*
X148802304Y-95446778D01*
X148762209Y-95458940D01*
X148725259Y-95478691D01*
X148692871Y-95505271D01*
X148666291Y-95537659D01*
X148646540Y-95574609D01*
X148634378Y-95614704D01*
X148630271Y-95656400D01*
X148630271Y-96116800D01*
X148139265Y-96116800D01*
X148127495Y-96088385D01*
X148027775Y-95939144D01*
X147900856Y-95812225D01*
X147751615Y-95712505D01*
X147585787Y-95643817D01*
X147409745Y-95608800D01*
X147230255Y-95608800D01*
X147054213Y-95643817D01*
X147025798Y-95655587D01*
X146269907Y-94899697D01*
X146257284Y-94884316D01*
X146195889Y-94833930D01*
X146125844Y-94796490D01*
X146049841Y-94773435D01*
X145990598Y-94767600D01*
X145990591Y-94767600D01*
X145970800Y-94765651D01*
X145951009Y-94767600D01*
X145424085Y-94767600D01*
X145425559Y-94766615D01*
X145566615Y-94625559D01*
X145677443Y-94459693D01*
X145753782Y-94275394D01*
X145792700Y-94079742D01*
X145792700Y-93880258D01*
X151387300Y-93880258D01*
X151387300Y-94079742D01*
X151426218Y-94275394D01*
X151502557Y-94459693D01*
X151613385Y-94625559D01*
X151754441Y-94766615D01*
X151920307Y-94877443D01*
X152104606Y-94953782D01*
X152300258Y-94992700D01*
X152499742Y-94992700D01*
X152695394Y-94953782D01*
X152879693Y-94877443D01*
X153045559Y-94766615D01*
X153186615Y-94625559D01*
X153297443Y-94459693D01*
X153373782Y-94275394D01*
X153412700Y-94079742D01*
X153412700Y-93880258D01*
X153373782Y-93684606D01*
X153297443Y-93500307D01*
X153186615Y-93334441D01*
X153045559Y-93193385D01*
X152879693Y-93082557D01*
X152695394Y-93006218D01*
X152499742Y-92967300D01*
X152300258Y-92967300D01*
X152104606Y-93006218D01*
X151920307Y-93082557D01*
X151754441Y-93193385D01*
X151613385Y-93334441D01*
X151502557Y-93500307D01*
X151426218Y-93684606D01*
X151387300Y-93880258D01*
X145792700Y-93880258D01*
X145753782Y-93684606D01*
X145677443Y-93500307D01*
X145566615Y-93334441D01*
X145425559Y-93193385D01*
X145259693Y-93082557D01*
X145075394Y-93006218D01*
X144879742Y-92967300D01*
X144680258Y-92967300D01*
X144484606Y-93006218D01*
X144300307Y-93082557D01*
X144134441Y-93193385D01*
X143993385Y-93334441D01*
X143882557Y-93500307D01*
X143806218Y-93684606D01*
X143767300Y-93880258D01*
X143767300Y-94079742D01*
X143806218Y-94275394D01*
X143882557Y-94459693D01*
X143993385Y-94625559D01*
X144134441Y-94766615D01*
X144135915Y-94767600D01*
X141057811Y-94767600D01*
X140642098Y-94351887D01*
X140673782Y-94275394D01*
X140712700Y-94079742D01*
X140712700Y-93880258D01*
X140673782Y-93684606D01*
X140597443Y-93500307D01*
X140486615Y-93334441D01*
X140345559Y-93193385D01*
X140179693Y-93082557D01*
X139995394Y-93006218D01*
X139799742Y-92967300D01*
X139600258Y-92967300D01*
X139404606Y-93006218D01*
X139328113Y-93037902D01*
X138729805Y-92439594D01*
X146701656Y-92439594D01*
X146788175Y-92637574D01*
X147032797Y-92726120D01*
X147289994Y-92765243D01*
X147549880Y-92753436D01*
X147802471Y-92691155D01*
X147931825Y-92637574D01*
X148018344Y-92439594D01*
X147360000Y-91781250D01*
X146701656Y-92439594D01*
X138729805Y-92439594D01*
X138102098Y-91811887D01*
X138133782Y-91735394D01*
X138172700Y-91539742D01*
X138172700Y-91369994D01*
X146034757Y-91369994D01*
X146046564Y-91629880D01*
X146108845Y-91882471D01*
X146162426Y-92011825D01*
X146360406Y-92098344D01*
X147018750Y-91440000D01*
X147701250Y-91440000D01*
X148359594Y-92098344D01*
X148557574Y-92011825D01*
X148646120Y-91767203D01*
X148685243Y-91510006D01*
X148677532Y-91340258D01*
X148847300Y-91340258D01*
X148847300Y-91539742D01*
X148886218Y-91735394D01*
X148962557Y-91919693D01*
X149073385Y-92085559D01*
X149214441Y-92226615D01*
X149380307Y-92337443D01*
X149564606Y-92413782D01*
X149760258Y-92452700D01*
X149959742Y-92452700D01*
X150155394Y-92413782D01*
X150339693Y-92337443D01*
X150505559Y-92226615D01*
X150646615Y-92085559D01*
X150757443Y-91919693D01*
X150833782Y-91735394D01*
X150872700Y-91539742D01*
X150872700Y-91340258D01*
X150833782Y-91144606D01*
X150757443Y-90960307D01*
X150646615Y-90794441D01*
X150505559Y-90653385D01*
X150339693Y-90542557D01*
X150155394Y-90466218D01*
X149959742Y-90427300D01*
X149760258Y-90427300D01*
X149564606Y-90466218D01*
X149380307Y-90542557D01*
X149214441Y-90653385D01*
X149073385Y-90794441D01*
X148962557Y-90960307D01*
X148886218Y-91144606D01*
X148847300Y-91340258D01*
X148677532Y-91340258D01*
X148673436Y-91250120D01*
X148611155Y-90997529D01*
X148557574Y-90868175D01*
X148359594Y-90781656D01*
X147701250Y-91440000D01*
X147018750Y-91440000D01*
X146360406Y-90781656D01*
X146162426Y-90868175D01*
X146073880Y-91112797D01*
X146034757Y-91369994D01*
X138172700Y-91369994D01*
X138172700Y-91340258D01*
X138133782Y-91144606D01*
X138057443Y-90960307D01*
X137946615Y-90794441D01*
X137805559Y-90653385D01*
X137639693Y-90542557D01*
X137455394Y-90466218D01*
X137259742Y-90427300D01*
X137060258Y-90427300D01*
X136864606Y-90466218D01*
X136680307Y-90542557D01*
X136514441Y-90653385D01*
X136373385Y-90794441D01*
X136262557Y-90960307D01*
X136186218Y-91144606D01*
X136147300Y-91340258D01*
X136147300Y-91539742D01*
X136186218Y-91735394D01*
X136262557Y-91919693D01*
X136373385Y-92085559D01*
X136514441Y-92226615D01*
X136680307Y-92337443D01*
X136864606Y-92413782D01*
X137060258Y-92452700D01*
X137259742Y-92452700D01*
X137455394Y-92413782D01*
X137531887Y-92382098D01*
X138757902Y-93608113D01*
X138726218Y-93684606D01*
X138687300Y-93880258D01*
X138687300Y-94079742D01*
X138726218Y-94275394D01*
X138802557Y-94459693D01*
X138913385Y-94625559D01*
X139054441Y-94766615D01*
X139220307Y-94877443D01*
X139404606Y-94953782D01*
X139600258Y-94992700D01*
X139799742Y-94992700D01*
X139995394Y-94953782D01*
X140071887Y-94922098D01*
X140591695Y-95441906D01*
X140604316Y-95457284D01*
X140619691Y-95469902D01*
X140619694Y-95469905D01*
X140665711Y-95507670D01*
X140735755Y-95545110D01*
X140811759Y-95568165D01*
X140871002Y-95574000D01*
X140871009Y-95574000D01*
X140890800Y-95575949D01*
X140910591Y-95574000D01*
X141026866Y-95574000D01*
X141026540Y-95574609D01*
X141014378Y-95614704D01*
X141010271Y-95656400D01*
X141010271Y-97383600D01*
X141014378Y-97425296D01*
X141026540Y-97465391D01*
X141046291Y-97502341D01*
X141072871Y-97534729D01*
X141105259Y-97561309D01*
X141142209Y-97581060D01*
X141182304Y-97593222D01*
X141224000Y-97597329D01*
X142839749Y-97597329D01*
X143178384Y-97935964D01*
X143188955Y-97948845D01*
X143240377Y-97991045D01*
X143299043Y-98022403D01*
X143362699Y-98041713D01*
X143412319Y-98046600D01*
X143412322Y-98046600D01*
X143428900Y-98048233D01*
X143445478Y-98046600D01*
X144913421Y-98046600D01*
X144922657Y-98055837D01*
X144879742Y-98047300D01*
X144680258Y-98047300D01*
X144484606Y-98086218D01*
X144300307Y-98162557D01*
X144134441Y-98273385D01*
X143993385Y-98414441D01*
X143882557Y-98580307D01*
X143806218Y-98764606D01*
X143767300Y-98960258D01*
X143767300Y-99159742D01*
X143806218Y-99355394D01*
X143882557Y-99539693D01*
X143993385Y-99705559D01*
X144134441Y-99846615D01*
X144231099Y-99911200D01*
X143568780Y-99911200D01*
X143300973Y-99643393D01*
X143391582Y-99473875D01*
X143453126Y-99270992D01*
X143473907Y-99060000D01*
X143453126Y-98849008D01*
X143391582Y-98646125D01*
X143291640Y-98459147D01*
X143157141Y-98295259D01*
X142993253Y-98160760D01*
X142806275Y-98060818D01*
X142603392Y-97999274D01*
X142445267Y-97983700D01*
X142034733Y-97983700D01*
X141876608Y-97999274D01*
X141673725Y-98060818D01*
X141486747Y-98160760D01*
X141322859Y-98295259D01*
X141188360Y-98459147D01*
X141088418Y-98646125D01*
X141026874Y-98849008D01*
X141006093Y-99060000D01*
X141026874Y-99270992D01*
X141088418Y-99473875D01*
X141188360Y-99660853D01*
X141322859Y-99824741D01*
X141486747Y-99959240D01*
X141673725Y-100059182D01*
X141876608Y-100120726D01*
X142034733Y-100136300D01*
X142445267Y-100136300D01*
X142603392Y-100120726D01*
X142772000Y-100069579D01*
X143178384Y-100475964D01*
X143188955Y-100488845D01*
X143240377Y-100531045D01*
X143299043Y-100562403D01*
X143362699Y-100581713D01*
X143412319Y-100586600D01*
X143412322Y-100586600D01*
X143428900Y-100588233D01*
X143445478Y-100586600D01*
X146083021Y-100586600D01*
X148140400Y-102643980D01*
X148140401Y-103653410D01*
X148140400Y-103653420D01*
X148140400Y-103739541D01*
X148127495Y-103708385D01*
X148027775Y-103559144D01*
X147900856Y-103432225D01*
X147751615Y-103332505D01*
X147585787Y-103263817D01*
X147409745Y-103228800D01*
X147230255Y-103228800D01*
X147054213Y-103263817D01*
X146888385Y-103332505D01*
X146739144Y-103432225D01*
X146612225Y-103559144D01*
X146512505Y-103708385D01*
X146443817Y-103874213D01*
X146408800Y-104050255D01*
X146408800Y-104229745D01*
X146443817Y-104405787D01*
X146512505Y-104571615D01*
X146612225Y-104720856D01*
X146739144Y-104847775D01*
X146888385Y-104947495D01*
X147054213Y-105016183D01*
X147230255Y-105051200D01*
X147409745Y-105051200D01*
X147585787Y-105016183D01*
X147679703Y-104977282D01*
X148125301Y-105422881D01*
X148125300Y-107171422D01*
X148123667Y-107188000D01*
X148125300Y-107204578D01*
X148125300Y-107204580D01*
X148130187Y-107254200D01*
X148149497Y-107317856D01*
X148164094Y-107345165D01*
X148180855Y-107376523D01*
X148204322Y-107405117D01*
X148223055Y-107427944D01*
X148235937Y-107438516D01*
X148901084Y-108103664D01*
X148911655Y-108116545D01*
X148924534Y-108127114D01*
X148963076Y-108158745D01*
X148994434Y-108175506D01*
X149021743Y-108190103D01*
X149085399Y-108209413D01*
X149135019Y-108214300D01*
X149135021Y-108214300D01*
X149151599Y-108215933D01*
X149168177Y-108214300D01*
X149315212Y-108214300D01*
X149293725Y-108220818D01*
X149106747Y-108320760D01*
X148942859Y-108455259D01*
X148814239Y-108611983D01*
X148791146Y-108568778D01*
X148791145Y-108568776D01*
X148759514Y-108530234D01*
X148759511Y-108530231D01*
X148748944Y-108517355D01*
X148736069Y-108506789D01*
X145412220Y-105182941D01*
X145401645Y-105170055D01*
X145350223Y-105127855D01*
X145291557Y-105096497D01*
X145227901Y-105077187D01*
X145178281Y-105072300D01*
X145178278Y-105072300D01*
X145176066Y-105072082D01*
X145259693Y-105037443D01*
X145425559Y-104926615D01*
X145566615Y-104785559D01*
X145677443Y-104619693D01*
X145753782Y-104435394D01*
X145792700Y-104239742D01*
X145792700Y-104040258D01*
X145753782Y-103844606D01*
X145677443Y-103660307D01*
X145566615Y-103494441D01*
X145425559Y-103353385D01*
X145259693Y-103242557D01*
X145075394Y-103166218D01*
X144879742Y-103127300D01*
X144680258Y-103127300D01*
X144484606Y-103166218D01*
X144300307Y-103242557D01*
X144134441Y-103353385D01*
X143993385Y-103494441D01*
X143945940Y-103565448D01*
X143944603Y-103561042D01*
X143913245Y-103502377D01*
X143881614Y-103463834D01*
X143881611Y-103463831D01*
X143871044Y-103450955D01*
X143858169Y-103440389D01*
X143097320Y-102679541D01*
X143086745Y-102666655D01*
X143035323Y-102624455D01*
X142976657Y-102593097D01*
X142913001Y-102573787D01*
X142863381Y-102568900D01*
X142863378Y-102568900D01*
X142862998Y-102568863D01*
X142993253Y-102499240D01*
X143157141Y-102364741D01*
X143291640Y-102200853D01*
X143391582Y-102013875D01*
X143414689Y-101937700D01*
X143823742Y-101937700D01*
X143882557Y-102079693D01*
X143993385Y-102245559D01*
X144134441Y-102386615D01*
X144300307Y-102497443D01*
X144484606Y-102573782D01*
X144680258Y-102612700D01*
X144879742Y-102612700D01*
X145075394Y-102573782D01*
X145259693Y-102497443D01*
X145425559Y-102386615D01*
X145566615Y-102245559D01*
X145677443Y-102079693D01*
X145753782Y-101895394D01*
X145792700Y-101699742D01*
X145792700Y-101500258D01*
X145753782Y-101304606D01*
X145677443Y-101120307D01*
X145566615Y-100954441D01*
X145425559Y-100813385D01*
X145259693Y-100702557D01*
X145075394Y-100626218D01*
X144879742Y-100587300D01*
X144680258Y-100587300D01*
X144484606Y-100626218D01*
X144300307Y-100702557D01*
X144134441Y-100813385D01*
X143993385Y-100954441D01*
X143882557Y-101120307D01*
X143823742Y-101262300D01*
X143414689Y-101262300D01*
X143391582Y-101186125D01*
X143291640Y-100999147D01*
X143157141Y-100835259D01*
X142993253Y-100700760D01*
X142806275Y-100600818D01*
X142603392Y-100539274D01*
X142445267Y-100523700D01*
X142163780Y-100523700D01*
X141855420Y-100215341D01*
X141844845Y-100202455D01*
X141793423Y-100160255D01*
X141734757Y-100128897D01*
X141671101Y-100109587D01*
X141621481Y-100104700D01*
X141621478Y-100104700D01*
X141604900Y-100103067D01*
X141588322Y-100104700D01*
X139096178Y-100104700D01*
X139079600Y-100103067D01*
X139063022Y-100104700D01*
X139063019Y-100104700D01*
X139013399Y-100109587D01*
X138964558Y-100124403D01*
X138949742Y-100128897D01*
X138891077Y-100160255D01*
X138839655Y-100202455D01*
X138829084Y-100215336D01*
X137782121Y-101262300D01*
X133036258Y-101262300D01*
X132977443Y-101120307D01*
X132866615Y-100954441D01*
X132725559Y-100813385D01*
X132559693Y-100702557D01*
X132375394Y-100626218D01*
X132179742Y-100587300D01*
X131980258Y-100587300D01*
X131784606Y-100626218D01*
X131600307Y-100702557D01*
X131434441Y-100813385D01*
X131293385Y-100954441D01*
X131182557Y-101120307D01*
X131106218Y-101304606D01*
X131067300Y-101500258D01*
X130973900Y-101500258D01*
X130973900Y-98960258D01*
X131067300Y-98960258D01*
X131067300Y-99159742D01*
X131106218Y-99355394D01*
X131182557Y-99539693D01*
X131293385Y-99705559D01*
X131434441Y-99846615D01*
X131600307Y-99957443D01*
X131784606Y-100033782D01*
X131980258Y-100072700D01*
X132179742Y-100072700D01*
X132375394Y-100033782D01*
X132559693Y-99957443D01*
X132725559Y-99846615D01*
X132866615Y-99705559D01*
X132977443Y-99539693D01*
X133053782Y-99355394D01*
X133092700Y-99159742D01*
X133092700Y-98960258D01*
X138687300Y-98960258D01*
X138687300Y-99159742D01*
X138726218Y-99355394D01*
X138802557Y-99539693D01*
X138913385Y-99705559D01*
X139054441Y-99846615D01*
X139220307Y-99957443D01*
X139404606Y-100033782D01*
X139600258Y-100072700D01*
X139799742Y-100072700D01*
X139995394Y-100033782D01*
X140179693Y-99957443D01*
X140345559Y-99846615D01*
X140486615Y-99705559D01*
X140597443Y-99539693D01*
X140673782Y-99355394D01*
X140712700Y-99159742D01*
X140712700Y-98960258D01*
X140673782Y-98764606D01*
X140597443Y-98580307D01*
X140486615Y-98414441D01*
X140345559Y-98273385D01*
X140179693Y-98162557D01*
X139995394Y-98086218D01*
X139799742Y-98047300D01*
X139600258Y-98047300D01*
X139404606Y-98086218D01*
X139220307Y-98162557D01*
X139054441Y-98273385D01*
X138913385Y-98414441D01*
X138802557Y-98580307D01*
X138726218Y-98764606D01*
X138687300Y-98960258D01*
X133092700Y-98960258D01*
X133053782Y-98764606D01*
X132977443Y-98580307D01*
X132866615Y-98414441D01*
X132725559Y-98273385D01*
X132559693Y-98162557D01*
X132375394Y-98086218D01*
X132179742Y-98047300D01*
X131980258Y-98047300D01*
X131784606Y-98086218D01*
X131600307Y-98162557D01*
X131434441Y-98273385D01*
X131293385Y-98414441D01*
X131182557Y-98580307D01*
X131106218Y-98764606D01*
X131067300Y-98960258D01*
X130973900Y-98960258D01*
X130973900Y-96420258D01*
X131067300Y-96420258D01*
X131067300Y-96619742D01*
X131106218Y-96815394D01*
X131182557Y-96999693D01*
X131293385Y-97165559D01*
X131434441Y-97306615D01*
X131600307Y-97417443D01*
X131784606Y-97493782D01*
X131980258Y-97532700D01*
X132179742Y-97532700D01*
X132375394Y-97493782D01*
X132559693Y-97417443D01*
X132725559Y-97306615D01*
X132866615Y-97165559D01*
X132977443Y-96999693D01*
X133053782Y-96815394D01*
X133092700Y-96619742D01*
X133092700Y-96420258D01*
X138687300Y-96420258D01*
X138687300Y-96619742D01*
X138726218Y-96815394D01*
X138802557Y-96999693D01*
X138913385Y-97165559D01*
X139054441Y-97306615D01*
X139220307Y-97417443D01*
X139404606Y-97493782D01*
X139600258Y-97532700D01*
X139799742Y-97532700D01*
X139995394Y-97493782D01*
X140179693Y-97417443D01*
X140345559Y-97306615D01*
X140486615Y-97165559D01*
X140597443Y-96999693D01*
X140673782Y-96815394D01*
X140712700Y-96619742D01*
X140712700Y-96420258D01*
X140673782Y-96224606D01*
X140597443Y-96040307D01*
X140486615Y-95874441D01*
X140345559Y-95733385D01*
X140179693Y-95622557D01*
X139995394Y-95546218D01*
X139799742Y-95507300D01*
X139600258Y-95507300D01*
X139404606Y-95546218D01*
X139220307Y-95622557D01*
X139054441Y-95733385D01*
X138913385Y-95874441D01*
X138802557Y-96040307D01*
X138726218Y-96224606D01*
X138687300Y-96420258D01*
X133092700Y-96420258D01*
X133053782Y-96224606D01*
X132977443Y-96040307D01*
X132866615Y-95874441D01*
X132725559Y-95733385D01*
X132559693Y-95622557D01*
X132375394Y-95546218D01*
X132179742Y-95507300D01*
X131980258Y-95507300D01*
X131784606Y-95546218D01*
X131600307Y-95622557D01*
X131434441Y-95733385D01*
X131293385Y-95874441D01*
X131182557Y-96040307D01*
X131106218Y-96224606D01*
X131067300Y-96420258D01*
X130973900Y-96420258D01*
X130973900Y-93880258D01*
X131067300Y-93880258D01*
X131067300Y-94079742D01*
X131106218Y-94275394D01*
X131182557Y-94459693D01*
X131293385Y-94625559D01*
X131434441Y-94766615D01*
X131600307Y-94877443D01*
X131784606Y-94953782D01*
X131980258Y-94992700D01*
X132179742Y-94992700D01*
X132375394Y-94953782D01*
X132559693Y-94877443D01*
X132725559Y-94766615D01*
X132866615Y-94625559D01*
X132977443Y-94459693D01*
X133053782Y-94275394D01*
X133092700Y-94079742D01*
X133092700Y-93880258D01*
X133053782Y-93684606D01*
X132977443Y-93500307D01*
X132866615Y-93334441D01*
X132725559Y-93193385D01*
X132559693Y-93082557D01*
X132375394Y-93006218D01*
X132179742Y-92967300D01*
X131980258Y-92967300D01*
X131784606Y-93006218D01*
X131600307Y-93082557D01*
X131434441Y-93193385D01*
X131293385Y-93334441D01*
X131182557Y-93500307D01*
X131106218Y-93684606D01*
X131067300Y-93880258D01*
X130973900Y-93880258D01*
X130973900Y-92439594D01*
X134001656Y-92439594D01*
X134088175Y-92637574D01*
X134332797Y-92726120D01*
X134589994Y-92765243D01*
X134849880Y-92753436D01*
X135102471Y-92691155D01*
X135231825Y-92637574D01*
X135318344Y-92439594D01*
X134660000Y-91781250D01*
X134001656Y-92439594D01*
X130973900Y-92439594D01*
X130973900Y-91448019D01*
X130981550Y-91369994D01*
X133334757Y-91369994D01*
X133346564Y-91629880D01*
X133408845Y-91882471D01*
X133462426Y-92011825D01*
X133660406Y-92098344D01*
X134318750Y-91440000D01*
X135001250Y-91440000D01*
X135659594Y-92098344D01*
X135857574Y-92011825D01*
X135946120Y-91767203D01*
X135985243Y-91510006D01*
X135973436Y-91250120D01*
X135911155Y-90997529D01*
X135857574Y-90868175D01*
X135659594Y-90781656D01*
X135001250Y-91440000D01*
X134318750Y-91440000D01*
X133660406Y-90781656D01*
X133462426Y-90868175D01*
X133373880Y-91112797D01*
X133334757Y-91369994D01*
X130981550Y-91369994D01*
X130995737Y-91225311D01*
X131058088Y-91018794D01*
X131159360Y-90828330D01*
X131295701Y-90661159D01*
X131461914Y-90523655D01*
X131651674Y-90421052D01*
X131857747Y-90357261D01*
X132080008Y-90333901D01*
X132080287Y-90333900D01*
X134048200Y-90333900D01*
X134001656Y-90440406D01*
G37*
X134001656Y-90440406D02*
X134660000Y-91098750D01*
X135318344Y-90440406D01*
X135271800Y-90333900D01*
X146748200Y-90333900D01*
X146701656Y-90440406D01*
X147360000Y-91098750D01*
X148018344Y-90440406D01*
X147971800Y-90333900D01*
X152391981Y-90333900D01*
X152614689Y-90355737D01*
X152821206Y-90418088D01*
X153011670Y-90519360D01*
X153178841Y-90655701D01*
X153316345Y-90821914D01*
X153418948Y-91011674D01*
X153482739Y-91217747D01*
X153506099Y-91440008D01*
X153506101Y-91440573D01*
X153506100Y-118101981D01*
X153484263Y-118324689D01*
X153421912Y-118531206D01*
X153320641Y-118721670D01*
X153184299Y-118888841D01*
X153018083Y-119026348D01*
X152828324Y-119128949D01*
X152622253Y-119192739D01*
X152399992Y-119216099D01*
X152399713Y-119216100D01*
X132088019Y-119216100D01*
X131865311Y-119194263D01*
X131658794Y-119131912D01*
X131468330Y-119030641D01*
X131301159Y-118894299D01*
X131163652Y-118728083D01*
X131061051Y-118538324D01*
X130997261Y-118332253D01*
X130973901Y-118109992D01*
X130973900Y-118109713D01*
X130973900Y-115465333D01*
X134827300Y-115465333D01*
X134827300Y-115674667D01*
X134868139Y-115879978D01*
X134948247Y-116073377D01*
X135064547Y-116247432D01*
X135212568Y-116395453D01*
X135386623Y-116511753D01*
X135580022Y-116591861D01*
X135785333Y-116632700D01*
X135994667Y-116632700D01*
X136199978Y-116591861D01*
X136393377Y-116511753D01*
X136567432Y-116395453D01*
X136715453Y-116247432D01*
X136831753Y-116073377D01*
X136911861Y-115879978D01*
X136952700Y-115674667D01*
X136952700Y-115465333D01*
X136911861Y-115260022D01*
X136831753Y-115066623D01*
X136715453Y-114892568D01*
X136567432Y-114744547D01*
X136393377Y-114628247D01*
X136199978Y-114548139D01*
X135994667Y-114507300D01*
X135785333Y-114507300D01*
X135580022Y-114548139D01*
X135386623Y-114628247D01*
X135212568Y-114744547D01*
X135064547Y-114892568D01*
X134948247Y-115066623D01*
X134868139Y-115260022D01*
X134827300Y-115465333D01*
X130973900Y-115465333D01*
X130973900Y-112470960D01*
X131021400Y-112549709D01*
X131195805Y-112741058D01*
X131404189Y-112894705D01*
X131638544Y-113004746D01*
X131838700Y-112928305D01*
X131838700Y-112001300D01*
X132321300Y-112001300D01*
X132321300Y-112928305D01*
X132521456Y-113004746D01*
X132755811Y-112894705D01*
X132964195Y-112741058D01*
X133138600Y-112549709D01*
X133272324Y-112328012D01*
X133324735Y-112201454D01*
X133245815Y-112001300D01*
X132321300Y-112001300D01*
X131838700Y-112001300D01*
X131818700Y-112001300D01*
X131818700Y-111518700D01*
X131838700Y-111518700D01*
X131838700Y-110591695D01*
X132321300Y-110591695D01*
X132321300Y-111518700D01*
X133245815Y-111518700D01*
X133324735Y-111318546D01*
X133272324Y-111191988D01*
X133267508Y-111184003D01*
X134355100Y-111184003D01*
X134355100Y-111284997D01*
X134374803Y-111384049D01*
X134413451Y-111477355D01*
X134469560Y-111561327D01*
X134540973Y-111632740D01*
X134624945Y-111688849D01*
X134718251Y-111727497D01*
X134817303Y-111747200D01*
X134902921Y-111747200D01*
X137777484Y-114621764D01*
X137788055Y-114634645D01*
X137800934Y-114645214D01*
X137839477Y-114676845D01*
X137847485Y-114681125D01*
X137752568Y-114744547D01*
X137604547Y-114892568D01*
X137488247Y-115066623D01*
X137408139Y-115260022D01*
X137367300Y-115465333D01*
X137367300Y-115674667D01*
X137408139Y-115879978D01*
X137488247Y-116073377D01*
X137604547Y-116247432D01*
X137752568Y-116395453D01*
X137926623Y-116511753D01*
X138120022Y-116591861D01*
X138325333Y-116632700D01*
X138534667Y-116632700D01*
X138739978Y-116591861D01*
X138933377Y-116511753D01*
X139107432Y-116395453D01*
X139255453Y-116247432D01*
X139371753Y-116073377D01*
X139451861Y-115879978D01*
X139492700Y-115674667D01*
X139492700Y-115465333D01*
X139451861Y-115260022D01*
X139371753Y-115066623D01*
X139255453Y-114892568D01*
X139107432Y-114744547D01*
X139089253Y-114732400D01*
X140310747Y-114732400D01*
X140292568Y-114744547D01*
X140144547Y-114892568D01*
X140028247Y-115066623D01*
X139948139Y-115260022D01*
X139907300Y-115465333D01*
X139907300Y-115674667D01*
X139948139Y-115879978D01*
X140028247Y-116073377D01*
X140144547Y-116247432D01*
X140292568Y-116395453D01*
X140466623Y-116511753D01*
X140660022Y-116591861D01*
X140865333Y-116632700D01*
X141074667Y-116632700D01*
X141279978Y-116591861D01*
X141473377Y-116511753D01*
X141647432Y-116395453D01*
X141795453Y-116247432D01*
X141911753Y-116073377D01*
X141991861Y-115879978D01*
X142032700Y-115674667D01*
X142032700Y-115465333D01*
X141991861Y-115260022D01*
X141911753Y-115066623D01*
X141795453Y-114892568D01*
X141647432Y-114744547D01*
X141629253Y-114732400D01*
X142194821Y-114732400D01*
X142556765Y-115094344D01*
X142488139Y-115260022D01*
X142447300Y-115465333D01*
X142447300Y-115674667D01*
X142488139Y-115879978D01*
X142568247Y-116073377D01*
X142684547Y-116247432D01*
X142832568Y-116395453D01*
X143006623Y-116511753D01*
X143200022Y-116591861D01*
X143405333Y-116632700D01*
X143614667Y-116632700D01*
X143819978Y-116591861D01*
X144013377Y-116511753D01*
X144187432Y-116395453D01*
X144335453Y-116247432D01*
X144451753Y-116073377D01*
X144531861Y-115879978D01*
X144572700Y-115674667D01*
X144572700Y-115465333D01*
X144531861Y-115260022D01*
X144451753Y-115066623D01*
X144335453Y-114892568D01*
X144187432Y-114744547D01*
X144013377Y-114628247D01*
X143819978Y-114548139D01*
X143614667Y-114507300D01*
X143405333Y-114507300D01*
X143200022Y-114548139D01*
X143034344Y-114616765D01*
X142585220Y-114167641D01*
X142574645Y-114154755D01*
X142523223Y-114112555D01*
X142464557Y-114081197D01*
X142400901Y-114061887D01*
X142351281Y-114057000D01*
X142351278Y-114057000D01*
X142334700Y-114055367D01*
X142318122Y-114057000D01*
X138167880Y-114057000D01*
X135380500Y-111269621D01*
X135380500Y-111184003D01*
X135360797Y-111084951D01*
X135322149Y-110991645D01*
X135266040Y-110907673D01*
X135194627Y-110836260D01*
X135110655Y-110780151D01*
X135017349Y-110741503D01*
X134918297Y-110721800D01*
X134817303Y-110721800D01*
X134718251Y-110741503D01*
X134624945Y-110780151D01*
X134540973Y-110836260D01*
X134469560Y-110907673D01*
X134413451Y-110991645D01*
X134374803Y-111084951D01*
X134355100Y-111184003D01*
X133267508Y-111184003D01*
X133138600Y-110970291D01*
X132964195Y-110778942D01*
X132755811Y-110625295D01*
X132521456Y-110515254D01*
X132321300Y-110591695D01*
X131838700Y-110591695D01*
X131638544Y-110515254D01*
X131404189Y-110625295D01*
X131195805Y-110778942D01*
X131021400Y-110970291D01*
X130973900Y-111049040D01*
X130973900Y-109930960D01*
X131021400Y-110009709D01*
X131195805Y-110201058D01*
X131404189Y-110354705D01*
X131638544Y-110464746D01*
X131838700Y-110388305D01*
X131838700Y-109461300D01*
X132321300Y-109461300D01*
X132321300Y-110388305D01*
X132521456Y-110464746D01*
X132755811Y-110354705D01*
X132964195Y-110201058D01*
X133138600Y-110009709D01*
X133272324Y-109788012D01*
X133324735Y-109661454D01*
X133245815Y-109461300D01*
X132321300Y-109461300D01*
X131838700Y-109461300D01*
X131818700Y-109461300D01*
X131818700Y-108978700D01*
X131838700Y-108978700D01*
X131838700Y-108051695D01*
X132321300Y-108051695D01*
X132321300Y-108978700D01*
X133245815Y-108978700D01*
X133324735Y-108778546D01*
X133272324Y-108651988D01*
X133138600Y-108430291D01*
X132964195Y-108238942D01*
X132755811Y-108085295D01*
X132521456Y-107975254D01*
X132321300Y-108051695D01*
X131838700Y-108051695D01*
X131638544Y-107975254D01*
X131404189Y-108085295D01*
X131195805Y-108238942D01*
X131021400Y-108430291D01*
X130973900Y-108509040D01*
X130973900Y-107390960D01*
X131021400Y-107469709D01*
X131195805Y-107661058D01*
X131404189Y-107814705D01*
X131638544Y-107924746D01*
X131838700Y-107848305D01*
X131838700Y-106921300D01*
X132321300Y-106921300D01*
X132321300Y-107848305D01*
X132521456Y-107924746D01*
X132755811Y-107814705D01*
X132964195Y-107661058D01*
X133138600Y-107469709D01*
X133272324Y-107248012D01*
X133324735Y-107121454D01*
X133245815Y-106921300D01*
X132321300Y-106921300D01*
X131838700Y-106921300D01*
X131818700Y-106921300D01*
X131818700Y-106580258D01*
X138687300Y-106580258D01*
X138687300Y-106779742D01*
X138726218Y-106975394D01*
X138802557Y-107159693D01*
X138913385Y-107325559D01*
X139054441Y-107466615D01*
X139220307Y-107577443D01*
X139404606Y-107653782D01*
X139600258Y-107692700D01*
X139799742Y-107692700D01*
X139995394Y-107653782D01*
X140179693Y-107577443D01*
X140345559Y-107466615D01*
X140486615Y-107325559D01*
X140597443Y-107159693D01*
X140673782Y-106975394D01*
X140712700Y-106779742D01*
X140712700Y-106580258D01*
X140673782Y-106384606D01*
X140597443Y-106200307D01*
X140486615Y-106034441D01*
X140345559Y-105893385D01*
X140179693Y-105782557D01*
X139995394Y-105706218D01*
X139799742Y-105667300D01*
X139600258Y-105667300D01*
X139404606Y-105706218D01*
X139220307Y-105782557D01*
X139054441Y-105893385D01*
X138913385Y-106034441D01*
X138802557Y-106200307D01*
X138726218Y-106384606D01*
X138687300Y-106580258D01*
X131818700Y-106580258D01*
X131818700Y-106438700D01*
X131838700Y-106438700D01*
X131838700Y-105511695D01*
X132321300Y-105511695D01*
X132321300Y-106438700D01*
X133245815Y-106438700D01*
X133324735Y-106238546D01*
X133272324Y-106111988D01*
X133138600Y-105890291D01*
X132964195Y-105698942D01*
X132755811Y-105545295D01*
X132521456Y-105435254D01*
X132321300Y-105511695D01*
X131838700Y-105511695D01*
X131638544Y-105435254D01*
X131404189Y-105545295D01*
X131195805Y-105698942D01*
X131021400Y-105890291D01*
X130973900Y-105969040D01*
X130973900Y-104040258D01*
X131067300Y-104040258D01*
X131067300Y-104239742D01*
X131106218Y-104435394D01*
X131182557Y-104619693D01*
X131293385Y-104785559D01*
X131434441Y-104926615D01*
X131600307Y-105037443D01*
X131784606Y-105113782D01*
X131980258Y-105152700D01*
X132179742Y-105152700D01*
X132375394Y-105113782D01*
X132559693Y-105037443D01*
X132725559Y-104926615D01*
X132866615Y-104785559D01*
X132977443Y-104619693D01*
X133053782Y-104435394D01*
X133092700Y-104239742D01*
X133092700Y-104040258D01*
X138687300Y-104040258D01*
X138687300Y-104239742D01*
X138726218Y-104435394D01*
X138802557Y-104619693D01*
X138913385Y-104785559D01*
X139054441Y-104926615D01*
X139220307Y-105037443D01*
X139404606Y-105113782D01*
X139600258Y-105152700D01*
X139799742Y-105152700D01*
X139995394Y-105113782D01*
X140179693Y-105037443D01*
X140345559Y-104926615D01*
X140486615Y-104785559D01*
X140597443Y-104619693D01*
X140673782Y-104435394D01*
X140712700Y-104239742D01*
X140712700Y-104040258D01*
X140673782Y-103844606D01*
X140597443Y-103660307D01*
X140486615Y-103494441D01*
X140345559Y-103353385D01*
X140179693Y-103242557D01*
X139995394Y-103166218D01*
X139799742Y-103127300D01*
X139600258Y-103127300D01*
X139404606Y-103166218D01*
X139220307Y-103242557D01*
X139054441Y-103353385D01*
X138913385Y-103494441D01*
X138802557Y-103660307D01*
X138726218Y-103844606D01*
X138687300Y-104040258D01*
X133092700Y-104040258D01*
X133053782Y-103844606D01*
X132977443Y-103660307D01*
X132866615Y-103494441D01*
X132725559Y-103353385D01*
X132559693Y-103242557D01*
X132375394Y-103166218D01*
X132179742Y-103127300D01*
X131980258Y-103127300D01*
X131784606Y-103166218D01*
X131600307Y-103242557D01*
X131434441Y-103353385D01*
X131293385Y-103494441D01*
X131182557Y-103660307D01*
X131106218Y-103844606D01*
X131067300Y-104040258D01*
X130973900Y-104040258D01*
X130973900Y-101500258D01*
X131067300Y-101500258D01*
X131067300Y-101699742D01*
X131106218Y-101895394D01*
X131182557Y-102079693D01*
X131293385Y-102245559D01*
X131434441Y-102386615D01*
X131600307Y-102497443D01*
X131784606Y-102573782D01*
X131980258Y-102612700D01*
X132179742Y-102612700D01*
X132375394Y-102573782D01*
X132559693Y-102497443D01*
X132725559Y-102386615D01*
X132866615Y-102245559D01*
X132977443Y-102079693D01*
X133036258Y-101937700D01*
X137905422Y-101937700D01*
X137922000Y-101939333D01*
X137938578Y-101937700D01*
X137938581Y-101937700D01*
X137988201Y-101932813D01*
X138051857Y-101913503D01*
X138110523Y-101882145D01*
X138161945Y-101839945D01*
X138172520Y-101827059D01*
X138748311Y-101251268D01*
X138726218Y-101304606D01*
X138687300Y-101500258D01*
X138687300Y-101699742D01*
X138726218Y-101895394D01*
X138802557Y-102079693D01*
X138913385Y-102245559D01*
X139054441Y-102386615D01*
X139220307Y-102497443D01*
X139404606Y-102573782D01*
X139600258Y-102612700D01*
X139799742Y-102612700D01*
X139995394Y-102573782D01*
X140137387Y-102514967D01*
X140756084Y-103133664D01*
X140766655Y-103146545D01*
X140779534Y-103157114D01*
X140818076Y-103188745D01*
X140849434Y-103205506D01*
X140876743Y-103220103D01*
X140940399Y-103239413D01*
X140990019Y-103244300D01*
X140990021Y-103244300D01*
X141006599Y-103245933D01*
X141023177Y-103244300D01*
X141482433Y-103244300D01*
X141322859Y-103375259D01*
X141188360Y-103539147D01*
X141088418Y-103726125D01*
X141026874Y-103929008D01*
X141006093Y-104140000D01*
X141026874Y-104350992D01*
X141088418Y-104553875D01*
X141188360Y-104740853D01*
X141322859Y-104904741D01*
X141486747Y-105039240D01*
X141673725Y-105139182D01*
X141876608Y-105200726D01*
X142034733Y-105216300D01*
X142445267Y-105216300D01*
X142603392Y-105200726D01*
X142806275Y-105139182D01*
X142993253Y-105039240D01*
X143157141Y-104904741D01*
X143291640Y-104740853D01*
X143305877Y-104714218D01*
X143307891Y-104720856D01*
X143317598Y-104752857D01*
X143348955Y-104811523D01*
X143370129Y-104837323D01*
X143391156Y-104862945D01*
X143404036Y-104873515D01*
X144087857Y-105557337D01*
X143895805Y-105698942D01*
X143721400Y-105890291D01*
X143587676Y-106111988D01*
X143535265Y-106238546D01*
X143614184Y-106438698D01*
X143459300Y-106438698D01*
X143459300Y-106531693D01*
X143453126Y-106469008D01*
X143391582Y-106266125D01*
X143291640Y-106079147D01*
X143157141Y-105915259D01*
X142993253Y-105780760D01*
X142806275Y-105680818D01*
X142603392Y-105619274D01*
X142445267Y-105603700D01*
X142034733Y-105603700D01*
X141876608Y-105619274D01*
X141673725Y-105680818D01*
X141486747Y-105780760D01*
X141322859Y-105915259D01*
X141188360Y-106079147D01*
X141088418Y-106266125D01*
X141026874Y-106469008D01*
X141006093Y-106680000D01*
X141026874Y-106890992D01*
X141088418Y-107093875D01*
X141188360Y-107280853D01*
X141322859Y-107444741D01*
X141486747Y-107579240D01*
X141673725Y-107679182D01*
X141876608Y-107740726D01*
X142034733Y-107756300D01*
X142445267Y-107756300D01*
X142603392Y-107740726D01*
X142772000Y-107689579D01*
X143178384Y-108095964D01*
X143188955Y-108108845D01*
X143240377Y-108151045D01*
X143299043Y-108182403D01*
X143362699Y-108201713D01*
X143412319Y-108206600D01*
X143412322Y-108206600D01*
X143428900Y-108208233D01*
X143445478Y-108206600D01*
X143939669Y-108206600D01*
X143895805Y-108238942D01*
X143721400Y-108430291D01*
X143587676Y-108651988D01*
X143535265Y-108778546D01*
X143614184Y-108978698D01*
X143459300Y-108978698D01*
X143459300Y-109071693D01*
X143453126Y-109009008D01*
X143391582Y-108806125D01*
X143291640Y-108619147D01*
X143157141Y-108455259D01*
X142993253Y-108320760D01*
X142806275Y-108220818D01*
X142603392Y-108159274D01*
X142445267Y-108143700D01*
X142034733Y-108143700D01*
X141876608Y-108159274D01*
X141673725Y-108220818D01*
X141486747Y-108320760D01*
X141322859Y-108455259D01*
X141188360Y-108619147D01*
X141088418Y-108806125D01*
X141026874Y-109009008D01*
X141006093Y-109220000D01*
X141026874Y-109430992D01*
X141088418Y-109633875D01*
X141188360Y-109820853D01*
X141322859Y-109984741D01*
X141486747Y-110119240D01*
X141617071Y-110188900D01*
X141146480Y-110188900D01*
X140614967Y-109657387D01*
X140673782Y-109515394D01*
X140712700Y-109319742D01*
X140712700Y-109120258D01*
X140673782Y-108924606D01*
X140597443Y-108740307D01*
X140486615Y-108574441D01*
X140345559Y-108433385D01*
X140179693Y-108322557D01*
X139995394Y-108246218D01*
X139799742Y-108207300D01*
X139600258Y-108207300D01*
X139404606Y-108246218D01*
X139220307Y-108322557D01*
X139054441Y-108433385D01*
X138913385Y-108574441D01*
X138802557Y-108740307D01*
X138726218Y-108924606D01*
X138687300Y-109120258D01*
X138687300Y-109319742D01*
X138726218Y-109515394D01*
X138802557Y-109699693D01*
X138913385Y-109865559D01*
X139054441Y-110006615D01*
X139220307Y-110117443D01*
X139404606Y-110193782D01*
X139600258Y-110232700D01*
X139799742Y-110232700D01*
X139995394Y-110193782D01*
X140137387Y-110134967D01*
X140756084Y-110753664D01*
X140766655Y-110766545D01*
X140789482Y-110785278D01*
X140818076Y-110808745D01*
X140849434Y-110825506D01*
X140876743Y-110840103D01*
X140940399Y-110859413D01*
X140990019Y-110864300D01*
X140990021Y-110864300D01*
X141006599Y-110865933D01*
X141023177Y-110864300D01*
X141045239Y-110864300D01*
X140921706Y-111022815D01*
X140800291Y-111264434D01*
X140779023Y-111308434D01*
X140856907Y-111518698D01*
X140703300Y-111518698D01*
X140703300Y-111613001D01*
X140673782Y-111464606D01*
X140597443Y-111280307D01*
X140486615Y-111114441D01*
X140345559Y-110973385D01*
X140179693Y-110862557D01*
X139995394Y-110786218D01*
X139799742Y-110747300D01*
X139600258Y-110747300D01*
X139404606Y-110786218D01*
X139220307Y-110862557D01*
X139054441Y-110973385D01*
X138913385Y-111114441D01*
X138802557Y-111280307D01*
X138726218Y-111464606D01*
X138687300Y-111660258D01*
X138687300Y-111859742D01*
X138726218Y-112055394D01*
X138802557Y-112239693D01*
X138913385Y-112405559D01*
X139054441Y-112546615D01*
X139220307Y-112657443D01*
X139404606Y-112733782D01*
X139600258Y-112772700D01*
X139799742Y-112772700D01*
X139995394Y-112733782D01*
X140179693Y-112657443D01*
X140345559Y-112546615D01*
X140486615Y-112405559D01*
X140597443Y-112239693D01*
X140673782Y-112055394D01*
X140703300Y-111906999D01*
X140703300Y-112001302D01*
X140856907Y-112001302D01*
X140779023Y-112211566D01*
X140800291Y-112255566D01*
X140921706Y-112497185D01*
X141087926Y-112710475D01*
X141292563Y-112887239D01*
X141527753Y-113020683D01*
X141784457Y-113105680D01*
X141998700Y-113006359D01*
X141998700Y-112001300D01*
X141978700Y-112001300D01*
X141978700Y-111518700D01*
X141998700Y-111518700D01*
X141998700Y-111498700D01*
X142481300Y-111498700D01*
X142481300Y-111518700D01*
X142501300Y-111518700D01*
X142501300Y-112001300D01*
X142481300Y-112001300D01*
X142481300Y-113006359D01*
X142695543Y-113105680D01*
X142952247Y-113020683D01*
X143187437Y-112887239D01*
X143293401Y-112795708D01*
X143293401Y-113134512D01*
X143291767Y-113151100D01*
X143298288Y-113217300D01*
X143317598Y-113280957D01*
X143348955Y-113339623D01*
X143377550Y-113374465D01*
X143391156Y-113391045D01*
X143404037Y-113401616D01*
X145096765Y-115094344D01*
X145028139Y-115260022D01*
X144987300Y-115465333D01*
X144987300Y-115674667D01*
X145028139Y-115879978D01*
X145108247Y-116073377D01*
X145224547Y-116247432D01*
X145372568Y-116395453D01*
X145546623Y-116511753D01*
X145740022Y-116591861D01*
X145945333Y-116632700D01*
X146154667Y-116632700D01*
X146359978Y-116591861D01*
X146553377Y-116511753D01*
X146690694Y-116420000D01*
X147216781Y-116420000D01*
X147226835Y-116522075D01*
X147256609Y-116620227D01*
X147304959Y-116710685D01*
X147370028Y-116789972D01*
X147449315Y-116855041D01*
X147539773Y-116903391D01*
X147637925Y-116933165D01*
X147740000Y-116943219D01*
X148218525Y-116940700D01*
X148348700Y-116810525D01*
X148348700Y-115811300D01*
X148831300Y-115811300D01*
X148831300Y-116810525D01*
X148961475Y-116940700D01*
X149440000Y-116943219D01*
X149542075Y-116933165D01*
X149640227Y-116903391D01*
X149730685Y-116855041D01*
X149809972Y-116789972D01*
X149875041Y-116710685D01*
X149923391Y-116620227D01*
X149953165Y-116522075D01*
X149963219Y-116420000D01*
X149960700Y-115941475D01*
X149830525Y-115811300D01*
X148831300Y-115811300D01*
X148348700Y-115811300D01*
X147349475Y-115811300D01*
X147219300Y-115941475D01*
X147216781Y-116420000D01*
X146690694Y-116420000D01*
X146727432Y-116395453D01*
X146875453Y-116247432D01*
X146991753Y-116073377D01*
X147071861Y-115879978D01*
X147112700Y-115674667D01*
X147112700Y-115465333D01*
X147071861Y-115260022D01*
X146991753Y-115066623D01*
X146875453Y-114892568D01*
X146727432Y-114744547D01*
X146690695Y-114720000D01*
X147216781Y-114720000D01*
X147219300Y-115198525D01*
X147349475Y-115328700D01*
X148348700Y-115328700D01*
X148348700Y-114329475D01*
X148831300Y-114329475D01*
X148831300Y-115328700D01*
X149830525Y-115328700D01*
X149960700Y-115198525D01*
X149963219Y-114720000D01*
X149953165Y-114617925D01*
X149923391Y-114519773D01*
X149875041Y-114429315D01*
X149809972Y-114350028D01*
X149730685Y-114284959D01*
X149640227Y-114236609D01*
X149542075Y-114206835D01*
X149440000Y-114196781D01*
X148961475Y-114199300D01*
X148831300Y-114329475D01*
X148348700Y-114329475D01*
X148218525Y-114199300D01*
X147740000Y-114196781D01*
X147637925Y-114206835D01*
X147539773Y-114236609D01*
X147449315Y-114284959D01*
X147370028Y-114350028D01*
X147304959Y-114429315D01*
X147256609Y-114519773D01*
X147226835Y-114617925D01*
X147216781Y-114720000D01*
X146690695Y-114720000D01*
X146553377Y-114628247D01*
X146359978Y-114548139D01*
X146154667Y-114507300D01*
X145945333Y-114507300D01*
X145740022Y-114548139D01*
X145574344Y-114616765D01*
X143968800Y-113011221D01*
X143968800Y-112794879D01*
X144104189Y-112894705D01*
X144338544Y-113004746D01*
X144538700Y-112928305D01*
X144538700Y-112001300D01*
X145021300Y-112001300D01*
X145021300Y-112928305D01*
X145221456Y-113004746D01*
X145455811Y-112894705D01*
X145664195Y-112741058D01*
X145838600Y-112549709D01*
X145972324Y-112328012D01*
X146024735Y-112201454D01*
X145945815Y-112001300D01*
X145021300Y-112001300D01*
X144538700Y-112001300D01*
X144518700Y-112001300D01*
X144518700Y-111518700D01*
X144538700Y-111518700D01*
X144538700Y-110591695D01*
X145021300Y-110591695D01*
X145021300Y-111518700D01*
X145945815Y-111518700D01*
X146024735Y-111318546D01*
X145972324Y-111191988D01*
X145838600Y-110970291D01*
X145664195Y-110778942D01*
X145455811Y-110625295D01*
X145221456Y-110515254D01*
X145021300Y-110591695D01*
X144538700Y-110591695D01*
X144338544Y-110515254D01*
X144104189Y-110625295D01*
X143895805Y-110778942D01*
X143743654Y-110945875D01*
X143097320Y-110299541D01*
X143086745Y-110286655D01*
X143035323Y-110244455D01*
X142976657Y-110213097D01*
X142913001Y-110193787D01*
X142863381Y-110188900D01*
X142863378Y-110188900D01*
X142862998Y-110188863D01*
X142993253Y-110119240D01*
X143157141Y-109984741D01*
X143291640Y-109820853D01*
X143391582Y-109633875D01*
X143453126Y-109430992D01*
X143459300Y-109368307D01*
X143459300Y-109461302D01*
X143614184Y-109461302D01*
X143535265Y-109661454D01*
X143587676Y-109788012D01*
X143721400Y-110009709D01*
X143895805Y-110201058D01*
X144104189Y-110354705D01*
X144338544Y-110464746D01*
X144538700Y-110388305D01*
X144538700Y-109461300D01*
X145021300Y-109461300D01*
X145021300Y-110388305D01*
X145221456Y-110464746D01*
X145455811Y-110354705D01*
X145664195Y-110201058D01*
X145838600Y-110009709D01*
X145972324Y-109788012D01*
X146024735Y-109661454D01*
X145945815Y-109461300D01*
X145021300Y-109461300D01*
X144538700Y-109461300D01*
X144518700Y-109461300D01*
X144518700Y-108978700D01*
X144538700Y-108978700D01*
X144538700Y-108958700D01*
X145021300Y-108958700D01*
X145021300Y-108978700D01*
X145945815Y-108978700D01*
X146024735Y-108778546D01*
X145972324Y-108651988D01*
X145838600Y-108430291D01*
X145664195Y-108238942D01*
X145620331Y-108206600D01*
X146844323Y-108206600D01*
X147721298Y-109083576D01*
X147721299Y-111843410D01*
X147719665Y-111859998D01*
X147726186Y-111926198D01*
X147745496Y-111989855D01*
X147776853Y-112048521D01*
X147805448Y-112083363D01*
X147819054Y-112099943D01*
X147831934Y-112110513D01*
X148899384Y-113177964D01*
X148909955Y-113190845D01*
X148922834Y-113201414D01*
X148961376Y-113233045D01*
X148992734Y-113249806D01*
X149020043Y-113264403D01*
X149083699Y-113283713D01*
X149133319Y-113288600D01*
X149133321Y-113288600D01*
X149149899Y-113290233D01*
X149166477Y-113288600D01*
X151192522Y-113288600D01*
X151209100Y-113290233D01*
X151225678Y-113288600D01*
X151225681Y-113288600D01*
X151275301Y-113283713D01*
X151338957Y-113264403D01*
X151397623Y-113233045D01*
X151449045Y-113190845D01*
X151459620Y-113177959D01*
X151962613Y-112674967D01*
X152104606Y-112733782D01*
X152300258Y-112772700D01*
X152499742Y-112772700D01*
X152695394Y-112733782D01*
X152879693Y-112657443D01*
X153045559Y-112546615D01*
X153186615Y-112405559D01*
X153297443Y-112239693D01*
X153373782Y-112055394D01*
X153412700Y-111859742D01*
X153412700Y-111660258D01*
X153373782Y-111464606D01*
X153297443Y-111280307D01*
X153186615Y-111114441D01*
X153045559Y-110973385D01*
X152879693Y-110862557D01*
X152695394Y-110786218D01*
X152499742Y-110747300D01*
X152300258Y-110747300D01*
X152104606Y-110786218D01*
X151920307Y-110862557D01*
X151754441Y-110973385D01*
X151613385Y-111114441D01*
X151502557Y-111280307D01*
X151426218Y-111464606D01*
X151387300Y-111660258D01*
X151387300Y-111859742D01*
X151426218Y-112055394D01*
X151485033Y-112197387D01*
X151069221Y-112613200D01*
X150669353Y-112613200D01*
X150777141Y-112524741D01*
X150911640Y-112360853D01*
X151011582Y-112173875D01*
X151073126Y-111970992D01*
X151093907Y-111760000D01*
X151073126Y-111549008D01*
X151011582Y-111346125D01*
X150911640Y-111159147D01*
X150777141Y-110995259D01*
X150613253Y-110860760D01*
X150426275Y-110760818D01*
X150223392Y-110699274D01*
X150065267Y-110683700D01*
X149654733Y-110683700D01*
X149496608Y-110699274D01*
X149328000Y-110750421D01*
X148846700Y-110269121D01*
X148846700Y-109867571D01*
X148942859Y-109984741D01*
X149106747Y-110119240D01*
X149293725Y-110219182D01*
X149496608Y-110280726D01*
X149654733Y-110296300D01*
X150065267Y-110296300D01*
X150223392Y-110280726D01*
X150426275Y-110219182D01*
X150613253Y-110119240D01*
X150777141Y-109984741D01*
X150911640Y-109820853D01*
X151011582Y-109633875D01*
X151073126Y-109430992D01*
X151093907Y-109220000D01*
X151073126Y-109009008D01*
X151011582Y-108806125D01*
X150911640Y-108619147D01*
X150777141Y-108455259D01*
X150613253Y-108320760D01*
X150426275Y-108220818D01*
X150404788Y-108214300D01*
X150916721Y-108214300D01*
X151485033Y-108782613D01*
X151426218Y-108924606D01*
X151387300Y-109120258D01*
X151387300Y-109319742D01*
X151426218Y-109515394D01*
X151502557Y-109699693D01*
X151613385Y-109865559D01*
X151754441Y-110006615D01*
X151920307Y-110117443D01*
X152104606Y-110193782D01*
X152300258Y-110232700D01*
X152499742Y-110232700D01*
X152695394Y-110193782D01*
X152879693Y-110117443D01*
X153045559Y-110006615D01*
X153186615Y-109865559D01*
X153297443Y-109699693D01*
X153373782Y-109515394D01*
X153412700Y-109319742D01*
X153412700Y-109120258D01*
X153373782Y-108924606D01*
X153297443Y-108740307D01*
X153186615Y-108574441D01*
X153045559Y-108433385D01*
X152879693Y-108322557D01*
X152695394Y-108246218D01*
X152499742Y-108207300D01*
X152300258Y-108207300D01*
X152104606Y-108246218D01*
X151962613Y-108305033D01*
X151307120Y-107649541D01*
X151296545Y-107636655D01*
X151245123Y-107594455D01*
X151186457Y-107563097D01*
X151122801Y-107543787D01*
X151073181Y-107538900D01*
X151073178Y-107538900D01*
X151056600Y-107537267D01*
X151040022Y-107538900D01*
X150662408Y-107538900D01*
X150777141Y-107444741D01*
X150911640Y-107280853D01*
X151011582Y-107093875D01*
X151073126Y-106890992D01*
X151093907Y-106680000D01*
X151073126Y-106469008D01*
X151011582Y-106266125D01*
X150911640Y-106079147D01*
X150777141Y-105915259D01*
X150613253Y-105780760D01*
X150551402Y-105747700D01*
X150990121Y-105747700D01*
X151485033Y-106242613D01*
X151426218Y-106384606D01*
X151387300Y-106580258D01*
X151387300Y-106779742D01*
X151426218Y-106975394D01*
X151502557Y-107159693D01*
X151613385Y-107325559D01*
X151754441Y-107466615D01*
X151920307Y-107577443D01*
X152104606Y-107653782D01*
X152300258Y-107692700D01*
X152499742Y-107692700D01*
X152695394Y-107653782D01*
X152879693Y-107577443D01*
X153045559Y-107466615D01*
X153186615Y-107325559D01*
X153297443Y-107159693D01*
X153373782Y-106975394D01*
X153412700Y-106779742D01*
X153412700Y-106580258D01*
X153373782Y-106384606D01*
X153297443Y-106200307D01*
X153186615Y-106034441D01*
X153045559Y-105893385D01*
X152879693Y-105782557D01*
X152695394Y-105706218D01*
X152499742Y-105667300D01*
X152300258Y-105667300D01*
X152104606Y-105706218D01*
X151962613Y-105765033D01*
X151380520Y-105182941D01*
X151369945Y-105170055D01*
X151318523Y-105127855D01*
X151259857Y-105096497D01*
X151196201Y-105077187D01*
X151146581Y-105072300D01*
X151146578Y-105072300D01*
X151130000Y-105070667D01*
X151113422Y-105072300D01*
X150551402Y-105072300D01*
X150613253Y-105039240D01*
X150777141Y-104904741D01*
X150911640Y-104740853D01*
X151011582Y-104553875D01*
X151073126Y-104350992D01*
X151093907Y-104140000D01*
X151084084Y-104040258D01*
X151387300Y-104040258D01*
X151387300Y-104239742D01*
X151426218Y-104435394D01*
X151502557Y-104619693D01*
X151613385Y-104785559D01*
X151754441Y-104926615D01*
X151920307Y-105037443D01*
X152104606Y-105113782D01*
X152300258Y-105152700D01*
X152499742Y-105152700D01*
X152695394Y-105113782D01*
X152879693Y-105037443D01*
X153045559Y-104926615D01*
X153186615Y-104785559D01*
X153297443Y-104619693D01*
X153373782Y-104435394D01*
X153412700Y-104239742D01*
X153412700Y-104040258D01*
X153373782Y-103844606D01*
X153297443Y-103660307D01*
X153186615Y-103494441D01*
X153045559Y-103353385D01*
X152879693Y-103242557D01*
X152695394Y-103166218D01*
X152499742Y-103127300D01*
X152300258Y-103127300D01*
X152104606Y-103166218D01*
X151920307Y-103242557D01*
X151754441Y-103353385D01*
X151613385Y-103494441D01*
X151502557Y-103660307D01*
X151426218Y-103844606D01*
X151387300Y-104040258D01*
X151084084Y-104040258D01*
X151073126Y-103929008D01*
X151011582Y-103726125D01*
X150911640Y-103539147D01*
X150777141Y-103375259D01*
X150613253Y-103240760D01*
X150426275Y-103140818D01*
X150223392Y-103079274D01*
X150065267Y-103063700D01*
X149654733Y-103063700D01*
X149496608Y-103079274D01*
X149293725Y-103140818D01*
X149106747Y-103240760D01*
X148942859Y-103375259D01*
X148815800Y-103530081D01*
X148815800Y-102520677D01*
X148817433Y-102504099D01*
X148815800Y-102487519D01*
X148810913Y-102437899D01*
X148791603Y-102374243D01*
X148760246Y-102315578D01*
X148760245Y-102315576D01*
X148728614Y-102277034D01*
X148728611Y-102277031D01*
X148718044Y-102264155D01*
X148705169Y-102253589D01*
X146473420Y-100021841D01*
X146462845Y-100008955D01*
X146411423Y-99966755D01*
X146352757Y-99935397D01*
X146289101Y-99916087D01*
X146239481Y-99911200D01*
X146239478Y-99911200D01*
X146222900Y-99909567D01*
X146206322Y-99911200D01*
X145328901Y-99911200D01*
X145425559Y-99846615D01*
X145566615Y-99705559D01*
X145677443Y-99539693D01*
X145753782Y-99355394D01*
X145792700Y-99159742D01*
X145792700Y-98960258D01*
X145784164Y-98917343D01*
X147423884Y-100557064D01*
X147434455Y-100569945D01*
X147457282Y-100588678D01*
X147485876Y-100612145D01*
X147512205Y-100626218D01*
X147544543Y-100643503D01*
X147608199Y-100662813D01*
X147657819Y-100667700D01*
X147657821Y-100667700D01*
X147674399Y-100669333D01*
X147690977Y-100667700D01*
X149168598Y-100667700D01*
X149106747Y-100700760D01*
X148942859Y-100835259D01*
X148808360Y-100999147D01*
X148708418Y-101186125D01*
X148646874Y-101389008D01*
X148626093Y-101600000D01*
X148646874Y-101810992D01*
X148708418Y-102013875D01*
X148808360Y-102200853D01*
X148942859Y-102364741D01*
X149106747Y-102499240D01*
X149293725Y-102599182D01*
X149496608Y-102660726D01*
X149654733Y-102676300D01*
X150065267Y-102676300D01*
X150223392Y-102660726D01*
X150426275Y-102599182D01*
X150613253Y-102499240D01*
X150777141Y-102364741D01*
X150911640Y-102200853D01*
X151011582Y-102013875D01*
X151073126Y-101810992D01*
X151093907Y-101600000D01*
X151073126Y-101389008D01*
X151011582Y-101186125D01*
X150911640Y-100999147D01*
X150777141Y-100835259D01*
X150613253Y-100700760D01*
X150551402Y-100667700D01*
X150990121Y-100667700D01*
X151485033Y-101162613D01*
X151426218Y-101304606D01*
X151387300Y-101500258D01*
X151387300Y-101699742D01*
X151426218Y-101895394D01*
X151502557Y-102079693D01*
X151613385Y-102245559D01*
X151754441Y-102386615D01*
X151920307Y-102497443D01*
X152104606Y-102573782D01*
X152300258Y-102612700D01*
X152499742Y-102612700D01*
X152695394Y-102573782D01*
X152879693Y-102497443D01*
X153045559Y-102386615D01*
X153186615Y-102245559D01*
X153297443Y-102079693D01*
X153373782Y-101895394D01*
X153412700Y-101699742D01*
X153412700Y-101500258D01*
X153373782Y-101304606D01*
X153297443Y-101120307D01*
X153186615Y-100954441D01*
X153045559Y-100813385D01*
X152879693Y-100702557D01*
X152695394Y-100626218D01*
X152499742Y-100587300D01*
X152300258Y-100587300D01*
X152104606Y-100626218D01*
X151962613Y-100685033D01*
X151380520Y-100102941D01*
X151369945Y-100090055D01*
X151318523Y-100047855D01*
X151259857Y-100016497D01*
X151196201Y-99997187D01*
X151146581Y-99992300D01*
X151146578Y-99992300D01*
X151130000Y-99990667D01*
X151113422Y-99992300D01*
X150551402Y-99992300D01*
X150613253Y-99959240D01*
X150777141Y-99824741D01*
X150911640Y-99660853D01*
X151011582Y-99473875D01*
X151073126Y-99270992D01*
X151093907Y-99060000D01*
X151084084Y-98960258D01*
X151387300Y-98960258D01*
X151387300Y-99159742D01*
X151426218Y-99355394D01*
X151502557Y-99539693D01*
X151613385Y-99705559D01*
X151754441Y-99846615D01*
X151920307Y-99957443D01*
X152104606Y-100033782D01*
X152300258Y-100072700D01*
X152499742Y-100072700D01*
X152695394Y-100033782D01*
X152879693Y-99957443D01*
X153045559Y-99846615D01*
X153186615Y-99705559D01*
X153297443Y-99539693D01*
X153373782Y-99355394D01*
X153412700Y-99159742D01*
X153412700Y-98960258D01*
X153373782Y-98764606D01*
X153297443Y-98580307D01*
X153186615Y-98414441D01*
X153045559Y-98273385D01*
X152879693Y-98162557D01*
X152695394Y-98086218D01*
X152499742Y-98047300D01*
X152300258Y-98047300D01*
X152104606Y-98086218D01*
X151920307Y-98162557D01*
X151754441Y-98273385D01*
X151613385Y-98414441D01*
X151502557Y-98580307D01*
X151426218Y-98764606D01*
X151387300Y-98960258D01*
X151084084Y-98960258D01*
X151073126Y-98849008D01*
X151011582Y-98646125D01*
X150911640Y-98459147D01*
X150777141Y-98295259D01*
X150613253Y-98160760D01*
X150426275Y-98060818D01*
X150223392Y-97999274D01*
X150065267Y-97983700D01*
X149654733Y-97983700D01*
X149496608Y-97999274D01*
X149293725Y-98060818D01*
X149106747Y-98160760D01*
X148942859Y-98295259D01*
X148808360Y-98459147D01*
X148708418Y-98646125D01*
X148646874Y-98849008D01*
X148626093Y-99060000D01*
X148646874Y-99270992D01*
X148708418Y-99473875D01*
X148808360Y-99660853D01*
X148942859Y-99824741D01*
X149106747Y-99959240D01*
X149168598Y-99992300D01*
X147814280Y-99992300D01*
X145303820Y-97481841D01*
X145293245Y-97468955D01*
X145241823Y-97426755D01*
X145239810Y-97425679D01*
X145259693Y-97417443D01*
X145425559Y-97306615D01*
X145566615Y-97165559D01*
X145677443Y-96999693D01*
X145753782Y-96815394D01*
X145792700Y-96619742D01*
X145792700Y-96420258D01*
X145753782Y-96224606D01*
X145677443Y-96040307D01*
X145566615Y-95874441D01*
X145425559Y-95733385D01*
X145259693Y-95622557D01*
X145142466Y-95574000D01*
X145803790Y-95574000D01*
X146455587Y-96225798D01*
X146443817Y-96254213D01*
X146408800Y-96430255D01*
X146408800Y-96609745D01*
X146443817Y-96785787D01*
X146512505Y-96951615D01*
X146612225Y-97100856D01*
X146739144Y-97227775D01*
X146888385Y-97327495D01*
X147054213Y-97396183D01*
X147230255Y-97431200D01*
X147409745Y-97431200D01*
X147585787Y-97396183D01*
X147751615Y-97327495D01*
X147900856Y-97227775D01*
X148027775Y-97100856D01*
X148127495Y-96951615D01*
X148139265Y-96923200D01*
X148630271Y-96923200D01*
X148630271Y-97383600D01*
X148634378Y-97425296D01*
X148646540Y-97465391D01*
X148666291Y-97502341D01*
X148692871Y-97534729D01*
X148725259Y-97561309D01*
X148762209Y-97581060D01*
X148802304Y-97593222D01*
X148844000Y-97597329D01*
X150876000Y-97597329D01*
X150917696Y-97593222D01*
X150957791Y-97581060D01*
X150994741Y-97561309D01*
X151027129Y-97534729D01*
X151053709Y-97502341D01*
X151073460Y-97465391D01*
X151085622Y-97425296D01*
X151089729Y-97383600D01*
X151089729Y-96420258D01*
X151387300Y-96420258D01*
X151387300Y-96619742D01*
X151426218Y-96815394D01*
X151502557Y-96999693D01*
X151613385Y-97165559D01*
X151754441Y-97306615D01*
X151920307Y-97417443D01*
X152104606Y-97493782D01*
X152300258Y-97532700D01*
X152499742Y-97532700D01*
X152695394Y-97493782D01*
X152879693Y-97417443D01*
X153045559Y-97306615D01*
X153186615Y-97165559D01*
X153297443Y-96999693D01*
X153373782Y-96815394D01*
X153412700Y-96619742D01*
X153412700Y-96420258D01*
X153373782Y-96224606D01*
X153297443Y-96040307D01*
X153186615Y-95874441D01*
X153045559Y-95733385D01*
X152879693Y-95622557D01*
X152695394Y-95546218D01*
X152499742Y-95507300D01*
X152300258Y-95507300D01*
X152104606Y-95546218D01*
X151920307Y-95622557D01*
X151754441Y-95733385D01*
X151613385Y-95874441D01*
X151502557Y-96040307D01*
X151426218Y-96224606D01*
X151387300Y-96420258D01*
X151089729Y-96420258D01*
X151089729Y-95656400D01*
X151085622Y-95614704D01*
X151073460Y-95574609D01*
X151053709Y-95537659D01*
X151027129Y-95505271D01*
X150994741Y-95478691D01*
X150957791Y-95458940D01*
X150917696Y-95446778D01*
X150876000Y-95442671D01*
X148844000Y-95442671D01*
X148802304Y-95446778D01*
X148762209Y-95458940D01*
X148725259Y-95478691D01*
X148692871Y-95505271D01*
X148666291Y-95537659D01*
X148646540Y-95574609D01*
X148634378Y-95614704D01*
X148630271Y-95656400D01*
X148630271Y-96116800D01*
X148139265Y-96116800D01*
X148127495Y-96088385D01*
X148027775Y-95939144D01*
X147900856Y-95812225D01*
X147751615Y-95712505D01*
X147585787Y-95643817D01*
X147409745Y-95608800D01*
X147230255Y-95608800D01*
X147054213Y-95643817D01*
X147025798Y-95655587D01*
X146269907Y-94899697D01*
X146257284Y-94884316D01*
X146195889Y-94833930D01*
X146125844Y-94796490D01*
X146049841Y-94773435D01*
X145990598Y-94767600D01*
X145990591Y-94767600D01*
X145970800Y-94765651D01*
X145951009Y-94767600D01*
X145424085Y-94767600D01*
X145425559Y-94766615D01*
X145566615Y-94625559D01*
X145677443Y-94459693D01*
X145753782Y-94275394D01*
X145792700Y-94079742D01*
X145792700Y-93880258D01*
X151387300Y-93880258D01*
X151387300Y-94079742D01*
X151426218Y-94275394D01*
X151502557Y-94459693D01*
X151613385Y-94625559D01*
X151754441Y-94766615D01*
X151920307Y-94877443D01*
X152104606Y-94953782D01*
X152300258Y-94992700D01*
X152499742Y-94992700D01*
X152695394Y-94953782D01*
X152879693Y-94877443D01*
X153045559Y-94766615D01*
X153186615Y-94625559D01*
X153297443Y-94459693D01*
X153373782Y-94275394D01*
X153412700Y-94079742D01*
X153412700Y-93880258D01*
X153373782Y-93684606D01*
X153297443Y-93500307D01*
X153186615Y-93334441D01*
X153045559Y-93193385D01*
X152879693Y-93082557D01*
X152695394Y-93006218D01*
X152499742Y-92967300D01*
X152300258Y-92967300D01*
X152104606Y-93006218D01*
X151920307Y-93082557D01*
X151754441Y-93193385D01*
X151613385Y-93334441D01*
X151502557Y-93500307D01*
X151426218Y-93684606D01*
X151387300Y-93880258D01*
X145792700Y-93880258D01*
X145753782Y-93684606D01*
X145677443Y-93500307D01*
X145566615Y-93334441D01*
X145425559Y-93193385D01*
X145259693Y-93082557D01*
X145075394Y-93006218D01*
X144879742Y-92967300D01*
X144680258Y-92967300D01*
X144484606Y-93006218D01*
X144300307Y-93082557D01*
X144134441Y-93193385D01*
X143993385Y-93334441D01*
X143882557Y-93500307D01*
X143806218Y-93684606D01*
X143767300Y-93880258D01*
X143767300Y-94079742D01*
X143806218Y-94275394D01*
X143882557Y-94459693D01*
X143993385Y-94625559D01*
X144134441Y-94766615D01*
X144135915Y-94767600D01*
X141057811Y-94767600D01*
X140642098Y-94351887D01*
X140673782Y-94275394D01*
X140712700Y-94079742D01*
X140712700Y-93880258D01*
X140673782Y-93684606D01*
X140597443Y-93500307D01*
X140486615Y-93334441D01*
X140345559Y-93193385D01*
X140179693Y-93082557D01*
X139995394Y-93006218D01*
X139799742Y-92967300D01*
X139600258Y-92967300D01*
X139404606Y-93006218D01*
X139328113Y-93037902D01*
X138729805Y-92439594D01*
X146701656Y-92439594D01*
X146788175Y-92637574D01*
X147032797Y-92726120D01*
X147289994Y-92765243D01*
X147549880Y-92753436D01*
X147802471Y-92691155D01*
X147931825Y-92637574D01*
X148018344Y-92439594D01*
X147360000Y-91781250D01*
X146701656Y-92439594D01*
X138729805Y-92439594D01*
X138102098Y-91811887D01*
X138133782Y-91735394D01*
X138172700Y-91539742D01*
X138172700Y-91369994D01*
X146034757Y-91369994D01*
X146046564Y-91629880D01*
X146108845Y-91882471D01*
X146162426Y-92011825D01*
X146360406Y-92098344D01*
X147018750Y-91440000D01*
X147701250Y-91440000D01*
X148359594Y-92098344D01*
X148557574Y-92011825D01*
X148646120Y-91767203D01*
X148685243Y-91510006D01*
X148677532Y-91340258D01*
X148847300Y-91340258D01*
X148847300Y-91539742D01*
X148886218Y-91735394D01*
X148962557Y-91919693D01*
X149073385Y-92085559D01*
X149214441Y-92226615D01*
X149380307Y-92337443D01*
X149564606Y-92413782D01*
X149760258Y-92452700D01*
X149959742Y-92452700D01*
X150155394Y-92413782D01*
X150339693Y-92337443D01*
X150505559Y-92226615D01*
X150646615Y-92085559D01*
X150757443Y-91919693D01*
X150833782Y-91735394D01*
X150872700Y-91539742D01*
X150872700Y-91340258D01*
X150833782Y-91144606D01*
X150757443Y-90960307D01*
X150646615Y-90794441D01*
X150505559Y-90653385D01*
X150339693Y-90542557D01*
X150155394Y-90466218D01*
X149959742Y-90427300D01*
X149760258Y-90427300D01*
X149564606Y-90466218D01*
X149380307Y-90542557D01*
X149214441Y-90653385D01*
X149073385Y-90794441D01*
X148962557Y-90960307D01*
X148886218Y-91144606D01*
X148847300Y-91340258D01*
X148677532Y-91340258D01*
X148673436Y-91250120D01*
X148611155Y-90997529D01*
X148557574Y-90868175D01*
X148359594Y-90781656D01*
X147701250Y-91440000D01*
X147018750Y-91440000D01*
X146360406Y-90781656D01*
X146162426Y-90868175D01*
X146073880Y-91112797D01*
X146034757Y-91369994D01*
X138172700Y-91369994D01*
X138172700Y-91340258D01*
X138133782Y-91144606D01*
X138057443Y-90960307D01*
X137946615Y-90794441D01*
X137805559Y-90653385D01*
X137639693Y-90542557D01*
X137455394Y-90466218D01*
X137259742Y-90427300D01*
X137060258Y-90427300D01*
X136864606Y-90466218D01*
X136680307Y-90542557D01*
X136514441Y-90653385D01*
X136373385Y-90794441D01*
X136262557Y-90960307D01*
X136186218Y-91144606D01*
X136147300Y-91340258D01*
X136147300Y-91539742D01*
X136186218Y-91735394D01*
X136262557Y-91919693D01*
X136373385Y-92085559D01*
X136514441Y-92226615D01*
X136680307Y-92337443D01*
X136864606Y-92413782D01*
X137060258Y-92452700D01*
X137259742Y-92452700D01*
X137455394Y-92413782D01*
X137531887Y-92382098D01*
X138757902Y-93608113D01*
X138726218Y-93684606D01*
X138687300Y-93880258D01*
X138687300Y-94079742D01*
X138726218Y-94275394D01*
X138802557Y-94459693D01*
X138913385Y-94625559D01*
X139054441Y-94766615D01*
X139220307Y-94877443D01*
X139404606Y-94953782D01*
X139600258Y-94992700D01*
X139799742Y-94992700D01*
X139995394Y-94953782D01*
X140071887Y-94922098D01*
X140591695Y-95441906D01*
X140604316Y-95457284D01*
X140619691Y-95469902D01*
X140619694Y-95469905D01*
X140665711Y-95507670D01*
X140735755Y-95545110D01*
X140811759Y-95568165D01*
X140871002Y-95574000D01*
X140871009Y-95574000D01*
X140890800Y-95575949D01*
X140910591Y-95574000D01*
X141026866Y-95574000D01*
X141026540Y-95574609D01*
X141014378Y-95614704D01*
X141010271Y-95656400D01*
X141010271Y-97383600D01*
X141014378Y-97425296D01*
X141026540Y-97465391D01*
X141046291Y-97502341D01*
X141072871Y-97534729D01*
X141105259Y-97561309D01*
X141142209Y-97581060D01*
X141182304Y-97593222D01*
X141224000Y-97597329D01*
X142839749Y-97597329D01*
X143178384Y-97935964D01*
X143188955Y-97948845D01*
X143240377Y-97991045D01*
X143299043Y-98022403D01*
X143362699Y-98041713D01*
X143412319Y-98046600D01*
X143412322Y-98046600D01*
X143428900Y-98048233D01*
X143445478Y-98046600D01*
X144913421Y-98046600D01*
X144922657Y-98055837D01*
X144879742Y-98047300D01*
X144680258Y-98047300D01*
X144484606Y-98086218D01*
X144300307Y-98162557D01*
X144134441Y-98273385D01*
X143993385Y-98414441D01*
X143882557Y-98580307D01*
X143806218Y-98764606D01*
X143767300Y-98960258D01*
X143767300Y-99159742D01*
X143806218Y-99355394D01*
X143882557Y-99539693D01*
X143993385Y-99705559D01*
X144134441Y-99846615D01*
X144231099Y-99911200D01*
X143568780Y-99911200D01*
X143300973Y-99643393D01*
X143391582Y-99473875D01*
X143453126Y-99270992D01*
X143473907Y-99060000D01*
X143453126Y-98849008D01*
X143391582Y-98646125D01*
X143291640Y-98459147D01*
X143157141Y-98295259D01*
X142993253Y-98160760D01*
X142806275Y-98060818D01*
X142603392Y-97999274D01*
X142445267Y-97983700D01*
X142034733Y-97983700D01*
X141876608Y-97999274D01*
X141673725Y-98060818D01*
X141486747Y-98160760D01*
X141322859Y-98295259D01*
X141188360Y-98459147D01*
X141088418Y-98646125D01*
X141026874Y-98849008D01*
X141006093Y-99060000D01*
X141026874Y-99270992D01*
X141088418Y-99473875D01*
X141188360Y-99660853D01*
X141322859Y-99824741D01*
X141486747Y-99959240D01*
X141673725Y-100059182D01*
X141876608Y-100120726D01*
X142034733Y-100136300D01*
X142445267Y-100136300D01*
X142603392Y-100120726D01*
X142772000Y-100069579D01*
X143178384Y-100475964D01*
X143188955Y-100488845D01*
X143240377Y-100531045D01*
X143299043Y-100562403D01*
X143362699Y-100581713D01*
X143412319Y-100586600D01*
X143412322Y-100586600D01*
X143428900Y-100588233D01*
X143445478Y-100586600D01*
X146083021Y-100586600D01*
X148140400Y-102643980D01*
X148140401Y-103653410D01*
X148140400Y-103653420D01*
X148140400Y-103739541D01*
X148127495Y-103708385D01*
X148027775Y-103559144D01*
X147900856Y-103432225D01*
X147751615Y-103332505D01*
X147585787Y-103263817D01*
X147409745Y-103228800D01*
X147230255Y-103228800D01*
X147054213Y-103263817D01*
X146888385Y-103332505D01*
X146739144Y-103432225D01*
X146612225Y-103559144D01*
X146512505Y-103708385D01*
X146443817Y-103874213D01*
X146408800Y-104050255D01*
X146408800Y-104229745D01*
X146443817Y-104405787D01*
X146512505Y-104571615D01*
X146612225Y-104720856D01*
X146739144Y-104847775D01*
X146888385Y-104947495D01*
X147054213Y-105016183D01*
X147230255Y-105051200D01*
X147409745Y-105051200D01*
X147585787Y-105016183D01*
X147679703Y-104977282D01*
X148125301Y-105422881D01*
X148125300Y-107171422D01*
X148123667Y-107188000D01*
X148125300Y-107204578D01*
X148125300Y-107204580D01*
X148130187Y-107254200D01*
X148149497Y-107317856D01*
X148164094Y-107345165D01*
X148180855Y-107376523D01*
X148204322Y-107405117D01*
X148223055Y-107427944D01*
X148235937Y-107438516D01*
X148901084Y-108103664D01*
X148911655Y-108116545D01*
X148924534Y-108127114D01*
X148963076Y-108158745D01*
X148994434Y-108175506D01*
X149021743Y-108190103D01*
X149085399Y-108209413D01*
X149135019Y-108214300D01*
X149135021Y-108214300D01*
X149151599Y-108215933D01*
X149168177Y-108214300D01*
X149315212Y-108214300D01*
X149293725Y-108220818D01*
X149106747Y-108320760D01*
X148942859Y-108455259D01*
X148814239Y-108611983D01*
X148791146Y-108568778D01*
X148791145Y-108568776D01*
X148759514Y-108530234D01*
X148759511Y-108530231D01*
X148748944Y-108517355D01*
X148736069Y-108506789D01*
X145412220Y-105182941D01*
X145401645Y-105170055D01*
X145350223Y-105127855D01*
X145291557Y-105096497D01*
X145227901Y-105077187D01*
X145178281Y-105072300D01*
X145178278Y-105072300D01*
X145176066Y-105072082D01*
X145259693Y-105037443D01*
X145425559Y-104926615D01*
X145566615Y-104785559D01*
X145677443Y-104619693D01*
X145753782Y-104435394D01*
X145792700Y-104239742D01*
X145792700Y-104040258D01*
X145753782Y-103844606D01*
X145677443Y-103660307D01*
X145566615Y-103494441D01*
X145425559Y-103353385D01*
X145259693Y-103242557D01*
X145075394Y-103166218D01*
X144879742Y-103127300D01*
X144680258Y-103127300D01*
X144484606Y-103166218D01*
X144300307Y-103242557D01*
X144134441Y-103353385D01*
X143993385Y-103494441D01*
X143945940Y-103565448D01*
X143944603Y-103561042D01*
X143913245Y-103502377D01*
X143881614Y-103463834D01*
X143881611Y-103463831D01*
X143871044Y-103450955D01*
X143858169Y-103440389D01*
X143097320Y-102679541D01*
X143086745Y-102666655D01*
X143035323Y-102624455D01*
X142976657Y-102593097D01*
X142913001Y-102573787D01*
X142863381Y-102568900D01*
X142863378Y-102568900D01*
X142862998Y-102568863D01*
X142993253Y-102499240D01*
X143157141Y-102364741D01*
X143291640Y-102200853D01*
X143391582Y-102013875D01*
X143414689Y-101937700D01*
X143823742Y-101937700D01*
X143882557Y-102079693D01*
X143993385Y-102245559D01*
X144134441Y-102386615D01*
X144300307Y-102497443D01*
X144484606Y-102573782D01*
X144680258Y-102612700D01*
X144879742Y-102612700D01*
X145075394Y-102573782D01*
X145259693Y-102497443D01*
X145425559Y-102386615D01*
X145566615Y-102245559D01*
X145677443Y-102079693D01*
X145753782Y-101895394D01*
X145792700Y-101699742D01*
X145792700Y-101500258D01*
X145753782Y-101304606D01*
X145677443Y-101120307D01*
X145566615Y-100954441D01*
X145425559Y-100813385D01*
X145259693Y-100702557D01*
X145075394Y-100626218D01*
X144879742Y-100587300D01*
X144680258Y-100587300D01*
X144484606Y-100626218D01*
X144300307Y-100702557D01*
X144134441Y-100813385D01*
X143993385Y-100954441D01*
X143882557Y-101120307D01*
X143823742Y-101262300D01*
X143414689Y-101262300D01*
X143391582Y-101186125D01*
X143291640Y-100999147D01*
X143157141Y-100835259D01*
X142993253Y-100700760D01*
X142806275Y-100600818D01*
X142603392Y-100539274D01*
X142445267Y-100523700D01*
X142163780Y-100523700D01*
X141855420Y-100215341D01*
X141844845Y-100202455D01*
X141793423Y-100160255D01*
X141734757Y-100128897D01*
X141671101Y-100109587D01*
X141621481Y-100104700D01*
X141621478Y-100104700D01*
X141604900Y-100103067D01*
X141588322Y-100104700D01*
X139096178Y-100104700D01*
X139079600Y-100103067D01*
X139063022Y-100104700D01*
X139063019Y-100104700D01*
X139013399Y-100109587D01*
X138964558Y-100124403D01*
X138949742Y-100128897D01*
X138891077Y-100160255D01*
X138839655Y-100202455D01*
X138829084Y-100215336D01*
X137782121Y-101262300D01*
X133036258Y-101262300D01*
X132977443Y-101120307D01*
X132866615Y-100954441D01*
X132725559Y-100813385D01*
X132559693Y-100702557D01*
X132375394Y-100626218D01*
X132179742Y-100587300D01*
X131980258Y-100587300D01*
X131784606Y-100626218D01*
X131600307Y-100702557D01*
X131434441Y-100813385D01*
X131293385Y-100954441D01*
X131182557Y-101120307D01*
X131106218Y-101304606D01*
X131067300Y-101500258D01*
X130973900Y-101500258D01*
X130973900Y-98960258D01*
X131067300Y-98960258D01*
X131067300Y-99159742D01*
X131106218Y-99355394D01*
X131182557Y-99539693D01*
X131293385Y-99705559D01*
X131434441Y-99846615D01*
X131600307Y-99957443D01*
X131784606Y-100033782D01*
X131980258Y-100072700D01*
X132179742Y-100072700D01*
X132375394Y-100033782D01*
X132559693Y-99957443D01*
X132725559Y-99846615D01*
X132866615Y-99705559D01*
X132977443Y-99539693D01*
X133053782Y-99355394D01*
X133092700Y-99159742D01*
X133092700Y-98960258D01*
X138687300Y-98960258D01*
X138687300Y-99159742D01*
X138726218Y-99355394D01*
X138802557Y-99539693D01*
X138913385Y-99705559D01*
X139054441Y-99846615D01*
X139220307Y-99957443D01*
X139404606Y-100033782D01*
X139600258Y-100072700D01*
X139799742Y-100072700D01*
X139995394Y-100033782D01*
X140179693Y-99957443D01*
X140345559Y-99846615D01*
X140486615Y-99705559D01*
X140597443Y-99539693D01*
X140673782Y-99355394D01*
X140712700Y-99159742D01*
X140712700Y-98960258D01*
X140673782Y-98764606D01*
X140597443Y-98580307D01*
X140486615Y-98414441D01*
X140345559Y-98273385D01*
X140179693Y-98162557D01*
X139995394Y-98086218D01*
X139799742Y-98047300D01*
X139600258Y-98047300D01*
X139404606Y-98086218D01*
X139220307Y-98162557D01*
X139054441Y-98273385D01*
X138913385Y-98414441D01*
X138802557Y-98580307D01*
X138726218Y-98764606D01*
X138687300Y-98960258D01*
X133092700Y-98960258D01*
X133053782Y-98764606D01*
X132977443Y-98580307D01*
X132866615Y-98414441D01*
X132725559Y-98273385D01*
X132559693Y-98162557D01*
X132375394Y-98086218D01*
X132179742Y-98047300D01*
X131980258Y-98047300D01*
X131784606Y-98086218D01*
X131600307Y-98162557D01*
X131434441Y-98273385D01*
X131293385Y-98414441D01*
X131182557Y-98580307D01*
X131106218Y-98764606D01*
X131067300Y-98960258D01*
X130973900Y-98960258D01*
X130973900Y-96420258D01*
X131067300Y-96420258D01*
X131067300Y-96619742D01*
X131106218Y-96815394D01*
X131182557Y-96999693D01*
X131293385Y-97165559D01*
X131434441Y-97306615D01*
X131600307Y-97417443D01*
X131784606Y-97493782D01*
X131980258Y-97532700D01*
X132179742Y-97532700D01*
X132375394Y-97493782D01*
X132559693Y-97417443D01*
X132725559Y-97306615D01*
X132866615Y-97165559D01*
X132977443Y-96999693D01*
X133053782Y-96815394D01*
X133092700Y-96619742D01*
X133092700Y-96420258D01*
X138687300Y-96420258D01*
X138687300Y-96619742D01*
X138726218Y-96815394D01*
X138802557Y-96999693D01*
X138913385Y-97165559D01*
X139054441Y-97306615D01*
X139220307Y-97417443D01*
X139404606Y-97493782D01*
X139600258Y-97532700D01*
X139799742Y-97532700D01*
X139995394Y-97493782D01*
X140179693Y-97417443D01*
X140345559Y-97306615D01*
X140486615Y-97165559D01*
X140597443Y-96999693D01*
X140673782Y-96815394D01*
X140712700Y-96619742D01*
X140712700Y-96420258D01*
X140673782Y-96224606D01*
X140597443Y-96040307D01*
X140486615Y-95874441D01*
X140345559Y-95733385D01*
X140179693Y-95622557D01*
X139995394Y-95546218D01*
X139799742Y-95507300D01*
X139600258Y-95507300D01*
X139404606Y-95546218D01*
X139220307Y-95622557D01*
X139054441Y-95733385D01*
X138913385Y-95874441D01*
X138802557Y-96040307D01*
X138726218Y-96224606D01*
X138687300Y-96420258D01*
X133092700Y-96420258D01*
X133053782Y-96224606D01*
X132977443Y-96040307D01*
X132866615Y-95874441D01*
X132725559Y-95733385D01*
X132559693Y-95622557D01*
X132375394Y-95546218D01*
X132179742Y-95507300D01*
X131980258Y-95507300D01*
X131784606Y-95546218D01*
X131600307Y-95622557D01*
X131434441Y-95733385D01*
X131293385Y-95874441D01*
X131182557Y-96040307D01*
X131106218Y-96224606D01*
X131067300Y-96420258D01*
X130973900Y-96420258D01*
X130973900Y-93880258D01*
X131067300Y-93880258D01*
X131067300Y-94079742D01*
X131106218Y-94275394D01*
X131182557Y-94459693D01*
X131293385Y-94625559D01*
X131434441Y-94766615D01*
X131600307Y-94877443D01*
X131784606Y-94953782D01*
X131980258Y-94992700D01*
X132179742Y-94992700D01*
X132375394Y-94953782D01*
X132559693Y-94877443D01*
X132725559Y-94766615D01*
X132866615Y-94625559D01*
X132977443Y-94459693D01*
X133053782Y-94275394D01*
X133092700Y-94079742D01*
X133092700Y-93880258D01*
X133053782Y-93684606D01*
X132977443Y-93500307D01*
X132866615Y-93334441D01*
X132725559Y-93193385D01*
X132559693Y-93082557D01*
X132375394Y-93006218D01*
X132179742Y-92967300D01*
X131980258Y-92967300D01*
X131784606Y-93006218D01*
X131600307Y-93082557D01*
X131434441Y-93193385D01*
X131293385Y-93334441D01*
X131182557Y-93500307D01*
X131106218Y-93684606D01*
X131067300Y-93880258D01*
X130973900Y-93880258D01*
X130973900Y-92439594D01*
X134001656Y-92439594D01*
X134088175Y-92637574D01*
X134332797Y-92726120D01*
X134589994Y-92765243D01*
X134849880Y-92753436D01*
X135102471Y-92691155D01*
X135231825Y-92637574D01*
X135318344Y-92439594D01*
X134660000Y-91781250D01*
X134001656Y-92439594D01*
X130973900Y-92439594D01*
X130973900Y-91448019D01*
X130981550Y-91369994D01*
X133334757Y-91369994D01*
X133346564Y-91629880D01*
X133408845Y-91882471D01*
X133462426Y-92011825D01*
X133660406Y-92098344D01*
X134318750Y-91440000D01*
X135001250Y-91440000D01*
X135659594Y-92098344D01*
X135857574Y-92011825D01*
X135946120Y-91767203D01*
X135985243Y-91510006D01*
X135973436Y-91250120D01*
X135911155Y-90997529D01*
X135857574Y-90868175D01*
X135659594Y-90781656D01*
X135001250Y-91440000D01*
X134318750Y-91440000D01*
X133660406Y-90781656D01*
X133462426Y-90868175D01*
X133373880Y-91112797D01*
X133334757Y-91369994D01*
X130981550Y-91369994D01*
X130995737Y-91225311D01*
X131058088Y-91018794D01*
X131159360Y-90828330D01*
X131295701Y-90661159D01*
X131461914Y-90523655D01*
X131651674Y-90421052D01*
X131857747Y-90357261D01*
X132080008Y-90333901D01*
X132080287Y-90333900D01*
X134048200Y-90333900D01*
X134001656Y-90440406D01*
G36*
X145021300Y-106438700D02*
G01*
X145041300Y-106438700D01*
X145041300Y-106921300D01*
X145021300Y-106921300D01*
X145021300Y-106941300D01*
X144538700Y-106941300D01*
X144538700Y-106921300D01*
X144518700Y-106921300D01*
X144518700Y-106438700D01*
X144538700Y-106438700D01*
X144538700Y-106418700D01*
X145021300Y-106418700D01*
X145021300Y-106438700D01*
G37*
X145021300Y-106438700D02*
X145041300Y-106438700D01*
X145041300Y-106921300D01*
X145021300Y-106921300D01*
X145021300Y-106941300D01*
X144538700Y-106941300D01*
X144538700Y-106921300D01*
X144518700Y-106921300D01*
X144518700Y-106438700D01*
X144538700Y-106438700D01*
X144538700Y-106418700D01*
X145021300Y-106418700D01*
X145021300Y-106438700D01*
%TD*%
M02*
