%TF.GenerationSoftware,KiCad,Pcbnew,4.0.4-stable*%
%TF.CreationDate,2016-11-09T11:25:41+01:00*%
%TF.ProjectId,potmux,706F746D75782E6B696361645F706362,1*%
%TF.FileFunction,Copper,L2,Bot,Signal*%
%FSLAX46Y46*%
G04 Gerber Fmt 4.6, Leading zero omitted, Abs format (unit mm)*
G04 Created by KiCad (PCBNEW 4.0.4-stable) date 11/09/16 11:25:41*
%MOMM*%
%LPD*%
G01*
G04 APERTURE LIST*
%ADD10C,0.100000*%
%ADD11R,1.300000X1.300000*%
%ADD12C,1.300000*%
%ADD13R,2.032000X1.727200*%
%ADD14O,2.032000X1.727200*%
%ADD15C,1.397000*%
%ADD16O,1.600000X1.600000*%
%ADD17R,1.727200X2.032000*%
%ADD18O,1.727200X2.032000*%
%ADD19C,0.600000*%
%ADD20C,0.381000*%
%ADD21C,0.250000*%
%ADD22C,0.025400*%
G04 APERTURE END LIST*
D10*
D11*
X151130000Y-91440000D03*
D12*
X151130000Y-88940000D03*
D11*
X133350000Y-91440000D03*
D12*
X133350000Y-88940000D03*
D13*
X142240000Y-96520000D03*
D14*
X142240000Y-99060000D03*
X142240000Y-101600000D03*
X142240000Y-104140000D03*
X142240000Y-106680000D03*
X142240000Y-109220000D03*
X142240000Y-111760000D03*
D13*
X149860000Y-96520000D03*
D14*
X149860000Y-99060000D03*
X149860000Y-101600000D03*
X149860000Y-104140000D03*
X149860000Y-106680000D03*
X149860000Y-109220000D03*
X149860000Y-111760000D03*
D15*
X147066000Y-100330000D03*
X147066000Y-107950000D03*
D16*
X132080000Y-93980000D03*
X132080000Y-96520000D03*
X132080000Y-99060000D03*
X132080000Y-101600000D03*
X132080000Y-104140000D03*
X132080000Y-106680000D03*
X132080000Y-109220000D03*
X132080000Y-111760000D03*
X139700000Y-111760000D03*
X139700000Y-109220000D03*
X139700000Y-106680000D03*
X139700000Y-104140000D03*
X139700000Y-101600000D03*
X139700000Y-99060000D03*
X139700000Y-96520000D03*
X139700000Y-93980000D03*
X144780000Y-93980000D03*
X144780000Y-96520000D03*
X144780000Y-99060000D03*
X144780000Y-101600000D03*
X144780000Y-104140000D03*
X144780000Y-106680000D03*
X144780000Y-109220000D03*
X144780000Y-111760000D03*
X152400000Y-111760000D03*
X152400000Y-109220000D03*
X152400000Y-106680000D03*
X152400000Y-104140000D03*
X152400000Y-101600000D03*
X152400000Y-99060000D03*
X152400000Y-96520000D03*
X152400000Y-93980000D03*
D17*
X135890000Y-91440000D03*
D18*
X138430000Y-91440000D03*
X140970000Y-91440000D03*
X143510000Y-91440000D03*
X146050000Y-91440000D03*
X148590000Y-91440000D03*
D19*
X138303000Y-105308400D03*
D20*
X132080000Y-111760000D02*
X135255000Y-111760000D01*
X135255000Y-111760000D02*
X137160000Y-113665000D01*
X133350000Y-88940000D02*
X133350000Y-88938100D01*
X133350000Y-88938100D02*
X134162800Y-88125300D01*
X146900900Y-88125300D02*
X148590000Y-89814400D01*
X134162800Y-88125300D02*
X146900900Y-88125300D01*
X142240000Y-111760000D02*
X142240000Y-113131600D01*
X142240000Y-113131600D02*
X141706600Y-113665000D01*
X141706600Y-113665000D02*
X137160000Y-113665000D01*
X147715600Y-88940000D02*
X148590000Y-89814400D01*
X151130000Y-88940000D02*
X151130000Y-88950800D01*
X151130000Y-88950800D02*
X150406100Y-89674700D01*
X148590000Y-89814400D02*
X148590000Y-91440000D01*
X148729700Y-89674700D02*
X148590000Y-89814400D01*
X150406100Y-89674700D02*
X148729700Y-89674700D01*
X142240000Y-111760000D02*
X144780000Y-111760000D01*
X142240000Y-111760000D02*
X142240000Y-112387200D01*
X144780000Y-111760000D02*
X143589200Y-111760000D01*
D21*
X144221200Y-97708900D02*
X143428900Y-97708900D01*
X143428900Y-97708900D02*
X142240000Y-96520000D01*
X150012400Y-100330000D02*
X151130000Y-100330000D01*
X151130000Y-100330000D02*
X152400000Y-101600000D01*
X149282400Y-100330000D02*
X150012400Y-100330000D01*
X146661300Y-97708900D02*
X149282400Y-100330000D01*
X144221200Y-97708900D02*
X146661300Y-97708900D01*
X152400000Y-106680000D02*
X151841200Y-106680000D01*
X151841200Y-106680000D02*
X150646100Y-105484900D01*
X144678400Y-100248900D02*
X143428900Y-100248900D01*
X143428900Y-100248900D02*
X142240000Y-99060000D01*
X142951200Y-105484900D02*
X140895100Y-105484900D01*
X140895100Y-105484900D02*
X139700000Y-106680000D01*
X150063200Y-105484900D02*
X150646100Y-105484900D01*
X145489400Y-100248900D02*
X144678400Y-100248900D01*
X148110500Y-102870000D02*
X145489400Y-100248900D01*
X150425400Y-102870000D02*
X148110500Y-102870000D01*
X151251200Y-103695800D02*
X150425400Y-102870000D01*
X151251200Y-104735300D02*
X151251200Y-103695800D01*
X150501600Y-105484900D02*
X151251200Y-104735300D01*
X150501600Y-105484900D02*
X150063200Y-105484900D01*
X150063200Y-105484900D02*
X142951200Y-105484900D01*
X138303000Y-105308400D02*
X135791600Y-105311600D01*
X135791600Y-105311600D02*
X132080000Y-101600000D01*
X144780000Y-101600000D02*
X142240000Y-101600000D01*
X149758400Y-110490000D02*
X151130000Y-110490000D01*
X149758400Y-110490000D02*
X148110500Y-110490000D01*
X148110500Y-110490000D02*
X145489400Y-107868900D01*
X144627600Y-107868900D02*
X143428900Y-107868900D01*
X145489400Y-107868900D02*
X144627600Y-107868900D01*
X143428900Y-107868900D02*
X142240000Y-106680000D01*
X151130000Y-110490000D02*
X152400000Y-111760000D01*
X139700000Y-111760000D02*
X142240000Y-109220000D01*
X132080000Y-93980000D02*
X135890000Y-93980000D01*
X135890000Y-93980000D02*
X138430000Y-91440000D01*
X144754600Y-92781400D02*
X145237002Y-92781400D01*
X150630098Y-94750098D02*
X152400000Y-96520000D01*
X147205700Y-94750098D02*
X150630098Y-94750098D01*
X145237002Y-92781400D02*
X147205700Y-94750098D01*
X144170400Y-92781400D02*
X144754600Y-92781400D01*
X144170400Y-92781400D02*
X142311400Y-92781400D01*
X142311400Y-92781400D02*
X140970000Y-91440000D01*
X144780000Y-93980000D02*
X144780000Y-96520000D01*
X149860000Y-107950000D02*
X151130000Y-107950000D01*
X149860000Y-107950000D02*
X147066000Y-107950000D01*
X151130000Y-107950000D02*
X152400000Y-109220000D01*
X132080000Y-99060000D02*
X137947400Y-99060000D01*
X137947400Y-99060000D02*
X139072700Y-100185300D01*
X146725000Y-104140000D02*
X149860000Y-104140000D01*
X145382600Y-102797600D02*
X146725000Y-104140000D01*
X141582400Y-102797600D02*
X145382600Y-102797600D01*
X140848900Y-102064100D02*
X141582400Y-102797600D01*
X140848900Y-101132000D02*
X140848900Y-102064100D01*
X139902200Y-100185300D02*
X140848900Y-101132000D01*
X139072700Y-100185300D02*
X139902200Y-100185300D01*
X138557700Y-107162600D02*
X138557700Y-105942700D01*
X140868400Y-102768400D02*
X139700000Y-101600000D01*
X140868400Y-104875202D02*
X140868400Y-102768400D01*
X140359002Y-105384600D02*
X140868400Y-104875202D01*
X139115800Y-105384600D02*
X140359002Y-105384600D01*
X138557700Y-105942700D02*
X139115800Y-105384600D01*
X145224500Y-110417600D02*
X144136100Y-110417600D01*
X142873602Y-107950000D02*
X140271500Y-107950000D01*
X143611600Y-108687998D02*
X142873602Y-107950000D01*
X143611600Y-109893100D02*
X143611600Y-108687998D01*
X144136100Y-110417600D02*
X143611600Y-109893100D01*
X139065000Y-107950000D02*
X138557700Y-107442700D01*
X138557700Y-107162600D02*
X138557700Y-107442700D01*
X140271500Y-107950000D02*
X139954000Y-107950000D01*
X139954000Y-107950000D02*
X139065000Y-107950000D01*
X146725000Y-111760000D02*
X149860000Y-111760000D01*
X145382600Y-110417600D02*
X146725000Y-111760000D01*
X145224500Y-110417600D02*
X145382600Y-110417600D01*
D22*
G36*
X132931560Y-87840572D02*
X132868469Y-87866705D01*
X132800803Y-88049553D01*
X133350000Y-88598750D01*
X133899197Y-88049553D01*
X133831531Y-87866705D01*
X133614422Y-87793900D01*
X150883201Y-87793900D01*
X150711560Y-87840572D01*
X150648469Y-87866705D01*
X150580803Y-88049553D01*
X151130000Y-88598750D01*
X151679197Y-88049553D01*
X151611531Y-87866705D01*
X151394422Y-87793900D01*
X152391981Y-87793900D01*
X152614689Y-87815737D01*
X152821206Y-87878088D01*
X153011670Y-87979360D01*
X153178841Y-88115701D01*
X153316345Y-88281914D01*
X153418948Y-88471674D01*
X153482739Y-88677747D01*
X153506099Y-88900008D01*
X153506100Y-88900287D01*
X153506100Y-113021981D01*
X153484263Y-113244689D01*
X153421912Y-113451206D01*
X153320641Y-113641670D01*
X153184299Y-113808841D01*
X153018083Y-113946348D01*
X152828324Y-114048949D01*
X152622253Y-114112739D01*
X152399992Y-114136099D01*
X152399713Y-114136100D01*
X132088019Y-114136100D01*
X131865311Y-114114263D01*
X131658794Y-114051912D01*
X131468330Y-113950641D01*
X131301159Y-113814299D01*
X131163652Y-113648083D01*
X131061051Y-113458324D01*
X130997261Y-113252253D01*
X130973901Y-113029992D01*
X130973900Y-113029713D01*
X130973900Y-112470960D01*
X131021400Y-112549709D01*
X131195805Y-112741058D01*
X131404189Y-112894705D01*
X131638544Y-113004746D01*
X131838700Y-112928305D01*
X131838700Y-112001300D01*
X132321300Y-112001300D01*
X132321300Y-112928305D01*
X132521456Y-113004746D01*
X132755811Y-112894705D01*
X132964195Y-112741058D01*
X133138600Y-112549709D01*
X133272324Y-112328012D01*
X133324735Y-112201454D01*
X133245815Y-112001300D01*
X132321300Y-112001300D01*
X131838700Y-112001300D01*
X131818700Y-112001300D01*
X131818700Y-111518700D01*
X131838700Y-111518700D01*
X131838700Y-110591695D01*
X132321300Y-110591695D01*
X132321300Y-111518700D01*
X133245815Y-111518700D01*
X133324735Y-111318546D01*
X133272324Y-111191988D01*
X133138600Y-110970291D01*
X132964195Y-110778942D01*
X132755811Y-110625295D01*
X132521456Y-110515254D01*
X132321300Y-110591695D01*
X131838700Y-110591695D01*
X131638544Y-110515254D01*
X131404189Y-110625295D01*
X131195805Y-110778942D01*
X131021400Y-110970291D01*
X130973900Y-111049040D01*
X130973900Y-109930960D01*
X131021400Y-110009709D01*
X131195805Y-110201058D01*
X131404189Y-110354705D01*
X131638544Y-110464746D01*
X131838700Y-110388305D01*
X131838700Y-109461300D01*
X132321300Y-109461300D01*
X132321300Y-110388305D01*
X132521456Y-110464746D01*
X132755811Y-110354705D01*
X132964195Y-110201058D01*
X133138600Y-110009709D01*
X133272324Y-109788012D01*
X133324735Y-109661454D01*
X133245815Y-109461300D01*
X132321300Y-109461300D01*
X131838700Y-109461300D01*
X131818700Y-109461300D01*
X131818700Y-108978700D01*
X131838700Y-108978700D01*
X131838700Y-108051695D01*
X132321300Y-108051695D01*
X132321300Y-108978700D01*
X133245815Y-108978700D01*
X133324735Y-108778546D01*
X133272324Y-108651988D01*
X133138600Y-108430291D01*
X132964195Y-108238942D01*
X132755811Y-108085295D01*
X132521456Y-107975254D01*
X132321300Y-108051695D01*
X131838700Y-108051695D01*
X131638544Y-107975254D01*
X131404189Y-108085295D01*
X131195805Y-108238942D01*
X131021400Y-108430291D01*
X130973900Y-108509040D01*
X130973900Y-107390960D01*
X131021400Y-107469709D01*
X131195805Y-107661058D01*
X131404189Y-107814705D01*
X131638544Y-107924746D01*
X131838700Y-107848305D01*
X131838700Y-106921300D01*
X132321300Y-106921300D01*
X132321300Y-107848305D01*
X132521456Y-107924746D01*
X132755811Y-107814705D01*
X132964195Y-107661058D01*
X133138600Y-107469709D01*
X133272324Y-107248012D01*
X133324735Y-107121454D01*
X133245815Y-106921300D01*
X132321300Y-106921300D01*
X131838700Y-106921300D01*
X131818700Y-106921300D01*
X131818700Y-106438700D01*
X131838700Y-106438700D01*
X131838700Y-105511695D01*
X132321300Y-105511695D01*
X132321300Y-106438700D01*
X133245815Y-106438700D01*
X133324735Y-106238546D01*
X133272324Y-106111988D01*
X133138600Y-105890291D01*
X132964195Y-105698942D01*
X132755811Y-105545295D01*
X132521456Y-105435254D01*
X132321300Y-105511695D01*
X131838700Y-105511695D01*
X131638544Y-105435254D01*
X131404189Y-105545295D01*
X131195805Y-105698942D01*
X131021400Y-105890291D01*
X130973900Y-105969040D01*
X130973900Y-104132930D01*
X131062425Y-104132930D01*
X131080338Y-104329761D01*
X131136141Y-104519364D01*
X131227709Y-104694517D01*
X131351554Y-104848549D01*
X131502958Y-104975592D01*
X131676155Y-105070808D01*
X131864548Y-105130570D01*
X132060960Y-105152601D01*
X132075100Y-105152700D01*
X132084900Y-105152700D01*
X132281601Y-105133413D01*
X132470810Y-105076288D01*
X132645320Y-104983499D01*
X132798483Y-104858582D01*
X132924466Y-104706295D01*
X133018471Y-104532437D01*
X133076916Y-104343632D01*
X133097575Y-104147070D01*
X133079662Y-103950239D01*
X133023859Y-103760636D01*
X132932291Y-103585483D01*
X132808446Y-103431451D01*
X132657042Y-103304408D01*
X132483845Y-103209192D01*
X132295452Y-103149430D01*
X132099040Y-103127399D01*
X132084900Y-103127300D01*
X132075100Y-103127300D01*
X131878399Y-103146587D01*
X131689190Y-103203712D01*
X131514680Y-103296501D01*
X131361517Y-103421418D01*
X131235534Y-103573705D01*
X131141529Y-103747563D01*
X131083084Y-103936368D01*
X131062425Y-104132930D01*
X130973900Y-104132930D01*
X130973900Y-99052930D01*
X131062425Y-99052930D01*
X131080338Y-99249761D01*
X131136141Y-99439364D01*
X131227709Y-99614517D01*
X131351554Y-99768549D01*
X131502958Y-99895592D01*
X131676155Y-99990808D01*
X131864548Y-100050570D01*
X132060960Y-100072601D01*
X132075100Y-100072700D01*
X132084900Y-100072700D01*
X132281601Y-100053413D01*
X132470810Y-99996288D01*
X132645320Y-99903499D01*
X132798483Y-99778582D01*
X132924466Y-99626295D01*
X133018471Y-99452437D01*
X133035415Y-99397700D01*
X137807520Y-99397700D01*
X138833910Y-100424090D01*
X138858052Y-100443921D01*
X138881911Y-100463941D01*
X138883465Y-100464795D01*
X138884839Y-100465924D01*
X138912343Y-100480671D01*
X138939666Y-100495692D01*
X138941360Y-100496229D01*
X138942924Y-100497068D01*
X138972782Y-100506197D01*
X139002488Y-100515620D01*
X139004249Y-100515817D01*
X139005951Y-100516338D01*
X139037029Y-100519495D01*
X139067985Y-100522967D01*
X139071456Y-100522991D01*
X139071522Y-100522998D01*
X139071584Y-100522992D01*
X139072700Y-100523000D01*
X139762320Y-100523000D01*
X139840323Y-100601003D01*
X139719040Y-100587399D01*
X139704900Y-100587300D01*
X139695100Y-100587300D01*
X139498399Y-100606587D01*
X139309190Y-100663712D01*
X139134680Y-100756501D01*
X138981517Y-100881418D01*
X138855534Y-101033705D01*
X138761529Y-101207563D01*
X138703084Y-101396368D01*
X138682425Y-101592930D01*
X138700338Y-101789761D01*
X138756141Y-101979364D01*
X138847709Y-102154517D01*
X138971554Y-102308549D01*
X139122958Y-102435592D01*
X139296155Y-102530808D01*
X139484548Y-102590570D01*
X139680960Y-102612601D01*
X139695100Y-102612700D01*
X139704900Y-102612700D01*
X139901601Y-102593413D01*
X140090810Y-102536288D01*
X140135138Y-102512718D01*
X140530700Y-102908280D01*
X140530700Y-103558629D01*
X140428446Y-103431451D01*
X140277042Y-103304408D01*
X140103845Y-103209192D01*
X139915452Y-103149430D01*
X139719040Y-103127399D01*
X139704900Y-103127300D01*
X139695100Y-103127300D01*
X139498399Y-103146587D01*
X139309190Y-103203712D01*
X139134680Y-103296501D01*
X138981517Y-103421418D01*
X138855534Y-103573705D01*
X138761529Y-103747563D01*
X138703084Y-103936368D01*
X138682425Y-104132930D01*
X138700338Y-104329761D01*
X138756141Y-104519364D01*
X138847709Y-104694517D01*
X138971554Y-104848549D01*
X139122958Y-104975592D01*
X139252667Y-105046900D01*
X139115800Y-105046900D01*
X139084695Y-105049950D01*
X139053680Y-105052663D01*
X139051978Y-105053157D01*
X139050207Y-105053331D01*
X139020338Y-105062349D01*
X138990389Y-105071050D01*
X138988809Y-105071869D01*
X138987113Y-105072381D01*
X138959575Y-105087023D01*
X138931876Y-105101381D01*
X138930491Y-105102487D01*
X138928920Y-105103322D01*
X138904718Y-105123061D01*
X138880368Y-105142499D01*
X138877896Y-105144936D01*
X138877845Y-105144978D01*
X138877806Y-105145025D01*
X138877010Y-105145810D01*
X138807288Y-105215532D01*
X138796193Y-105159496D01*
X138757878Y-105066537D01*
X138702237Y-104982791D01*
X138631389Y-104911446D01*
X138548033Y-104855222D01*
X138455343Y-104816259D01*
X138356851Y-104796041D01*
X138256308Y-104795339D01*
X138157543Y-104814180D01*
X138064319Y-104851845D01*
X137980186Y-104906900D01*
X137914530Y-104971194D01*
X135931301Y-104973721D01*
X132994447Y-102036867D01*
X133018471Y-101992437D01*
X133076916Y-101803632D01*
X133097575Y-101607070D01*
X133079662Y-101410239D01*
X133023859Y-101220636D01*
X132932291Y-101045483D01*
X132808446Y-100891451D01*
X132657042Y-100764408D01*
X132483845Y-100669192D01*
X132295452Y-100609430D01*
X132099040Y-100587399D01*
X132084900Y-100587300D01*
X132075100Y-100587300D01*
X131878399Y-100606587D01*
X131689190Y-100663712D01*
X131514680Y-100756501D01*
X131361517Y-100881418D01*
X131235534Y-101033705D01*
X131141529Y-101207563D01*
X131083084Y-101396368D01*
X131062425Y-101592930D01*
X131080338Y-101789761D01*
X131136141Y-101979364D01*
X131227709Y-102154517D01*
X131351554Y-102308549D01*
X131502958Y-102435592D01*
X131676155Y-102530808D01*
X131864548Y-102590570D01*
X132060960Y-102612601D01*
X132075100Y-102612700D01*
X132084900Y-102612700D01*
X132281601Y-102593413D01*
X132470810Y-102536288D01*
X132515138Y-102512718D01*
X135552810Y-105550390D01*
X135577114Y-105570354D01*
X135601166Y-105590484D01*
X135602532Y-105591233D01*
X135603739Y-105592224D01*
X135631466Y-105607091D01*
X135658962Y-105622161D01*
X135660446Y-105622630D01*
X135661823Y-105623368D01*
X135691950Y-105632579D01*
X135721809Y-105642009D01*
X135723353Y-105642180D01*
X135724850Y-105642638D01*
X135756153Y-105645817D01*
X135787315Y-105649273D01*
X135790346Y-105649290D01*
X135790421Y-105649298D01*
X135790493Y-105649291D01*
X135792030Y-105649300D01*
X137916821Y-105646593D01*
X137969101Y-105700730D01*
X138051664Y-105758113D01*
X138143800Y-105798366D01*
X138242001Y-105819957D01*
X138243770Y-105819994D01*
X138236799Y-105842796D01*
X138227380Y-105872488D01*
X138227183Y-105874248D01*
X138226662Y-105875951D01*
X138223505Y-105907034D01*
X138220033Y-105937985D01*
X138220009Y-105941455D01*
X138220002Y-105941521D01*
X138220008Y-105941583D01*
X138220000Y-105942700D01*
X138220000Y-107442700D01*
X138223049Y-107473796D01*
X138225763Y-107504821D01*
X138226257Y-107506523D01*
X138226431Y-107508293D01*
X138235446Y-107538150D01*
X138244150Y-107568111D01*
X138244969Y-107569691D01*
X138245481Y-107571387D01*
X138260123Y-107598925D01*
X138274481Y-107626624D01*
X138275587Y-107628009D01*
X138276422Y-107629580D01*
X138296141Y-107653758D01*
X138315599Y-107678133D01*
X138318038Y-107680606D01*
X138318078Y-107680655D01*
X138318124Y-107680693D01*
X138318910Y-107681490D01*
X138826210Y-108188790D01*
X138850352Y-108208621D01*
X138874211Y-108228641D01*
X138875765Y-108229495D01*
X138877139Y-108230624D01*
X138904643Y-108245371D01*
X138931966Y-108260392D01*
X138933660Y-108260929D01*
X138935224Y-108261768D01*
X138965082Y-108270897D01*
X138994788Y-108280320D01*
X138996549Y-108280517D01*
X138998251Y-108281038D01*
X139029329Y-108284195D01*
X139060285Y-108287667D01*
X139063756Y-108287691D01*
X139063822Y-108287698D01*
X139063884Y-108287692D01*
X139065000Y-108287700D01*
X139301690Y-108287700D01*
X139134680Y-108376501D01*
X138981517Y-108501418D01*
X138855534Y-108653705D01*
X138761529Y-108827563D01*
X138703084Y-109016368D01*
X138682425Y-109212930D01*
X138700338Y-109409761D01*
X138756141Y-109599364D01*
X138847709Y-109774517D01*
X138971554Y-109928549D01*
X139122958Y-110055592D01*
X139296155Y-110150808D01*
X139484548Y-110210570D01*
X139680960Y-110232601D01*
X139695100Y-110232700D01*
X139704900Y-110232700D01*
X139901601Y-110213413D01*
X140090810Y-110156288D01*
X140265320Y-110063499D01*
X140418483Y-109938582D01*
X140544466Y-109786295D01*
X140638471Y-109612437D01*
X140696916Y-109423632D01*
X140717575Y-109227070D01*
X140699662Y-109030239D01*
X140643859Y-108840636D01*
X140552291Y-108665483D01*
X140428446Y-108511451D01*
X140277042Y-108384408D01*
X140103845Y-108289192D01*
X140099142Y-108287700D01*
X141553421Y-108287700D01*
X141486040Y-108323527D01*
X141323257Y-108456289D01*
X141189362Y-108618141D01*
X141089454Y-108802917D01*
X141027338Y-109003580D01*
X141005381Y-109212486D01*
X141024419Y-109421679D01*
X141083727Y-109623189D01*
X141178310Y-109804110D01*
X140135710Y-110846710D01*
X140103845Y-110829192D01*
X139915452Y-110769430D01*
X139719040Y-110747399D01*
X139704900Y-110747300D01*
X139695100Y-110747300D01*
X139498399Y-110766587D01*
X139309190Y-110823712D01*
X139134680Y-110916501D01*
X138981517Y-111041418D01*
X138855534Y-111193705D01*
X138761529Y-111367563D01*
X138703084Y-111556368D01*
X138682425Y-111752930D01*
X138700338Y-111949761D01*
X138756141Y-112139364D01*
X138847709Y-112314517D01*
X138971554Y-112468549D01*
X139122958Y-112595592D01*
X139296155Y-112690808D01*
X139484548Y-112750570D01*
X139680960Y-112772601D01*
X139695100Y-112772700D01*
X139704900Y-112772700D01*
X139901601Y-112753413D01*
X140090810Y-112696288D01*
X140265320Y-112603499D01*
X140418483Y-112478582D01*
X140544466Y-112326295D01*
X140638471Y-112152437D01*
X140696916Y-111963632D01*
X140703300Y-111902891D01*
X140703300Y-112001302D01*
X140856907Y-112001302D01*
X140779023Y-112211566D01*
X140800291Y-112255566D01*
X140921706Y-112497185D01*
X141087926Y-112710475D01*
X141292563Y-112887239D01*
X141527753Y-113020683D01*
X141784457Y-113105680D01*
X141998700Y-113006359D01*
X141998700Y-112001300D01*
X142481300Y-112001300D01*
X142481300Y-113006359D01*
X142695543Y-113105680D01*
X142952247Y-113020683D01*
X143187437Y-112887239D01*
X143392074Y-112710475D01*
X143558294Y-112497185D01*
X143618023Y-112378323D01*
X143721400Y-112549709D01*
X143895805Y-112741058D01*
X144104189Y-112894705D01*
X144338544Y-113004746D01*
X144538700Y-112928305D01*
X144538700Y-112001300D01*
X145021300Y-112001300D01*
X145021300Y-112928305D01*
X145221456Y-113004746D01*
X145455811Y-112894705D01*
X145664195Y-112741058D01*
X145838600Y-112549709D01*
X145972324Y-112328012D01*
X146024735Y-112201454D01*
X145945815Y-112001300D01*
X145021300Y-112001300D01*
X144538700Y-112001300D01*
X142481300Y-112001300D01*
X141998700Y-112001300D01*
X141978700Y-112001300D01*
X141978700Y-111518700D01*
X141998700Y-111518700D01*
X141998700Y-110513641D01*
X141784457Y-110414320D01*
X141527753Y-110499317D01*
X141320893Y-110616687D01*
X141711298Y-110226282D01*
X141857880Y-110272780D01*
X142066628Y-110296195D01*
X142081655Y-110296300D01*
X142398345Y-110296300D01*
X142607399Y-110275802D01*
X142808491Y-110215089D01*
X142993960Y-110116473D01*
X143156743Y-109983711D01*
X143273900Y-109842092D01*
X143273900Y-109893100D01*
X143276949Y-109924196D01*
X143279663Y-109955221D01*
X143280157Y-109956923D01*
X143280331Y-109958693D01*
X143289346Y-109988550D01*
X143298050Y-110018511D01*
X143298869Y-110020091D01*
X143299381Y-110021787D01*
X143314023Y-110049325D01*
X143328381Y-110077024D01*
X143329487Y-110078409D01*
X143330322Y-110079980D01*
X143350041Y-110104158D01*
X143369499Y-110128533D01*
X143371938Y-110131006D01*
X143371978Y-110131055D01*
X143372024Y-110131093D01*
X143372810Y-110131890D01*
X143897310Y-110656390D01*
X143921452Y-110676221D01*
X143945311Y-110696241D01*
X143946865Y-110697095D01*
X143948239Y-110698224D01*
X143975761Y-110712981D01*
X143981205Y-110715974D01*
X143895805Y-110778942D01*
X143721400Y-110970291D01*
X143618023Y-111141677D01*
X143558294Y-111022815D01*
X143392074Y-110809525D01*
X143187437Y-110632761D01*
X142952247Y-110499317D01*
X142695543Y-110414320D01*
X142481300Y-110513641D01*
X142481300Y-111518700D01*
X144538700Y-111518700D01*
X144538700Y-111498700D01*
X145021300Y-111498700D01*
X145021300Y-111518700D01*
X145945815Y-111518700D01*
X145962869Y-111475449D01*
X146486210Y-111998790D01*
X146510374Y-112018639D01*
X146534211Y-112038641D01*
X146535762Y-112039494D01*
X146537138Y-112040624D01*
X146564647Y-112055373D01*
X146591966Y-112070392D01*
X146593662Y-112070930D01*
X146595223Y-112071767D01*
X146625021Y-112080878D01*
X146654788Y-112090320D01*
X146656552Y-112090518D01*
X146658250Y-112091037D01*
X146689289Y-112094190D01*
X146720285Y-112097667D01*
X146723755Y-112097691D01*
X146723821Y-112097698D01*
X146723883Y-112097692D01*
X146725000Y-112097700D01*
X148684452Y-112097700D01*
X148703727Y-112163189D01*
X148801046Y-112349342D01*
X148932668Y-112513048D01*
X149093581Y-112648070D01*
X149277655Y-112749265D01*
X149477880Y-112812780D01*
X149686628Y-112836195D01*
X149701655Y-112836300D01*
X150018345Y-112836300D01*
X150227399Y-112815802D01*
X150428491Y-112755089D01*
X150613960Y-112656473D01*
X150776743Y-112523711D01*
X150910638Y-112361859D01*
X151010546Y-112177083D01*
X151072662Y-111976420D01*
X151094619Y-111767514D01*
X151075581Y-111558321D01*
X151016273Y-111356811D01*
X150918954Y-111170658D01*
X150787332Y-111006952D01*
X150626419Y-110871930D01*
X150545965Y-110827700D01*
X150990120Y-110827700D01*
X151485553Y-111323133D01*
X151461529Y-111367563D01*
X151403084Y-111556368D01*
X151382425Y-111752930D01*
X151400338Y-111949761D01*
X151456141Y-112139364D01*
X151547709Y-112314517D01*
X151671554Y-112468549D01*
X151822958Y-112595592D01*
X151996155Y-112690808D01*
X152184548Y-112750570D01*
X152380960Y-112772601D01*
X152395100Y-112772700D01*
X152404900Y-112772700D01*
X152601601Y-112753413D01*
X152790810Y-112696288D01*
X152965320Y-112603499D01*
X153118483Y-112478582D01*
X153244466Y-112326295D01*
X153338471Y-112152437D01*
X153396916Y-111963632D01*
X153417575Y-111767070D01*
X153399662Y-111570239D01*
X153343859Y-111380636D01*
X153252291Y-111205483D01*
X153128446Y-111051451D01*
X152977042Y-110924408D01*
X152803845Y-110829192D01*
X152615452Y-110769430D01*
X152419040Y-110747399D01*
X152404900Y-110747300D01*
X152395100Y-110747300D01*
X152198399Y-110766587D01*
X152009190Y-110823712D01*
X151964862Y-110847282D01*
X151368790Y-110251210D01*
X151344648Y-110231379D01*
X151320789Y-110211359D01*
X151319235Y-110210505D01*
X151317861Y-110209376D01*
X151290339Y-110194619D01*
X151263034Y-110179608D01*
X151261343Y-110179071D01*
X151259777Y-110178232D01*
X151229904Y-110169099D01*
X151200212Y-110159680D01*
X151198452Y-110159483D01*
X151196749Y-110158962D01*
X151165666Y-110155805D01*
X151134715Y-110152333D01*
X151131245Y-110152309D01*
X151131179Y-110152302D01*
X151131117Y-110152308D01*
X151130000Y-110152300D01*
X150546579Y-110152300D01*
X150613960Y-110116473D01*
X150776743Y-109983711D01*
X150910638Y-109821859D01*
X151010546Y-109637083D01*
X151072662Y-109436420D01*
X151094619Y-109227514D01*
X151075581Y-109018321D01*
X151016273Y-108816811D01*
X150918954Y-108630658D01*
X150787332Y-108466952D01*
X150626419Y-108331930D01*
X150545965Y-108287700D01*
X150990120Y-108287700D01*
X151485553Y-108783133D01*
X151461529Y-108827563D01*
X151403084Y-109016368D01*
X151382425Y-109212930D01*
X151400338Y-109409761D01*
X151456141Y-109599364D01*
X151547709Y-109774517D01*
X151671554Y-109928549D01*
X151822958Y-110055592D01*
X151996155Y-110150808D01*
X152184548Y-110210570D01*
X152380960Y-110232601D01*
X152395100Y-110232700D01*
X152404900Y-110232700D01*
X152601601Y-110213413D01*
X152790810Y-110156288D01*
X152965320Y-110063499D01*
X153118483Y-109938582D01*
X153244466Y-109786295D01*
X153338471Y-109612437D01*
X153396916Y-109423632D01*
X153417575Y-109227070D01*
X153399662Y-109030239D01*
X153343859Y-108840636D01*
X153252291Y-108665483D01*
X153128446Y-108511451D01*
X152977042Y-108384408D01*
X152803845Y-108289192D01*
X152615452Y-108229430D01*
X152419040Y-108207399D01*
X152404900Y-108207300D01*
X152395100Y-108207300D01*
X152198399Y-108226587D01*
X152009190Y-108283712D01*
X151964862Y-108307282D01*
X151368790Y-107711210D01*
X151344648Y-107691379D01*
X151320789Y-107671359D01*
X151319235Y-107670505D01*
X151317861Y-107669376D01*
X151290339Y-107654619D01*
X151263034Y-107639608D01*
X151261343Y-107639071D01*
X151259777Y-107638232D01*
X151229904Y-107629099D01*
X151200212Y-107619680D01*
X151198452Y-107619483D01*
X151196749Y-107618962D01*
X151165666Y-107615805D01*
X151134715Y-107612333D01*
X151131245Y-107612309D01*
X151131179Y-107612302D01*
X151131117Y-107612308D01*
X151130000Y-107612300D01*
X150546579Y-107612300D01*
X150613960Y-107576473D01*
X150776743Y-107443711D01*
X150910638Y-107281859D01*
X151010546Y-107097083D01*
X151072662Y-106896420D01*
X151094619Y-106687514D01*
X151075581Y-106478321D01*
X151039563Y-106355943D01*
X151385016Y-106701396D01*
X151400338Y-106869761D01*
X151456141Y-107059364D01*
X151547709Y-107234517D01*
X151671554Y-107388549D01*
X151822958Y-107515592D01*
X151996155Y-107610808D01*
X152184548Y-107670570D01*
X152380960Y-107692601D01*
X152395100Y-107692700D01*
X152404900Y-107692700D01*
X152601601Y-107673413D01*
X152790810Y-107616288D01*
X152965320Y-107523499D01*
X153118483Y-107398582D01*
X153244466Y-107246295D01*
X153338471Y-107072437D01*
X153396916Y-106883632D01*
X153417575Y-106687070D01*
X153399662Y-106490239D01*
X153343859Y-106300636D01*
X153252291Y-106125483D01*
X153128446Y-105971451D01*
X152977042Y-105844408D01*
X152803845Y-105749192D01*
X152615452Y-105689430D01*
X152419040Y-105667399D01*
X152404900Y-105667300D01*
X152395100Y-105667300D01*
X152198399Y-105686587D01*
X152009190Y-105743712D01*
X151834680Y-105836501D01*
X151681517Y-105961418D01*
X151644701Y-106005921D01*
X151051430Y-105412650D01*
X151489990Y-104974090D01*
X151509817Y-104949952D01*
X151529841Y-104926089D01*
X151530696Y-104924535D01*
X151531823Y-104923162D01*
X151546552Y-104895691D01*
X151561592Y-104868334D01*
X151562130Y-104866638D01*
X151562967Y-104865077D01*
X151572078Y-104835279D01*
X151581520Y-104805512D01*
X151581718Y-104803748D01*
X151582237Y-104802050D01*
X151585390Y-104771011D01*
X151588307Y-104745010D01*
X151671554Y-104848549D01*
X151822958Y-104975592D01*
X151996155Y-105070808D01*
X152184548Y-105130570D01*
X152380960Y-105152601D01*
X152395100Y-105152700D01*
X152404900Y-105152700D01*
X152601601Y-105133413D01*
X152790810Y-105076288D01*
X152965320Y-104983499D01*
X153118483Y-104858582D01*
X153244466Y-104706295D01*
X153338471Y-104532437D01*
X153396916Y-104343632D01*
X153417575Y-104147070D01*
X153399662Y-103950239D01*
X153343859Y-103760636D01*
X153252291Y-103585483D01*
X153128446Y-103431451D01*
X152977042Y-103304408D01*
X152803845Y-103209192D01*
X152615452Y-103149430D01*
X152419040Y-103127399D01*
X152404900Y-103127300D01*
X152395100Y-103127300D01*
X152198399Y-103146587D01*
X152009190Y-103203712D01*
X151834680Y-103296501D01*
X151681517Y-103421418D01*
X151562468Y-103565324D01*
X151548777Y-103539575D01*
X151534419Y-103511876D01*
X151533313Y-103510491D01*
X151532478Y-103508920D01*
X151512739Y-103484718D01*
X151493301Y-103460368D01*
X151490864Y-103457896D01*
X151490822Y-103457845D01*
X151490775Y-103457806D01*
X151489990Y-103457010D01*
X150664190Y-102631210D01*
X150640048Y-102611379D01*
X150616189Y-102591359D01*
X150614635Y-102590505D01*
X150613261Y-102589376D01*
X150585739Y-102574619D01*
X150558434Y-102559608D01*
X150556743Y-102559071D01*
X150555177Y-102558232D01*
X150525304Y-102549099D01*
X150518841Y-102547049D01*
X150613960Y-102496473D01*
X150776743Y-102363711D01*
X150910638Y-102201859D01*
X151010546Y-102017083D01*
X151072662Y-101816420D01*
X151094619Y-101607514D01*
X151075581Y-101398321D01*
X151016273Y-101196811D01*
X150918954Y-101010658D01*
X150787332Y-100846952D01*
X150626419Y-100711930D01*
X150545965Y-100667700D01*
X150990120Y-100667700D01*
X151485553Y-101163133D01*
X151461529Y-101207563D01*
X151403084Y-101396368D01*
X151382425Y-101592930D01*
X151400338Y-101789761D01*
X151456141Y-101979364D01*
X151547709Y-102154517D01*
X151671554Y-102308549D01*
X151822958Y-102435592D01*
X151996155Y-102530808D01*
X152184548Y-102590570D01*
X152380960Y-102612601D01*
X152395100Y-102612700D01*
X152404900Y-102612700D01*
X152601601Y-102593413D01*
X152790810Y-102536288D01*
X152965320Y-102443499D01*
X153118483Y-102318582D01*
X153244466Y-102166295D01*
X153338471Y-101992437D01*
X153396916Y-101803632D01*
X153417575Y-101607070D01*
X153399662Y-101410239D01*
X153343859Y-101220636D01*
X153252291Y-101045483D01*
X153128446Y-100891451D01*
X152977042Y-100764408D01*
X152803845Y-100669192D01*
X152615452Y-100609430D01*
X152419040Y-100587399D01*
X152404900Y-100587300D01*
X152395100Y-100587300D01*
X152198399Y-100606587D01*
X152009190Y-100663712D01*
X151964862Y-100687282D01*
X151368790Y-100091210D01*
X151344648Y-100071379D01*
X151320789Y-100051359D01*
X151319235Y-100050505D01*
X151317861Y-100049376D01*
X151290339Y-100034619D01*
X151263034Y-100019608D01*
X151261343Y-100019071D01*
X151259777Y-100018232D01*
X151229904Y-100009099D01*
X151200212Y-99999680D01*
X151198452Y-99999483D01*
X151196749Y-99998962D01*
X151165666Y-99995805D01*
X151134715Y-99992333D01*
X151131245Y-99992309D01*
X151131179Y-99992302D01*
X151131117Y-99992308D01*
X151130000Y-99992300D01*
X150546579Y-99992300D01*
X150613960Y-99956473D01*
X150776743Y-99823711D01*
X150910638Y-99661859D01*
X151010546Y-99477083D01*
X151072662Y-99276420D01*
X151094619Y-99067514D01*
X151093292Y-99052930D01*
X151382425Y-99052930D01*
X151400338Y-99249761D01*
X151456141Y-99439364D01*
X151547709Y-99614517D01*
X151671554Y-99768549D01*
X151822958Y-99895592D01*
X151996155Y-99990808D01*
X152184548Y-100050570D01*
X152380960Y-100072601D01*
X152395100Y-100072700D01*
X152404900Y-100072700D01*
X152601601Y-100053413D01*
X152790810Y-99996288D01*
X152965320Y-99903499D01*
X153118483Y-99778582D01*
X153244466Y-99626295D01*
X153338471Y-99452437D01*
X153396916Y-99263632D01*
X153417575Y-99067070D01*
X153399662Y-98870239D01*
X153343859Y-98680636D01*
X153252291Y-98505483D01*
X153128446Y-98351451D01*
X152977042Y-98224408D01*
X152803845Y-98129192D01*
X152615452Y-98069430D01*
X152419040Y-98047399D01*
X152404900Y-98047300D01*
X152395100Y-98047300D01*
X152198399Y-98066587D01*
X152009190Y-98123712D01*
X151834680Y-98216501D01*
X151681517Y-98341418D01*
X151555534Y-98493705D01*
X151461529Y-98667563D01*
X151403084Y-98856368D01*
X151382425Y-99052930D01*
X151093292Y-99052930D01*
X151075581Y-98858321D01*
X151016273Y-98656811D01*
X150918954Y-98470658D01*
X150787332Y-98306952D01*
X150626419Y-98171930D01*
X150442345Y-98070735D01*
X150242120Y-98007220D01*
X150033372Y-97983805D01*
X150018345Y-97983700D01*
X149701655Y-97983700D01*
X149492601Y-98004198D01*
X149291509Y-98064911D01*
X149106040Y-98163527D01*
X148943257Y-98296289D01*
X148809362Y-98458141D01*
X148709454Y-98642917D01*
X148647338Y-98843580D01*
X148625381Y-99052486D01*
X148639689Y-99209709D01*
X146900090Y-97470110D01*
X146875948Y-97450279D01*
X146852089Y-97430259D01*
X146850535Y-97429405D01*
X146849161Y-97428276D01*
X146821639Y-97413519D01*
X146794334Y-97398508D01*
X146792643Y-97397971D01*
X146791077Y-97397132D01*
X146761204Y-97387999D01*
X146731512Y-97378580D01*
X146729752Y-97378383D01*
X146728049Y-97377862D01*
X146696966Y-97374705D01*
X146666015Y-97371233D01*
X146662545Y-97371209D01*
X146662479Y-97371202D01*
X146662417Y-97371208D01*
X146661300Y-97371200D01*
X145330837Y-97371200D01*
X145345320Y-97363499D01*
X145498483Y-97238582D01*
X145624466Y-97086295D01*
X145718471Y-96912437D01*
X145776916Y-96723632D01*
X145797575Y-96527070D01*
X145779662Y-96330239D01*
X145723859Y-96140636D01*
X145632291Y-95965483D01*
X145508446Y-95811451D01*
X145357042Y-95684408D01*
X145183845Y-95589192D01*
X145117700Y-95568209D01*
X145117700Y-94932323D01*
X145170810Y-94916288D01*
X145345320Y-94823499D01*
X145498483Y-94698582D01*
X145624466Y-94546295D01*
X145718471Y-94372437D01*
X145776916Y-94183632D01*
X145797575Y-93987070D01*
X145780803Y-93802781D01*
X146966910Y-94988888D01*
X146991074Y-95008737D01*
X147014911Y-95028739D01*
X147016462Y-95029592D01*
X147017838Y-95030722D01*
X147045347Y-95045471D01*
X147072666Y-95060490D01*
X147074362Y-95061028D01*
X147075923Y-95061865D01*
X147105721Y-95070976D01*
X147135488Y-95080418D01*
X147137252Y-95080616D01*
X147138950Y-95081135D01*
X147169989Y-95084288D01*
X147200985Y-95087765D01*
X147204455Y-95087789D01*
X147204521Y-95087796D01*
X147204583Y-95087790D01*
X147205700Y-95087798D01*
X150490218Y-95087798D01*
X150845091Y-95442671D01*
X148844000Y-95442671D01*
X148810128Y-95445372D01*
X148752678Y-95463163D01*
X148702459Y-95496255D01*
X148663448Y-95542028D01*
X148638733Y-95596857D01*
X148630271Y-95656400D01*
X148630271Y-97383600D01*
X148632972Y-97417472D01*
X148650763Y-97474922D01*
X148683855Y-97525141D01*
X148729628Y-97564152D01*
X148784457Y-97588867D01*
X148844000Y-97597329D01*
X150876000Y-97597329D01*
X150909872Y-97594628D01*
X150967322Y-97576837D01*
X151017541Y-97543745D01*
X151056552Y-97497972D01*
X151081267Y-97443143D01*
X151089729Y-97383600D01*
X151089729Y-95687309D01*
X151485553Y-96083133D01*
X151461529Y-96127563D01*
X151403084Y-96316368D01*
X151382425Y-96512930D01*
X151400338Y-96709761D01*
X151456141Y-96899364D01*
X151547709Y-97074517D01*
X151671554Y-97228549D01*
X151822958Y-97355592D01*
X151996155Y-97450808D01*
X152184548Y-97510570D01*
X152380960Y-97532601D01*
X152395100Y-97532700D01*
X152404900Y-97532700D01*
X152601601Y-97513413D01*
X152790810Y-97456288D01*
X152965320Y-97363499D01*
X153118483Y-97238582D01*
X153244466Y-97086295D01*
X153338471Y-96912437D01*
X153396916Y-96723632D01*
X153417575Y-96527070D01*
X153399662Y-96330239D01*
X153343859Y-96140636D01*
X153252291Y-95965483D01*
X153128446Y-95811451D01*
X152977042Y-95684408D01*
X152803845Y-95589192D01*
X152615452Y-95529430D01*
X152419040Y-95507399D01*
X152404900Y-95507300D01*
X152395100Y-95507300D01*
X152198399Y-95526587D01*
X152009190Y-95583712D01*
X151964862Y-95607282D01*
X150868888Y-94511308D01*
X150844746Y-94491477D01*
X150820887Y-94471457D01*
X150819333Y-94470603D01*
X150817959Y-94469474D01*
X150790437Y-94454717D01*
X150763132Y-94439706D01*
X150761441Y-94439169D01*
X150759875Y-94438330D01*
X150730002Y-94429197D01*
X150700310Y-94419778D01*
X150698550Y-94419581D01*
X150696847Y-94419060D01*
X150665764Y-94415903D01*
X150634813Y-94412431D01*
X150631343Y-94412407D01*
X150631277Y-94412400D01*
X150631215Y-94412406D01*
X150630098Y-94412398D01*
X147345580Y-94412398D01*
X146906112Y-93972930D01*
X151382425Y-93972930D01*
X151400338Y-94169761D01*
X151456141Y-94359364D01*
X151547709Y-94534517D01*
X151671554Y-94688549D01*
X151822958Y-94815592D01*
X151996155Y-94910808D01*
X152184548Y-94970570D01*
X152380960Y-94992601D01*
X152395100Y-94992700D01*
X152404900Y-94992700D01*
X152601601Y-94973413D01*
X152790810Y-94916288D01*
X152965320Y-94823499D01*
X153118483Y-94698582D01*
X153244466Y-94546295D01*
X153338471Y-94372437D01*
X153396916Y-94183632D01*
X153417575Y-93987070D01*
X153399662Y-93790239D01*
X153343859Y-93600636D01*
X153252291Y-93425483D01*
X153128446Y-93271451D01*
X152977042Y-93144408D01*
X152803845Y-93049192D01*
X152615452Y-92989430D01*
X152419040Y-92967399D01*
X152404900Y-92967300D01*
X152395100Y-92967300D01*
X152198399Y-92986587D01*
X152009190Y-93043712D01*
X151834680Y-93136501D01*
X151681517Y-93261418D01*
X151555534Y-93413705D01*
X151461529Y-93587563D01*
X151403084Y-93776368D01*
X151382425Y-93972930D01*
X146906112Y-93972930D01*
X145475792Y-92542610D01*
X145451650Y-92522779D01*
X145427791Y-92502759D01*
X145426237Y-92501905D01*
X145424863Y-92500776D01*
X145397341Y-92486019D01*
X145370036Y-92471008D01*
X145368345Y-92470471D01*
X145366779Y-92469632D01*
X145336906Y-92460499D01*
X145307214Y-92451080D01*
X145305454Y-92450883D01*
X145303751Y-92450362D01*
X145272668Y-92447205D01*
X145241717Y-92443733D01*
X145238247Y-92443709D01*
X145238181Y-92443702D01*
X145238119Y-92443708D01*
X145237002Y-92443700D01*
X144168065Y-92443700D01*
X144263048Y-92367332D01*
X144398070Y-92206419D01*
X144499265Y-92022345D01*
X144562780Y-91822120D01*
X144586195Y-91613372D01*
X144586300Y-91598345D01*
X144586300Y-91281655D01*
X144973700Y-91281655D01*
X144973700Y-91598345D01*
X144994198Y-91807399D01*
X145054911Y-92008491D01*
X145153527Y-92193960D01*
X145286289Y-92356743D01*
X145448141Y-92490638D01*
X145632917Y-92590546D01*
X145833580Y-92652662D01*
X146042486Y-92674619D01*
X146251679Y-92655581D01*
X146453189Y-92596273D01*
X146639342Y-92498954D01*
X146803048Y-92367332D01*
X146938070Y-92206419D01*
X147039265Y-92022345D01*
X147079488Y-91895543D01*
X147244320Y-91895543D01*
X147329317Y-92152247D01*
X147462761Y-92387437D01*
X147639525Y-92592074D01*
X147852815Y-92758294D01*
X148094434Y-92879709D01*
X148138434Y-92900977D01*
X148348700Y-92823092D01*
X148348700Y-91681300D01*
X148831300Y-91681300D01*
X148831300Y-92823092D01*
X149041566Y-92900977D01*
X149085566Y-92879709D01*
X149327185Y-92758294D01*
X149540475Y-92592074D01*
X149717239Y-92387437D01*
X149850683Y-92152247D01*
X149935680Y-91895543D01*
X149836359Y-91681300D01*
X148831300Y-91681300D01*
X148348700Y-91681300D01*
X147343641Y-91681300D01*
X147244320Y-91895543D01*
X147079488Y-91895543D01*
X147102780Y-91822120D01*
X147126195Y-91613372D01*
X147126300Y-91598345D01*
X147126300Y-91281655D01*
X147105802Y-91072601D01*
X147079190Y-90984457D01*
X147244320Y-90984457D01*
X147343641Y-91198700D01*
X148348700Y-91198700D01*
X148348700Y-90056908D01*
X148831300Y-90056908D01*
X148831300Y-91198700D01*
X149836359Y-91198700D01*
X149935680Y-90984457D01*
X149871294Y-90790000D01*
X150266271Y-90790000D01*
X150266271Y-92090000D01*
X150268972Y-92123872D01*
X150286763Y-92181322D01*
X150319855Y-92231541D01*
X150365628Y-92270552D01*
X150420457Y-92295267D01*
X150480000Y-92303729D01*
X151780000Y-92303729D01*
X151813872Y-92301028D01*
X151871322Y-92283237D01*
X151921541Y-92250145D01*
X151960552Y-92204372D01*
X151985267Y-92149543D01*
X151993729Y-92090000D01*
X151993729Y-90790000D01*
X151991028Y-90756128D01*
X151973237Y-90698678D01*
X151940145Y-90648459D01*
X151894372Y-90609448D01*
X151839543Y-90584733D01*
X151780000Y-90576271D01*
X150480000Y-90576271D01*
X150446128Y-90578972D01*
X150388678Y-90596763D01*
X150338459Y-90629855D01*
X150299448Y-90675628D01*
X150274733Y-90730457D01*
X150266271Y-90790000D01*
X149871294Y-90790000D01*
X149850683Y-90727753D01*
X149717239Y-90492563D01*
X149540475Y-90287926D01*
X149327185Y-90121706D01*
X149085566Y-90000291D01*
X149041566Y-89979023D01*
X148831300Y-90056908D01*
X148348700Y-90056908D01*
X148138434Y-89979023D01*
X148094434Y-90000291D01*
X147852815Y-90121706D01*
X147639525Y-90287926D01*
X147462761Y-90492563D01*
X147329317Y-90727753D01*
X147244320Y-90984457D01*
X147079190Y-90984457D01*
X147045089Y-90871509D01*
X146946473Y-90686040D01*
X146813711Y-90523257D01*
X146651859Y-90389362D01*
X146467083Y-90289454D01*
X146266420Y-90227338D01*
X146057514Y-90205381D01*
X145848321Y-90224419D01*
X145646811Y-90283727D01*
X145460658Y-90381046D01*
X145296952Y-90512668D01*
X145161930Y-90673581D01*
X145060735Y-90857655D01*
X144997220Y-91057880D01*
X144973805Y-91266628D01*
X144973700Y-91281655D01*
X144586300Y-91281655D01*
X144565802Y-91072601D01*
X144505089Y-90871509D01*
X144406473Y-90686040D01*
X144273711Y-90523257D01*
X144111859Y-90389362D01*
X143927083Y-90289454D01*
X143726420Y-90227338D01*
X143517514Y-90205381D01*
X143308321Y-90224419D01*
X143106811Y-90283727D01*
X142920658Y-90381046D01*
X142756952Y-90512668D01*
X142621930Y-90673581D01*
X142520735Y-90857655D01*
X142457220Y-91057880D01*
X142433805Y-91266628D01*
X142433700Y-91281655D01*
X142433700Y-91598345D01*
X142454198Y-91807399D01*
X142514911Y-92008491D01*
X142613527Y-92193960D01*
X142746289Y-92356743D01*
X142851402Y-92443700D01*
X142451280Y-92443700D01*
X141976282Y-91968702D01*
X142022780Y-91822120D01*
X142046195Y-91613372D01*
X142046300Y-91598345D01*
X142046300Y-91281655D01*
X142025802Y-91072601D01*
X141965089Y-90871509D01*
X141866473Y-90686040D01*
X141733711Y-90523257D01*
X141571859Y-90389362D01*
X141387083Y-90289454D01*
X141186420Y-90227338D01*
X140977514Y-90205381D01*
X140768321Y-90224419D01*
X140566811Y-90283727D01*
X140380658Y-90381046D01*
X140216952Y-90512668D01*
X140081930Y-90673581D01*
X139980735Y-90857655D01*
X139917220Y-91057880D01*
X139893805Y-91266628D01*
X139893700Y-91281655D01*
X139893700Y-91598345D01*
X139914198Y-91807399D01*
X139974911Y-92008491D01*
X140073527Y-92193960D01*
X140206289Y-92356743D01*
X140368141Y-92490638D01*
X140552917Y-92590546D01*
X140753580Y-92652662D01*
X140962486Y-92674619D01*
X141171679Y-92655581D01*
X141373189Y-92596273D01*
X141554110Y-92501690D01*
X142072610Y-93020190D01*
X142096752Y-93040021D01*
X142120611Y-93060041D01*
X142122165Y-93060895D01*
X142123539Y-93062024D01*
X142151061Y-93076781D01*
X142178366Y-93091792D01*
X142180057Y-93092329D01*
X142181623Y-93093168D01*
X142211508Y-93102305D01*
X142241188Y-93111720D01*
X142242947Y-93111917D01*
X142244650Y-93112438D01*
X142275739Y-93115596D01*
X142306685Y-93119067D01*
X142310155Y-93119091D01*
X142310221Y-93119098D01*
X142310283Y-93119092D01*
X142311400Y-93119100D01*
X144247406Y-93119100D01*
X144214680Y-93136501D01*
X144061517Y-93261418D01*
X143935534Y-93413705D01*
X143841529Y-93587563D01*
X143783084Y-93776368D01*
X143762425Y-93972930D01*
X143780338Y-94169761D01*
X143836141Y-94359364D01*
X143927709Y-94534517D01*
X144051554Y-94688549D01*
X144202958Y-94815592D01*
X144376155Y-94910808D01*
X144442300Y-94931791D01*
X144442300Y-95567677D01*
X144389190Y-95583712D01*
X144214680Y-95676501D01*
X144061517Y-95801418D01*
X143935534Y-95953705D01*
X143841529Y-96127563D01*
X143783084Y-96316368D01*
X143762425Y-96512930D01*
X143780338Y-96709761D01*
X143836141Y-96899364D01*
X143927709Y-97074517D01*
X144051554Y-97228549D01*
X144202958Y-97355592D01*
X144231349Y-97371200D01*
X143568780Y-97371200D01*
X143469729Y-97272149D01*
X143469729Y-95656400D01*
X143467028Y-95622528D01*
X143449237Y-95565078D01*
X143416145Y-95514859D01*
X143370372Y-95475848D01*
X143315543Y-95451133D01*
X143256000Y-95442671D01*
X141224000Y-95442671D01*
X141190128Y-95445372D01*
X141132678Y-95463163D01*
X141082459Y-95496255D01*
X141043448Y-95542028D01*
X141018733Y-95596857D01*
X141010271Y-95656400D01*
X141010271Y-97383600D01*
X141012972Y-97417472D01*
X141030763Y-97474922D01*
X141063855Y-97525141D01*
X141109628Y-97564152D01*
X141164457Y-97588867D01*
X141224000Y-97597329D01*
X142839749Y-97597329D01*
X143190110Y-97947690D01*
X143214252Y-97967521D01*
X143238111Y-97987541D01*
X143239665Y-97988395D01*
X143241039Y-97989524D01*
X143268543Y-98004271D01*
X143295866Y-98019292D01*
X143297560Y-98019829D01*
X143299124Y-98020668D01*
X143328982Y-98029797D01*
X143358688Y-98039220D01*
X143360449Y-98039417D01*
X143362151Y-98039938D01*
X143393229Y-98043095D01*
X143424185Y-98046567D01*
X143427656Y-98046591D01*
X143427722Y-98046598D01*
X143427784Y-98046592D01*
X143428900Y-98046600D01*
X146521420Y-98046600D01*
X149043610Y-100568790D01*
X149067752Y-100588621D01*
X149091611Y-100608641D01*
X149093165Y-100609495D01*
X149094539Y-100610624D01*
X149122061Y-100625381D01*
X149149366Y-100640392D01*
X149151057Y-100640929D01*
X149152623Y-100641768D01*
X149182508Y-100650905D01*
X149196600Y-100655375D01*
X149106040Y-100703527D01*
X148943257Y-100836289D01*
X148809362Y-100998141D01*
X148709454Y-101182917D01*
X148647338Y-101383580D01*
X148625381Y-101592486D01*
X148644419Y-101801679D01*
X148703727Y-102003189D01*
X148801046Y-102189342D01*
X148932668Y-102353048D01*
X149093581Y-102488070D01*
X149174035Y-102532300D01*
X148250380Y-102532300D01*
X146957152Y-101239072D01*
X146957588Y-101239168D01*
X147136245Y-101242910D01*
X147312225Y-101211880D01*
X147478828Y-101147260D01*
X147629705Y-101051510D01*
X147759111Y-100928278D01*
X147862117Y-100782258D01*
X147934799Y-100619011D01*
X147974389Y-100444756D01*
X147977239Y-100240652D01*
X147942530Y-100065360D01*
X147874435Y-99900148D01*
X147775546Y-99751308D01*
X147649631Y-99624511D01*
X147501486Y-99524586D01*
X147336753Y-99455339D01*
X147161707Y-99419407D01*
X146983016Y-99418159D01*
X146807486Y-99451643D01*
X146641802Y-99518584D01*
X146492276Y-99616431D01*
X146364603Y-99741458D01*
X146263646Y-99888902D01*
X146193250Y-100053147D01*
X146156097Y-100227938D01*
X146153602Y-100406616D01*
X146160100Y-100442020D01*
X145728190Y-100010110D01*
X145704048Y-99990279D01*
X145680189Y-99970259D01*
X145678635Y-99969405D01*
X145677261Y-99968276D01*
X145649739Y-99953519D01*
X145622434Y-99938508D01*
X145620743Y-99937971D01*
X145619177Y-99937132D01*
X145589304Y-99927999D01*
X145559612Y-99918580D01*
X145557852Y-99918383D01*
X145556149Y-99917862D01*
X145525066Y-99914705D01*
X145494115Y-99911233D01*
X145490645Y-99911209D01*
X145490579Y-99911202D01*
X145490517Y-99911208D01*
X145489400Y-99911200D01*
X145330837Y-99911200D01*
X145345320Y-99903499D01*
X145498483Y-99778582D01*
X145624466Y-99626295D01*
X145718471Y-99452437D01*
X145776916Y-99263632D01*
X145797575Y-99067070D01*
X145779662Y-98870239D01*
X145723859Y-98680636D01*
X145632291Y-98505483D01*
X145508446Y-98351451D01*
X145357042Y-98224408D01*
X145183845Y-98129192D01*
X144995452Y-98069430D01*
X144799040Y-98047399D01*
X144784900Y-98047300D01*
X144775100Y-98047300D01*
X144578399Y-98066587D01*
X144389190Y-98123712D01*
X144214680Y-98216501D01*
X144061517Y-98341418D01*
X143935534Y-98493705D01*
X143841529Y-98667563D01*
X143783084Y-98856368D01*
X143762425Y-99052930D01*
X143780338Y-99249761D01*
X143836141Y-99439364D01*
X143927709Y-99614517D01*
X144051554Y-99768549D01*
X144202958Y-99895592D01*
X144231349Y-99911200D01*
X143568780Y-99911200D01*
X143300746Y-99643166D01*
X143390546Y-99477083D01*
X143452662Y-99276420D01*
X143474619Y-99067514D01*
X143455581Y-98858321D01*
X143396273Y-98656811D01*
X143298954Y-98470658D01*
X143167332Y-98306952D01*
X143006419Y-98171930D01*
X142822345Y-98070735D01*
X142622120Y-98007220D01*
X142413372Y-97983805D01*
X142398345Y-97983700D01*
X142081655Y-97983700D01*
X141872601Y-98004198D01*
X141671509Y-98064911D01*
X141486040Y-98163527D01*
X141323257Y-98296289D01*
X141189362Y-98458141D01*
X141089454Y-98642917D01*
X141027338Y-98843580D01*
X141005381Y-99052486D01*
X141024419Y-99261679D01*
X141083727Y-99463189D01*
X141181046Y-99649342D01*
X141312668Y-99813048D01*
X141473581Y-99948070D01*
X141657655Y-100049265D01*
X141857880Y-100112780D01*
X142066628Y-100136195D01*
X142081655Y-100136300D01*
X142398345Y-100136300D01*
X142607399Y-100115802D01*
X142769332Y-100066912D01*
X143190110Y-100487690D01*
X143214252Y-100507521D01*
X143238111Y-100527541D01*
X143239665Y-100528395D01*
X143241039Y-100529524D01*
X143268543Y-100544271D01*
X143295866Y-100559292D01*
X143297560Y-100559829D01*
X143299124Y-100560668D01*
X143328982Y-100569797D01*
X143358688Y-100579220D01*
X143360449Y-100579417D01*
X143362151Y-100579938D01*
X143393229Y-100583095D01*
X143424185Y-100586567D01*
X143427656Y-100586591D01*
X143427722Y-100586598D01*
X143427784Y-100586592D01*
X143428900Y-100586600D01*
X145349520Y-100586600D01*
X147871710Y-103108790D01*
X147895852Y-103128621D01*
X147919711Y-103148641D01*
X147921265Y-103149495D01*
X147922639Y-103150624D01*
X147950161Y-103165381D01*
X147977466Y-103180392D01*
X147979157Y-103180929D01*
X147980723Y-103181768D01*
X148010608Y-103190905D01*
X148040288Y-103200320D01*
X148042047Y-103200517D01*
X148043750Y-103201038D01*
X148074839Y-103204196D01*
X148105785Y-103207667D01*
X148109255Y-103207691D01*
X148109321Y-103207698D01*
X148109383Y-103207692D01*
X148110500Y-103207700D01*
X149173421Y-103207700D01*
X149106040Y-103243527D01*
X148943257Y-103376289D01*
X148809362Y-103538141D01*
X148709454Y-103722917D01*
X148684881Y-103802300D01*
X146864880Y-103802300D01*
X145621390Y-102558810D01*
X145597227Y-102538962D01*
X145573389Y-102518959D01*
X145571835Y-102518105D01*
X145570461Y-102516976D01*
X145542939Y-102502219D01*
X145515634Y-102487208D01*
X145513943Y-102486671D01*
X145512377Y-102485832D01*
X145482504Y-102476699D01*
X145452812Y-102467280D01*
X145451052Y-102467083D01*
X145449349Y-102466562D01*
X145418266Y-102463405D01*
X145387315Y-102459933D01*
X145383845Y-102459909D01*
X145383779Y-102459902D01*
X145383717Y-102459908D01*
X145382600Y-102459900D01*
X145314474Y-102459900D01*
X145345320Y-102443499D01*
X145498483Y-102318582D01*
X145624466Y-102166295D01*
X145718471Y-101992437D01*
X145776916Y-101803632D01*
X145797575Y-101607070D01*
X145779662Y-101410239D01*
X145723859Y-101220636D01*
X145632291Y-101045483D01*
X145508446Y-100891451D01*
X145357042Y-100764408D01*
X145183845Y-100669192D01*
X144995452Y-100609430D01*
X144799040Y-100587399D01*
X144784900Y-100587300D01*
X144775100Y-100587300D01*
X144578399Y-100606587D01*
X144389190Y-100663712D01*
X144214680Y-100756501D01*
X144061517Y-100881418D01*
X143935534Y-101033705D01*
X143841529Y-101207563D01*
X143824585Y-101262300D01*
X143415548Y-101262300D01*
X143396273Y-101196811D01*
X143298954Y-101010658D01*
X143167332Y-100846952D01*
X143006419Y-100711930D01*
X142822345Y-100610735D01*
X142622120Y-100547220D01*
X142413372Y-100523805D01*
X142398345Y-100523700D01*
X142081655Y-100523700D01*
X141872601Y-100544198D01*
X141671509Y-100604911D01*
X141486040Y-100703527D01*
X141323257Y-100836289D01*
X141189362Y-100998141D01*
X141170260Y-101033470D01*
X141162450Y-101006589D01*
X141161631Y-101005009D01*
X141161119Y-101003313D01*
X141146477Y-100975775D01*
X141132119Y-100948076D01*
X141131013Y-100946691D01*
X141130178Y-100945120D01*
X141110459Y-100920942D01*
X141091001Y-100896567D01*
X141088562Y-100894094D01*
X141088522Y-100894045D01*
X141088476Y-100894007D01*
X141087690Y-100893210D01*
X140156069Y-99961589D01*
X140265320Y-99903499D01*
X140418483Y-99778582D01*
X140544466Y-99626295D01*
X140638471Y-99452437D01*
X140696916Y-99263632D01*
X140717575Y-99067070D01*
X140699662Y-98870239D01*
X140643859Y-98680636D01*
X140552291Y-98505483D01*
X140428446Y-98351451D01*
X140277042Y-98224408D01*
X140103845Y-98129192D01*
X139915452Y-98069430D01*
X139719040Y-98047399D01*
X139704900Y-98047300D01*
X139695100Y-98047300D01*
X139498399Y-98066587D01*
X139309190Y-98123712D01*
X139134680Y-98216501D01*
X138981517Y-98341418D01*
X138855534Y-98493705D01*
X138761529Y-98667563D01*
X138703084Y-98856368D01*
X138682425Y-99052930D01*
X138700338Y-99249761D01*
X138736037Y-99371057D01*
X138186190Y-98821210D01*
X138162048Y-98801379D01*
X138138189Y-98781359D01*
X138136635Y-98780505D01*
X138135261Y-98779376D01*
X138107739Y-98764619D01*
X138080434Y-98749608D01*
X138078743Y-98749071D01*
X138077177Y-98748232D01*
X138047304Y-98739099D01*
X138017612Y-98729680D01*
X138015852Y-98729483D01*
X138014149Y-98728962D01*
X137983066Y-98725805D01*
X137952115Y-98722333D01*
X137948645Y-98722309D01*
X137948579Y-98722302D01*
X137948517Y-98722308D01*
X137947400Y-98722300D01*
X133036121Y-98722300D01*
X133023859Y-98680636D01*
X132932291Y-98505483D01*
X132808446Y-98351451D01*
X132657042Y-98224408D01*
X132483845Y-98129192D01*
X132295452Y-98069430D01*
X132099040Y-98047399D01*
X132084900Y-98047300D01*
X132075100Y-98047300D01*
X131878399Y-98066587D01*
X131689190Y-98123712D01*
X131514680Y-98216501D01*
X131361517Y-98341418D01*
X131235534Y-98493705D01*
X131141529Y-98667563D01*
X131083084Y-98856368D01*
X131062425Y-99052930D01*
X130973900Y-99052930D01*
X130973900Y-96512930D01*
X131062425Y-96512930D01*
X131080338Y-96709761D01*
X131136141Y-96899364D01*
X131227709Y-97074517D01*
X131351554Y-97228549D01*
X131502958Y-97355592D01*
X131676155Y-97450808D01*
X131864548Y-97510570D01*
X132060960Y-97532601D01*
X132075100Y-97532700D01*
X132084900Y-97532700D01*
X132281601Y-97513413D01*
X132470810Y-97456288D01*
X132645320Y-97363499D01*
X132798483Y-97238582D01*
X132924466Y-97086295D01*
X133018471Y-96912437D01*
X133076916Y-96723632D01*
X133097575Y-96527070D01*
X133096289Y-96512930D01*
X138682425Y-96512930D01*
X138700338Y-96709761D01*
X138756141Y-96899364D01*
X138847709Y-97074517D01*
X138971554Y-97228549D01*
X139122958Y-97355592D01*
X139296155Y-97450808D01*
X139484548Y-97510570D01*
X139680960Y-97532601D01*
X139695100Y-97532700D01*
X139704900Y-97532700D01*
X139901601Y-97513413D01*
X140090810Y-97456288D01*
X140265320Y-97363499D01*
X140418483Y-97238582D01*
X140544466Y-97086295D01*
X140638471Y-96912437D01*
X140696916Y-96723632D01*
X140717575Y-96527070D01*
X140699662Y-96330239D01*
X140643859Y-96140636D01*
X140552291Y-95965483D01*
X140428446Y-95811451D01*
X140277042Y-95684408D01*
X140103845Y-95589192D01*
X139915452Y-95529430D01*
X139719040Y-95507399D01*
X139704900Y-95507300D01*
X139695100Y-95507300D01*
X139498399Y-95526587D01*
X139309190Y-95583712D01*
X139134680Y-95676501D01*
X138981517Y-95801418D01*
X138855534Y-95953705D01*
X138761529Y-96127563D01*
X138703084Y-96316368D01*
X138682425Y-96512930D01*
X133096289Y-96512930D01*
X133079662Y-96330239D01*
X133023859Y-96140636D01*
X132932291Y-95965483D01*
X132808446Y-95811451D01*
X132657042Y-95684408D01*
X132483845Y-95589192D01*
X132295452Y-95529430D01*
X132099040Y-95507399D01*
X132084900Y-95507300D01*
X132075100Y-95507300D01*
X131878399Y-95526587D01*
X131689190Y-95583712D01*
X131514680Y-95676501D01*
X131361517Y-95801418D01*
X131235534Y-95953705D01*
X131141529Y-96127563D01*
X131083084Y-96316368D01*
X131062425Y-96512930D01*
X130973900Y-96512930D01*
X130973900Y-93972930D01*
X131062425Y-93972930D01*
X131080338Y-94169761D01*
X131136141Y-94359364D01*
X131227709Y-94534517D01*
X131351554Y-94688549D01*
X131502958Y-94815592D01*
X131676155Y-94910808D01*
X131864548Y-94970570D01*
X132060960Y-94992601D01*
X132075100Y-94992700D01*
X132084900Y-94992700D01*
X132281601Y-94973413D01*
X132470810Y-94916288D01*
X132645320Y-94823499D01*
X132798483Y-94698582D01*
X132924466Y-94546295D01*
X133018471Y-94372437D01*
X133035415Y-94317700D01*
X135890000Y-94317700D01*
X135921096Y-94314651D01*
X135952121Y-94311937D01*
X135953823Y-94311443D01*
X135955593Y-94311269D01*
X135985450Y-94302254D01*
X136015411Y-94293550D01*
X136016991Y-94292731D01*
X136018687Y-94292219D01*
X136046225Y-94277577D01*
X136073924Y-94263219D01*
X136075309Y-94262113D01*
X136076880Y-94261278D01*
X136101058Y-94241559D01*
X136125433Y-94222101D01*
X136127906Y-94219662D01*
X136127955Y-94219622D01*
X136127993Y-94219576D01*
X136128790Y-94218790D01*
X136374650Y-93972930D01*
X138682425Y-93972930D01*
X138700338Y-94169761D01*
X138756141Y-94359364D01*
X138847709Y-94534517D01*
X138971554Y-94688549D01*
X139122958Y-94815592D01*
X139296155Y-94910808D01*
X139484548Y-94970570D01*
X139680960Y-94992601D01*
X139695100Y-94992700D01*
X139704900Y-94992700D01*
X139901601Y-94973413D01*
X140090810Y-94916288D01*
X140265320Y-94823499D01*
X140418483Y-94698582D01*
X140544466Y-94546295D01*
X140638471Y-94372437D01*
X140696916Y-94183632D01*
X140717575Y-93987070D01*
X140699662Y-93790239D01*
X140643859Y-93600636D01*
X140552291Y-93425483D01*
X140428446Y-93271451D01*
X140277042Y-93144408D01*
X140103845Y-93049192D01*
X139915452Y-92989430D01*
X139719040Y-92967399D01*
X139704900Y-92967300D01*
X139695100Y-92967300D01*
X139498399Y-92986587D01*
X139309190Y-93043712D01*
X139134680Y-93136501D01*
X138981517Y-93261418D01*
X138855534Y-93413705D01*
X138761529Y-93587563D01*
X138703084Y-93776368D01*
X138682425Y-93972930D01*
X136374650Y-93972930D01*
X137846834Y-92500746D01*
X138012917Y-92590546D01*
X138213580Y-92652662D01*
X138422486Y-92674619D01*
X138631679Y-92655581D01*
X138833189Y-92596273D01*
X139019342Y-92498954D01*
X139183048Y-92367332D01*
X139318070Y-92206419D01*
X139419265Y-92022345D01*
X139482780Y-91822120D01*
X139506195Y-91613372D01*
X139506300Y-91598345D01*
X139506300Y-91281655D01*
X139485802Y-91072601D01*
X139425089Y-90871509D01*
X139326473Y-90686040D01*
X139193711Y-90523257D01*
X139031859Y-90389362D01*
X138847083Y-90289454D01*
X138646420Y-90227338D01*
X138437514Y-90205381D01*
X138228321Y-90224419D01*
X138026811Y-90283727D01*
X137840658Y-90381046D01*
X137676952Y-90512668D01*
X137541930Y-90673581D01*
X137440735Y-90857655D01*
X137377220Y-91057880D01*
X137353805Y-91266628D01*
X137353700Y-91281655D01*
X137353700Y-91598345D01*
X137374198Y-91807399D01*
X137423088Y-91969332D01*
X136967329Y-92425091D01*
X136967329Y-90424000D01*
X136964628Y-90390128D01*
X136946837Y-90332678D01*
X136913745Y-90282459D01*
X136867972Y-90243448D01*
X136813143Y-90218733D01*
X136753600Y-90210271D01*
X135026400Y-90210271D01*
X134992528Y-90212972D01*
X134935078Y-90230763D01*
X134884859Y-90263855D01*
X134845848Y-90309628D01*
X134821133Y-90364457D01*
X134812671Y-90424000D01*
X134812671Y-92456000D01*
X134815372Y-92489872D01*
X134833163Y-92547322D01*
X134866255Y-92597541D01*
X134912028Y-92636552D01*
X134966857Y-92661267D01*
X135026400Y-92669729D01*
X136722691Y-92669729D01*
X135750120Y-93642300D01*
X133036121Y-93642300D01*
X133023859Y-93600636D01*
X132932291Y-93425483D01*
X132808446Y-93271451D01*
X132657042Y-93144408D01*
X132483845Y-93049192D01*
X132295452Y-92989430D01*
X132099040Y-92967399D01*
X132084900Y-92967300D01*
X132075100Y-92967300D01*
X131878399Y-92986587D01*
X131689190Y-93043712D01*
X131514680Y-93136501D01*
X131361517Y-93261418D01*
X131235534Y-93413705D01*
X131141529Y-93587563D01*
X131083084Y-93776368D01*
X131062425Y-93972930D01*
X130973900Y-93972930D01*
X130973900Y-90790000D01*
X132486271Y-90790000D01*
X132486271Y-92090000D01*
X132488972Y-92123872D01*
X132506763Y-92181322D01*
X132539855Y-92231541D01*
X132585628Y-92270552D01*
X132640457Y-92295267D01*
X132700000Y-92303729D01*
X134000000Y-92303729D01*
X134033872Y-92301028D01*
X134091322Y-92283237D01*
X134141541Y-92250145D01*
X134180552Y-92204372D01*
X134205267Y-92149543D01*
X134213729Y-92090000D01*
X134213729Y-90790000D01*
X134211028Y-90756128D01*
X134193237Y-90698678D01*
X134160145Y-90648459D01*
X134114372Y-90609448D01*
X134059543Y-90584733D01*
X134000000Y-90576271D01*
X132700000Y-90576271D01*
X132666128Y-90578972D01*
X132608678Y-90596763D01*
X132558459Y-90629855D01*
X132519448Y-90675628D01*
X132494733Y-90730457D01*
X132486271Y-90790000D01*
X130973900Y-90790000D01*
X130973900Y-89830447D01*
X132800803Y-89830447D01*
X132868469Y-90013295D01*
X133087111Y-90086614D01*
X133315855Y-90115869D01*
X133545912Y-90099937D01*
X133768440Y-90039428D01*
X133831531Y-90013295D01*
X133899197Y-89830447D01*
X150580803Y-89830447D01*
X150648469Y-90013295D01*
X150867111Y-90086614D01*
X151095855Y-90115869D01*
X151325912Y-90099937D01*
X151548440Y-90039428D01*
X151611531Y-90013295D01*
X151679197Y-89830447D01*
X151130000Y-89281250D01*
X150580803Y-89830447D01*
X133899197Y-89830447D01*
X133350000Y-89281250D01*
X132800803Y-89830447D01*
X130973900Y-89830447D01*
X130973900Y-88908019D01*
X130974112Y-88905855D01*
X132174131Y-88905855D01*
X132190063Y-89135912D01*
X132250572Y-89358440D01*
X132276705Y-89421531D01*
X132459553Y-89489197D01*
X133008750Y-88940000D01*
X133691250Y-88940000D01*
X134240447Y-89489197D01*
X134423295Y-89421531D01*
X134496614Y-89202889D01*
X134525869Y-88974145D01*
X134521140Y-88905855D01*
X149954131Y-88905855D01*
X149970063Y-89135912D01*
X150030572Y-89358440D01*
X150056705Y-89421531D01*
X150239553Y-89489197D01*
X150788750Y-88940000D01*
X151471250Y-88940000D01*
X152020447Y-89489197D01*
X152203295Y-89421531D01*
X152276614Y-89202889D01*
X152305869Y-88974145D01*
X152289937Y-88744088D01*
X152229428Y-88521560D01*
X152203295Y-88458469D01*
X152020447Y-88390803D01*
X151471250Y-88940000D01*
X150788750Y-88940000D01*
X150239553Y-88390803D01*
X150056705Y-88458469D01*
X149983386Y-88677111D01*
X149954131Y-88905855D01*
X134521140Y-88905855D01*
X134509937Y-88744088D01*
X134449428Y-88521560D01*
X134423295Y-88458469D01*
X134240447Y-88390803D01*
X133691250Y-88940000D01*
X133008750Y-88940000D01*
X132459553Y-88390803D01*
X132276705Y-88458469D01*
X132203386Y-88677111D01*
X132174131Y-88905855D01*
X130974112Y-88905855D01*
X130995737Y-88685311D01*
X131058088Y-88478794D01*
X131159360Y-88288330D01*
X131295701Y-88121159D01*
X131461914Y-87983655D01*
X131651674Y-87881052D01*
X131857747Y-87817261D01*
X132080008Y-87793901D01*
X132080287Y-87793900D01*
X133103201Y-87793900D01*
X132931560Y-87840572D01*
X132931560Y-87840572D01*
G37*
X132931560Y-87840572D02*
X132868469Y-87866705D01*
X132800803Y-88049553D01*
X133350000Y-88598750D01*
X133899197Y-88049553D01*
X133831531Y-87866705D01*
X133614422Y-87793900D01*
X150883201Y-87793900D01*
X150711560Y-87840572D01*
X150648469Y-87866705D01*
X150580803Y-88049553D01*
X151130000Y-88598750D01*
X151679197Y-88049553D01*
X151611531Y-87866705D01*
X151394422Y-87793900D01*
X152391981Y-87793900D01*
X152614689Y-87815737D01*
X152821206Y-87878088D01*
X153011670Y-87979360D01*
X153178841Y-88115701D01*
X153316345Y-88281914D01*
X153418948Y-88471674D01*
X153482739Y-88677747D01*
X153506099Y-88900008D01*
X153506100Y-88900287D01*
X153506100Y-113021981D01*
X153484263Y-113244689D01*
X153421912Y-113451206D01*
X153320641Y-113641670D01*
X153184299Y-113808841D01*
X153018083Y-113946348D01*
X152828324Y-114048949D01*
X152622253Y-114112739D01*
X152399992Y-114136099D01*
X152399713Y-114136100D01*
X132088019Y-114136100D01*
X131865311Y-114114263D01*
X131658794Y-114051912D01*
X131468330Y-113950641D01*
X131301159Y-113814299D01*
X131163652Y-113648083D01*
X131061051Y-113458324D01*
X130997261Y-113252253D01*
X130973901Y-113029992D01*
X130973900Y-113029713D01*
X130973900Y-112470960D01*
X131021400Y-112549709D01*
X131195805Y-112741058D01*
X131404189Y-112894705D01*
X131638544Y-113004746D01*
X131838700Y-112928305D01*
X131838700Y-112001300D01*
X132321300Y-112001300D01*
X132321300Y-112928305D01*
X132521456Y-113004746D01*
X132755811Y-112894705D01*
X132964195Y-112741058D01*
X133138600Y-112549709D01*
X133272324Y-112328012D01*
X133324735Y-112201454D01*
X133245815Y-112001300D01*
X132321300Y-112001300D01*
X131838700Y-112001300D01*
X131818700Y-112001300D01*
X131818700Y-111518700D01*
X131838700Y-111518700D01*
X131838700Y-110591695D01*
X132321300Y-110591695D01*
X132321300Y-111518700D01*
X133245815Y-111518700D01*
X133324735Y-111318546D01*
X133272324Y-111191988D01*
X133138600Y-110970291D01*
X132964195Y-110778942D01*
X132755811Y-110625295D01*
X132521456Y-110515254D01*
X132321300Y-110591695D01*
X131838700Y-110591695D01*
X131638544Y-110515254D01*
X131404189Y-110625295D01*
X131195805Y-110778942D01*
X131021400Y-110970291D01*
X130973900Y-111049040D01*
X130973900Y-109930960D01*
X131021400Y-110009709D01*
X131195805Y-110201058D01*
X131404189Y-110354705D01*
X131638544Y-110464746D01*
X131838700Y-110388305D01*
X131838700Y-109461300D01*
X132321300Y-109461300D01*
X132321300Y-110388305D01*
X132521456Y-110464746D01*
X132755811Y-110354705D01*
X132964195Y-110201058D01*
X133138600Y-110009709D01*
X133272324Y-109788012D01*
X133324735Y-109661454D01*
X133245815Y-109461300D01*
X132321300Y-109461300D01*
X131838700Y-109461300D01*
X131818700Y-109461300D01*
X131818700Y-108978700D01*
X131838700Y-108978700D01*
X131838700Y-108051695D01*
X132321300Y-108051695D01*
X132321300Y-108978700D01*
X133245815Y-108978700D01*
X133324735Y-108778546D01*
X133272324Y-108651988D01*
X133138600Y-108430291D01*
X132964195Y-108238942D01*
X132755811Y-108085295D01*
X132521456Y-107975254D01*
X132321300Y-108051695D01*
X131838700Y-108051695D01*
X131638544Y-107975254D01*
X131404189Y-108085295D01*
X131195805Y-108238942D01*
X131021400Y-108430291D01*
X130973900Y-108509040D01*
X130973900Y-107390960D01*
X131021400Y-107469709D01*
X131195805Y-107661058D01*
X131404189Y-107814705D01*
X131638544Y-107924746D01*
X131838700Y-107848305D01*
X131838700Y-106921300D01*
X132321300Y-106921300D01*
X132321300Y-107848305D01*
X132521456Y-107924746D01*
X132755811Y-107814705D01*
X132964195Y-107661058D01*
X133138600Y-107469709D01*
X133272324Y-107248012D01*
X133324735Y-107121454D01*
X133245815Y-106921300D01*
X132321300Y-106921300D01*
X131838700Y-106921300D01*
X131818700Y-106921300D01*
X131818700Y-106438700D01*
X131838700Y-106438700D01*
X131838700Y-105511695D01*
X132321300Y-105511695D01*
X132321300Y-106438700D01*
X133245815Y-106438700D01*
X133324735Y-106238546D01*
X133272324Y-106111988D01*
X133138600Y-105890291D01*
X132964195Y-105698942D01*
X132755811Y-105545295D01*
X132521456Y-105435254D01*
X132321300Y-105511695D01*
X131838700Y-105511695D01*
X131638544Y-105435254D01*
X131404189Y-105545295D01*
X131195805Y-105698942D01*
X131021400Y-105890291D01*
X130973900Y-105969040D01*
X130973900Y-104132930D01*
X131062425Y-104132930D01*
X131080338Y-104329761D01*
X131136141Y-104519364D01*
X131227709Y-104694517D01*
X131351554Y-104848549D01*
X131502958Y-104975592D01*
X131676155Y-105070808D01*
X131864548Y-105130570D01*
X132060960Y-105152601D01*
X132075100Y-105152700D01*
X132084900Y-105152700D01*
X132281601Y-105133413D01*
X132470810Y-105076288D01*
X132645320Y-104983499D01*
X132798483Y-104858582D01*
X132924466Y-104706295D01*
X133018471Y-104532437D01*
X133076916Y-104343632D01*
X133097575Y-104147070D01*
X133079662Y-103950239D01*
X133023859Y-103760636D01*
X132932291Y-103585483D01*
X132808446Y-103431451D01*
X132657042Y-103304408D01*
X132483845Y-103209192D01*
X132295452Y-103149430D01*
X132099040Y-103127399D01*
X132084900Y-103127300D01*
X132075100Y-103127300D01*
X131878399Y-103146587D01*
X131689190Y-103203712D01*
X131514680Y-103296501D01*
X131361517Y-103421418D01*
X131235534Y-103573705D01*
X131141529Y-103747563D01*
X131083084Y-103936368D01*
X131062425Y-104132930D01*
X130973900Y-104132930D01*
X130973900Y-99052930D01*
X131062425Y-99052930D01*
X131080338Y-99249761D01*
X131136141Y-99439364D01*
X131227709Y-99614517D01*
X131351554Y-99768549D01*
X131502958Y-99895592D01*
X131676155Y-99990808D01*
X131864548Y-100050570D01*
X132060960Y-100072601D01*
X132075100Y-100072700D01*
X132084900Y-100072700D01*
X132281601Y-100053413D01*
X132470810Y-99996288D01*
X132645320Y-99903499D01*
X132798483Y-99778582D01*
X132924466Y-99626295D01*
X133018471Y-99452437D01*
X133035415Y-99397700D01*
X137807520Y-99397700D01*
X138833910Y-100424090D01*
X138858052Y-100443921D01*
X138881911Y-100463941D01*
X138883465Y-100464795D01*
X138884839Y-100465924D01*
X138912343Y-100480671D01*
X138939666Y-100495692D01*
X138941360Y-100496229D01*
X138942924Y-100497068D01*
X138972782Y-100506197D01*
X139002488Y-100515620D01*
X139004249Y-100515817D01*
X139005951Y-100516338D01*
X139037029Y-100519495D01*
X139067985Y-100522967D01*
X139071456Y-100522991D01*
X139071522Y-100522998D01*
X139071584Y-100522992D01*
X139072700Y-100523000D01*
X139762320Y-100523000D01*
X139840323Y-100601003D01*
X139719040Y-100587399D01*
X139704900Y-100587300D01*
X139695100Y-100587300D01*
X139498399Y-100606587D01*
X139309190Y-100663712D01*
X139134680Y-100756501D01*
X138981517Y-100881418D01*
X138855534Y-101033705D01*
X138761529Y-101207563D01*
X138703084Y-101396368D01*
X138682425Y-101592930D01*
X138700338Y-101789761D01*
X138756141Y-101979364D01*
X138847709Y-102154517D01*
X138971554Y-102308549D01*
X139122958Y-102435592D01*
X139296155Y-102530808D01*
X139484548Y-102590570D01*
X139680960Y-102612601D01*
X139695100Y-102612700D01*
X139704900Y-102612700D01*
X139901601Y-102593413D01*
X140090810Y-102536288D01*
X140135138Y-102512718D01*
X140530700Y-102908280D01*
X140530700Y-103558629D01*
X140428446Y-103431451D01*
X140277042Y-103304408D01*
X140103845Y-103209192D01*
X139915452Y-103149430D01*
X139719040Y-103127399D01*
X139704900Y-103127300D01*
X139695100Y-103127300D01*
X139498399Y-103146587D01*
X139309190Y-103203712D01*
X139134680Y-103296501D01*
X138981517Y-103421418D01*
X138855534Y-103573705D01*
X138761529Y-103747563D01*
X138703084Y-103936368D01*
X138682425Y-104132930D01*
X138700338Y-104329761D01*
X138756141Y-104519364D01*
X138847709Y-104694517D01*
X138971554Y-104848549D01*
X139122958Y-104975592D01*
X139252667Y-105046900D01*
X139115800Y-105046900D01*
X139084695Y-105049950D01*
X139053680Y-105052663D01*
X139051978Y-105053157D01*
X139050207Y-105053331D01*
X139020338Y-105062349D01*
X138990389Y-105071050D01*
X138988809Y-105071869D01*
X138987113Y-105072381D01*
X138959575Y-105087023D01*
X138931876Y-105101381D01*
X138930491Y-105102487D01*
X138928920Y-105103322D01*
X138904718Y-105123061D01*
X138880368Y-105142499D01*
X138877896Y-105144936D01*
X138877845Y-105144978D01*
X138877806Y-105145025D01*
X138877010Y-105145810D01*
X138807288Y-105215532D01*
X138796193Y-105159496D01*
X138757878Y-105066537D01*
X138702237Y-104982791D01*
X138631389Y-104911446D01*
X138548033Y-104855222D01*
X138455343Y-104816259D01*
X138356851Y-104796041D01*
X138256308Y-104795339D01*
X138157543Y-104814180D01*
X138064319Y-104851845D01*
X137980186Y-104906900D01*
X137914530Y-104971194D01*
X135931301Y-104973721D01*
X132994447Y-102036867D01*
X133018471Y-101992437D01*
X133076916Y-101803632D01*
X133097575Y-101607070D01*
X133079662Y-101410239D01*
X133023859Y-101220636D01*
X132932291Y-101045483D01*
X132808446Y-100891451D01*
X132657042Y-100764408D01*
X132483845Y-100669192D01*
X132295452Y-100609430D01*
X132099040Y-100587399D01*
X132084900Y-100587300D01*
X132075100Y-100587300D01*
X131878399Y-100606587D01*
X131689190Y-100663712D01*
X131514680Y-100756501D01*
X131361517Y-100881418D01*
X131235534Y-101033705D01*
X131141529Y-101207563D01*
X131083084Y-101396368D01*
X131062425Y-101592930D01*
X131080338Y-101789761D01*
X131136141Y-101979364D01*
X131227709Y-102154517D01*
X131351554Y-102308549D01*
X131502958Y-102435592D01*
X131676155Y-102530808D01*
X131864548Y-102590570D01*
X132060960Y-102612601D01*
X132075100Y-102612700D01*
X132084900Y-102612700D01*
X132281601Y-102593413D01*
X132470810Y-102536288D01*
X132515138Y-102512718D01*
X135552810Y-105550390D01*
X135577114Y-105570354D01*
X135601166Y-105590484D01*
X135602532Y-105591233D01*
X135603739Y-105592224D01*
X135631466Y-105607091D01*
X135658962Y-105622161D01*
X135660446Y-105622630D01*
X135661823Y-105623368D01*
X135691950Y-105632579D01*
X135721809Y-105642009D01*
X135723353Y-105642180D01*
X135724850Y-105642638D01*
X135756153Y-105645817D01*
X135787315Y-105649273D01*
X135790346Y-105649290D01*
X135790421Y-105649298D01*
X135790493Y-105649291D01*
X135792030Y-105649300D01*
X137916821Y-105646593D01*
X137969101Y-105700730D01*
X138051664Y-105758113D01*
X138143800Y-105798366D01*
X138242001Y-105819957D01*
X138243770Y-105819994D01*
X138236799Y-105842796D01*
X138227380Y-105872488D01*
X138227183Y-105874248D01*
X138226662Y-105875951D01*
X138223505Y-105907034D01*
X138220033Y-105937985D01*
X138220009Y-105941455D01*
X138220002Y-105941521D01*
X138220008Y-105941583D01*
X138220000Y-105942700D01*
X138220000Y-107442700D01*
X138223049Y-107473796D01*
X138225763Y-107504821D01*
X138226257Y-107506523D01*
X138226431Y-107508293D01*
X138235446Y-107538150D01*
X138244150Y-107568111D01*
X138244969Y-107569691D01*
X138245481Y-107571387D01*
X138260123Y-107598925D01*
X138274481Y-107626624D01*
X138275587Y-107628009D01*
X138276422Y-107629580D01*
X138296141Y-107653758D01*
X138315599Y-107678133D01*
X138318038Y-107680606D01*
X138318078Y-107680655D01*
X138318124Y-107680693D01*
X138318910Y-107681490D01*
X138826210Y-108188790D01*
X138850352Y-108208621D01*
X138874211Y-108228641D01*
X138875765Y-108229495D01*
X138877139Y-108230624D01*
X138904643Y-108245371D01*
X138931966Y-108260392D01*
X138933660Y-108260929D01*
X138935224Y-108261768D01*
X138965082Y-108270897D01*
X138994788Y-108280320D01*
X138996549Y-108280517D01*
X138998251Y-108281038D01*
X139029329Y-108284195D01*
X139060285Y-108287667D01*
X139063756Y-108287691D01*
X139063822Y-108287698D01*
X139063884Y-108287692D01*
X139065000Y-108287700D01*
X139301690Y-108287700D01*
X139134680Y-108376501D01*
X138981517Y-108501418D01*
X138855534Y-108653705D01*
X138761529Y-108827563D01*
X138703084Y-109016368D01*
X138682425Y-109212930D01*
X138700338Y-109409761D01*
X138756141Y-109599364D01*
X138847709Y-109774517D01*
X138971554Y-109928549D01*
X139122958Y-110055592D01*
X139296155Y-110150808D01*
X139484548Y-110210570D01*
X139680960Y-110232601D01*
X139695100Y-110232700D01*
X139704900Y-110232700D01*
X139901601Y-110213413D01*
X140090810Y-110156288D01*
X140265320Y-110063499D01*
X140418483Y-109938582D01*
X140544466Y-109786295D01*
X140638471Y-109612437D01*
X140696916Y-109423632D01*
X140717575Y-109227070D01*
X140699662Y-109030239D01*
X140643859Y-108840636D01*
X140552291Y-108665483D01*
X140428446Y-108511451D01*
X140277042Y-108384408D01*
X140103845Y-108289192D01*
X140099142Y-108287700D01*
X141553421Y-108287700D01*
X141486040Y-108323527D01*
X141323257Y-108456289D01*
X141189362Y-108618141D01*
X141089454Y-108802917D01*
X141027338Y-109003580D01*
X141005381Y-109212486D01*
X141024419Y-109421679D01*
X141083727Y-109623189D01*
X141178310Y-109804110D01*
X140135710Y-110846710D01*
X140103845Y-110829192D01*
X139915452Y-110769430D01*
X139719040Y-110747399D01*
X139704900Y-110747300D01*
X139695100Y-110747300D01*
X139498399Y-110766587D01*
X139309190Y-110823712D01*
X139134680Y-110916501D01*
X138981517Y-111041418D01*
X138855534Y-111193705D01*
X138761529Y-111367563D01*
X138703084Y-111556368D01*
X138682425Y-111752930D01*
X138700338Y-111949761D01*
X138756141Y-112139364D01*
X138847709Y-112314517D01*
X138971554Y-112468549D01*
X139122958Y-112595592D01*
X139296155Y-112690808D01*
X139484548Y-112750570D01*
X139680960Y-112772601D01*
X139695100Y-112772700D01*
X139704900Y-112772700D01*
X139901601Y-112753413D01*
X140090810Y-112696288D01*
X140265320Y-112603499D01*
X140418483Y-112478582D01*
X140544466Y-112326295D01*
X140638471Y-112152437D01*
X140696916Y-111963632D01*
X140703300Y-111902891D01*
X140703300Y-112001302D01*
X140856907Y-112001302D01*
X140779023Y-112211566D01*
X140800291Y-112255566D01*
X140921706Y-112497185D01*
X141087926Y-112710475D01*
X141292563Y-112887239D01*
X141527753Y-113020683D01*
X141784457Y-113105680D01*
X141998700Y-113006359D01*
X141998700Y-112001300D01*
X142481300Y-112001300D01*
X142481300Y-113006359D01*
X142695543Y-113105680D01*
X142952247Y-113020683D01*
X143187437Y-112887239D01*
X143392074Y-112710475D01*
X143558294Y-112497185D01*
X143618023Y-112378323D01*
X143721400Y-112549709D01*
X143895805Y-112741058D01*
X144104189Y-112894705D01*
X144338544Y-113004746D01*
X144538700Y-112928305D01*
X144538700Y-112001300D01*
X145021300Y-112001300D01*
X145021300Y-112928305D01*
X145221456Y-113004746D01*
X145455811Y-112894705D01*
X145664195Y-112741058D01*
X145838600Y-112549709D01*
X145972324Y-112328012D01*
X146024735Y-112201454D01*
X145945815Y-112001300D01*
X145021300Y-112001300D01*
X144538700Y-112001300D01*
X142481300Y-112001300D01*
X141998700Y-112001300D01*
X141978700Y-112001300D01*
X141978700Y-111518700D01*
X141998700Y-111518700D01*
X141998700Y-110513641D01*
X141784457Y-110414320D01*
X141527753Y-110499317D01*
X141320893Y-110616687D01*
X141711298Y-110226282D01*
X141857880Y-110272780D01*
X142066628Y-110296195D01*
X142081655Y-110296300D01*
X142398345Y-110296300D01*
X142607399Y-110275802D01*
X142808491Y-110215089D01*
X142993960Y-110116473D01*
X143156743Y-109983711D01*
X143273900Y-109842092D01*
X143273900Y-109893100D01*
X143276949Y-109924196D01*
X143279663Y-109955221D01*
X143280157Y-109956923D01*
X143280331Y-109958693D01*
X143289346Y-109988550D01*
X143298050Y-110018511D01*
X143298869Y-110020091D01*
X143299381Y-110021787D01*
X143314023Y-110049325D01*
X143328381Y-110077024D01*
X143329487Y-110078409D01*
X143330322Y-110079980D01*
X143350041Y-110104158D01*
X143369499Y-110128533D01*
X143371938Y-110131006D01*
X143371978Y-110131055D01*
X143372024Y-110131093D01*
X143372810Y-110131890D01*
X143897310Y-110656390D01*
X143921452Y-110676221D01*
X143945311Y-110696241D01*
X143946865Y-110697095D01*
X143948239Y-110698224D01*
X143975761Y-110712981D01*
X143981205Y-110715974D01*
X143895805Y-110778942D01*
X143721400Y-110970291D01*
X143618023Y-111141677D01*
X143558294Y-111022815D01*
X143392074Y-110809525D01*
X143187437Y-110632761D01*
X142952247Y-110499317D01*
X142695543Y-110414320D01*
X142481300Y-110513641D01*
X142481300Y-111518700D01*
X144538700Y-111518700D01*
X144538700Y-111498700D01*
X145021300Y-111498700D01*
X145021300Y-111518700D01*
X145945815Y-111518700D01*
X145962869Y-111475449D01*
X146486210Y-111998790D01*
X146510374Y-112018639D01*
X146534211Y-112038641D01*
X146535762Y-112039494D01*
X146537138Y-112040624D01*
X146564647Y-112055373D01*
X146591966Y-112070392D01*
X146593662Y-112070930D01*
X146595223Y-112071767D01*
X146625021Y-112080878D01*
X146654788Y-112090320D01*
X146656552Y-112090518D01*
X146658250Y-112091037D01*
X146689289Y-112094190D01*
X146720285Y-112097667D01*
X146723755Y-112097691D01*
X146723821Y-112097698D01*
X146723883Y-112097692D01*
X146725000Y-112097700D01*
X148684452Y-112097700D01*
X148703727Y-112163189D01*
X148801046Y-112349342D01*
X148932668Y-112513048D01*
X149093581Y-112648070D01*
X149277655Y-112749265D01*
X149477880Y-112812780D01*
X149686628Y-112836195D01*
X149701655Y-112836300D01*
X150018345Y-112836300D01*
X150227399Y-112815802D01*
X150428491Y-112755089D01*
X150613960Y-112656473D01*
X150776743Y-112523711D01*
X150910638Y-112361859D01*
X151010546Y-112177083D01*
X151072662Y-111976420D01*
X151094619Y-111767514D01*
X151075581Y-111558321D01*
X151016273Y-111356811D01*
X150918954Y-111170658D01*
X150787332Y-111006952D01*
X150626419Y-110871930D01*
X150545965Y-110827700D01*
X150990120Y-110827700D01*
X151485553Y-111323133D01*
X151461529Y-111367563D01*
X151403084Y-111556368D01*
X151382425Y-111752930D01*
X151400338Y-111949761D01*
X151456141Y-112139364D01*
X151547709Y-112314517D01*
X151671554Y-112468549D01*
X151822958Y-112595592D01*
X151996155Y-112690808D01*
X152184548Y-112750570D01*
X152380960Y-112772601D01*
X152395100Y-112772700D01*
X152404900Y-112772700D01*
X152601601Y-112753413D01*
X152790810Y-112696288D01*
X152965320Y-112603499D01*
X153118483Y-112478582D01*
X153244466Y-112326295D01*
X153338471Y-112152437D01*
X153396916Y-111963632D01*
X153417575Y-111767070D01*
X153399662Y-111570239D01*
X153343859Y-111380636D01*
X153252291Y-111205483D01*
X153128446Y-111051451D01*
X152977042Y-110924408D01*
X152803845Y-110829192D01*
X152615452Y-110769430D01*
X152419040Y-110747399D01*
X152404900Y-110747300D01*
X152395100Y-110747300D01*
X152198399Y-110766587D01*
X152009190Y-110823712D01*
X151964862Y-110847282D01*
X151368790Y-110251210D01*
X151344648Y-110231379D01*
X151320789Y-110211359D01*
X151319235Y-110210505D01*
X151317861Y-110209376D01*
X151290339Y-110194619D01*
X151263034Y-110179608D01*
X151261343Y-110179071D01*
X151259777Y-110178232D01*
X151229904Y-110169099D01*
X151200212Y-110159680D01*
X151198452Y-110159483D01*
X151196749Y-110158962D01*
X151165666Y-110155805D01*
X151134715Y-110152333D01*
X151131245Y-110152309D01*
X151131179Y-110152302D01*
X151131117Y-110152308D01*
X151130000Y-110152300D01*
X150546579Y-110152300D01*
X150613960Y-110116473D01*
X150776743Y-109983711D01*
X150910638Y-109821859D01*
X151010546Y-109637083D01*
X151072662Y-109436420D01*
X151094619Y-109227514D01*
X151075581Y-109018321D01*
X151016273Y-108816811D01*
X150918954Y-108630658D01*
X150787332Y-108466952D01*
X150626419Y-108331930D01*
X150545965Y-108287700D01*
X150990120Y-108287700D01*
X151485553Y-108783133D01*
X151461529Y-108827563D01*
X151403084Y-109016368D01*
X151382425Y-109212930D01*
X151400338Y-109409761D01*
X151456141Y-109599364D01*
X151547709Y-109774517D01*
X151671554Y-109928549D01*
X151822958Y-110055592D01*
X151996155Y-110150808D01*
X152184548Y-110210570D01*
X152380960Y-110232601D01*
X152395100Y-110232700D01*
X152404900Y-110232700D01*
X152601601Y-110213413D01*
X152790810Y-110156288D01*
X152965320Y-110063499D01*
X153118483Y-109938582D01*
X153244466Y-109786295D01*
X153338471Y-109612437D01*
X153396916Y-109423632D01*
X153417575Y-109227070D01*
X153399662Y-109030239D01*
X153343859Y-108840636D01*
X153252291Y-108665483D01*
X153128446Y-108511451D01*
X152977042Y-108384408D01*
X152803845Y-108289192D01*
X152615452Y-108229430D01*
X152419040Y-108207399D01*
X152404900Y-108207300D01*
X152395100Y-108207300D01*
X152198399Y-108226587D01*
X152009190Y-108283712D01*
X151964862Y-108307282D01*
X151368790Y-107711210D01*
X151344648Y-107691379D01*
X151320789Y-107671359D01*
X151319235Y-107670505D01*
X151317861Y-107669376D01*
X151290339Y-107654619D01*
X151263034Y-107639608D01*
X151261343Y-107639071D01*
X151259777Y-107638232D01*
X151229904Y-107629099D01*
X151200212Y-107619680D01*
X151198452Y-107619483D01*
X151196749Y-107618962D01*
X151165666Y-107615805D01*
X151134715Y-107612333D01*
X151131245Y-107612309D01*
X151131179Y-107612302D01*
X151131117Y-107612308D01*
X151130000Y-107612300D01*
X150546579Y-107612300D01*
X150613960Y-107576473D01*
X150776743Y-107443711D01*
X150910638Y-107281859D01*
X151010546Y-107097083D01*
X151072662Y-106896420D01*
X151094619Y-106687514D01*
X151075581Y-106478321D01*
X151039563Y-106355943D01*
X151385016Y-106701396D01*
X151400338Y-106869761D01*
X151456141Y-107059364D01*
X151547709Y-107234517D01*
X151671554Y-107388549D01*
X151822958Y-107515592D01*
X151996155Y-107610808D01*
X152184548Y-107670570D01*
X152380960Y-107692601D01*
X152395100Y-107692700D01*
X152404900Y-107692700D01*
X152601601Y-107673413D01*
X152790810Y-107616288D01*
X152965320Y-107523499D01*
X153118483Y-107398582D01*
X153244466Y-107246295D01*
X153338471Y-107072437D01*
X153396916Y-106883632D01*
X153417575Y-106687070D01*
X153399662Y-106490239D01*
X153343859Y-106300636D01*
X153252291Y-106125483D01*
X153128446Y-105971451D01*
X152977042Y-105844408D01*
X152803845Y-105749192D01*
X152615452Y-105689430D01*
X152419040Y-105667399D01*
X152404900Y-105667300D01*
X152395100Y-105667300D01*
X152198399Y-105686587D01*
X152009190Y-105743712D01*
X151834680Y-105836501D01*
X151681517Y-105961418D01*
X151644701Y-106005921D01*
X151051430Y-105412650D01*
X151489990Y-104974090D01*
X151509817Y-104949952D01*
X151529841Y-104926089D01*
X151530696Y-104924535D01*
X151531823Y-104923162D01*
X151546552Y-104895691D01*
X151561592Y-104868334D01*
X151562130Y-104866638D01*
X151562967Y-104865077D01*
X151572078Y-104835279D01*
X151581520Y-104805512D01*
X151581718Y-104803748D01*
X151582237Y-104802050D01*
X151585390Y-104771011D01*
X151588307Y-104745010D01*
X151671554Y-104848549D01*
X151822958Y-104975592D01*
X151996155Y-105070808D01*
X152184548Y-105130570D01*
X152380960Y-105152601D01*
X152395100Y-105152700D01*
X152404900Y-105152700D01*
X152601601Y-105133413D01*
X152790810Y-105076288D01*
X152965320Y-104983499D01*
X153118483Y-104858582D01*
X153244466Y-104706295D01*
X153338471Y-104532437D01*
X153396916Y-104343632D01*
X153417575Y-104147070D01*
X153399662Y-103950239D01*
X153343859Y-103760636D01*
X153252291Y-103585483D01*
X153128446Y-103431451D01*
X152977042Y-103304408D01*
X152803845Y-103209192D01*
X152615452Y-103149430D01*
X152419040Y-103127399D01*
X152404900Y-103127300D01*
X152395100Y-103127300D01*
X152198399Y-103146587D01*
X152009190Y-103203712D01*
X151834680Y-103296501D01*
X151681517Y-103421418D01*
X151562468Y-103565324D01*
X151548777Y-103539575D01*
X151534419Y-103511876D01*
X151533313Y-103510491D01*
X151532478Y-103508920D01*
X151512739Y-103484718D01*
X151493301Y-103460368D01*
X151490864Y-103457896D01*
X151490822Y-103457845D01*
X151490775Y-103457806D01*
X151489990Y-103457010D01*
X150664190Y-102631210D01*
X150640048Y-102611379D01*
X150616189Y-102591359D01*
X150614635Y-102590505D01*
X150613261Y-102589376D01*
X150585739Y-102574619D01*
X150558434Y-102559608D01*
X150556743Y-102559071D01*
X150555177Y-102558232D01*
X150525304Y-102549099D01*
X150518841Y-102547049D01*
X150613960Y-102496473D01*
X150776743Y-102363711D01*
X150910638Y-102201859D01*
X151010546Y-102017083D01*
X151072662Y-101816420D01*
X151094619Y-101607514D01*
X151075581Y-101398321D01*
X151016273Y-101196811D01*
X150918954Y-101010658D01*
X150787332Y-100846952D01*
X150626419Y-100711930D01*
X150545965Y-100667700D01*
X150990120Y-100667700D01*
X151485553Y-101163133D01*
X151461529Y-101207563D01*
X151403084Y-101396368D01*
X151382425Y-101592930D01*
X151400338Y-101789761D01*
X151456141Y-101979364D01*
X151547709Y-102154517D01*
X151671554Y-102308549D01*
X151822958Y-102435592D01*
X151996155Y-102530808D01*
X152184548Y-102590570D01*
X152380960Y-102612601D01*
X152395100Y-102612700D01*
X152404900Y-102612700D01*
X152601601Y-102593413D01*
X152790810Y-102536288D01*
X152965320Y-102443499D01*
X153118483Y-102318582D01*
X153244466Y-102166295D01*
X153338471Y-101992437D01*
X153396916Y-101803632D01*
X153417575Y-101607070D01*
X153399662Y-101410239D01*
X153343859Y-101220636D01*
X153252291Y-101045483D01*
X153128446Y-100891451D01*
X152977042Y-100764408D01*
X152803845Y-100669192D01*
X152615452Y-100609430D01*
X152419040Y-100587399D01*
X152404900Y-100587300D01*
X152395100Y-100587300D01*
X152198399Y-100606587D01*
X152009190Y-100663712D01*
X151964862Y-100687282D01*
X151368790Y-100091210D01*
X151344648Y-100071379D01*
X151320789Y-100051359D01*
X151319235Y-100050505D01*
X151317861Y-100049376D01*
X151290339Y-100034619D01*
X151263034Y-100019608D01*
X151261343Y-100019071D01*
X151259777Y-100018232D01*
X151229904Y-100009099D01*
X151200212Y-99999680D01*
X151198452Y-99999483D01*
X151196749Y-99998962D01*
X151165666Y-99995805D01*
X151134715Y-99992333D01*
X151131245Y-99992309D01*
X151131179Y-99992302D01*
X151131117Y-99992308D01*
X151130000Y-99992300D01*
X150546579Y-99992300D01*
X150613960Y-99956473D01*
X150776743Y-99823711D01*
X150910638Y-99661859D01*
X151010546Y-99477083D01*
X151072662Y-99276420D01*
X151094619Y-99067514D01*
X151093292Y-99052930D01*
X151382425Y-99052930D01*
X151400338Y-99249761D01*
X151456141Y-99439364D01*
X151547709Y-99614517D01*
X151671554Y-99768549D01*
X151822958Y-99895592D01*
X151996155Y-99990808D01*
X152184548Y-100050570D01*
X152380960Y-100072601D01*
X152395100Y-100072700D01*
X152404900Y-100072700D01*
X152601601Y-100053413D01*
X152790810Y-99996288D01*
X152965320Y-99903499D01*
X153118483Y-99778582D01*
X153244466Y-99626295D01*
X153338471Y-99452437D01*
X153396916Y-99263632D01*
X153417575Y-99067070D01*
X153399662Y-98870239D01*
X153343859Y-98680636D01*
X153252291Y-98505483D01*
X153128446Y-98351451D01*
X152977042Y-98224408D01*
X152803845Y-98129192D01*
X152615452Y-98069430D01*
X152419040Y-98047399D01*
X152404900Y-98047300D01*
X152395100Y-98047300D01*
X152198399Y-98066587D01*
X152009190Y-98123712D01*
X151834680Y-98216501D01*
X151681517Y-98341418D01*
X151555534Y-98493705D01*
X151461529Y-98667563D01*
X151403084Y-98856368D01*
X151382425Y-99052930D01*
X151093292Y-99052930D01*
X151075581Y-98858321D01*
X151016273Y-98656811D01*
X150918954Y-98470658D01*
X150787332Y-98306952D01*
X150626419Y-98171930D01*
X150442345Y-98070735D01*
X150242120Y-98007220D01*
X150033372Y-97983805D01*
X150018345Y-97983700D01*
X149701655Y-97983700D01*
X149492601Y-98004198D01*
X149291509Y-98064911D01*
X149106040Y-98163527D01*
X148943257Y-98296289D01*
X148809362Y-98458141D01*
X148709454Y-98642917D01*
X148647338Y-98843580D01*
X148625381Y-99052486D01*
X148639689Y-99209709D01*
X146900090Y-97470110D01*
X146875948Y-97450279D01*
X146852089Y-97430259D01*
X146850535Y-97429405D01*
X146849161Y-97428276D01*
X146821639Y-97413519D01*
X146794334Y-97398508D01*
X146792643Y-97397971D01*
X146791077Y-97397132D01*
X146761204Y-97387999D01*
X146731512Y-97378580D01*
X146729752Y-97378383D01*
X146728049Y-97377862D01*
X146696966Y-97374705D01*
X146666015Y-97371233D01*
X146662545Y-97371209D01*
X146662479Y-97371202D01*
X146662417Y-97371208D01*
X146661300Y-97371200D01*
X145330837Y-97371200D01*
X145345320Y-97363499D01*
X145498483Y-97238582D01*
X145624466Y-97086295D01*
X145718471Y-96912437D01*
X145776916Y-96723632D01*
X145797575Y-96527070D01*
X145779662Y-96330239D01*
X145723859Y-96140636D01*
X145632291Y-95965483D01*
X145508446Y-95811451D01*
X145357042Y-95684408D01*
X145183845Y-95589192D01*
X145117700Y-95568209D01*
X145117700Y-94932323D01*
X145170810Y-94916288D01*
X145345320Y-94823499D01*
X145498483Y-94698582D01*
X145624466Y-94546295D01*
X145718471Y-94372437D01*
X145776916Y-94183632D01*
X145797575Y-93987070D01*
X145780803Y-93802781D01*
X146966910Y-94988888D01*
X146991074Y-95008737D01*
X147014911Y-95028739D01*
X147016462Y-95029592D01*
X147017838Y-95030722D01*
X147045347Y-95045471D01*
X147072666Y-95060490D01*
X147074362Y-95061028D01*
X147075923Y-95061865D01*
X147105721Y-95070976D01*
X147135488Y-95080418D01*
X147137252Y-95080616D01*
X147138950Y-95081135D01*
X147169989Y-95084288D01*
X147200985Y-95087765D01*
X147204455Y-95087789D01*
X147204521Y-95087796D01*
X147204583Y-95087790D01*
X147205700Y-95087798D01*
X150490218Y-95087798D01*
X150845091Y-95442671D01*
X148844000Y-95442671D01*
X148810128Y-95445372D01*
X148752678Y-95463163D01*
X148702459Y-95496255D01*
X148663448Y-95542028D01*
X148638733Y-95596857D01*
X148630271Y-95656400D01*
X148630271Y-97383600D01*
X148632972Y-97417472D01*
X148650763Y-97474922D01*
X148683855Y-97525141D01*
X148729628Y-97564152D01*
X148784457Y-97588867D01*
X148844000Y-97597329D01*
X150876000Y-97597329D01*
X150909872Y-97594628D01*
X150967322Y-97576837D01*
X151017541Y-97543745D01*
X151056552Y-97497972D01*
X151081267Y-97443143D01*
X151089729Y-97383600D01*
X151089729Y-95687309D01*
X151485553Y-96083133D01*
X151461529Y-96127563D01*
X151403084Y-96316368D01*
X151382425Y-96512930D01*
X151400338Y-96709761D01*
X151456141Y-96899364D01*
X151547709Y-97074517D01*
X151671554Y-97228549D01*
X151822958Y-97355592D01*
X151996155Y-97450808D01*
X152184548Y-97510570D01*
X152380960Y-97532601D01*
X152395100Y-97532700D01*
X152404900Y-97532700D01*
X152601601Y-97513413D01*
X152790810Y-97456288D01*
X152965320Y-97363499D01*
X153118483Y-97238582D01*
X153244466Y-97086295D01*
X153338471Y-96912437D01*
X153396916Y-96723632D01*
X153417575Y-96527070D01*
X153399662Y-96330239D01*
X153343859Y-96140636D01*
X153252291Y-95965483D01*
X153128446Y-95811451D01*
X152977042Y-95684408D01*
X152803845Y-95589192D01*
X152615452Y-95529430D01*
X152419040Y-95507399D01*
X152404900Y-95507300D01*
X152395100Y-95507300D01*
X152198399Y-95526587D01*
X152009190Y-95583712D01*
X151964862Y-95607282D01*
X150868888Y-94511308D01*
X150844746Y-94491477D01*
X150820887Y-94471457D01*
X150819333Y-94470603D01*
X150817959Y-94469474D01*
X150790437Y-94454717D01*
X150763132Y-94439706D01*
X150761441Y-94439169D01*
X150759875Y-94438330D01*
X150730002Y-94429197D01*
X150700310Y-94419778D01*
X150698550Y-94419581D01*
X150696847Y-94419060D01*
X150665764Y-94415903D01*
X150634813Y-94412431D01*
X150631343Y-94412407D01*
X150631277Y-94412400D01*
X150631215Y-94412406D01*
X150630098Y-94412398D01*
X147345580Y-94412398D01*
X146906112Y-93972930D01*
X151382425Y-93972930D01*
X151400338Y-94169761D01*
X151456141Y-94359364D01*
X151547709Y-94534517D01*
X151671554Y-94688549D01*
X151822958Y-94815592D01*
X151996155Y-94910808D01*
X152184548Y-94970570D01*
X152380960Y-94992601D01*
X152395100Y-94992700D01*
X152404900Y-94992700D01*
X152601601Y-94973413D01*
X152790810Y-94916288D01*
X152965320Y-94823499D01*
X153118483Y-94698582D01*
X153244466Y-94546295D01*
X153338471Y-94372437D01*
X153396916Y-94183632D01*
X153417575Y-93987070D01*
X153399662Y-93790239D01*
X153343859Y-93600636D01*
X153252291Y-93425483D01*
X153128446Y-93271451D01*
X152977042Y-93144408D01*
X152803845Y-93049192D01*
X152615452Y-92989430D01*
X152419040Y-92967399D01*
X152404900Y-92967300D01*
X152395100Y-92967300D01*
X152198399Y-92986587D01*
X152009190Y-93043712D01*
X151834680Y-93136501D01*
X151681517Y-93261418D01*
X151555534Y-93413705D01*
X151461529Y-93587563D01*
X151403084Y-93776368D01*
X151382425Y-93972930D01*
X146906112Y-93972930D01*
X145475792Y-92542610D01*
X145451650Y-92522779D01*
X145427791Y-92502759D01*
X145426237Y-92501905D01*
X145424863Y-92500776D01*
X145397341Y-92486019D01*
X145370036Y-92471008D01*
X145368345Y-92470471D01*
X145366779Y-92469632D01*
X145336906Y-92460499D01*
X145307214Y-92451080D01*
X145305454Y-92450883D01*
X145303751Y-92450362D01*
X145272668Y-92447205D01*
X145241717Y-92443733D01*
X145238247Y-92443709D01*
X145238181Y-92443702D01*
X145238119Y-92443708D01*
X145237002Y-92443700D01*
X144168065Y-92443700D01*
X144263048Y-92367332D01*
X144398070Y-92206419D01*
X144499265Y-92022345D01*
X144562780Y-91822120D01*
X144586195Y-91613372D01*
X144586300Y-91598345D01*
X144586300Y-91281655D01*
X144973700Y-91281655D01*
X144973700Y-91598345D01*
X144994198Y-91807399D01*
X145054911Y-92008491D01*
X145153527Y-92193960D01*
X145286289Y-92356743D01*
X145448141Y-92490638D01*
X145632917Y-92590546D01*
X145833580Y-92652662D01*
X146042486Y-92674619D01*
X146251679Y-92655581D01*
X146453189Y-92596273D01*
X146639342Y-92498954D01*
X146803048Y-92367332D01*
X146938070Y-92206419D01*
X147039265Y-92022345D01*
X147079488Y-91895543D01*
X147244320Y-91895543D01*
X147329317Y-92152247D01*
X147462761Y-92387437D01*
X147639525Y-92592074D01*
X147852815Y-92758294D01*
X148094434Y-92879709D01*
X148138434Y-92900977D01*
X148348700Y-92823092D01*
X148348700Y-91681300D01*
X148831300Y-91681300D01*
X148831300Y-92823092D01*
X149041566Y-92900977D01*
X149085566Y-92879709D01*
X149327185Y-92758294D01*
X149540475Y-92592074D01*
X149717239Y-92387437D01*
X149850683Y-92152247D01*
X149935680Y-91895543D01*
X149836359Y-91681300D01*
X148831300Y-91681300D01*
X148348700Y-91681300D01*
X147343641Y-91681300D01*
X147244320Y-91895543D01*
X147079488Y-91895543D01*
X147102780Y-91822120D01*
X147126195Y-91613372D01*
X147126300Y-91598345D01*
X147126300Y-91281655D01*
X147105802Y-91072601D01*
X147079190Y-90984457D01*
X147244320Y-90984457D01*
X147343641Y-91198700D01*
X148348700Y-91198700D01*
X148348700Y-90056908D01*
X148831300Y-90056908D01*
X148831300Y-91198700D01*
X149836359Y-91198700D01*
X149935680Y-90984457D01*
X149871294Y-90790000D01*
X150266271Y-90790000D01*
X150266271Y-92090000D01*
X150268972Y-92123872D01*
X150286763Y-92181322D01*
X150319855Y-92231541D01*
X150365628Y-92270552D01*
X150420457Y-92295267D01*
X150480000Y-92303729D01*
X151780000Y-92303729D01*
X151813872Y-92301028D01*
X151871322Y-92283237D01*
X151921541Y-92250145D01*
X151960552Y-92204372D01*
X151985267Y-92149543D01*
X151993729Y-92090000D01*
X151993729Y-90790000D01*
X151991028Y-90756128D01*
X151973237Y-90698678D01*
X151940145Y-90648459D01*
X151894372Y-90609448D01*
X151839543Y-90584733D01*
X151780000Y-90576271D01*
X150480000Y-90576271D01*
X150446128Y-90578972D01*
X150388678Y-90596763D01*
X150338459Y-90629855D01*
X150299448Y-90675628D01*
X150274733Y-90730457D01*
X150266271Y-90790000D01*
X149871294Y-90790000D01*
X149850683Y-90727753D01*
X149717239Y-90492563D01*
X149540475Y-90287926D01*
X149327185Y-90121706D01*
X149085566Y-90000291D01*
X149041566Y-89979023D01*
X148831300Y-90056908D01*
X148348700Y-90056908D01*
X148138434Y-89979023D01*
X148094434Y-90000291D01*
X147852815Y-90121706D01*
X147639525Y-90287926D01*
X147462761Y-90492563D01*
X147329317Y-90727753D01*
X147244320Y-90984457D01*
X147079190Y-90984457D01*
X147045089Y-90871509D01*
X146946473Y-90686040D01*
X146813711Y-90523257D01*
X146651859Y-90389362D01*
X146467083Y-90289454D01*
X146266420Y-90227338D01*
X146057514Y-90205381D01*
X145848321Y-90224419D01*
X145646811Y-90283727D01*
X145460658Y-90381046D01*
X145296952Y-90512668D01*
X145161930Y-90673581D01*
X145060735Y-90857655D01*
X144997220Y-91057880D01*
X144973805Y-91266628D01*
X144973700Y-91281655D01*
X144586300Y-91281655D01*
X144565802Y-91072601D01*
X144505089Y-90871509D01*
X144406473Y-90686040D01*
X144273711Y-90523257D01*
X144111859Y-90389362D01*
X143927083Y-90289454D01*
X143726420Y-90227338D01*
X143517514Y-90205381D01*
X143308321Y-90224419D01*
X143106811Y-90283727D01*
X142920658Y-90381046D01*
X142756952Y-90512668D01*
X142621930Y-90673581D01*
X142520735Y-90857655D01*
X142457220Y-91057880D01*
X142433805Y-91266628D01*
X142433700Y-91281655D01*
X142433700Y-91598345D01*
X142454198Y-91807399D01*
X142514911Y-92008491D01*
X142613527Y-92193960D01*
X142746289Y-92356743D01*
X142851402Y-92443700D01*
X142451280Y-92443700D01*
X141976282Y-91968702D01*
X142022780Y-91822120D01*
X142046195Y-91613372D01*
X142046300Y-91598345D01*
X142046300Y-91281655D01*
X142025802Y-91072601D01*
X141965089Y-90871509D01*
X141866473Y-90686040D01*
X141733711Y-90523257D01*
X141571859Y-90389362D01*
X141387083Y-90289454D01*
X141186420Y-90227338D01*
X140977514Y-90205381D01*
X140768321Y-90224419D01*
X140566811Y-90283727D01*
X140380658Y-90381046D01*
X140216952Y-90512668D01*
X140081930Y-90673581D01*
X139980735Y-90857655D01*
X139917220Y-91057880D01*
X139893805Y-91266628D01*
X139893700Y-91281655D01*
X139893700Y-91598345D01*
X139914198Y-91807399D01*
X139974911Y-92008491D01*
X140073527Y-92193960D01*
X140206289Y-92356743D01*
X140368141Y-92490638D01*
X140552917Y-92590546D01*
X140753580Y-92652662D01*
X140962486Y-92674619D01*
X141171679Y-92655581D01*
X141373189Y-92596273D01*
X141554110Y-92501690D01*
X142072610Y-93020190D01*
X142096752Y-93040021D01*
X142120611Y-93060041D01*
X142122165Y-93060895D01*
X142123539Y-93062024D01*
X142151061Y-93076781D01*
X142178366Y-93091792D01*
X142180057Y-93092329D01*
X142181623Y-93093168D01*
X142211508Y-93102305D01*
X142241188Y-93111720D01*
X142242947Y-93111917D01*
X142244650Y-93112438D01*
X142275739Y-93115596D01*
X142306685Y-93119067D01*
X142310155Y-93119091D01*
X142310221Y-93119098D01*
X142310283Y-93119092D01*
X142311400Y-93119100D01*
X144247406Y-93119100D01*
X144214680Y-93136501D01*
X144061517Y-93261418D01*
X143935534Y-93413705D01*
X143841529Y-93587563D01*
X143783084Y-93776368D01*
X143762425Y-93972930D01*
X143780338Y-94169761D01*
X143836141Y-94359364D01*
X143927709Y-94534517D01*
X144051554Y-94688549D01*
X144202958Y-94815592D01*
X144376155Y-94910808D01*
X144442300Y-94931791D01*
X144442300Y-95567677D01*
X144389190Y-95583712D01*
X144214680Y-95676501D01*
X144061517Y-95801418D01*
X143935534Y-95953705D01*
X143841529Y-96127563D01*
X143783084Y-96316368D01*
X143762425Y-96512930D01*
X143780338Y-96709761D01*
X143836141Y-96899364D01*
X143927709Y-97074517D01*
X144051554Y-97228549D01*
X144202958Y-97355592D01*
X144231349Y-97371200D01*
X143568780Y-97371200D01*
X143469729Y-97272149D01*
X143469729Y-95656400D01*
X143467028Y-95622528D01*
X143449237Y-95565078D01*
X143416145Y-95514859D01*
X143370372Y-95475848D01*
X143315543Y-95451133D01*
X143256000Y-95442671D01*
X141224000Y-95442671D01*
X141190128Y-95445372D01*
X141132678Y-95463163D01*
X141082459Y-95496255D01*
X141043448Y-95542028D01*
X141018733Y-95596857D01*
X141010271Y-95656400D01*
X141010271Y-97383600D01*
X141012972Y-97417472D01*
X141030763Y-97474922D01*
X141063855Y-97525141D01*
X141109628Y-97564152D01*
X141164457Y-97588867D01*
X141224000Y-97597329D01*
X142839749Y-97597329D01*
X143190110Y-97947690D01*
X143214252Y-97967521D01*
X143238111Y-97987541D01*
X143239665Y-97988395D01*
X143241039Y-97989524D01*
X143268543Y-98004271D01*
X143295866Y-98019292D01*
X143297560Y-98019829D01*
X143299124Y-98020668D01*
X143328982Y-98029797D01*
X143358688Y-98039220D01*
X143360449Y-98039417D01*
X143362151Y-98039938D01*
X143393229Y-98043095D01*
X143424185Y-98046567D01*
X143427656Y-98046591D01*
X143427722Y-98046598D01*
X143427784Y-98046592D01*
X143428900Y-98046600D01*
X146521420Y-98046600D01*
X149043610Y-100568790D01*
X149067752Y-100588621D01*
X149091611Y-100608641D01*
X149093165Y-100609495D01*
X149094539Y-100610624D01*
X149122061Y-100625381D01*
X149149366Y-100640392D01*
X149151057Y-100640929D01*
X149152623Y-100641768D01*
X149182508Y-100650905D01*
X149196600Y-100655375D01*
X149106040Y-100703527D01*
X148943257Y-100836289D01*
X148809362Y-100998141D01*
X148709454Y-101182917D01*
X148647338Y-101383580D01*
X148625381Y-101592486D01*
X148644419Y-101801679D01*
X148703727Y-102003189D01*
X148801046Y-102189342D01*
X148932668Y-102353048D01*
X149093581Y-102488070D01*
X149174035Y-102532300D01*
X148250380Y-102532300D01*
X146957152Y-101239072D01*
X146957588Y-101239168D01*
X147136245Y-101242910D01*
X147312225Y-101211880D01*
X147478828Y-101147260D01*
X147629705Y-101051510D01*
X147759111Y-100928278D01*
X147862117Y-100782258D01*
X147934799Y-100619011D01*
X147974389Y-100444756D01*
X147977239Y-100240652D01*
X147942530Y-100065360D01*
X147874435Y-99900148D01*
X147775546Y-99751308D01*
X147649631Y-99624511D01*
X147501486Y-99524586D01*
X147336753Y-99455339D01*
X147161707Y-99419407D01*
X146983016Y-99418159D01*
X146807486Y-99451643D01*
X146641802Y-99518584D01*
X146492276Y-99616431D01*
X146364603Y-99741458D01*
X146263646Y-99888902D01*
X146193250Y-100053147D01*
X146156097Y-100227938D01*
X146153602Y-100406616D01*
X146160100Y-100442020D01*
X145728190Y-100010110D01*
X145704048Y-99990279D01*
X145680189Y-99970259D01*
X145678635Y-99969405D01*
X145677261Y-99968276D01*
X145649739Y-99953519D01*
X145622434Y-99938508D01*
X145620743Y-99937971D01*
X145619177Y-99937132D01*
X145589304Y-99927999D01*
X145559612Y-99918580D01*
X145557852Y-99918383D01*
X145556149Y-99917862D01*
X145525066Y-99914705D01*
X145494115Y-99911233D01*
X145490645Y-99911209D01*
X145490579Y-99911202D01*
X145490517Y-99911208D01*
X145489400Y-99911200D01*
X145330837Y-99911200D01*
X145345320Y-99903499D01*
X145498483Y-99778582D01*
X145624466Y-99626295D01*
X145718471Y-99452437D01*
X145776916Y-99263632D01*
X145797575Y-99067070D01*
X145779662Y-98870239D01*
X145723859Y-98680636D01*
X145632291Y-98505483D01*
X145508446Y-98351451D01*
X145357042Y-98224408D01*
X145183845Y-98129192D01*
X144995452Y-98069430D01*
X144799040Y-98047399D01*
X144784900Y-98047300D01*
X144775100Y-98047300D01*
X144578399Y-98066587D01*
X144389190Y-98123712D01*
X144214680Y-98216501D01*
X144061517Y-98341418D01*
X143935534Y-98493705D01*
X143841529Y-98667563D01*
X143783084Y-98856368D01*
X143762425Y-99052930D01*
X143780338Y-99249761D01*
X143836141Y-99439364D01*
X143927709Y-99614517D01*
X144051554Y-99768549D01*
X144202958Y-99895592D01*
X144231349Y-99911200D01*
X143568780Y-99911200D01*
X143300746Y-99643166D01*
X143390546Y-99477083D01*
X143452662Y-99276420D01*
X143474619Y-99067514D01*
X143455581Y-98858321D01*
X143396273Y-98656811D01*
X143298954Y-98470658D01*
X143167332Y-98306952D01*
X143006419Y-98171930D01*
X142822345Y-98070735D01*
X142622120Y-98007220D01*
X142413372Y-97983805D01*
X142398345Y-97983700D01*
X142081655Y-97983700D01*
X141872601Y-98004198D01*
X141671509Y-98064911D01*
X141486040Y-98163527D01*
X141323257Y-98296289D01*
X141189362Y-98458141D01*
X141089454Y-98642917D01*
X141027338Y-98843580D01*
X141005381Y-99052486D01*
X141024419Y-99261679D01*
X141083727Y-99463189D01*
X141181046Y-99649342D01*
X141312668Y-99813048D01*
X141473581Y-99948070D01*
X141657655Y-100049265D01*
X141857880Y-100112780D01*
X142066628Y-100136195D01*
X142081655Y-100136300D01*
X142398345Y-100136300D01*
X142607399Y-100115802D01*
X142769332Y-100066912D01*
X143190110Y-100487690D01*
X143214252Y-100507521D01*
X143238111Y-100527541D01*
X143239665Y-100528395D01*
X143241039Y-100529524D01*
X143268543Y-100544271D01*
X143295866Y-100559292D01*
X143297560Y-100559829D01*
X143299124Y-100560668D01*
X143328982Y-100569797D01*
X143358688Y-100579220D01*
X143360449Y-100579417D01*
X143362151Y-100579938D01*
X143393229Y-100583095D01*
X143424185Y-100586567D01*
X143427656Y-100586591D01*
X143427722Y-100586598D01*
X143427784Y-100586592D01*
X143428900Y-100586600D01*
X145349520Y-100586600D01*
X147871710Y-103108790D01*
X147895852Y-103128621D01*
X147919711Y-103148641D01*
X147921265Y-103149495D01*
X147922639Y-103150624D01*
X147950161Y-103165381D01*
X147977466Y-103180392D01*
X147979157Y-103180929D01*
X147980723Y-103181768D01*
X148010608Y-103190905D01*
X148040288Y-103200320D01*
X148042047Y-103200517D01*
X148043750Y-103201038D01*
X148074839Y-103204196D01*
X148105785Y-103207667D01*
X148109255Y-103207691D01*
X148109321Y-103207698D01*
X148109383Y-103207692D01*
X148110500Y-103207700D01*
X149173421Y-103207700D01*
X149106040Y-103243527D01*
X148943257Y-103376289D01*
X148809362Y-103538141D01*
X148709454Y-103722917D01*
X148684881Y-103802300D01*
X146864880Y-103802300D01*
X145621390Y-102558810D01*
X145597227Y-102538962D01*
X145573389Y-102518959D01*
X145571835Y-102518105D01*
X145570461Y-102516976D01*
X145542939Y-102502219D01*
X145515634Y-102487208D01*
X145513943Y-102486671D01*
X145512377Y-102485832D01*
X145482504Y-102476699D01*
X145452812Y-102467280D01*
X145451052Y-102467083D01*
X145449349Y-102466562D01*
X145418266Y-102463405D01*
X145387315Y-102459933D01*
X145383845Y-102459909D01*
X145383779Y-102459902D01*
X145383717Y-102459908D01*
X145382600Y-102459900D01*
X145314474Y-102459900D01*
X145345320Y-102443499D01*
X145498483Y-102318582D01*
X145624466Y-102166295D01*
X145718471Y-101992437D01*
X145776916Y-101803632D01*
X145797575Y-101607070D01*
X145779662Y-101410239D01*
X145723859Y-101220636D01*
X145632291Y-101045483D01*
X145508446Y-100891451D01*
X145357042Y-100764408D01*
X145183845Y-100669192D01*
X144995452Y-100609430D01*
X144799040Y-100587399D01*
X144784900Y-100587300D01*
X144775100Y-100587300D01*
X144578399Y-100606587D01*
X144389190Y-100663712D01*
X144214680Y-100756501D01*
X144061517Y-100881418D01*
X143935534Y-101033705D01*
X143841529Y-101207563D01*
X143824585Y-101262300D01*
X143415548Y-101262300D01*
X143396273Y-101196811D01*
X143298954Y-101010658D01*
X143167332Y-100846952D01*
X143006419Y-100711930D01*
X142822345Y-100610735D01*
X142622120Y-100547220D01*
X142413372Y-100523805D01*
X142398345Y-100523700D01*
X142081655Y-100523700D01*
X141872601Y-100544198D01*
X141671509Y-100604911D01*
X141486040Y-100703527D01*
X141323257Y-100836289D01*
X141189362Y-100998141D01*
X141170260Y-101033470D01*
X141162450Y-101006589D01*
X141161631Y-101005009D01*
X141161119Y-101003313D01*
X141146477Y-100975775D01*
X141132119Y-100948076D01*
X141131013Y-100946691D01*
X141130178Y-100945120D01*
X141110459Y-100920942D01*
X141091001Y-100896567D01*
X141088562Y-100894094D01*
X141088522Y-100894045D01*
X141088476Y-100894007D01*
X141087690Y-100893210D01*
X140156069Y-99961589D01*
X140265320Y-99903499D01*
X140418483Y-99778582D01*
X140544466Y-99626295D01*
X140638471Y-99452437D01*
X140696916Y-99263632D01*
X140717575Y-99067070D01*
X140699662Y-98870239D01*
X140643859Y-98680636D01*
X140552291Y-98505483D01*
X140428446Y-98351451D01*
X140277042Y-98224408D01*
X140103845Y-98129192D01*
X139915452Y-98069430D01*
X139719040Y-98047399D01*
X139704900Y-98047300D01*
X139695100Y-98047300D01*
X139498399Y-98066587D01*
X139309190Y-98123712D01*
X139134680Y-98216501D01*
X138981517Y-98341418D01*
X138855534Y-98493705D01*
X138761529Y-98667563D01*
X138703084Y-98856368D01*
X138682425Y-99052930D01*
X138700338Y-99249761D01*
X138736037Y-99371057D01*
X138186190Y-98821210D01*
X138162048Y-98801379D01*
X138138189Y-98781359D01*
X138136635Y-98780505D01*
X138135261Y-98779376D01*
X138107739Y-98764619D01*
X138080434Y-98749608D01*
X138078743Y-98749071D01*
X138077177Y-98748232D01*
X138047304Y-98739099D01*
X138017612Y-98729680D01*
X138015852Y-98729483D01*
X138014149Y-98728962D01*
X137983066Y-98725805D01*
X137952115Y-98722333D01*
X137948645Y-98722309D01*
X137948579Y-98722302D01*
X137948517Y-98722308D01*
X137947400Y-98722300D01*
X133036121Y-98722300D01*
X133023859Y-98680636D01*
X132932291Y-98505483D01*
X132808446Y-98351451D01*
X132657042Y-98224408D01*
X132483845Y-98129192D01*
X132295452Y-98069430D01*
X132099040Y-98047399D01*
X132084900Y-98047300D01*
X132075100Y-98047300D01*
X131878399Y-98066587D01*
X131689190Y-98123712D01*
X131514680Y-98216501D01*
X131361517Y-98341418D01*
X131235534Y-98493705D01*
X131141529Y-98667563D01*
X131083084Y-98856368D01*
X131062425Y-99052930D01*
X130973900Y-99052930D01*
X130973900Y-96512930D01*
X131062425Y-96512930D01*
X131080338Y-96709761D01*
X131136141Y-96899364D01*
X131227709Y-97074517D01*
X131351554Y-97228549D01*
X131502958Y-97355592D01*
X131676155Y-97450808D01*
X131864548Y-97510570D01*
X132060960Y-97532601D01*
X132075100Y-97532700D01*
X132084900Y-97532700D01*
X132281601Y-97513413D01*
X132470810Y-97456288D01*
X132645320Y-97363499D01*
X132798483Y-97238582D01*
X132924466Y-97086295D01*
X133018471Y-96912437D01*
X133076916Y-96723632D01*
X133097575Y-96527070D01*
X133096289Y-96512930D01*
X138682425Y-96512930D01*
X138700338Y-96709761D01*
X138756141Y-96899364D01*
X138847709Y-97074517D01*
X138971554Y-97228549D01*
X139122958Y-97355592D01*
X139296155Y-97450808D01*
X139484548Y-97510570D01*
X139680960Y-97532601D01*
X139695100Y-97532700D01*
X139704900Y-97532700D01*
X139901601Y-97513413D01*
X140090810Y-97456288D01*
X140265320Y-97363499D01*
X140418483Y-97238582D01*
X140544466Y-97086295D01*
X140638471Y-96912437D01*
X140696916Y-96723632D01*
X140717575Y-96527070D01*
X140699662Y-96330239D01*
X140643859Y-96140636D01*
X140552291Y-95965483D01*
X140428446Y-95811451D01*
X140277042Y-95684408D01*
X140103845Y-95589192D01*
X139915452Y-95529430D01*
X139719040Y-95507399D01*
X139704900Y-95507300D01*
X139695100Y-95507300D01*
X139498399Y-95526587D01*
X139309190Y-95583712D01*
X139134680Y-95676501D01*
X138981517Y-95801418D01*
X138855534Y-95953705D01*
X138761529Y-96127563D01*
X138703084Y-96316368D01*
X138682425Y-96512930D01*
X133096289Y-96512930D01*
X133079662Y-96330239D01*
X133023859Y-96140636D01*
X132932291Y-95965483D01*
X132808446Y-95811451D01*
X132657042Y-95684408D01*
X132483845Y-95589192D01*
X132295452Y-95529430D01*
X132099040Y-95507399D01*
X132084900Y-95507300D01*
X132075100Y-95507300D01*
X131878399Y-95526587D01*
X131689190Y-95583712D01*
X131514680Y-95676501D01*
X131361517Y-95801418D01*
X131235534Y-95953705D01*
X131141529Y-96127563D01*
X131083084Y-96316368D01*
X131062425Y-96512930D01*
X130973900Y-96512930D01*
X130973900Y-93972930D01*
X131062425Y-93972930D01*
X131080338Y-94169761D01*
X131136141Y-94359364D01*
X131227709Y-94534517D01*
X131351554Y-94688549D01*
X131502958Y-94815592D01*
X131676155Y-94910808D01*
X131864548Y-94970570D01*
X132060960Y-94992601D01*
X132075100Y-94992700D01*
X132084900Y-94992700D01*
X132281601Y-94973413D01*
X132470810Y-94916288D01*
X132645320Y-94823499D01*
X132798483Y-94698582D01*
X132924466Y-94546295D01*
X133018471Y-94372437D01*
X133035415Y-94317700D01*
X135890000Y-94317700D01*
X135921096Y-94314651D01*
X135952121Y-94311937D01*
X135953823Y-94311443D01*
X135955593Y-94311269D01*
X135985450Y-94302254D01*
X136015411Y-94293550D01*
X136016991Y-94292731D01*
X136018687Y-94292219D01*
X136046225Y-94277577D01*
X136073924Y-94263219D01*
X136075309Y-94262113D01*
X136076880Y-94261278D01*
X136101058Y-94241559D01*
X136125433Y-94222101D01*
X136127906Y-94219662D01*
X136127955Y-94219622D01*
X136127993Y-94219576D01*
X136128790Y-94218790D01*
X136374650Y-93972930D01*
X138682425Y-93972930D01*
X138700338Y-94169761D01*
X138756141Y-94359364D01*
X138847709Y-94534517D01*
X138971554Y-94688549D01*
X139122958Y-94815592D01*
X139296155Y-94910808D01*
X139484548Y-94970570D01*
X139680960Y-94992601D01*
X139695100Y-94992700D01*
X139704900Y-94992700D01*
X139901601Y-94973413D01*
X140090810Y-94916288D01*
X140265320Y-94823499D01*
X140418483Y-94698582D01*
X140544466Y-94546295D01*
X140638471Y-94372437D01*
X140696916Y-94183632D01*
X140717575Y-93987070D01*
X140699662Y-93790239D01*
X140643859Y-93600636D01*
X140552291Y-93425483D01*
X140428446Y-93271451D01*
X140277042Y-93144408D01*
X140103845Y-93049192D01*
X139915452Y-92989430D01*
X139719040Y-92967399D01*
X139704900Y-92967300D01*
X139695100Y-92967300D01*
X139498399Y-92986587D01*
X139309190Y-93043712D01*
X139134680Y-93136501D01*
X138981517Y-93261418D01*
X138855534Y-93413705D01*
X138761529Y-93587563D01*
X138703084Y-93776368D01*
X138682425Y-93972930D01*
X136374650Y-93972930D01*
X137846834Y-92500746D01*
X138012917Y-92590546D01*
X138213580Y-92652662D01*
X138422486Y-92674619D01*
X138631679Y-92655581D01*
X138833189Y-92596273D01*
X139019342Y-92498954D01*
X139183048Y-92367332D01*
X139318070Y-92206419D01*
X139419265Y-92022345D01*
X139482780Y-91822120D01*
X139506195Y-91613372D01*
X139506300Y-91598345D01*
X139506300Y-91281655D01*
X139485802Y-91072601D01*
X139425089Y-90871509D01*
X139326473Y-90686040D01*
X139193711Y-90523257D01*
X139031859Y-90389362D01*
X138847083Y-90289454D01*
X138646420Y-90227338D01*
X138437514Y-90205381D01*
X138228321Y-90224419D01*
X138026811Y-90283727D01*
X137840658Y-90381046D01*
X137676952Y-90512668D01*
X137541930Y-90673581D01*
X137440735Y-90857655D01*
X137377220Y-91057880D01*
X137353805Y-91266628D01*
X137353700Y-91281655D01*
X137353700Y-91598345D01*
X137374198Y-91807399D01*
X137423088Y-91969332D01*
X136967329Y-92425091D01*
X136967329Y-90424000D01*
X136964628Y-90390128D01*
X136946837Y-90332678D01*
X136913745Y-90282459D01*
X136867972Y-90243448D01*
X136813143Y-90218733D01*
X136753600Y-90210271D01*
X135026400Y-90210271D01*
X134992528Y-90212972D01*
X134935078Y-90230763D01*
X134884859Y-90263855D01*
X134845848Y-90309628D01*
X134821133Y-90364457D01*
X134812671Y-90424000D01*
X134812671Y-92456000D01*
X134815372Y-92489872D01*
X134833163Y-92547322D01*
X134866255Y-92597541D01*
X134912028Y-92636552D01*
X134966857Y-92661267D01*
X135026400Y-92669729D01*
X136722691Y-92669729D01*
X135750120Y-93642300D01*
X133036121Y-93642300D01*
X133023859Y-93600636D01*
X132932291Y-93425483D01*
X132808446Y-93271451D01*
X132657042Y-93144408D01*
X132483845Y-93049192D01*
X132295452Y-92989430D01*
X132099040Y-92967399D01*
X132084900Y-92967300D01*
X132075100Y-92967300D01*
X131878399Y-92986587D01*
X131689190Y-93043712D01*
X131514680Y-93136501D01*
X131361517Y-93261418D01*
X131235534Y-93413705D01*
X131141529Y-93587563D01*
X131083084Y-93776368D01*
X131062425Y-93972930D01*
X130973900Y-93972930D01*
X130973900Y-90790000D01*
X132486271Y-90790000D01*
X132486271Y-92090000D01*
X132488972Y-92123872D01*
X132506763Y-92181322D01*
X132539855Y-92231541D01*
X132585628Y-92270552D01*
X132640457Y-92295267D01*
X132700000Y-92303729D01*
X134000000Y-92303729D01*
X134033872Y-92301028D01*
X134091322Y-92283237D01*
X134141541Y-92250145D01*
X134180552Y-92204372D01*
X134205267Y-92149543D01*
X134213729Y-92090000D01*
X134213729Y-90790000D01*
X134211028Y-90756128D01*
X134193237Y-90698678D01*
X134160145Y-90648459D01*
X134114372Y-90609448D01*
X134059543Y-90584733D01*
X134000000Y-90576271D01*
X132700000Y-90576271D01*
X132666128Y-90578972D01*
X132608678Y-90596763D01*
X132558459Y-90629855D01*
X132519448Y-90675628D01*
X132494733Y-90730457D01*
X132486271Y-90790000D01*
X130973900Y-90790000D01*
X130973900Y-89830447D01*
X132800803Y-89830447D01*
X132868469Y-90013295D01*
X133087111Y-90086614D01*
X133315855Y-90115869D01*
X133545912Y-90099937D01*
X133768440Y-90039428D01*
X133831531Y-90013295D01*
X133899197Y-89830447D01*
X150580803Y-89830447D01*
X150648469Y-90013295D01*
X150867111Y-90086614D01*
X151095855Y-90115869D01*
X151325912Y-90099937D01*
X151548440Y-90039428D01*
X151611531Y-90013295D01*
X151679197Y-89830447D01*
X151130000Y-89281250D01*
X150580803Y-89830447D01*
X133899197Y-89830447D01*
X133350000Y-89281250D01*
X132800803Y-89830447D01*
X130973900Y-89830447D01*
X130973900Y-88908019D01*
X130974112Y-88905855D01*
X132174131Y-88905855D01*
X132190063Y-89135912D01*
X132250572Y-89358440D01*
X132276705Y-89421531D01*
X132459553Y-89489197D01*
X133008750Y-88940000D01*
X133691250Y-88940000D01*
X134240447Y-89489197D01*
X134423295Y-89421531D01*
X134496614Y-89202889D01*
X134525869Y-88974145D01*
X134521140Y-88905855D01*
X149954131Y-88905855D01*
X149970063Y-89135912D01*
X150030572Y-89358440D01*
X150056705Y-89421531D01*
X150239553Y-89489197D01*
X150788750Y-88940000D01*
X151471250Y-88940000D01*
X152020447Y-89489197D01*
X152203295Y-89421531D01*
X152276614Y-89202889D01*
X152305869Y-88974145D01*
X152289937Y-88744088D01*
X152229428Y-88521560D01*
X152203295Y-88458469D01*
X152020447Y-88390803D01*
X151471250Y-88940000D01*
X150788750Y-88940000D01*
X150239553Y-88390803D01*
X150056705Y-88458469D01*
X149983386Y-88677111D01*
X149954131Y-88905855D01*
X134521140Y-88905855D01*
X134509937Y-88744088D01*
X134449428Y-88521560D01*
X134423295Y-88458469D01*
X134240447Y-88390803D01*
X133691250Y-88940000D01*
X133008750Y-88940000D01*
X132459553Y-88390803D01*
X132276705Y-88458469D01*
X132203386Y-88677111D01*
X132174131Y-88905855D01*
X130974112Y-88905855D01*
X130995737Y-88685311D01*
X131058088Y-88478794D01*
X131159360Y-88288330D01*
X131295701Y-88121159D01*
X131461914Y-87983655D01*
X131651674Y-87881052D01*
X131857747Y-87817261D01*
X132080008Y-87793901D01*
X132080287Y-87793900D01*
X133103201Y-87793900D01*
X132931560Y-87840572D01*
G36*
X147871710Y-110728790D02*
X147895852Y-110748621D01*
X147919711Y-110768641D01*
X147921265Y-110769495D01*
X147922639Y-110770624D01*
X147950161Y-110785381D01*
X147977466Y-110800392D01*
X147979157Y-110800929D01*
X147980723Y-110801768D01*
X148010608Y-110810905D01*
X148040288Y-110820320D01*
X148042047Y-110820517D01*
X148043750Y-110821038D01*
X148074839Y-110824196D01*
X148105785Y-110827667D01*
X148109255Y-110827691D01*
X148109321Y-110827698D01*
X148109383Y-110827692D01*
X148110500Y-110827700D01*
X149173421Y-110827700D01*
X149106040Y-110863527D01*
X148943257Y-110996289D01*
X148809362Y-111158141D01*
X148709454Y-111342917D01*
X148684881Y-111422300D01*
X146864880Y-111422300D01*
X145652362Y-110209782D01*
X145664195Y-110201058D01*
X145838600Y-110009709D01*
X145972324Y-109788012D01*
X146024735Y-109661454D01*
X145945815Y-109461300D01*
X145021300Y-109461300D01*
X145021300Y-109481300D01*
X144538700Y-109481300D01*
X144538700Y-109461300D01*
X144518700Y-109461300D01*
X144518700Y-108978700D01*
X144538700Y-108978700D01*
X144538700Y-108958700D01*
X145021300Y-108958700D01*
X145021300Y-108978700D01*
X145945815Y-108978700D01*
X145995531Y-108852611D01*
X147871710Y-110728790D01*
X147871710Y-110728790D01*
G37*
X147871710Y-110728790D02*
X147895852Y-110748621D01*
X147919711Y-110768641D01*
X147921265Y-110769495D01*
X147922639Y-110770624D01*
X147950161Y-110785381D01*
X147977466Y-110800392D01*
X147979157Y-110800929D01*
X147980723Y-110801768D01*
X148010608Y-110810905D01*
X148040288Y-110820320D01*
X148042047Y-110820517D01*
X148043750Y-110821038D01*
X148074839Y-110824196D01*
X148105785Y-110827667D01*
X148109255Y-110827691D01*
X148109321Y-110827698D01*
X148109383Y-110827692D01*
X148110500Y-110827700D01*
X149173421Y-110827700D01*
X149106040Y-110863527D01*
X148943257Y-110996289D01*
X148809362Y-111158141D01*
X148709454Y-111342917D01*
X148684881Y-111422300D01*
X146864880Y-111422300D01*
X145652362Y-110209782D01*
X145664195Y-110201058D01*
X145838600Y-110009709D01*
X145972324Y-109788012D01*
X146024735Y-109661454D01*
X145945815Y-109461300D01*
X145021300Y-109461300D01*
X145021300Y-109481300D01*
X144538700Y-109481300D01*
X144538700Y-109461300D01*
X144518700Y-109461300D01*
X144518700Y-108978700D01*
X144538700Y-108978700D01*
X144538700Y-108958700D01*
X145021300Y-108958700D01*
X145021300Y-108978700D01*
X145945815Y-108978700D01*
X145995531Y-108852611D01*
X147871710Y-110728790D01*
G36*
X148943257Y-105916289D02*
X148809362Y-106078141D01*
X148709454Y-106262917D01*
X148647338Y-106463580D01*
X148625381Y-106672486D01*
X148644419Y-106881679D01*
X148703727Y-107083189D01*
X148801046Y-107269342D01*
X148932668Y-107433048D01*
X149093581Y-107568070D01*
X149174035Y-107612300D01*
X147912417Y-107612300D01*
X147874435Y-107520148D01*
X147775546Y-107371308D01*
X147649631Y-107244511D01*
X147501486Y-107144586D01*
X147336753Y-107075339D01*
X147161707Y-107039407D01*
X146983016Y-107038159D01*
X146807486Y-107071643D01*
X146641802Y-107138584D01*
X146492276Y-107236431D01*
X146364603Y-107361458D01*
X146263646Y-107508902D01*
X146193250Y-107673147D01*
X146156097Y-107847938D01*
X146153602Y-108026616D01*
X146160100Y-108062020D01*
X145728190Y-107630110D01*
X145707725Y-107613299D01*
X145838600Y-107469709D01*
X145972324Y-107248012D01*
X146024735Y-107121454D01*
X145945815Y-106921300D01*
X145021300Y-106921300D01*
X145021300Y-106941300D01*
X144538700Y-106941300D01*
X144538700Y-106921300D01*
X144518700Y-106921300D01*
X144518700Y-106438700D01*
X144538700Y-106438700D01*
X144538700Y-106418700D01*
X145021300Y-106418700D01*
X145021300Y-106438700D01*
X145945815Y-106438700D01*
X146024735Y-106238546D01*
X145972324Y-106111988D01*
X145838600Y-105890291D01*
X145776903Y-105822600D01*
X149058132Y-105822600D01*
X148943257Y-105916289D01*
X148943257Y-105916289D01*
G37*
X148943257Y-105916289D02*
X148809362Y-106078141D01*
X148709454Y-106262917D01*
X148647338Y-106463580D01*
X148625381Y-106672486D01*
X148644419Y-106881679D01*
X148703727Y-107083189D01*
X148801046Y-107269342D01*
X148932668Y-107433048D01*
X149093581Y-107568070D01*
X149174035Y-107612300D01*
X147912417Y-107612300D01*
X147874435Y-107520148D01*
X147775546Y-107371308D01*
X147649631Y-107244511D01*
X147501486Y-107144586D01*
X147336753Y-107075339D01*
X147161707Y-107039407D01*
X146983016Y-107038159D01*
X146807486Y-107071643D01*
X146641802Y-107138584D01*
X146492276Y-107236431D01*
X146364603Y-107361458D01*
X146263646Y-107508902D01*
X146193250Y-107673147D01*
X146156097Y-107847938D01*
X146153602Y-108026616D01*
X146160100Y-108062020D01*
X145728190Y-107630110D01*
X145707725Y-107613299D01*
X145838600Y-107469709D01*
X145972324Y-107248012D01*
X146024735Y-107121454D01*
X145945815Y-106921300D01*
X145021300Y-106921300D01*
X145021300Y-106941300D01*
X144538700Y-106941300D01*
X144538700Y-106921300D01*
X144518700Y-106921300D01*
X144518700Y-106438700D01*
X144538700Y-106438700D01*
X144538700Y-106418700D01*
X145021300Y-106418700D01*
X145021300Y-106438700D01*
X145945815Y-106438700D01*
X146024735Y-106238546D01*
X145972324Y-106111988D01*
X145838600Y-105890291D01*
X145776903Y-105822600D01*
X149058132Y-105822600D01*
X148943257Y-105916289D01*
M02*
