%TF.GenerationSoftware,KiCad,Pcbnew,4.0.4-stable*%
%TF.CreationDate,2016-11-09T11:25:40+01:00*%
%TF.ProjectId,potmux,706F746D75782E6B696361645F706362,1*%
%TF.FileFunction,Copper,L1,Top,Signal*%
%FSLAX46Y46*%
G04 Gerber Fmt 4.6, Leading zero omitted, Abs format (unit mm)*
G04 Created by KiCad (PCBNEW 4.0.4-stable) date 11/09/16 11:25:40*
%MOMM*%
%LPD*%
G01*
G04 APERTURE LIST*
%ADD10C,0.100000*%
%ADD11R,1.300000X1.300000*%
%ADD12C,1.300000*%
%ADD13R,2.032000X1.727200*%
%ADD14O,2.032000X1.727200*%
%ADD15C,1.397000*%
%ADD16O,1.600000X1.600000*%
%ADD17R,1.727200X2.032000*%
%ADD18O,1.727200X2.032000*%
%ADD19C,0.600000*%
%ADD20C,0.381000*%
%ADD21C,0.250000*%
%ADD22C,0.025400*%
G04 APERTURE END LIST*
D10*
D11*
X151130000Y-91440000D03*
D12*
X151130000Y-88940000D03*
D11*
X133350000Y-91440000D03*
D12*
X133350000Y-88940000D03*
D13*
X142240000Y-96520000D03*
D14*
X142240000Y-99060000D03*
X142240000Y-101600000D03*
X142240000Y-104140000D03*
X142240000Y-106680000D03*
X142240000Y-109220000D03*
X142240000Y-111760000D03*
D13*
X149860000Y-96520000D03*
D14*
X149860000Y-99060000D03*
X149860000Y-101600000D03*
X149860000Y-104140000D03*
X149860000Y-106680000D03*
X149860000Y-109220000D03*
X149860000Y-111760000D03*
D15*
X147066000Y-100330000D03*
X147066000Y-107950000D03*
D16*
X132080000Y-93980000D03*
X132080000Y-96520000D03*
X132080000Y-99060000D03*
X132080000Y-101600000D03*
X132080000Y-104140000D03*
X132080000Y-106680000D03*
X132080000Y-109220000D03*
X132080000Y-111760000D03*
X139700000Y-111760000D03*
X139700000Y-109220000D03*
X139700000Y-106680000D03*
X139700000Y-104140000D03*
X139700000Y-101600000D03*
X139700000Y-99060000D03*
X139700000Y-96520000D03*
X139700000Y-93980000D03*
X144780000Y-93980000D03*
X144780000Y-96520000D03*
X144780000Y-99060000D03*
X144780000Y-101600000D03*
X144780000Y-104140000D03*
X144780000Y-106680000D03*
X144780000Y-109220000D03*
X144780000Y-111760000D03*
X152400000Y-111760000D03*
X152400000Y-109220000D03*
X152400000Y-106680000D03*
X152400000Y-104140000D03*
X152400000Y-101600000D03*
X152400000Y-99060000D03*
X152400000Y-96520000D03*
X152400000Y-93980000D03*
D17*
X135890000Y-91440000D03*
D18*
X138430000Y-91440000D03*
X140970000Y-91440000D03*
X143510000Y-91440000D03*
X146050000Y-91440000D03*
X148590000Y-91440000D03*
D19*
X138303000Y-105308400D03*
D20*
X152400000Y-93980000D02*
X152400000Y-92710000D01*
X152400000Y-92710000D02*
X151130000Y-91440000D01*
X139700000Y-93980000D02*
X139700000Y-89662000D01*
X151130000Y-91440000D02*
X149352000Y-89662000D01*
X149352000Y-89662000D02*
X139700000Y-89662000D01*
X135128000Y-89662000D02*
X133350000Y-91440000D01*
X139700000Y-89662000D02*
X135128000Y-89662000D01*
X149860000Y-96520000D02*
X152400000Y-93980000D01*
X149860000Y-95892800D02*
X149860000Y-96333400D01*
X149860000Y-96520000D02*
X149860000Y-96333400D01*
X147066000Y-99127400D02*
X147066000Y-100330000D01*
X149860000Y-96333400D02*
X147066000Y-99127400D01*
X132080000Y-106680000D02*
X133769100Y-106680000D01*
X134581900Y-94585900D02*
X132309100Y-92313100D01*
X134581900Y-105867200D02*
X134581900Y-94585900D01*
X133769100Y-106680000D02*
X134581900Y-105867200D01*
X144780000Y-111760000D02*
X144780000Y-109220000D01*
X144780000Y-109220000D02*
X144780000Y-106680000D01*
X132080000Y-111760000D02*
X132080000Y-109220000D01*
X132080000Y-109220000D02*
X132080000Y-106680000D01*
X132309100Y-89980900D02*
X132309100Y-92313100D01*
X133350000Y-88940000D02*
X132309100Y-89980900D01*
D21*
X142240000Y-101600000D02*
X142240000Y-102235000D01*
X142240000Y-102235000D02*
X140848900Y-103626100D01*
X140160300Y-105311600D02*
X138303000Y-105308400D01*
X140848900Y-104623000D02*
X140160300Y-105311600D01*
X140848900Y-103626100D02*
X140848900Y-104623000D01*
X144780000Y-99060000D02*
X144780000Y-99949000D01*
X144780000Y-99949000D02*
X143654700Y-101074300D01*
X143654700Y-101074300D02*
X143654700Y-102090300D01*
X143654700Y-102090300D02*
X142240000Y-103505000D01*
X142240000Y-103505000D02*
X142240000Y-104140000D01*
X139700000Y-104140000D02*
X139700000Y-104138602D01*
X139700000Y-104138602D02*
X140843000Y-102995602D01*
X135890000Y-92710000D02*
X135890000Y-91440000D01*
X140843000Y-97663000D02*
X135890000Y-92710000D01*
X140843000Y-102995602D02*
X140843000Y-97663000D01*
X139700000Y-96520000D02*
X139700000Y-95899830D01*
X135890000Y-92089830D02*
X135890000Y-91440000D01*
X132080000Y-96520000D02*
X132080000Y-93980000D01*
X151274700Y-101244400D02*
X151274700Y-103014700D01*
X151274700Y-99568000D02*
X151274700Y-101244400D01*
X151274700Y-97645300D02*
X152400000Y-96520000D01*
X151274700Y-99568000D02*
X151274700Y-97645300D01*
X151274700Y-103014700D02*
X152400000Y-104140000D01*
X143510000Y-91440000D02*
X143510000Y-92710000D01*
X143510000Y-92710000D02*
X144780000Y-93980000D01*
X140995400Y-110515400D02*
X139700000Y-109220000D01*
X143027400Y-110515400D02*
X140995400Y-110515400D01*
X143611600Y-111099600D02*
X143027400Y-110515400D01*
X143611600Y-111277400D02*
X143611600Y-111099600D01*
X143611600Y-111277400D02*
X143611600Y-112242600D01*
X144297400Y-112928400D02*
X143611600Y-112242600D01*
X145288000Y-112928400D02*
X144297400Y-112928400D01*
X145973800Y-112242600D02*
X145288000Y-112928400D01*
X145973800Y-106400600D02*
X145973800Y-112242600D01*
X145973800Y-99339400D02*
X145973800Y-106400600D01*
X145973800Y-106400600D02*
X145973800Y-106857800D01*
X145973800Y-106857800D02*
X147066000Y-107950000D01*
X145973800Y-99339400D02*
X145973800Y-91516200D01*
X145973800Y-100965000D02*
X145973800Y-100787200D01*
X145973800Y-100787200D02*
X145973800Y-99339400D01*
X145973800Y-91516200D02*
X146050000Y-91440000D01*
D22*
G36*
X132931560Y-87840572D02*
X132868469Y-87866705D01*
X132800803Y-88049553D01*
X133350000Y-88598750D01*
X133899197Y-88049553D01*
X133831531Y-87866705D01*
X133614422Y-87793900D01*
X150883201Y-87793900D01*
X150711560Y-87840572D01*
X150648469Y-87866705D01*
X150580803Y-88049553D01*
X151130000Y-88598750D01*
X151679197Y-88049553D01*
X151611531Y-87866705D01*
X151394422Y-87793900D01*
X152391981Y-87793900D01*
X152614689Y-87815737D01*
X152821206Y-87878088D01*
X153011670Y-87979360D01*
X153178841Y-88115701D01*
X153316345Y-88281914D01*
X153418948Y-88471674D01*
X153482739Y-88677747D01*
X153506099Y-88900008D01*
X153506100Y-88900287D01*
X153506100Y-113021981D01*
X153484263Y-113244689D01*
X153421912Y-113451206D01*
X153320641Y-113641670D01*
X153184299Y-113808841D01*
X153018083Y-113946348D01*
X152828324Y-114048949D01*
X152622253Y-114112739D01*
X152399992Y-114136099D01*
X152399713Y-114136100D01*
X132088019Y-114136100D01*
X131865311Y-114114263D01*
X131658794Y-114051912D01*
X131468330Y-113950641D01*
X131301159Y-113814299D01*
X131163652Y-113648083D01*
X131061051Y-113458324D01*
X130997261Y-113252253D01*
X130973901Y-113029992D01*
X130973900Y-113029713D01*
X130973900Y-112470960D01*
X131021400Y-112549709D01*
X131195805Y-112741058D01*
X131404189Y-112894705D01*
X131638544Y-113004746D01*
X131838700Y-112928305D01*
X131838700Y-112001300D01*
X132321300Y-112001300D01*
X132321300Y-112928305D01*
X132521456Y-113004746D01*
X132755811Y-112894705D01*
X132964195Y-112741058D01*
X133138600Y-112549709D01*
X133272324Y-112328012D01*
X133324735Y-112201454D01*
X133245815Y-112001300D01*
X132321300Y-112001300D01*
X131838700Y-112001300D01*
X131818700Y-112001300D01*
X131818700Y-111518700D01*
X131838700Y-111518700D01*
X131838700Y-110591695D01*
X132321300Y-110591695D01*
X132321300Y-111518700D01*
X133245815Y-111518700D01*
X133324735Y-111318546D01*
X133272324Y-111191988D01*
X133138600Y-110970291D01*
X132964195Y-110778942D01*
X132755811Y-110625295D01*
X132521456Y-110515254D01*
X132321300Y-110591695D01*
X131838700Y-110591695D01*
X131638544Y-110515254D01*
X131404189Y-110625295D01*
X131195805Y-110778942D01*
X131021400Y-110970291D01*
X130973900Y-111049040D01*
X130973900Y-109930960D01*
X131021400Y-110009709D01*
X131195805Y-110201058D01*
X131404189Y-110354705D01*
X131638544Y-110464746D01*
X131838700Y-110388305D01*
X131838700Y-109461300D01*
X132321300Y-109461300D01*
X132321300Y-110388305D01*
X132521456Y-110464746D01*
X132755811Y-110354705D01*
X132964195Y-110201058D01*
X133138600Y-110009709D01*
X133272324Y-109788012D01*
X133324735Y-109661454D01*
X133245815Y-109461300D01*
X132321300Y-109461300D01*
X131838700Y-109461300D01*
X131818700Y-109461300D01*
X131818700Y-108978700D01*
X131838700Y-108978700D01*
X131838700Y-108051695D01*
X132321300Y-108051695D01*
X132321300Y-108978700D01*
X133245815Y-108978700D01*
X133324735Y-108778546D01*
X133272324Y-108651988D01*
X133138600Y-108430291D01*
X132964195Y-108238942D01*
X132755811Y-108085295D01*
X132521456Y-107975254D01*
X132321300Y-108051695D01*
X131838700Y-108051695D01*
X131638544Y-107975254D01*
X131404189Y-108085295D01*
X131195805Y-108238942D01*
X131021400Y-108430291D01*
X130973900Y-108509040D01*
X130973900Y-107390960D01*
X131021400Y-107469709D01*
X131195805Y-107661058D01*
X131404189Y-107814705D01*
X131638544Y-107924746D01*
X131838700Y-107848305D01*
X131838700Y-106921300D01*
X132321300Y-106921300D01*
X132321300Y-107848305D01*
X132521456Y-107924746D01*
X132755811Y-107814705D01*
X132964195Y-107661058D01*
X133138600Y-107469709D01*
X133272324Y-107248012D01*
X133324735Y-107121454D01*
X133245815Y-106921300D01*
X132321300Y-106921300D01*
X131838700Y-106921300D01*
X131818700Y-106921300D01*
X131818700Y-106672930D01*
X138682425Y-106672930D01*
X138700338Y-106869761D01*
X138756141Y-107059364D01*
X138847709Y-107234517D01*
X138971554Y-107388549D01*
X139122958Y-107515592D01*
X139296155Y-107610808D01*
X139484548Y-107670570D01*
X139680960Y-107692601D01*
X139695100Y-107692700D01*
X139704900Y-107692700D01*
X139901601Y-107673413D01*
X140090810Y-107616288D01*
X140265320Y-107523499D01*
X140418483Y-107398582D01*
X140544466Y-107246295D01*
X140638471Y-107072437D01*
X140696916Y-106883632D01*
X140717575Y-106687070D01*
X140716248Y-106672486D01*
X141005381Y-106672486D01*
X141024419Y-106881679D01*
X141083727Y-107083189D01*
X141181046Y-107269342D01*
X141312668Y-107433048D01*
X141473581Y-107568070D01*
X141657655Y-107669265D01*
X141857880Y-107732780D01*
X142066628Y-107756195D01*
X142081655Y-107756300D01*
X142398345Y-107756300D01*
X142607399Y-107735802D01*
X142808491Y-107675089D01*
X142993960Y-107576473D01*
X143156743Y-107443711D01*
X143290638Y-107281859D01*
X143390546Y-107097083D01*
X143452662Y-106896420D01*
X143459300Y-106833264D01*
X143459300Y-106921302D01*
X143614184Y-106921302D01*
X143535265Y-107121454D01*
X143587676Y-107248012D01*
X143721400Y-107469709D01*
X143895805Y-107661058D01*
X144104189Y-107814705D01*
X144338544Y-107924746D01*
X144538700Y-107848305D01*
X144538700Y-106921300D01*
X144518700Y-106921300D01*
X144518700Y-106438700D01*
X144538700Y-106438700D01*
X144538700Y-105511695D01*
X144338544Y-105435254D01*
X144104189Y-105545295D01*
X143895805Y-105698942D01*
X143721400Y-105890291D01*
X143587676Y-106111988D01*
X143535265Y-106238546D01*
X143614184Y-106438698D01*
X143459300Y-106438698D01*
X143459300Y-106519186D01*
X143455581Y-106478321D01*
X143396273Y-106276811D01*
X143298954Y-106090658D01*
X143167332Y-105926952D01*
X143006419Y-105791930D01*
X142822345Y-105690735D01*
X142622120Y-105627220D01*
X142413372Y-105603805D01*
X142398345Y-105603700D01*
X142081655Y-105603700D01*
X141872601Y-105624198D01*
X141671509Y-105684911D01*
X141486040Y-105783527D01*
X141323257Y-105916289D01*
X141189362Y-106078141D01*
X141089454Y-106262917D01*
X141027338Y-106463580D01*
X141005381Y-106672486D01*
X140716248Y-106672486D01*
X140699662Y-106490239D01*
X140643859Y-106300636D01*
X140552291Y-106125483D01*
X140428446Y-105971451D01*
X140277042Y-105844408D01*
X140103845Y-105749192D01*
X139915452Y-105689430D01*
X139719040Y-105667399D01*
X139704900Y-105667300D01*
X139695100Y-105667300D01*
X139498399Y-105686587D01*
X139309190Y-105743712D01*
X139134680Y-105836501D01*
X138981517Y-105961418D01*
X138855534Y-106113705D01*
X138761529Y-106287563D01*
X138703084Y-106476368D01*
X138682425Y-106672930D01*
X131818700Y-106672930D01*
X131818700Y-106438700D01*
X131838700Y-106438700D01*
X131838700Y-105511695D01*
X132321300Y-105511695D01*
X132321300Y-106438700D01*
X133245815Y-106438700D01*
X133324735Y-106238546D01*
X133272324Y-106111988D01*
X133138600Y-105890291D01*
X132964195Y-105698942D01*
X132755811Y-105545295D01*
X132521456Y-105435254D01*
X132321300Y-105511695D01*
X131838700Y-105511695D01*
X131638544Y-105435254D01*
X131404189Y-105545295D01*
X131195805Y-105698942D01*
X131021400Y-105890291D01*
X130973900Y-105969040D01*
X130973900Y-104132930D01*
X131062425Y-104132930D01*
X131080338Y-104329761D01*
X131136141Y-104519364D01*
X131227709Y-104694517D01*
X131351554Y-104848549D01*
X131502958Y-104975592D01*
X131676155Y-105070808D01*
X131864548Y-105130570D01*
X132060960Y-105152601D01*
X132075100Y-105152700D01*
X132084900Y-105152700D01*
X132281601Y-105133413D01*
X132470810Y-105076288D01*
X132645320Y-104983499D01*
X132798483Y-104858582D01*
X132924466Y-104706295D01*
X133018471Y-104532437D01*
X133076916Y-104343632D01*
X133097575Y-104147070D01*
X133079662Y-103950239D01*
X133023859Y-103760636D01*
X132932291Y-103585483D01*
X132808446Y-103431451D01*
X132657042Y-103304408D01*
X132483845Y-103209192D01*
X132295452Y-103149430D01*
X132099040Y-103127399D01*
X132084900Y-103127300D01*
X132075100Y-103127300D01*
X131878399Y-103146587D01*
X131689190Y-103203712D01*
X131514680Y-103296501D01*
X131361517Y-103421418D01*
X131235534Y-103573705D01*
X131141529Y-103747563D01*
X131083084Y-103936368D01*
X131062425Y-104132930D01*
X130973900Y-104132930D01*
X130973900Y-101592930D01*
X131062425Y-101592930D01*
X131080338Y-101789761D01*
X131136141Y-101979364D01*
X131227709Y-102154517D01*
X131351554Y-102308549D01*
X131502958Y-102435592D01*
X131676155Y-102530808D01*
X131864548Y-102590570D01*
X132060960Y-102612601D01*
X132075100Y-102612700D01*
X132084900Y-102612700D01*
X132281601Y-102593413D01*
X132470810Y-102536288D01*
X132645320Y-102443499D01*
X132798483Y-102318582D01*
X132924466Y-102166295D01*
X133018471Y-101992437D01*
X133076916Y-101803632D01*
X133097575Y-101607070D01*
X133079662Y-101410239D01*
X133023859Y-101220636D01*
X132932291Y-101045483D01*
X132808446Y-100891451D01*
X132657042Y-100764408D01*
X132483845Y-100669192D01*
X132295452Y-100609430D01*
X132099040Y-100587399D01*
X132084900Y-100587300D01*
X132075100Y-100587300D01*
X131878399Y-100606587D01*
X131689190Y-100663712D01*
X131514680Y-100756501D01*
X131361517Y-100881418D01*
X131235534Y-101033705D01*
X131141529Y-101207563D01*
X131083084Y-101396368D01*
X131062425Y-101592930D01*
X130973900Y-101592930D01*
X130973900Y-99052930D01*
X131062425Y-99052930D01*
X131080338Y-99249761D01*
X131136141Y-99439364D01*
X131227709Y-99614517D01*
X131351554Y-99768549D01*
X131502958Y-99895592D01*
X131676155Y-99990808D01*
X131864548Y-100050570D01*
X132060960Y-100072601D01*
X132075100Y-100072700D01*
X132084900Y-100072700D01*
X132281601Y-100053413D01*
X132470810Y-99996288D01*
X132645320Y-99903499D01*
X132798483Y-99778582D01*
X132924466Y-99626295D01*
X133018471Y-99452437D01*
X133076916Y-99263632D01*
X133097575Y-99067070D01*
X133079662Y-98870239D01*
X133023859Y-98680636D01*
X132932291Y-98505483D01*
X132808446Y-98351451D01*
X132657042Y-98224408D01*
X132483845Y-98129192D01*
X132295452Y-98069430D01*
X132099040Y-98047399D01*
X132084900Y-98047300D01*
X132075100Y-98047300D01*
X131878399Y-98066587D01*
X131689190Y-98123712D01*
X131514680Y-98216501D01*
X131361517Y-98341418D01*
X131235534Y-98493705D01*
X131141529Y-98667563D01*
X131083084Y-98856368D01*
X131062425Y-99052930D01*
X130973900Y-99052930D01*
X130973900Y-93972930D01*
X131062425Y-93972930D01*
X131080338Y-94169761D01*
X131136141Y-94359364D01*
X131227709Y-94534517D01*
X131351554Y-94688549D01*
X131502958Y-94815592D01*
X131676155Y-94910808D01*
X131742300Y-94931791D01*
X131742300Y-95567677D01*
X131689190Y-95583712D01*
X131514680Y-95676501D01*
X131361517Y-95801418D01*
X131235534Y-95953705D01*
X131141529Y-96127563D01*
X131083084Y-96316368D01*
X131062425Y-96512930D01*
X131080338Y-96709761D01*
X131136141Y-96899364D01*
X131227709Y-97074517D01*
X131351554Y-97228549D01*
X131502958Y-97355592D01*
X131676155Y-97450808D01*
X131864548Y-97510570D01*
X132060960Y-97532601D01*
X132075100Y-97532700D01*
X132084900Y-97532700D01*
X132281601Y-97513413D01*
X132470810Y-97456288D01*
X132645320Y-97363499D01*
X132798483Y-97238582D01*
X132924466Y-97086295D01*
X133018471Y-96912437D01*
X133076916Y-96723632D01*
X133097575Y-96527070D01*
X133079662Y-96330239D01*
X133023859Y-96140636D01*
X132932291Y-95965483D01*
X132808446Y-95811451D01*
X132657042Y-95684408D01*
X132483845Y-95589192D01*
X132417700Y-95568209D01*
X132417700Y-94932323D01*
X132470810Y-94916288D01*
X132645320Y-94823499D01*
X132798483Y-94698582D01*
X132924466Y-94546295D01*
X133018471Y-94372437D01*
X133076916Y-94183632D01*
X133097575Y-93987070D01*
X133079662Y-93790239D01*
X133023859Y-93600636D01*
X132932291Y-93425483D01*
X132808446Y-93271451D01*
X132657042Y-93144408D01*
X132483845Y-93049192D01*
X132295452Y-92989430D01*
X132099040Y-92967399D01*
X132084900Y-92967300D01*
X132075100Y-92967300D01*
X131878399Y-92986587D01*
X131689190Y-93043712D01*
X131514680Y-93136501D01*
X131361517Y-93261418D01*
X131235534Y-93413705D01*
X131141529Y-93587563D01*
X131083084Y-93776368D01*
X131062425Y-93972930D01*
X130973900Y-93972930D01*
X130973900Y-90790000D01*
X132486271Y-90790000D01*
X132486271Y-92090000D01*
X132488972Y-92123872D01*
X132506763Y-92181322D01*
X132539855Y-92231541D01*
X132585628Y-92270552D01*
X132640457Y-92295267D01*
X132700000Y-92303729D01*
X134000000Y-92303729D01*
X134033872Y-92301028D01*
X134091322Y-92283237D01*
X134141541Y-92250145D01*
X134180552Y-92204372D01*
X134205267Y-92149543D01*
X134213729Y-92090000D01*
X134213729Y-91146481D01*
X134812671Y-90547540D01*
X134812671Y-92456000D01*
X134815372Y-92489872D01*
X134833163Y-92547322D01*
X134866255Y-92597541D01*
X134912028Y-92636552D01*
X134966857Y-92661267D01*
X135026400Y-92669729D01*
X135552300Y-92669729D01*
X135552300Y-92710000D01*
X135555349Y-92741096D01*
X135558063Y-92772121D01*
X135558557Y-92773823D01*
X135558731Y-92775593D01*
X135567746Y-92805450D01*
X135576450Y-92835411D01*
X135577269Y-92836991D01*
X135577781Y-92838687D01*
X135592423Y-92866225D01*
X135606781Y-92893924D01*
X135607887Y-92895309D01*
X135608722Y-92896880D01*
X135628441Y-92921058D01*
X135647899Y-92945433D01*
X135650338Y-92947906D01*
X135650378Y-92947955D01*
X135650424Y-92947993D01*
X135651210Y-92948790D01*
X138785553Y-96083133D01*
X138761529Y-96127563D01*
X138703084Y-96316368D01*
X138682425Y-96512930D01*
X138700338Y-96709761D01*
X138756141Y-96899364D01*
X138847709Y-97074517D01*
X138971554Y-97228549D01*
X139122958Y-97355592D01*
X139296155Y-97450808D01*
X139484548Y-97510570D01*
X139680960Y-97532601D01*
X139695100Y-97532700D01*
X139704900Y-97532700D01*
X139901601Y-97513413D01*
X140090810Y-97456288D01*
X140135138Y-97432718D01*
X140505300Y-97802880D01*
X140505300Y-98447038D01*
X140428446Y-98351451D01*
X140277042Y-98224408D01*
X140103845Y-98129192D01*
X139915452Y-98069430D01*
X139719040Y-98047399D01*
X139704900Y-98047300D01*
X139695100Y-98047300D01*
X139498399Y-98066587D01*
X139309190Y-98123712D01*
X139134680Y-98216501D01*
X138981517Y-98341418D01*
X138855534Y-98493705D01*
X138761529Y-98667563D01*
X138703084Y-98856368D01*
X138682425Y-99052930D01*
X138700338Y-99249761D01*
X138756141Y-99439364D01*
X138847709Y-99614517D01*
X138971554Y-99768549D01*
X139122958Y-99895592D01*
X139296155Y-99990808D01*
X139484548Y-100050570D01*
X139680960Y-100072601D01*
X139695100Y-100072700D01*
X139704900Y-100072700D01*
X139901601Y-100053413D01*
X140090810Y-99996288D01*
X140265320Y-99903499D01*
X140418483Y-99778582D01*
X140505300Y-99673638D01*
X140505300Y-100987038D01*
X140428446Y-100891451D01*
X140277042Y-100764408D01*
X140103845Y-100669192D01*
X139915452Y-100609430D01*
X139719040Y-100587399D01*
X139704900Y-100587300D01*
X139695100Y-100587300D01*
X139498399Y-100606587D01*
X139309190Y-100663712D01*
X139134680Y-100756501D01*
X138981517Y-100881418D01*
X138855534Y-101033705D01*
X138761529Y-101207563D01*
X138703084Y-101396368D01*
X138682425Y-101592930D01*
X138700338Y-101789761D01*
X138756141Y-101979364D01*
X138847709Y-102154517D01*
X138971554Y-102308549D01*
X139122958Y-102435592D01*
X139296155Y-102530808D01*
X139484548Y-102590570D01*
X139680960Y-102612601D01*
X139695100Y-102612700D01*
X139704900Y-102612700D01*
X139901601Y-102593413D01*
X140090810Y-102536288D01*
X140265320Y-102443499D01*
X140418483Y-102318582D01*
X140505300Y-102213638D01*
X140505300Y-102855722D01*
X140134808Y-103226214D01*
X140103845Y-103209192D01*
X139915452Y-103149430D01*
X139719040Y-103127399D01*
X139704900Y-103127300D01*
X139695100Y-103127300D01*
X139498399Y-103146587D01*
X139309190Y-103203712D01*
X139134680Y-103296501D01*
X138981517Y-103421418D01*
X138855534Y-103573705D01*
X138761529Y-103747563D01*
X138703084Y-103936368D01*
X138682425Y-104132930D01*
X138700338Y-104329761D01*
X138756141Y-104519364D01*
X138847709Y-104694517D01*
X138971554Y-104848549D01*
X139118803Y-104972106D01*
X138690894Y-104971368D01*
X138631389Y-104911446D01*
X138548033Y-104855222D01*
X138455343Y-104816259D01*
X138356851Y-104796041D01*
X138256308Y-104795339D01*
X138157543Y-104814180D01*
X138064319Y-104851845D01*
X137980186Y-104906900D01*
X137908348Y-104977248D01*
X137851543Y-105060210D01*
X137811934Y-105152625D01*
X137791030Y-105250973D01*
X137789626Y-105351509D01*
X137807776Y-105450403D01*
X137844790Y-105543888D01*
X137899256Y-105628404D01*
X137969101Y-105700730D01*
X138051664Y-105758113D01*
X138143800Y-105798366D01*
X138242001Y-105819957D01*
X138342524Y-105822063D01*
X138441542Y-105804603D01*
X138535284Y-105768243D01*
X138620177Y-105714368D01*
X138691163Y-105646769D01*
X140159718Y-105649299D01*
X140191113Y-105646276D01*
X140222421Y-105643537D01*
X140223840Y-105643125D01*
X140225322Y-105642982D01*
X140255483Y-105633932D01*
X140285711Y-105625150D01*
X140287032Y-105624465D01*
X140288449Y-105624040D01*
X140316274Y-105609307D01*
X140344224Y-105594819D01*
X140345380Y-105593896D01*
X140346695Y-105593200D01*
X140371163Y-105573314D01*
X140395733Y-105553701D01*
X140397778Y-105551684D01*
X140397842Y-105551632D01*
X140397893Y-105551571D01*
X140399090Y-105550390D01*
X141087690Y-104861790D01*
X141107517Y-104837652D01*
X141127541Y-104813789D01*
X141128396Y-104812235D01*
X141129523Y-104810862D01*
X141144252Y-104783391D01*
X141159292Y-104756034D01*
X141159830Y-104754338D01*
X141160667Y-104752777D01*
X141169778Y-104722979D01*
X141172777Y-104713524D01*
X141181046Y-104729342D01*
X141312668Y-104893048D01*
X141473581Y-105028070D01*
X141657655Y-105129265D01*
X141857880Y-105192780D01*
X142066628Y-105216195D01*
X142081655Y-105216300D01*
X142398345Y-105216300D01*
X142607399Y-105195802D01*
X142808491Y-105135089D01*
X142993960Y-105036473D01*
X143156743Y-104903711D01*
X143290638Y-104741859D01*
X143390546Y-104557083D01*
X143452662Y-104356420D01*
X143474619Y-104147514D01*
X143455581Y-103938321D01*
X143396273Y-103736811D01*
X143298954Y-103550658D01*
X143167332Y-103386952D01*
X143006419Y-103251930D01*
X142983339Y-103239241D01*
X143893490Y-102329090D01*
X143913321Y-102304948D01*
X143933341Y-102281089D01*
X143934195Y-102279535D01*
X143935324Y-102278161D01*
X143950081Y-102250639D01*
X143965092Y-102223334D01*
X143965629Y-102221643D01*
X143966468Y-102220077D01*
X143970312Y-102207504D01*
X144051554Y-102308549D01*
X144202958Y-102435592D01*
X144376155Y-102530808D01*
X144564548Y-102590570D01*
X144760960Y-102612601D01*
X144775100Y-102612700D01*
X144784900Y-102612700D01*
X144981601Y-102593413D01*
X145170810Y-102536288D01*
X145345320Y-102443499D01*
X145498483Y-102318582D01*
X145624466Y-102166295D01*
X145636100Y-102144778D01*
X145636100Y-103592769D01*
X145632291Y-103585483D01*
X145508446Y-103431451D01*
X145357042Y-103304408D01*
X145183845Y-103209192D01*
X144995452Y-103149430D01*
X144799040Y-103127399D01*
X144784900Y-103127300D01*
X144775100Y-103127300D01*
X144578399Y-103146587D01*
X144389190Y-103203712D01*
X144214680Y-103296501D01*
X144061517Y-103421418D01*
X143935534Y-103573705D01*
X143841529Y-103747563D01*
X143783084Y-103936368D01*
X143762425Y-104132930D01*
X143780338Y-104329761D01*
X143836141Y-104519364D01*
X143927709Y-104694517D01*
X144051554Y-104848549D01*
X144202958Y-104975592D01*
X144376155Y-105070808D01*
X144564548Y-105130570D01*
X144760960Y-105152601D01*
X144775100Y-105152700D01*
X144784900Y-105152700D01*
X144981601Y-105133413D01*
X145170810Y-105076288D01*
X145345320Y-104983499D01*
X145498483Y-104858582D01*
X145624466Y-104706295D01*
X145636100Y-104684778D01*
X145636100Y-105678227D01*
X145455811Y-105545295D01*
X145221456Y-105435254D01*
X145021300Y-105511695D01*
X145021300Y-106438700D01*
X145041300Y-106438700D01*
X145041300Y-106921300D01*
X145021300Y-106921300D01*
X145021300Y-107848305D01*
X145221456Y-107924746D01*
X145455811Y-107814705D01*
X145636100Y-107681773D01*
X145636100Y-108218227D01*
X145455811Y-108085295D01*
X145221456Y-107975254D01*
X145021300Y-108051695D01*
X145021300Y-108978700D01*
X145041300Y-108978700D01*
X145041300Y-109461300D01*
X145021300Y-109461300D01*
X145021300Y-110388305D01*
X145221456Y-110464746D01*
X145455811Y-110354705D01*
X145636100Y-110221773D01*
X145636100Y-110758227D01*
X145455811Y-110625295D01*
X145221456Y-110515254D01*
X145021300Y-110591695D01*
X145021300Y-111518700D01*
X145041300Y-111518700D01*
X145041300Y-112001300D01*
X145021300Y-112001300D01*
X145021300Y-112021300D01*
X144538700Y-112021300D01*
X144538700Y-112001300D01*
X144518700Y-112001300D01*
X144518700Y-111518700D01*
X144538700Y-111518700D01*
X144538700Y-110591695D01*
X144338544Y-110515254D01*
X144104189Y-110625295D01*
X143895805Y-110778942D01*
X143835112Y-110845532D01*
X143266190Y-110276610D01*
X143242048Y-110256779D01*
X143218189Y-110236759D01*
X143216635Y-110235905D01*
X143215261Y-110234776D01*
X143187739Y-110220019D01*
X143160434Y-110205008D01*
X143158743Y-110204471D01*
X143157177Y-110203632D01*
X143127304Y-110194499D01*
X143097612Y-110185080D01*
X143095852Y-110184883D01*
X143094149Y-110184362D01*
X143063066Y-110181205D01*
X143032115Y-110177733D01*
X143028645Y-110177709D01*
X143028579Y-110177702D01*
X143028517Y-110177708D01*
X143027400Y-110177700D01*
X142878809Y-110177700D01*
X142993960Y-110116473D01*
X143156743Y-109983711D01*
X143290638Y-109821859D01*
X143390546Y-109637083D01*
X143452662Y-109436420D01*
X143459300Y-109373264D01*
X143459300Y-109461302D01*
X143614184Y-109461302D01*
X143535265Y-109661454D01*
X143587676Y-109788012D01*
X143721400Y-110009709D01*
X143895805Y-110201058D01*
X144104189Y-110354705D01*
X144338544Y-110464746D01*
X144538700Y-110388305D01*
X144538700Y-109461300D01*
X144518700Y-109461300D01*
X144518700Y-108978700D01*
X144538700Y-108978700D01*
X144538700Y-108051695D01*
X144338544Y-107975254D01*
X144104189Y-108085295D01*
X143895805Y-108238942D01*
X143721400Y-108430291D01*
X143587676Y-108651988D01*
X143535265Y-108778546D01*
X143614184Y-108978698D01*
X143459300Y-108978698D01*
X143459300Y-109059186D01*
X143455581Y-109018321D01*
X143396273Y-108816811D01*
X143298954Y-108630658D01*
X143167332Y-108466952D01*
X143006419Y-108331930D01*
X142822345Y-108230735D01*
X142622120Y-108167220D01*
X142413372Y-108143805D01*
X142398345Y-108143700D01*
X142081655Y-108143700D01*
X141872601Y-108164198D01*
X141671509Y-108224911D01*
X141486040Y-108323527D01*
X141323257Y-108456289D01*
X141189362Y-108618141D01*
X141089454Y-108802917D01*
X141027338Y-109003580D01*
X141005381Y-109212486D01*
X141024419Y-109421679D01*
X141083727Y-109623189D01*
X141181046Y-109809342D01*
X141312668Y-109973048D01*
X141473581Y-110108070D01*
X141600238Y-110177700D01*
X141135280Y-110177700D01*
X140614447Y-109656867D01*
X140638471Y-109612437D01*
X140696916Y-109423632D01*
X140717575Y-109227070D01*
X140699662Y-109030239D01*
X140643859Y-108840636D01*
X140552291Y-108665483D01*
X140428446Y-108511451D01*
X140277042Y-108384408D01*
X140103845Y-108289192D01*
X139915452Y-108229430D01*
X139719040Y-108207399D01*
X139704900Y-108207300D01*
X139695100Y-108207300D01*
X139498399Y-108226587D01*
X139309190Y-108283712D01*
X139134680Y-108376501D01*
X138981517Y-108501418D01*
X138855534Y-108653705D01*
X138761529Y-108827563D01*
X138703084Y-109016368D01*
X138682425Y-109212930D01*
X138700338Y-109409761D01*
X138756141Y-109599364D01*
X138847709Y-109774517D01*
X138971554Y-109928549D01*
X139122958Y-110055592D01*
X139296155Y-110150808D01*
X139484548Y-110210570D01*
X139680960Y-110232601D01*
X139695100Y-110232700D01*
X139704900Y-110232700D01*
X139901601Y-110213413D01*
X140090810Y-110156288D01*
X140135138Y-110132718D01*
X140756610Y-110754190D01*
X140780752Y-110774021D01*
X140804611Y-110794041D01*
X140806165Y-110794895D01*
X140807539Y-110796024D01*
X140835027Y-110810762D01*
X140862366Y-110825792D01*
X140864062Y-110826330D01*
X140865623Y-110827167D01*
X140895462Y-110836291D01*
X140925188Y-110845720D01*
X140926947Y-110845917D01*
X140928650Y-110846438D01*
X140959739Y-110849596D01*
X140990685Y-110853067D01*
X140994155Y-110853091D01*
X140994221Y-110853098D01*
X140994283Y-110853092D01*
X140995400Y-110853100D01*
X141053967Y-110853100D01*
X140921706Y-111022815D01*
X140800291Y-111264434D01*
X140779023Y-111308434D01*
X140856907Y-111518698D01*
X140703300Y-111518698D01*
X140703300Y-111610214D01*
X140699662Y-111570239D01*
X140643859Y-111380636D01*
X140552291Y-111205483D01*
X140428446Y-111051451D01*
X140277042Y-110924408D01*
X140103845Y-110829192D01*
X139915452Y-110769430D01*
X139719040Y-110747399D01*
X139704900Y-110747300D01*
X139695100Y-110747300D01*
X139498399Y-110766587D01*
X139309190Y-110823712D01*
X139134680Y-110916501D01*
X138981517Y-111041418D01*
X138855534Y-111193705D01*
X138761529Y-111367563D01*
X138703084Y-111556368D01*
X138682425Y-111752930D01*
X138700338Y-111949761D01*
X138756141Y-112139364D01*
X138847709Y-112314517D01*
X138971554Y-112468549D01*
X139122958Y-112595592D01*
X139296155Y-112690808D01*
X139484548Y-112750570D01*
X139680960Y-112772601D01*
X139695100Y-112772700D01*
X139704900Y-112772700D01*
X139901601Y-112753413D01*
X140090810Y-112696288D01*
X140265320Y-112603499D01*
X140418483Y-112478582D01*
X140544466Y-112326295D01*
X140638471Y-112152437D01*
X140696916Y-111963632D01*
X140703300Y-111902891D01*
X140703300Y-112001302D01*
X140856907Y-112001302D01*
X140779023Y-112211566D01*
X140800291Y-112255566D01*
X140921706Y-112497185D01*
X141087926Y-112710475D01*
X141292563Y-112887239D01*
X141527753Y-113020683D01*
X141784457Y-113105680D01*
X141998700Y-113006359D01*
X141998700Y-112001300D01*
X141978700Y-112001300D01*
X141978700Y-111518700D01*
X141998700Y-111518700D01*
X141998700Y-111498700D01*
X142481300Y-111498700D01*
X142481300Y-111518700D01*
X142501300Y-111518700D01*
X142501300Y-112001300D01*
X142481300Y-112001300D01*
X142481300Y-113006359D01*
X142695543Y-113105680D01*
X142952247Y-113020683D01*
X143187437Y-112887239D01*
X143392074Y-112710475D01*
X143483973Y-112592553D01*
X144058610Y-113167190D01*
X144082752Y-113187021D01*
X144106611Y-113207041D01*
X144108165Y-113207895D01*
X144109539Y-113209024D01*
X144137043Y-113223771D01*
X144164366Y-113238792D01*
X144166060Y-113239329D01*
X144167624Y-113240168D01*
X144197482Y-113249297D01*
X144227188Y-113258720D01*
X144228949Y-113258917D01*
X144230651Y-113259438D01*
X144261734Y-113262595D01*
X144292685Y-113266067D01*
X144296155Y-113266091D01*
X144296221Y-113266098D01*
X144296283Y-113266092D01*
X144297400Y-113266100D01*
X145288000Y-113266100D01*
X145319096Y-113263051D01*
X145350121Y-113260337D01*
X145351823Y-113259843D01*
X145353593Y-113259669D01*
X145383450Y-113250654D01*
X145413411Y-113241950D01*
X145414991Y-113241131D01*
X145416687Y-113240619D01*
X145444225Y-113225977D01*
X145471924Y-113211619D01*
X145473309Y-113210513D01*
X145474880Y-113209678D01*
X145499058Y-113189959D01*
X145523433Y-113170501D01*
X145525906Y-113168062D01*
X145525955Y-113168022D01*
X145525993Y-113167976D01*
X145526790Y-113167190D01*
X146212590Y-112481390D01*
X146232421Y-112457248D01*
X146252441Y-112433389D01*
X146253295Y-112431835D01*
X146254424Y-112430461D01*
X146269171Y-112402957D01*
X146284192Y-112375634D01*
X146284729Y-112373940D01*
X146285568Y-112372376D01*
X146294697Y-112342518D01*
X146304120Y-112312812D01*
X146304317Y-112311051D01*
X146304838Y-112309349D01*
X146307995Y-112278266D01*
X146311467Y-112247315D01*
X146311491Y-112243845D01*
X146311498Y-112243779D01*
X146311492Y-112243717D01*
X146311500Y-112242600D01*
X146311500Y-111752486D01*
X148625381Y-111752486D01*
X148644419Y-111961679D01*
X148703727Y-112163189D01*
X148801046Y-112349342D01*
X148932668Y-112513048D01*
X149093581Y-112648070D01*
X149277655Y-112749265D01*
X149477880Y-112812780D01*
X149686628Y-112836195D01*
X149701655Y-112836300D01*
X150018345Y-112836300D01*
X150227399Y-112815802D01*
X150428491Y-112755089D01*
X150613960Y-112656473D01*
X150776743Y-112523711D01*
X150910638Y-112361859D01*
X151010546Y-112177083D01*
X151072662Y-111976420D01*
X151094619Y-111767514D01*
X151093292Y-111752930D01*
X151382425Y-111752930D01*
X151400338Y-111949761D01*
X151456141Y-112139364D01*
X151547709Y-112314517D01*
X151671554Y-112468549D01*
X151822958Y-112595592D01*
X151996155Y-112690808D01*
X152184548Y-112750570D01*
X152380960Y-112772601D01*
X152395100Y-112772700D01*
X152404900Y-112772700D01*
X152601601Y-112753413D01*
X152790810Y-112696288D01*
X152965320Y-112603499D01*
X153118483Y-112478582D01*
X153244466Y-112326295D01*
X153338471Y-112152437D01*
X153396916Y-111963632D01*
X153417575Y-111767070D01*
X153399662Y-111570239D01*
X153343859Y-111380636D01*
X153252291Y-111205483D01*
X153128446Y-111051451D01*
X152977042Y-110924408D01*
X152803845Y-110829192D01*
X152615452Y-110769430D01*
X152419040Y-110747399D01*
X152404900Y-110747300D01*
X152395100Y-110747300D01*
X152198399Y-110766587D01*
X152009190Y-110823712D01*
X151834680Y-110916501D01*
X151681517Y-111041418D01*
X151555534Y-111193705D01*
X151461529Y-111367563D01*
X151403084Y-111556368D01*
X151382425Y-111752930D01*
X151093292Y-111752930D01*
X151075581Y-111558321D01*
X151016273Y-111356811D01*
X150918954Y-111170658D01*
X150787332Y-111006952D01*
X150626419Y-110871930D01*
X150442345Y-110770735D01*
X150242120Y-110707220D01*
X150033372Y-110683805D01*
X150018345Y-110683700D01*
X149701655Y-110683700D01*
X149492601Y-110704198D01*
X149291509Y-110764911D01*
X149106040Y-110863527D01*
X148943257Y-110996289D01*
X148809362Y-111158141D01*
X148709454Y-111342917D01*
X148647338Y-111543580D01*
X148625381Y-111752486D01*
X146311500Y-111752486D01*
X146311500Y-109212486D01*
X148625381Y-109212486D01*
X148644419Y-109421679D01*
X148703727Y-109623189D01*
X148801046Y-109809342D01*
X148932668Y-109973048D01*
X149093581Y-110108070D01*
X149277655Y-110209265D01*
X149477880Y-110272780D01*
X149686628Y-110296195D01*
X149701655Y-110296300D01*
X150018345Y-110296300D01*
X150227399Y-110275802D01*
X150428491Y-110215089D01*
X150613960Y-110116473D01*
X150776743Y-109983711D01*
X150910638Y-109821859D01*
X151010546Y-109637083D01*
X151072662Y-109436420D01*
X151094619Y-109227514D01*
X151093292Y-109212930D01*
X151382425Y-109212930D01*
X151400338Y-109409761D01*
X151456141Y-109599364D01*
X151547709Y-109774517D01*
X151671554Y-109928549D01*
X151822958Y-110055592D01*
X151996155Y-110150808D01*
X152184548Y-110210570D01*
X152380960Y-110232601D01*
X152395100Y-110232700D01*
X152404900Y-110232700D01*
X152601601Y-110213413D01*
X152790810Y-110156288D01*
X152965320Y-110063499D01*
X153118483Y-109938582D01*
X153244466Y-109786295D01*
X153338471Y-109612437D01*
X153396916Y-109423632D01*
X153417575Y-109227070D01*
X153399662Y-109030239D01*
X153343859Y-108840636D01*
X153252291Y-108665483D01*
X153128446Y-108511451D01*
X152977042Y-108384408D01*
X152803845Y-108289192D01*
X152615452Y-108229430D01*
X152419040Y-108207399D01*
X152404900Y-108207300D01*
X152395100Y-108207300D01*
X152198399Y-108226587D01*
X152009190Y-108283712D01*
X151834680Y-108376501D01*
X151681517Y-108501418D01*
X151555534Y-108653705D01*
X151461529Y-108827563D01*
X151403084Y-109016368D01*
X151382425Y-109212930D01*
X151093292Y-109212930D01*
X151075581Y-109018321D01*
X151016273Y-108816811D01*
X150918954Y-108630658D01*
X150787332Y-108466952D01*
X150626419Y-108331930D01*
X150442345Y-108230735D01*
X150242120Y-108167220D01*
X150033372Y-108143805D01*
X150018345Y-108143700D01*
X149701655Y-108143700D01*
X149492601Y-108164198D01*
X149291509Y-108224911D01*
X149106040Y-108323527D01*
X148943257Y-108456289D01*
X148809362Y-108618141D01*
X148709454Y-108802917D01*
X148647338Y-109003580D01*
X148625381Y-109212486D01*
X146311500Y-109212486D01*
X146311500Y-108461404D01*
X146348443Y-108518728D01*
X146472576Y-108647271D01*
X146619311Y-108749255D01*
X146783061Y-108820796D01*
X146957588Y-108859168D01*
X147136245Y-108862910D01*
X147312225Y-108831880D01*
X147478828Y-108767260D01*
X147629705Y-108671510D01*
X147759111Y-108548278D01*
X147862117Y-108402258D01*
X147934799Y-108239011D01*
X147974389Y-108064756D01*
X147977239Y-107860652D01*
X147942530Y-107685360D01*
X147874435Y-107520148D01*
X147775546Y-107371308D01*
X147649631Y-107244511D01*
X147501486Y-107144586D01*
X147336753Y-107075339D01*
X147161707Y-107039407D01*
X146983016Y-107038159D01*
X146807486Y-107071643D01*
X146706161Y-107112581D01*
X146311500Y-106717920D01*
X146311500Y-106672486D01*
X148625381Y-106672486D01*
X148644419Y-106881679D01*
X148703727Y-107083189D01*
X148801046Y-107269342D01*
X148932668Y-107433048D01*
X149093581Y-107568070D01*
X149277655Y-107669265D01*
X149477880Y-107732780D01*
X149686628Y-107756195D01*
X149701655Y-107756300D01*
X150018345Y-107756300D01*
X150227399Y-107735802D01*
X150428491Y-107675089D01*
X150613960Y-107576473D01*
X150776743Y-107443711D01*
X150910638Y-107281859D01*
X151010546Y-107097083D01*
X151072662Y-106896420D01*
X151094619Y-106687514D01*
X151093292Y-106672930D01*
X151382425Y-106672930D01*
X151400338Y-106869761D01*
X151456141Y-107059364D01*
X151547709Y-107234517D01*
X151671554Y-107388549D01*
X151822958Y-107515592D01*
X151996155Y-107610808D01*
X152184548Y-107670570D01*
X152380960Y-107692601D01*
X152395100Y-107692700D01*
X152404900Y-107692700D01*
X152601601Y-107673413D01*
X152790810Y-107616288D01*
X152965320Y-107523499D01*
X153118483Y-107398582D01*
X153244466Y-107246295D01*
X153338471Y-107072437D01*
X153396916Y-106883632D01*
X153417575Y-106687070D01*
X153399662Y-106490239D01*
X153343859Y-106300636D01*
X153252291Y-106125483D01*
X153128446Y-105971451D01*
X152977042Y-105844408D01*
X152803845Y-105749192D01*
X152615452Y-105689430D01*
X152419040Y-105667399D01*
X152404900Y-105667300D01*
X152395100Y-105667300D01*
X152198399Y-105686587D01*
X152009190Y-105743712D01*
X151834680Y-105836501D01*
X151681517Y-105961418D01*
X151555534Y-106113705D01*
X151461529Y-106287563D01*
X151403084Y-106476368D01*
X151382425Y-106672930D01*
X151093292Y-106672930D01*
X151075581Y-106478321D01*
X151016273Y-106276811D01*
X150918954Y-106090658D01*
X150787332Y-105926952D01*
X150626419Y-105791930D01*
X150442345Y-105690735D01*
X150242120Y-105627220D01*
X150033372Y-105603805D01*
X150018345Y-105603700D01*
X149701655Y-105603700D01*
X149492601Y-105624198D01*
X149291509Y-105684911D01*
X149106040Y-105783527D01*
X148943257Y-105916289D01*
X148809362Y-106078141D01*
X148709454Y-106262917D01*
X148647338Y-106463580D01*
X148625381Y-106672486D01*
X146311500Y-106672486D01*
X146311500Y-104132486D01*
X148625381Y-104132486D01*
X148644419Y-104341679D01*
X148703727Y-104543189D01*
X148801046Y-104729342D01*
X148932668Y-104893048D01*
X149093581Y-105028070D01*
X149277655Y-105129265D01*
X149477880Y-105192780D01*
X149686628Y-105216195D01*
X149701655Y-105216300D01*
X150018345Y-105216300D01*
X150227399Y-105195802D01*
X150428491Y-105135089D01*
X150613960Y-105036473D01*
X150776743Y-104903711D01*
X150910638Y-104741859D01*
X151010546Y-104557083D01*
X151072662Y-104356420D01*
X151094619Y-104147514D01*
X151075581Y-103938321D01*
X151016273Y-103736811D01*
X150918954Y-103550658D01*
X150787332Y-103386952D01*
X150626419Y-103251930D01*
X150442345Y-103150735D01*
X150242120Y-103087220D01*
X150033372Y-103063805D01*
X150018345Y-103063700D01*
X149701655Y-103063700D01*
X149492601Y-103084198D01*
X149291509Y-103144911D01*
X149106040Y-103243527D01*
X148943257Y-103376289D01*
X148809362Y-103538141D01*
X148709454Y-103722917D01*
X148647338Y-103923580D01*
X148625381Y-104132486D01*
X146311500Y-104132486D01*
X146311500Y-100841404D01*
X146348443Y-100898728D01*
X146472576Y-101027271D01*
X146619311Y-101129255D01*
X146783061Y-101200796D01*
X146957588Y-101239168D01*
X147136245Y-101242910D01*
X147312225Y-101211880D01*
X147478828Y-101147260D01*
X147629705Y-101051510D01*
X147759111Y-100928278D01*
X147862117Y-100782258D01*
X147934799Y-100619011D01*
X147974389Y-100444756D01*
X147977239Y-100240652D01*
X147942530Y-100065360D01*
X147874435Y-99900148D01*
X147775546Y-99751308D01*
X147649631Y-99624511D01*
X147501486Y-99524586D01*
X147469200Y-99511014D01*
X147469200Y-99294410D01*
X149166282Y-97597329D01*
X150876000Y-97597329D01*
X150909872Y-97594628D01*
X150943073Y-97584346D01*
X150940505Y-97609634D01*
X150937033Y-97640585D01*
X150937009Y-97644055D01*
X150937002Y-97644121D01*
X150937008Y-97644183D01*
X150937000Y-97645300D01*
X150937000Y-98505177D01*
X150918954Y-98470658D01*
X150787332Y-98306952D01*
X150626419Y-98171930D01*
X150442345Y-98070735D01*
X150242120Y-98007220D01*
X150033372Y-97983805D01*
X150018345Y-97983700D01*
X149701655Y-97983700D01*
X149492601Y-98004198D01*
X149291509Y-98064911D01*
X149106040Y-98163527D01*
X148943257Y-98296289D01*
X148809362Y-98458141D01*
X148709454Y-98642917D01*
X148647338Y-98843580D01*
X148625381Y-99052486D01*
X148644419Y-99261679D01*
X148703727Y-99463189D01*
X148801046Y-99649342D01*
X148932668Y-99813048D01*
X149093581Y-99948070D01*
X149277655Y-100049265D01*
X149477880Y-100112780D01*
X149686628Y-100136195D01*
X149701655Y-100136300D01*
X150018345Y-100136300D01*
X150227399Y-100115802D01*
X150428491Y-100055089D01*
X150613960Y-99956473D01*
X150776743Y-99823711D01*
X150910638Y-99661859D01*
X150937000Y-99613103D01*
X150937000Y-101045177D01*
X150918954Y-101010658D01*
X150787332Y-100846952D01*
X150626419Y-100711930D01*
X150442345Y-100610735D01*
X150242120Y-100547220D01*
X150033372Y-100523805D01*
X150018345Y-100523700D01*
X149701655Y-100523700D01*
X149492601Y-100544198D01*
X149291509Y-100604911D01*
X149106040Y-100703527D01*
X148943257Y-100836289D01*
X148809362Y-100998141D01*
X148709454Y-101182917D01*
X148647338Y-101383580D01*
X148625381Y-101592486D01*
X148644419Y-101801679D01*
X148703727Y-102003189D01*
X148801046Y-102189342D01*
X148932668Y-102353048D01*
X149093581Y-102488070D01*
X149277655Y-102589265D01*
X149477880Y-102652780D01*
X149686628Y-102676195D01*
X149701655Y-102676300D01*
X150018345Y-102676300D01*
X150227399Y-102655802D01*
X150428491Y-102595089D01*
X150613960Y-102496473D01*
X150776743Y-102363711D01*
X150910638Y-102201859D01*
X150937000Y-102153103D01*
X150937000Y-103014700D01*
X150940049Y-103045796D01*
X150942763Y-103076821D01*
X150943257Y-103078523D01*
X150943431Y-103080293D01*
X150952446Y-103110150D01*
X150961150Y-103140111D01*
X150961969Y-103141691D01*
X150962481Y-103143387D01*
X150977123Y-103170925D01*
X150991481Y-103198624D01*
X150992587Y-103200009D01*
X150993422Y-103201580D01*
X151013141Y-103225758D01*
X151032599Y-103250133D01*
X151035038Y-103252606D01*
X151035078Y-103252655D01*
X151035124Y-103252693D01*
X151035910Y-103253490D01*
X151485553Y-103703133D01*
X151461529Y-103747563D01*
X151403084Y-103936368D01*
X151382425Y-104132930D01*
X151400338Y-104329761D01*
X151456141Y-104519364D01*
X151547709Y-104694517D01*
X151671554Y-104848549D01*
X151822958Y-104975592D01*
X151996155Y-105070808D01*
X152184548Y-105130570D01*
X152380960Y-105152601D01*
X152395100Y-105152700D01*
X152404900Y-105152700D01*
X152601601Y-105133413D01*
X152790810Y-105076288D01*
X152965320Y-104983499D01*
X153118483Y-104858582D01*
X153244466Y-104706295D01*
X153338471Y-104532437D01*
X153396916Y-104343632D01*
X153417575Y-104147070D01*
X153399662Y-103950239D01*
X153343859Y-103760636D01*
X153252291Y-103585483D01*
X153128446Y-103431451D01*
X152977042Y-103304408D01*
X152803845Y-103209192D01*
X152615452Y-103149430D01*
X152419040Y-103127399D01*
X152404900Y-103127300D01*
X152395100Y-103127300D01*
X152198399Y-103146587D01*
X152009190Y-103203712D01*
X151964862Y-103227282D01*
X151612400Y-102874820D01*
X151612400Y-102234976D01*
X151671554Y-102308549D01*
X151822958Y-102435592D01*
X151996155Y-102530808D01*
X152184548Y-102590570D01*
X152380960Y-102612601D01*
X152395100Y-102612700D01*
X152404900Y-102612700D01*
X152601601Y-102593413D01*
X152790810Y-102536288D01*
X152965320Y-102443499D01*
X153118483Y-102318582D01*
X153244466Y-102166295D01*
X153338471Y-101992437D01*
X153396916Y-101803632D01*
X153417575Y-101607070D01*
X153399662Y-101410239D01*
X153343859Y-101220636D01*
X153252291Y-101045483D01*
X153128446Y-100891451D01*
X152977042Y-100764408D01*
X152803845Y-100669192D01*
X152615452Y-100609430D01*
X152419040Y-100587399D01*
X152404900Y-100587300D01*
X152395100Y-100587300D01*
X152198399Y-100606587D01*
X152009190Y-100663712D01*
X151834680Y-100756501D01*
X151681517Y-100881418D01*
X151612400Y-100964966D01*
X151612400Y-99694976D01*
X151671554Y-99768549D01*
X151822958Y-99895592D01*
X151996155Y-99990808D01*
X152184548Y-100050570D01*
X152380960Y-100072601D01*
X152395100Y-100072700D01*
X152404900Y-100072700D01*
X152601601Y-100053413D01*
X152790810Y-99996288D01*
X152965320Y-99903499D01*
X153118483Y-99778582D01*
X153244466Y-99626295D01*
X153338471Y-99452437D01*
X153396916Y-99263632D01*
X153417575Y-99067070D01*
X153399662Y-98870239D01*
X153343859Y-98680636D01*
X153252291Y-98505483D01*
X153128446Y-98351451D01*
X152977042Y-98224408D01*
X152803845Y-98129192D01*
X152615452Y-98069430D01*
X152419040Y-98047399D01*
X152404900Y-98047300D01*
X152395100Y-98047300D01*
X152198399Y-98066587D01*
X152009190Y-98123712D01*
X151834680Y-98216501D01*
X151681517Y-98341418D01*
X151612400Y-98424966D01*
X151612400Y-97785180D01*
X151964290Y-97433290D01*
X151996155Y-97450808D01*
X152184548Y-97510570D01*
X152380960Y-97532601D01*
X152395100Y-97532700D01*
X152404900Y-97532700D01*
X152601601Y-97513413D01*
X152790810Y-97456288D01*
X152965320Y-97363499D01*
X153118483Y-97238582D01*
X153244466Y-97086295D01*
X153338471Y-96912437D01*
X153396916Y-96723632D01*
X153417575Y-96527070D01*
X153399662Y-96330239D01*
X153343859Y-96140636D01*
X153252291Y-95965483D01*
X153128446Y-95811451D01*
X152977042Y-95684408D01*
X152803845Y-95589192D01*
X152615452Y-95529430D01*
X152419040Y-95507399D01*
X152404900Y-95507300D01*
X152395100Y-95507300D01*
X152198399Y-95526587D01*
X152009190Y-95583712D01*
X151834680Y-95676501D01*
X151681517Y-95801418D01*
X151555534Y-95953705D01*
X151461529Y-96127563D01*
X151403084Y-96316368D01*
X151382425Y-96512930D01*
X151400338Y-96709761D01*
X151456141Y-96899364D01*
X151485980Y-96956440D01*
X151089729Y-97352691D01*
X151089729Y-95860481D01*
X152028988Y-94921223D01*
X152184548Y-94970570D01*
X152380960Y-94992601D01*
X152395100Y-94992700D01*
X152404900Y-94992700D01*
X152601601Y-94973413D01*
X152790810Y-94916288D01*
X152965320Y-94823499D01*
X153118483Y-94698582D01*
X153244466Y-94546295D01*
X153338471Y-94372437D01*
X153396916Y-94183632D01*
X153417575Y-93987070D01*
X153399662Y-93790239D01*
X153343859Y-93600636D01*
X153252291Y-93425483D01*
X153128446Y-93271451D01*
X152977042Y-93144408D01*
X152803845Y-93049192D01*
X152803200Y-93048987D01*
X152803200Y-92710000D01*
X152799565Y-92672923D01*
X152796320Y-92635831D01*
X152795728Y-92633792D01*
X152795521Y-92631685D01*
X152784757Y-92596034D01*
X152774365Y-92560264D01*
X152773390Y-92558384D01*
X152772777Y-92556352D01*
X152755290Y-92523464D01*
X152738152Y-92490401D01*
X152736828Y-92488742D01*
X152735834Y-92486873D01*
X152712316Y-92458037D01*
X152689059Y-92428903D01*
X152686150Y-92425954D01*
X152686099Y-92425891D01*
X152686041Y-92425843D01*
X152685105Y-92424894D01*
X151993729Y-91733519D01*
X151993729Y-90790000D01*
X151991028Y-90756128D01*
X151973237Y-90698678D01*
X151940145Y-90648459D01*
X151894372Y-90609448D01*
X151839543Y-90584733D01*
X151780000Y-90576271D01*
X150836482Y-90576271D01*
X150090658Y-89830447D01*
X150580803Y-89830447D01*
X150648469Y-90013295D01*
X150867111Y-90086614D01*
X151095855Y-90115869D01*
X151325912Y-90099937D01*
X151548440Y-90039428D01*
X151611531Y-90013295D01*
X151679197Y-89830447D01*
X151130000Y-89281250D01*
X150580803Y-89830447D01*
X150090658Y-89830447D01*
X149637105Y-89376895D01*
X149608334Y-89353262D01*
X149579795Y-89329314D01*
X149577937Y-89328293D01*
X149576299Y-89326947D01*
X149543427Y-89309321D01*
X149510837Y-89291405D01*
X149508822Y-89290766D01*
X149506948Y-89289761D01*
X149471282Y-89278857D01*
X149435830Y-89267611D01*
X149433723Y-89267375D01*
X149431696Y-89266755D01*
X149394650Y-89262992D01*
X149357630Y-89258839D01*
X149353489Y-89258810D01*
X149353407Y-89258802D01*
X149353331Y-89258809D01*
X149352000Y-89258800D01*
X135128000Y-89258800D01*
X135090968Y-89262431D01*
X135053831Y-89265680D01*
X135051792Y-89266272D01*
X135049685Y-89266479D01*
X135014020Y-89277247D01*
X134978265Y-89287635D01*
X134976386Y-89288609D01*
X134974352Y-89289223D01*
X134941426Y-89306730D01*
X134908402Y-89323848D01*
X134906745Y-89325170D01*
X134904873Y-89326166D01*
X134876015Y-89349701D01*
X134846903Y-89372941D01*
X134843953Y-89375850D01*
X134843891Y-89375901D01*
X134843843Y-89375959D01*
X134842895Y-89376894D01*
X133643519Y-90576271D01*
X132700000Y-90576271D01*
X132666128Y-90578972D01*
X132608678Y-90596763D01*
X132558459Y-90629855D01*
X132519448Y-90675628D01*
X132494733Y-90730457D01*
X132486271Y-90790000D01*
X130973900Y-90790000D01*
X130973900Y-89830447D01*
X132800803Y-89830447D01*
X132868469Y-90013295D01*
X133087111Y-90086614D01*
X133315855Y-90115869D01*
X133545912Y-90099937D01*
X133768440Y-90039428D01*
X133831531Y-90013295D01*
X133899197Y-89830447D01*
X133350000Y-89281250D01*
X132800803Y-89830447D01*
X130973900Y-89830447D01*
X130973900Y-88908019D01*
X130974112Y-88905855D01*
X132174131Y-88905855D01*
X132190063Y-89135912D01*
X132250572Y-89358440D01*
X132276705Y-89421531D01*
X132459553Y-89489197D01*
X133008750Y-88940000D01*
X133691250Y-88940000D01*
X134240447Y-89489197D01*
X134423295Y-89421531D01*
X134496614Y-89202889D01*
X134525869Y-88974145D01*
X134521140Y-88905855D01*
X149954131Y-88905855D01*
X149970063Y-89135912D01*
X150030572Y-89358440D01*
X150056705Y-89421531D01*
X150239553Y-89489197D01*
X150788750Y-88940000D01*
X151471250Y-88940000D01*
X152020447Y-89489197D01*
X152203295Y-89421531D01*
X152276614Y-89202889D01*
X152305869Y-88974145D01*
X152289937Y-88744088D01*
X152229428Y-88521560D01*
X152203295Y-88458469D01*
X152020447Y-88390803D01*
X151471250Y-88940000D01*
X150788750Y-88940000D01*
X150239553Y-88390803D01*
X150056705Y-88458469D01*
X149983386Y-88677111D01*
X149954131Y-88905855D01*
X134521140Y-88905855D01*
X134509937Y-88744088D01*
X134449428Y-88521560D01*
X134423295Y-88458469D01*
X134240447Y-88390803D01*
X133691250Y-88940000D01*
X133008750Y-88940000D01*
X132459553Y-88390803D01*
X132276705Y-88458469D01*
X132203386Y-88677111D01*
X132174131Y-88905855D01*
X130974112Y-88905855D01*
X130995737Y-88685311D01*
X131058088Y-88478794D01*
X131159360Y-88288330D01*
X131295701Y-88121159D01*
X131461914Y-87983655D01*
X131651674Y-87881052D01*
X131857747Y-87817261D01*
X132080008Y-87793901D01*
X132080287Y-87793900D01*
X133103201Y-87793900D01*
X132931560Y-87840572D01*
X132931560Y-87840572D01*
G37*
X132931560Y-87840572D02*
X132868469Y-87866705D01*
X132800803Y-88049553D01*
X133350000Y-88598750D01*
X133899197Y-88049553D01*
X133831531Y-87866705D01*
X133614422Y-87793900D01*
X150883201Y-87793900D01*
X150711560Y-87840572D01*
X150648469Y-87866705D01*
X150580803Y-88049553D01*
X151130000Y-88598750D01*
X151679197Y-88049553D01*
X151611531Y-87866705D01*
X151394422Y-87793900D01*
X152391981Y-87793900D01*
X152614689Y-87815737D01*
X152821206Y-87878088D01*
X153011670Y-87979360D01*
X153178841Y-88115701D01*
X153316345Y-88281914D01*
X153418948Y-88471674D01*
X153482739Y-88677747D01*
X153506099Y-88900008D01*
X153506100Y-88900287D01*
X153506100Y-113021981D01*
X153484263Y-113244689D01*
X153421912Y-113451206D01*
X153320641Y-113641670D01*
X153184299Y-113808841D01*
X153018083Y-113946348D01*
X152828324Y-114048949D01*
X152622253Y-114112739D01*
X152399992Y-114136099D01*
X152399713Y-114136100D01*
X132088019Y-114136100D01*
X131865311Y-114114263D01*
X131658794Y-114051912D01*
X131468330Y-113950641D01*
X131301159Y-113814299D01*
X131163652Y-113648083D01*
X131061051Y-113458324D01*
X130997261Y-113252253D01*
X130973901Y-113029992D01*
X130973900Y-113029713D01*
X130973900Y-112470960D01*
X131021400Y-112549709D01*
X131195805Y-112741058D01*
X131404189Y-112894705D01*
X131638544Y-113004746D01*
X131838700Y-112928305D01*
X131838700Y-112001300D01*
X132321300Y-112001300D01*
X132321300Y-112928305D01*
X132521456Y-113004746D01*
X132755811Y-112894705D01*
X132964195Y-112741058D01*
X133138600Y-112549709D01*
X133272324Y-112328012D01*
X133324735Y-112201454D01*
X133245815Y-112001300D01*
X132321300Y-112001300D01*
X131838700Y-112001300D01*
X131818700Y-112001300D01*
X131818700Y-111518700D01*
X131838700Y-111518700D01*
X131838700Y-110591695D01*
X132321300Y-110591695D01*
X132321300Y-111518700D01*
X133245815Y-111518700D01*
X133324735Y-111318546D01*
X133272324Y-111191988D01*
X133138600Y-110970291D01*
X132964195Y-110778942D01*
X132755811Y-110625295D01*
X132521456Y-110515254D01*
X132321300Y-110591695D01*
X131838700Y-110591695D01*
X131638544Y-110515254D01*
X131404189Y-110625295D01*
X131195805Y-110778942D01*
X131021400Y-110970291D01*
X130973900Y-111049040D01*
X130973900Y-109930960D01*
X131021400Y-110009709D01*
X131195805Y-110201058D01*
X131404189Y-110354705D01*
X131638544Y-110464746D01*
X131838700Y-110388305D01*
X131838700Y-109461300D01*
X132321300Y-109461300D01*
X132321300Y-110388305D01*
X132521456Y-110464746D01*
X132755811Y-110354705D01*
X132964195Y-110201058D01*
X133138600Y-110009709D01*
X133272324Y-109788012D01*
X133324735Y-109661454D01*
X133245815Y-109461300D01*
X132321300Y-109461300D01*
X131838700Y-109461300D01*
X131818700Y-109461300D01*
X131818700Y-108978700D01*
X131838700Y-108978700D01*
X131838700Y-108051695D01*
X132321300Y-108051695D01*
X132321300Y-108978700D01*
X133245815Y-108978700D01*
X133324735Y-108778546D01*
X133272324Y-108651988D01*
X133138600Y-108430291D01*
X132964195Y-108238942D01*
X132755811Y-108085295D01*
X132521456Y-107975254D01*
X132321300Y-108051695D01*
X131838700Y-108051695D01*
X131638544Y-107975254D01*
X131404189Y-108085295D01*
X131195805Y-108238942D01*
X131021400Y-108430291D01*
X130973900Y-108509040D01*
X130973900Y-107390960D01*
X131021400Y-107469709D01*
X131195805Y-107661058D01*
X131404189Y-107814705D01*
X131638544Y-107924746D01*
X131838700Y-107848305D01*
X131838700Y-106921300D01*
X132321300Y-106921300D01*
X132321300Y-107848305D01*
X132521456Y-107924746D01*
X132755811Y-107814705D01*
X132964195Y-107661058D01*
X133138600Y-107469709D01*
X133272324Y-107248012D01*
X133324735Y-107121454D01*
X133245815Y-106921300D01*
X132321300Y-106921300D01*
X131838700Y-106921300D01*
X131818700Y-106921300D01*
X131818700Y-106672930D01*
X138682425Y-106672930D01*
X138700338Y-106869761D01*
X138756141Y-107059364D01*
X138847709Y-107234517D01*
X138971554Y-107388549D01*
X139122958Y-107515592D01*
X139296155Y-107610808D01*
X139484548Y-107670570D01*
X139680960Y-107692601D01*
X139695100Y-107692700D01*
X139704900Y-107692700D01*
X139901601Y-107673413D01*
X140090810Y-107616288D01*
X140265320Y-107523499D01*
X140418483Y-107398582D01*
X140544466Y-107246295D01*
X140638471Y-107072437D01*
X140696916Y-106883632D01*
X140717575Y-106687070D01*
X140716248Y-106672486D01*
X141005381Y-106672486D01*
X141024419Y-106881679D01*
X141083727Y-107083189D01*
X141181046Y-107269342D01*
X141312668Y-107433048D01*
X141473581Y-107568070D01*
X141657655Y-107669265D01*
X141857880Y-107732780D01*
X142066628Y-107756195D01*
X142081655Y-107756300D01*
X142398345Y-107756300D01*
X142607399Y-107735802D01*
X142808491Y-107675089D01*
X142993960Y-107576473D01*
X143156743Y-107443711D01*
X143290638Y-107281859D01*
X143390546Y-107097083D01*
X143452662Y-106896420D01*
X143459300Y-106833264D01*
X143459300Y-106921302D01*
X143614184Y-106921302D01*
X143535265Y-107121454D01*
X143587676Y-107248012D01*
X143721400Y-107469709D01*
X143895805Y-107661058D01*
X144104189Y-107814705D01*
X144338544Y-107924746D01*
X144538700Y-107848305D01*
X144538700Y-106921300D01*
X144518700Y-106921300D01*
X144518700Y-106438700D01*
X144538700Y-106438700D01*
X144538700Y-105511695D01*
X144338544Y-105435254D01*
X144104189Y-105545295D01*
X143895805Y-105698942D01*
X143721400Y-105890291D01*
X143587676Y-106111988D01*
X143535265Y-106238546D01*
X143614184Y-106438698D01*
X143459300Y-106438698D01*
X143459300Y-106519186D01*
X143455581Y-106478321D01*
X143396273Y-106276811D01*
X143298954Y-106090658D01*
X143167332Y-105926952D01*
X143006419Y-105791930D01*
X142822345Y-105690735D01*
X142622120Y-105627220D01*
X142413372Y-105603805D01*
X142398345Y-105603700D01*
X142081655Y-105603700D01*
X141872601Y-105624198D01*
X141671509Y-105684911D01*
X141486040Y-105783527D01*
X141323257Y-105916289D01*
X141189362Y-106078141D01*
X141089454Y-106262917D01*
X141027338Y-106463580D01*
X141005381Y-106672486D01*
X140716248Y-106672486D01*
X140699662Y-106490239D01*
X140643859Y-106300636D01*
X140552291Y-106125483D01*
X140428446Y-105971451D01*
X140277042Y-105844408D01*
X140103845Y-105749192D01*
X139915452Y-105689430D01*
X139719040Y-105667399D01*
X139704900Y-105667300D01*
X139695100Y-105667300D01*
X139498399Y-105686587D01*
X139309190Y-105743712D01*
X139134680Y-105836501D01*
X138981517Y-105961418D01*
X138855534Y-106113705D01*
X138761529Y-106287563D01*
X138703084Y-106476368D01*
X138682425Y-106672930D01*
X131818700Y-106672930D01*
X131818700Y-106438700D01*
X131838700Y-106438700D01*
X131838700Y-105511695D01*
X132321300Y-105511695D01*
X132321300Y-106438700D01*
X133245815Y-106438700D01*
X133324735Y-106238546D01*
X133272324Y-106111988D01*
X133138600Y-105890291D01*
X132964195Y-105698942D01*
X132755811Y-105545295D01*
X132521456Y-105435254D01*
X132321300Y-105511695D01*
X131838700Y-105511695D01*
X131638544Y-105435254D01*
X131404189Y-105545295D01*
X131195805Y-105698942D01*
X131021400Y-105890291D01*
X130973900Y-105969040D01*
X130973900Y-104132930D01*
X131062425Y-104132930D01*
X131080338Y-104329761D01*
X131136141Y-104519364D01*
X131227709Y-104694517D01*
X131351554Y-104848549D01*
X131502958Y-104975592D01*
X131676155Y-105070808D01*
X131864548Y-105130570D01*
X132060960Y-105152601D01*
X132075100Y-105152700D01*
X132084900Y-105152700D01*
X132281601Y-105133413D01*
X132470810Y-105076288D01*
X132645320Y-104983499D01*
X132798483Y-104858582D01*
X132924466Y-104706295D01*
X133018471Y-104532437D01*
X133076916Y-104343632D01*
X133097575Y-104147070D01*
X133079662Y-103950239D01*
X133023859Y-103760636D01*
X132932291Y-103585483D01*
X132808446Y-103431451D01*
X132657042Y-103304408D01*
X132483845Y-103209192D01*
X132295452Y-103149430D01*
X132099040Y-103127399D01*
X132084900Y-103127300D01*
X132075100Y-103127300D01*
X131878399Y-103146587D01*
X131689190Y-103203712D01*
X131514680Y-103296501D01*
X131361517Y-103421418D01*
X131235534Y-103573705D01*
X131141529Y-103747563D01*
X131083084Y-103936368D01*
X131062425Y-104132930D01*
X130973900Y-104132930D01*
X130973900Y-101592930D01*
X131062425Y-101592930D01*
X131080338Y-101789761D01*
X131136141Y-101979364D01*
X131227709Y-102154517D01*
X131351554Y-102308549D01*
X131502958Y-102435592D01*
X131676155Y-102530808D01*
X131864548Y-102590570D01*
X132060960Y-102612601D01*
X132075100Y-102612700D01*
X132084900Y-102612700D01*
X132281601Y-102593413D01*
X132470810Y-102536288D01*
X132645320Y-102443499D01*
X132798483Y-102318582D01*
X132924466Y-102166295D01*
X133018471Y-101992437D01*
X133076916Y-101803632D01*
X133097575Y-101607070D01*
X133079662Y-101410239D01*
X133023859Y-101220636D01*
X132932291Y-101045483D01*
X132808446Y-100891451D01*
X132657042Y-100764408D01*
X132483845Y-100669192D01*
X132295452Y-100609430D01*
X132099040Y-100587399D01*
X132084900Y-100587300D01*
X132075100Y-100587300D01*
X131878399Y-100606587D01*
X131689190Y-100663712D01*
X131514680Y-100756501D01*
X131361517Y-100881418D01*
X131235534Y-101033705D01*
X131141529Y-101207563D01*
X131083084Y-101396368D01*
X131062425Y-101592930D01*
X130973900Y-101592930D01*
X130973900Y-99052930D01*
X131062425Y-99052930D01*
X131080338Y-99249761D01*
X131136141Y-99439364D01*
X131227709Y-99614517D01*
X131351554Y-99768549D01*
X131502958Y-99895592D01*
X131676155Y-99990808D01*
X131864548Y-100050570D01*
X132060960Y-100072601D01*
X132075100Y-100072700D01*
X132084900Y-100072700D01*
X132281601Y-100053413D01*
X132470810Y-99996288D01*
X132645320Y-99903499D01*
X132798483Y-99778582D01*
X132924466Y-99626295D01*
X133018471Y-99452437D01*
X133076916Y-99263632D01*
X133097575Y-99067070D01*
X133079662Y-98870239D01*
X133023859Y-98680636D01*
X132932291Y-98505483D01*
X132808446Y-98351451D01*
X132657042Y-98224408D01*
X132483845Y-98129192D01*
X132295452Y-98069430D01*
X132099040Y-98047399D01*
X132084900Y-98047300D01*
X132075100Y-98047300D01*
X131878399Y-98066587D01*
X131689190Y-98123712D01*
X131514680Y-98216501D01*
X131361517Y-98341418D01*
X131235534Y-98493705D01*
X131141529Y-98667563D01*
X131083084Y-98856368D01*
X131062425Y-99052930D01*
X130973900Y-99052930D01*
X130973900Y-93972930D01*
X131062425Y-93972930D01*
X131080338Y-94169761D01*
X131136141Y-94359364D01*
X131227709Y-94534517D01*
X131351554Y-94688549D01*
X131502958Y-94815592D01*
X131676155Y-94910808D01*
X131742300Y-94931791D01*
X131742300Y-95567677D01*
X131689190Y-95583712D01*
X131514680Y-95676501D01*
X131361517Y-95801418D01*
X131235534Y-95953705D01*
X131141529Y-96127563D01*
X131083084Y-96316368D01*
X131062425Y-96512930D01*
X131080338Y-96709761D01*
X131136141Y-96899364D01*
X131227709Y-97074517D01*
X131351554Y-97228549D01*
X131502958Y-97355592D01*
X131676155Y-97450808D01*
X131864548Y-97510570D01*
X132060960Y-97532601D01*
X132075100Y-97532700D01*
X132084900Y-97532700D01*
X132281601Y-97513413D01*
X132470810Y-97456288D01*
X132645320Y-97363499D01*
X132798483Y-97238582D01*
X132924466Y-97086295D01*
X133018471Y-96912437D01*
X133076916Y-96723632D01*
X133097575Y-96527070D01*
X133079662Y-96330239D01*
X133023859Y-96140636D01*
X132932291Y-95965483D01*
X132808446Y-95811451D01*
X132657042Y-95684408D01*
X132483845Y-95589192D01*
X132417700Y-95568209D01*
X132417700Y-94932323D01*
X132470810Y-94916288D01*
X132645320Y-94823499D01*
X132798483Y-94698582D01*
X132924466Y-94546295D01*
X133018471Y-94372437D01*
X133076916Y-94183632D01*
X133097575Y-93987070D01*
X133079662Y-93790239D01*
X133023859Y-93600636D01*
X132932291Y-93425483D01*
X132808446Y-93271451D01*
X132657042Y-93144408D01*
X132483845Y-93049192D01*
X132295452Y-92989430D01*
X132099040Y-92967399D01*
X132084900Y-92967300D01*
X132075100Y-92967300D01*
X131878399Y-92986587D01*
X131689190Y-93043712D01*
X131514680Y-93136501D01*
X131361517Y-93261418D01*
X131235534Y-93413705D01*
X131141529Y-93587563D01*
X131083084Y-93776368D01*
X131062425Y-93972930D01*
X130973900Y-93972930D01*
X130973900Y-90790000D01*
X132486271Y-90790000D01*
X132486271Y-92090000D01*
X132488972Y-92123872D01*
X132506763Y-92181322D01*
X132539855Y-92231541D01*
X132585628Y-92270552D01*
X132640457Y-92295267D01*
X132700000Y-92303729D01*
X134000000Y-92303729D01*
X134033872Y-92301028D01*
X134091322Y-92283237D01*
X134141541Y-92250145D01*
X134180552Y-92204372D01*
X134205267Y-92149543D01*
X134213729Y-92090000D01*
X134213729Y-91146481D01*
X134812671Y-90547540D01*
X134812671Y-92456000D01*
X134815372Y-92489872D01*
X134833163Y-92547322D01*
X134866255Y-92597541D01*
X134912028Y-92636552D01*
X134966857Y-92661267D01*
X135026400Y-92669729D01*
X135552300Y-92669729D01*
X135552300Y-92710000D01*
X135555349Y-92741096D01*
X135558063Y-92772121D01*
X135558557Y-92773823D01*
X135558731Y-92775593D01*
X135567746Y-92805450D01*
X135576450Y-92835411D01*
X135577269Y-92836991D01*
X135577781Y-92838687D01*
X135592423Y-92866225D01*
X135606781Y-92893924D01*
X135607887Y-92895309D01*
X135608722Y-92896880D01*
X135628441Y-92921058D01*
X135647899Y-92945433D01*
X135650338Y-92947906D01*
X135650378Y-92947955D01*
X135650424Y-92947993D01*
X135651210Y-92948790D01*
X138785553Y-96083133D01*
X138761529Y-96127563D01*
X138703084Y-96316368D01*
X138682425Y-96512930D01*
X138700338Y-96709761D01*
X138756141Y-96899364D01*
X138847709Y-97074517D01*
X138971554Y-97228549D01*
X139122958Y-97355592D01*
X139296155Y-97450808D01*
X139484548Y-97510570D01*
X139680960Y-97532601D01*
X139695100Y-97532700D01*
X139704900Y-97532700D01*
X139901601Y-97513413D01*
X140090810Y-97456288D01*
X140135138Y-97432718D01*
X140505300Y-97802880D01*
X140505300Y-98447038D01*
X140428446Y-98351451D01*
X140277042Y-98224408D01*
X140103845Y-98129192D01*
X139915452Y-98069430D01*
X139719040Y-98047399D01*
X139704900Y-98047300D01*
X139695100Y-98047300D01*
X139498399Y-98066587D01*
X139309190Y-98123712D01*
X139134680Y-98216501D01*
X138981517Y-98341418D01*
X138855534Y-98493705D01*
X138761529Y-98667563D01*
X138703084Y-98856368D01*
X138682425Y-99052930D01*
X138700338Y-99249761D01*
X138756141Y-99439364D01*
X138847709Y-99614517D01*
X138971554Y-99768549D01*
X139122958Y-99895592D01*
X139296155Y-99990808D01*
X139484548Y-100050570D01*
X139680960Y-100072601D01*
X139695100Y-100072700D01*
X139704900Y-100072700D01*
X139901601Y-100053413D01*
X140090810Y-99996288D01*
X140265320Y-99903499D01*
X140418483Y-99778582D01*
X140505300Y-99673638D01*
X140505300Y-100987038D01*
X140428446Y-100891451D01*
X140277042Y-100764408D01*
X140103845Y-100669192D01*
X139915452Y-100609430D01*
X139719040Y-100587399D01*
X139704900Y-100587300D01*
X139695100Y-100587300D01*
X139498399Y-100606587D01*
X139309190Y-100663712D01*
X139134680Y-100756501D01*
X138981517Y-100881418D01*
X138855534Y-101033705D01*
X138761529Y-101207563D01*
X138703084Y-101396368D01*
X138682425Y-101592930D01*
X138700338Y-101789761D01*
X138756141Y-101979364D01*
X138847709Y-102154517D01*
X138971554Y-102308549D01*
X139122958Y-102435592D01*
X139296155Y-102530808D01*
X139484548Y-102590570D01*
X139680960Y-102612601D01*
X139695100Y-102612700D01*
X139704900Y-102612700D01*
X139901601Y-102593413D01*
X140090810Y-102536288D01*
X140265320Y-102443499D01*
X140418483Y-102318582D01*
X140505300Y-102213638D01*
X140505300Y-102855722D01*
X140134808Y-103226214D01*
X140103845Y-103209192D01*
X139915452Y-103149430D01*
X139719040Y-103127399D01*
X139704900Y-103127300D01*
X139695100Y-103127300D01*
X139498399Y-103146587D01*
X139309190Y-103203712D01*
X139134680Y-103296501D01*
X138981517Y-103421418D01*
X138855534Y-103573705D01*
X138761529Y-103747563D01*
X138703084Y-103936368D01*
X138682425Y-104132930D01*
X138700338Y-104329761D01*
X138756141Y-104519364D01*
X138847709Y-104694517D01*
X138971554Y-104848549D01*
X139118803Y-104972106D01*
X138690894Y-104971368D01*
X138631389Y-104911446D01*
X138548033Y-104855222D01*
X138455343Y-104816259D01*
X138356851Y-104796041D01*
X138256308Y-104795339D01*
X138157543Y-104814180D01*
X138064319Y-104851845D01*
X137980186Y-104906900D01*
X137908348Y-104977248D01*
X137851543Y-105060210D01*
X137811934Y-105152625D01*
X137791030Y-105250973D01*
X137789626Y-105351509D01*
X137807776Y-105450403D01*
X137844790Y-105543888D01*
X137899256Y-105628404D01*
X137969101Y-105700730D01*
X138051664Y-105758113D01*
X138143800Y-105798366D01*
X138242001Y-105819957D01*
X138342524Y-105822063D01*
X138441542Y-105804603D01*
X138535284Y-105768243D01*
X138620177Y-105714368D01*
X138691163Y-105646769D01*
X140159718Y-105649299D01*
X140191113Y-105646276D01*
X140222421Y-105643537D01*
X140223840Y-105643125D01*
X140225322Y-105642982D01*
X140255483Y-105633932D01*
X140285711Y-105625150D01*
X140287032Y-105624465D01*
X140288449Y-105624040D01*
X140316274Y-105609307D01*
X140344224Y-105594819D01*
X140345380Y-105593896D01*
X140346695Y-105593200D01*
X140371163Y-105573314D01*
X140395733Y-105553701D01*
X140397778Y-105551684D01*
X140397842Y-105551632D01*
X140397893Y-105551571D01*
X140399090Y-105550390D01*
X141087690Y-104861790D01*
X141107517Y-104837652D01*
X141127541Y-104813789D01*
X141128396Y-104812235D01*
X141129523Y-104810862D01*
X141144252Y-104783391D01*
X141159292Y-104756034D01*
X141159830Y-104754338D01*
X141160667Y-104752777D01*
X141169778Y-104722979D01*
X141172777Y-104713524D01*
X141181046Y-104729342D01*
X141312668Y-104893048D01*
X141473581Y-105028070D01*
X141657655Y-105129265D01*
X141857880Y-105192780D01*
X142066628Y-105216195D01*
X142081655Y-105216300D01*
X142398345Y-105216300D01*
X142607399Y-105195802D01*
X142808491Y-105135089D01*
X142993960Y-105036473D01*
X143156743Y-104903711D01*
X143290638Y-104741859D01*
X143390546Y-104557083D01*
X143452662Y-104356420D01*
X143474619Y-104147514D01*
X143455581Y-103938321D01*
X143396273Y-103736811D01*
X143298954Y-103550658D01*
X143167332Y-103386952D01*
X143006419Y-103251930D01*
X142983339Y-103239241D01*
X143893490Y-102329090D01*
X143913321Y-102304948D01*
X143933341Y-102281089D01*
X143934195Y-102279535D01*
X143935324Y-102278161D01*
X143950081Y-102250639D01*
X143965092Y-102223334D01*
X143965629Y-102221643D01*
X143966468Y-102220077D01*
X143970312Y-102207504D01*
X144051554Y-102308549D01*
X144202958Y-102435592D01*
X144376155Y-102530808D01*
X144564548Y-102590570D01*
X144760960Y-102612601D01*
X144775100Y-102612700D01*
X144784900Y-102612700D01*
X144981601Y-102593413D01*
X145170810Y-102536288D01*
X145345320Y-102443499D01*
X145498483Y-102318582D01*
X145624466Y-102166295D01*
X145636100Y-102144778D01*
X145636100Y-103592769D01*
X145632291Y-103585483D01*
X145508446Y-103431451D01*
X145357042Y-103304408D01*
X145183845Y-103209192D01*
X144995452Y-103149430D01*
X144799040Y-103127399D01*
X144784900Y-103127300D01*
X144775100Y-103127300D01*
X144578399Y-103146587D01*
X144389190Y-103203712D01*
X144214680Y-103296501D01*
X144061517Y-103421418D01*
X143935534Y-103573705D01*
X143841529Y-103747563D01*
X143783084Y-103936368D01*
X143762425Y-104132930D01*
X143780338Y-104329761D01*
X143836141Y-104519364D01*
X143927709Y-104694517D01*
X144051554Y-104848549D01*
X144202958Y-104975592D01*
X144376155Y-105070808D01*
X144564548Y-105130570D01*
X144760960Y-105152601D01*
X144775100Y-105152700D01*
X144784900Y-105152700D01*
X144981601Y-105133413D01*
X145170810Y-105076288D01*
X145345320Y-104983499D01*
X145498483Y-104858582D01*
X145624466Y-104706295D01*
X145636100Y-104684778D01*
X145636100Y-105678227D01*
X145455811Y-105545295D01*
X145221456Y-105435254D01*
X145021300Y-105511695D01*
X145021300Y-106438700D01*
X145041300Y-106438700D01*
X145041300Y-106921300D01*
X145021300Y-106921300D01*
X145021300Y-107848305D01*
X145221456Y-107924746D01*
X145455811Y-107814705D01*
X145636100Y-107681773D01*
X145636100Y-108218227D01*
X145455811Y-108085295D01*
X145221456Y-107975254D01*
X145021300Y-108051695D01*
X145021300Y-108978700D01*
X145041300Y-108978700D01*
X145041300Y-109461300D01*
X145021300Y-109461300D01*
X145021300Y-110388305D01*
X145221456Y-110464746D01*
X145455811Y-110354705D01*
X145636100Y-110221773D01*
X145636100Y-110758227D01*
X145455811Y-110625295D01*
X145221456Y-110515254D01*
X145021300Y-110591695D01*
X145021300Y-111518700D01*
X145041300Y-111518700D01*
X145041300Y-112001300D01*
X145021300Y-112001300D01*
X145021300Y-112021300D01*
X144538700Y-112021300D01*
X144538700Y-112001300D01*
X144518700Y-112001300D01*
X144518700Y-111518700D01*
X144538700Y-111518700D01*
X144538700Y-110591695D01*
X144338544Y-110515254D01*
X144104189Y-110625295D01*
X143895805Y-110778942D01*
X143835112Y-110845532D01*
X143266190Y-110276610D01*
X143242048Y-110256779D01*
X143218189Y-110236759D01*
X143216635Y-110235905D01*
X143215261Y-110234776D01*
X143187739Y-110220019D01*
X143160434Y-110205008D01*
X143158743Y-110204471D01*
X143157177Y-110203632D01*
X143127304Y-110194499D01*
X143097612Y-110185080D01*
X143095852Y-110184883D01*
X143094149Y-110184362D01*
X143063066Y-110181205D01*
X143032115Y-110177733D01*
X143028645Y-110177709D01*
X143028579Y-110177702D01*
X143028517Y-110177708D01*
X143027400Y-110177700D01*
X142878809Y-110177700D01*
X142993960Y-110116473D01*
X143156743Y-109983711D01*
X143290638Y-109821859D01*
X143390546Y-109637083D01*
X143452662Y-109436420D01*
X143459300Y-109373264D01*
X143459300Y-109461302D01*
X143614184Y-109461302D01*
X143535265Y-109661454D01*
X143587676Y-109788012D01*
X143721400Y-110009709D01*
X143895805Y-110201058D01*
X144104189Y-110354705D01*
X144338544Y-110464746D01*
X144538700Y-110388305D01*
X144538700Y-109461300D01*
X144518700Y-109461300D01*
X144518700Y-108978700D01*
X144538700Y-108978700D01*
X144538700Y-108051695D01*
X144338544Y-107975254D01*
X144104189Y-108085295D01*
X143895805Y-108238942D01*
X143721400Y-108430291D01*
X143587676Y-108651988D01*
X143535265Y-108778546D01*
X143614184Y-108978698D01*
X143459300Y-108978698D01*
X143459300Y-109059186D01*
X143455581Y-109018321D01*
X143396273Y-108816811D01*
X143298954Y-108630658D01*
X143167332Y-108466952D01*
X143006419Y-108331930D01*
X142822345Y-108230735D01*
X142622120Y-108167220D01*
X142413372Y-108143805D01*
X142398345Y-108143700D01*
X142081655Y-108143700D01*
X141872601Y-108164198D01*
X141671509Y-108224911D01*
X141486040Y-108323527D01*
X141323257Y-108456289D01*
X141189362Y-108618141D01*
X141089454Y-108802917D01*
X141027338Y-109003580D01*
X141005381Y-109212486D01*
X141024419Y-109421679D01*
X141083727Y-109623189D01*
X141181046Y-109809342D01*
X141312668Y-109973048D01*
X141473581Y-110108070D01*
X141600238Y-110177700D01*
X141135280Y-110177700D01*
X140614447Y-109656867D01*
X140638471Y-109612437D01*
X140696916Y-109423632D01*
X140717575Y-109227070D01*
X140699662Y-109030239D01*
X140643859Y-108840636D01*
X140552291Y-108665483D01*
X140428446Y-108511451D01*
X140277042Y-108384408D01*
X140103845Y-108289192D01*
X139915452Y-108229430D01*
X139719040Y-108207399D01*
X139704900Y-108207300D01*
X139695100Y-108207300D01*
X139498399Y-108226587D01*
X139309190Y-108283712D01*
X139134680Y-108376501D01*
X138981517Y-108501418D01*
X138855534Y-108653705D01*
X138761529Y-108827563D01*
X138703084Y-109016368D01*
X138682425Y-109212930D01*
X138700338Y-109409761D01*
X138756141Y-109599364D01*
X138847709Y-109774517D01*
X138971554Y-109928549D01*
X139122958Y-110055592D01*
X139296155Y-110150808D01*
X139484548Y-110210570D01*
X139680960Y-110232601D01*
X139695100Y-110232700D01*
X139704900Y-110232700D01*
X139901601Y-110213413D01*
X140090810Y-110156288D01*
X140135138Y-110132718D01*
X140756610Y-110754190D01*
X140780752Y-110774021D01*
X140804611Y-110794041D01*
X140806165Y-110794895D01*
X140807539Y-110796024D01*
X140835027Y-110810762D01*
X140862366Y-110825792D01*
X140864062Y-110826330D01*
X140865623Y-110827167D01*
X140895462Y-110836291D01*
X140925188Y-110845720D01*
X140926947Y-110845917D01*
X140928650Y-110846438D01*
X140959739Y-110849596D01*
X140990685Y-110853067D01*
X140994155Y-110853091D01*
X140994221Y-110853098D01*
X140994283Y-110853092D01*
X140995400Y-110853100D01*
X141053967Y-110853100D01*
X140921706Y-111022815D01*
X140800291Y-111264434D01*
X140779023Y-111308434D01*
X140856907Y-111518698D01*
X140703300Y-111518698D01*
X140703300Y-111610214D01*
X140699662Y-111570239D01*
X140643859Y-111380636D01*
X140552291Y-111205483D01*
X140428446Y-111051451D01*
X140277042Y-110924408D01*
X140103845Y-110829192D01*
X139915452Y-110769430D01*
X139719040Y-110747399D01*
X139704900Y-110747300D01*
X139695100Y-110747300D01*
X139498399Y-110766587D01*
X139309190Y-110823712D01*
X139134680Y-110916501D01*
X138981517Y-111041418D01*
X138855534Y-111193705D01*
X138761529Y-111367563D01*
X138703084Y-111556368D01*
X138682425Y-111752930D01*
X138700338Y-111949761D01*
X138756141Y-112139364D01*
X138847709Y-112314517D01*
X138971554Y-112468549D01*
X139122958Y-112595592D01*
X139296155Y-112690808D01*
X139484548Y-112750570D01*
X139680960Y-112772601D01*
X139695100Y-112772700D01*
X139704900Y-112772700D01*
X139901601Y-112753413D01*
X140090810Y-112696288D01*
X140265320Y-112603499D01*
X140418483Y-112478582D01*
X140544466Y-112326295D01*
X140638471Y-112152437D01*
X140696916Y-111963632D01*
X140703300Y-111902891D01*
X140703300Y-112001302D01*
X140856907Y-112001302D01*
X140779023Y-112211566D01*
X140800291Y-112255566D01*
X140921706Y-112497185D01*
X141087926Y-112710475D01*
X141292563Y-112887239D01*
X141527753Y-113020683D01*
X141784457Y-113105680D01*
X141998700Y-113006359D01*
X141998700Y-112001300D01*
X141978700Y-112001300D01*
X141978700Y-111518700D01*
X141998700Y-111518700D01*
X141998700Y-111498700D01*
X142481300Y-111498700D01*
X142481300Y-111518700D01*
X142501300Y-111518700D01*
X142501300Y-112001300D01*
X142481300Y-112001300D01*
X142481300Y-113006359D01*
X142695543Y-113105680D01*
X142952247Y-113020683D01*
X143187437Y-112887239D01*
X143392074Y-112710475D01*
X143483973Y-112592553D01*
X144058610Y-113167190D01*
X144082752Y-113187021D01*
X144106611Y-113207041D01*
X144108165Y-113207895D01*
X144109539Y-113209024D01*
X144137043Y-113223771D01*
X144164366Y-113238792D01*
X144166060Y-113239329D01*
X144167624Y-113240168D01*
X144197482Y-113249297D01*
X144227188Y-113258720D01*
X144228949Y-113258917D01*
X144230651Y-113259438D01*
X144261734Y-113262595D01*
X144292685Y-113266067D01*
X144296155Y-113266091D01*
X144296221Y-113266098D01*
X144296283Y-113266092D01*
X144297400Y-113266100D01*
X145288000Y-113266100D01*
X145319096Y-113263051D01*
X145350121Y-113260337D01*
X145351823Y-113259843D01*
X145353593Y-113259669D01*
X145383450Y-113250654D01*
X145413411Y-113241950D01*
X145414991Y-113241131D01*
X145416687Y-113240619D01*
X145444225Y-113225977D01*
X145471924Y-113211619D01*
X145473309Y-113210513D01*
X145474880Y-113209678D01*
X145499058Y-113189959D01*
X145523433Y-113170501D01*
X145525906Y-113168062D01*
X145525955Y-113168022D01*
X145525993Y-113167976D01*
X145526790Y-113167190D01*
X146212590Y-112481390D01*
X146232421Y-112457248D01*
X146252441Y-112433389D01*
X146253295Y-112431835D01*
X146254424Y-112430461D01*
X146269171Y-112402957D01*
X146284192Y-112375634D01*
X146284729Y-112373940D01*
X146285568Y-112372376D01*
X146294697Y-112342518D01*
X146304120Y-112312812D01*
X146304317Y-112311051D01*
X146304838Y-112309349D01*
X146307995Y-112278266D01*
X146311467Y-112247315D01*
X146311491Y-112243845D01*
X146311498Y-112243779D01*
X146311492Y-112243717D01*
X146311500Y-112242600D01*
X146311500Y-111752486D01*
X148625381Y-111752486D01*
X148644419Y-111961679D01*
X148703727Y-112163189D01*
X148801046Y-112349342D01*
X148932668Y-112513048D01*
X149093581Y-112648070D01*
X149277655Y-112749265D01*
X149477880Y-112812780D01*
X149686628Y-112836195D01*
X149701655Y-112836300D01*
X150018345Y-112836300D01*
X150227399Y-112815802D01*
X150428491Y-112755089D01*
X150613960Y-112656473D01*
X150776743Y-112523711D01*
X150910638Y-112361859D01*
X151010546Y-112177083D01*
X151072662Y-111976420D01*
X151094619Y-111767514D01*
X151093292Y-111752930D01*
X151382425Y-111752930D01*
X151400338Y-111949761D01*
X151456141Y-112139364D01*
X151547709Y-112314517D01*
X151671554Y-112468549D01*
X151822958Y-112595592D01*
X151996155Y-112690808D01*
X152184548Y-112750570D01*
X152380960Y-112772601D01*
X152395100Y-112772700D01*
X152404900Y-112772700D01*
X152601601Y-112753413D01*
X152790810Y-112696288D01*
X152965320Y-112603499D01*
X153118483Y-112478582D01*
X153244466Y-112326295D01*
X153338471Y-112152437D01*
X153396916Y-111963632D01*
X153417575Y-111767070D01*
X153399662Y-111570239D01*
X153343859Y-111380636D01*
X153252291Y-111205483D01*
X153128446Y-111051451D01*
X152977042Y-110924408D01*
X152803845Y-110829192D01*
X152615452Y-110769430D01*
X152419040Y-110747399D01*
X152404900Y-110747300D01*
X152395100Y-110747300D01*
X152198399Y-110766587D01*
X152009190Y-110823712D01*
X151834680Y-110916501D01*
X151681517Y-111041418D01*
X151555534Y-111193705D01*
X151461529Y-111367563D01*
X151403084Y-111556368D01*
X151382425Y-111752930D01*
X151093292Y-111752930D01*
X151075581Y-111558321D01*
X151016273Y-111356811D01*
X150918954Y-111170658D01*
X150787332Y-111006952D01*
X150626419Y-110871930D01*
X150442345Y-110770735D01*
X150242120Y-110707220D01*
X150033372Y-110683805D01*
X150018345Y-110683700D01*
X149701655Y-110683700D01*
X149492601Y-110704198D01*
X149291509Y-110764911D01*
X149106040Y-110863527D01*
X148943257Y-110996289D01*
X148809362Y-111158141D01*
X148709454Y-111342917D01*
X148647338Y-111543580D01*
X148625381Y-111752486D01*
X146311500Y-111752486D01*
X146311500Y-109212486D01*
X148625381Y-109212486D01*
X148644419Y-109421679D01*
X148703727Y-109623189D01*
X148801046Y-109809342D01*
X148932668Y-109973048D01*
X149093581Y-110108070D01*
X149277655Y-110209265D01*
X149477880Y-110272780D01*
X149686628Y-110296195D01*
X149701655Y-110296300D01*
X150018345Y-110296300D01*
X150227399Y-110275802D01*
X150428491Y-110215089D01*
X150613960Y-110116473D01*
X150776743Y-109983711D01*
X150910638Y-109821859D01*
X151010546Y-109637083D01*
X151072662Y-109436420D01*
X151094619Y-109227514D01*
X151093292Y-109212930D01*
X151382425Y-109212930D01*
X151400338Y-109409761D01*
X151456141Y-109599364D01*
X151547709Y-109774517D01*
X151671554Y-109928549D01*
X151822958Y-110055592D01*
X151996155Y-110150808D01*
X152184548Y-110210570D01*
X152380960Y-110232601D01*
X152395100Y-110232700D01*
X152404900Y-110232700D01*
X152601601Y-110213413D01*
X152790810Y-110156288D01*
X152965320Y-110063499D01*
X153118483Y-109938582D01*
X153244466Y-109786295D01*
X153338471Y-109612437D01*
X153396916Y-109423632D01*
X153417575Y-109227070D01*
X153399662Y-109030239D01*
X153343859Y-108840636D01*
X153252291Y-108665483D01*
X153128446Y-108511451D01*
X152977042Y-108384408D01*
X152803845Y-108289192D01*
X152615452Y-108229430D01*
X152419040Y-108207399D01*
X152404900Y-108207300D01*
X152395100Y-108207300D01*
X152198399Y-108226587D01*
X152009190Y-108283712D01*
X151834680Y-108376501D01*
X151681517Y-108501418D01*
X151555534Y-108653705D01*
X151461529Y-108827563D01*
X151403084Y-109016368D01*
X151382425Y-109212930D01*
X151093292Y-109212930D01*
X151075581Y-109018321D01*
X151016273Y-108816811D01*
X150918954Y-108630658D01*
X150787332Y-108466952D01*
X150626419Y-108331930D01*
X150442345Y-108230735D01*
X150242120Y-108167220D01*
X150033372Y-108143805D01*
X150018345Y-108143700D01*
X149701655Y-108143700D01*
X149492601Y-108164198D01*
X149291509Y-108224911D01*
X149106040Y-108323527D01*
X148943257Y-108456289D01*
X148809362Y-108618141D01*
X148709454Y-108802917D01*
X148647338Y-109003580D01*
X148625381Y-109212486D01*
X146311500Y-109212486D01*
X146311500Y-108461404D01*
X146348443Y-108518728D01*
X146472576Y-108647271D01*
X146619311Y-108749255D01*
X146783061Y-108820796D01*
X146957588Y-108859168D01*
X147136245Y-108862910D01*
X147312225Y-108831880D01*
X147478828Y-108767260D01*
X147629705Y-108671510D01*
X147759111Y-108548278D01*
X147862117Y-108402258D01*
X147934799Y-108239011D01*
X147974389Y-108064756D01*
X147977239Y-107860652D01*
X147942530Y-107685360D01*
X147874435Y-107520148D01*
X147775546Y-107371308D01*
X147649631Y-107244511D01*
X147501486Y-107144586D01*
X147336753Y-107075339D01*
X147161707Y-107039407D01*
X146983016Y-107038159D01*
X146807486Y-107071643D01*
X146706161Y-107112581D01*
X146311500Y-106717920D01*
X146311500Y-106672486D01*
X148625381Y-106672486D01*
X148644419Y-106881679D01*
X148703727Y-107083189D01*
X148801046Y-107269342D01*
X148932668Y-107433048D01*
X149093581Y-107568070D01*
X149277655Y-107669265D01*
X149477880Y-107732780D01*
X149686628Y-107756195D01*
X149701655Y-107756300D01*
X150018345Y-107756300D01*
X150227399Y-107735802D01*
X150428491Y-107675089D01*
X150613960Y-107576473D01*
X150776743Y-107443711D01*
X150910638Y-107281859D01*
X151010546Y-107097083D01*
X151072662Y-106896420D01*
X151094619Y-106687514D01*
X151093292Y-106672930D01*
X151382425Y-106672930D01*
X151400338Y-106869761D01*
X151456141Y-107059364D01*
X151547709Y-107234517D01*
X151671554Y-107388549D01*
X151822958Y-107515592D01*
X151996155Y-107610808D01*
X152184548Y-107670570D01*
X152380960Y-107692601D01*
X152395100Y-107692700D01*
X152404900Y-107692700D01*
X152601601Y-107673413D01*
X152790810Y-107616288D01*
X152965320Y-107523499D01*
X153118483Y-107398582D01*
X153244466Y-107246295D01*
X153338471Y-107072437D01*
X153396916Y-106883632D01*
X153417575Y-106687070D01*
X153399662Y-106490239D01*
X153343859Y-106300636D01*
X153252291Y-106125483D01*
X153128446Y-105971451D01*
X152977042Y-105844408D01*
X152803845Y-105749192D01*
X152615452Y-105689430D01*
X152419040Y-105667399D01*
X152404900Y-105667300D01*
X152395100Y-105667300D01*
X152198399Y-105686587D01*
X152009190Y-105743712D01*
X151834680Y-105836501D01*
X151681517Y-105961418D01*
X151555534Y-106113705D01*
X151461529Y-106287563D01*
X151403084Y-106476368D01*
X151382425Y-106672930D01*
X151093292Y-106672930D01*
X151075581Y-106478321D01*
X151016273Y-106276811D01*
X150918954Y-106090658D01*
X150787332Y-105926952D01*
X150626419Y-105791930D01*
X150442345Y-105690735D01*
X150242120Y-105627220D01*
X150033372Y-105603805D01*
X150018345Y-105603700D01*
X149701655Y-105603700D01*
X149492601Y-105624198D01*
X149291509Y-105684911D01*
X149106040Y-105783527D01*
X148943257Y-105916289D01*
X148809362Y-106078141D01*
X148709454Y-106262917D01*
X148647338Y-106463580D01*
X148625381Y-106672486D01*
X146311500Y-106672486D01*
X146311500Y-104132486D01*
X148625381Y-104132486D01*
X148644419Y-104341679D01*
X148703727Y-104543189D01*
X148801046Y-104729342D01*
X148932668Y-104893048D01*
X149093581Y-105028070D01*
X149277655Y-105129265D01*
X149477880Y-105192780D01*
X149686628Y-105216195D01*
X149701655Y-105216300D01*
X150018345Y-105216300D01*
X150227399Y-105195802D01*
X150428491Y-105135089D01*
X150613960Y-105036473D01*
X150776743Y-104903711D01*
X150910638Y-104741859D01*
X151010546Y-104557083D01*
X151072662Y-104356420D01*
X151094619Y-104147514D01*
X151075581Y-103938321D01*
X151016273Y-103736811D01*
X150918954Y-103550658D01*
X150787332Y-103386952D01*
X150626419Y-103251930D01*
X150442345Y-103150735D01*
X150242120Y-103087220D01*
X150033372Y-103063805D01*
X150018345Y-103063700D01*
X149701655Y-103063700D01*
X149492601Y-103084198D01*
X149291509Y-103144911D01*
X149106040Y-103243527D01*
X148943257Y-103376289D01*
X148809362Y-103538141D01*
X148709454Y-103722917D01*
X148647338Y-103923580D01*
X148625381Y-104132486D01*
X146311500Y-104132486D01*
X146311500Y-100841404D01*
X146348443Y-100898728D01*
X146472576Y-101027271D01*
X146619311Y-101129255D01*
X146783061Y-101200796D01*
X146957588Y-101239168D01*
X147136245Y-101242910D01*
X147312225Y-101211880D01*
X147478828Y-101147260D01*
X147629705Y-101051510D01*
X147759111Y-100928278D01*
X147862117Y-100782258D01*
X147934799Y-100619011D01*
X147974389Y-100444756D01*
X147977239Y-100240652D01*
X147942530Y-100065360D01*
X147874435Y-99900148D01*
X147775546Y-99751308D01*
X147649631Y-99624511D01*
X147501486Y-99524586D01*
X147469200Y-99511014D01*
X147469200Y-99294410D01*
X149166282Y-97597329D01*
X150876000Y-97597329D01*
X150909872Y-97594628D01*
X150943073Y-97584346D01*
X150940505Y-97609634D01*
X150937033Y-97640585D01*
X150937009Y-97644055D01*
X150937002Y-97644121D01*
X150937008Y-97644183D01*
X150937000Y-97645300D01*
X150937000Y-98505177D01*
X150918954Y-98470658D01*
X150787332Y-98306952D01*
X150626419Y-98171930D01*
X150442345Y-98070735D01*
X150242120Y-98007220D01*
X150033372Y-97983805D01*
X150018345Y-97983700D01*
X149701655Y-97983700D01*
X149492601Y-98004198D01*
X149291509Y-98064911D01*
X149106040Y-98163527D01*
X148943257Y-98296289D01*
X148809362Y-98458141D01*
X148709454Y-98642917D01*
X148647338Y-98843580D01*
X148625381Y-99052486D01*
X148644419Y-99261679D01*
X148703727Y-99463189D01*
X148801046Y-99649342D01*
X148932668Y-99813048D01*
X149093581Y-99948070D01*
X149277655Y-100049265D01*
X149477880Y-100112780D01*
X149686628Y-100136195D01*
X149701655Y-100136300D01*
X150018345Y-100136300D01*
X150227399Y-100115802D01*
X150428491Y-100055089D01*
X150613960Y-99956473D01*
X150776743Y-99823711D01*
X150910638Y-99661859D01*
X150937000Y-99613103D01*
X150937000Y-101045177D01*
X150918954Y-101010658D01*
X150787332Y-100846952D01*
X150626419Y-100711930D01*
X150442345Y-100610735D01*
X150242120Y-100547220D01*
X150033372Y-100523805D01*
X150018345Y-100523700D01*
X149701655Y-100523700D01*
X149492601Y-100544198D01*
X149291509Y-100604911D01*
X149106040Y-100703527D01*
X148943257Y-100836289D01*
X148809362Y-100998141D01*
X148709454Y-101182917D01*
X148647338Y-101383580D01*
X148625381Y-101592486D01*
X148644419Y-101801679D01*
X148703727Y-102003189D01*
X148801046Y-102189342D01*
X148932668Y-102353048D01*
X149093581Y-102488070D01*
X149277655Y-102589265D01*
X149477880Y-102652780D01*
X149686628Y-102676195D01*
X149701655Y-102676300D01*
X150018345Y-102676300D01*
X150227399Y-102655802D01*
X150428491Y-102595089D01*
X150613960Y-102496473D01*
X150776743Y-102363711D01*
X150910638Y-102201859D01*
X150937000Y-102153103D01*
X150937000Y-103014700D01*
X150940049Y-103045796D01*
X150942763Y-103076821D01*
X150943257Y-103078523D01*
X150943431Y-103080293D01*
X150952446Y-103110150D01*
X150961150Y-103140111D01*
X150961969Y-103141691D01*
X150962481Y-103143387D01*
X150977123Y-103170925D01*
X150991481Y-103198624D01*
X150992587Y-103200009D01*
X150993422Y-103201580D01*
X151013141Y-103225758D01*
X151032599Y-103250133D01*
X151035038Y-103252606D01*
X151035078Y-103252655D01*
X151035124Y-103252693D01*
X151035910Y-103253490D01*
X151485553Y-103703133D01*
X151461529Y-103747563D01*
X151403084Y-103936368D01*
X151382425Y-104132930D01*
X151400338Y-104329761D01*
X151456141Y-104519364D01*
X151547709Y-104694517D01*
X151671554Y-104848549D01*
X151822958Y-104975592D01*
X151996155Y-105070808D01*
X152184548Y-105130570D01*
X152380960Y-105152601D01*
X152395100Y-105152700D01*
X152404900Y-105152700D01*
X152601601Y-105133413D01*
X152790810Y-105076288D01*
X152965320Y-104983499D01*
X153118483Y-104858582D01*
X153244466Y-104706295D01*
X153338471Y-104532437D01*
X153396916Y-104343632D01*
X153417575Y-104147070D01*
X153399662Y-103950239D01*
X153343859Y-103760636D01*
X153252291Y-103585483D01*
X153128446Y-103431451D01*
X152977042Y-103304408D01*
X152803845Y-103209192D01*
X152615452Y-103149430D01*
X152419040Y-103127399D01*
X152404900Y-103127300D01*
X152395100Y-103127300D01*
X152198399Y-103146587D01*
X152009190Y-103203712D01*
X151964862Y-103227282D01*
X151612400Y-102874820D01*
X151612400Y-102234976D01*
X151671554Y-102308549D01*
X151822958Y-102435592D01*
X151996155Y-102530808D01*
X152184548Y-102590570D01*
X152380960Y-102612601D01*
X152395100Y-102612700D01*
X152404900Y-102612700D01*
X152601601Y-102593413D01*
X152790810Y-102536288D01*
X152965320Y-102443499D01*
X153118483Y-102318582D01*
X153244466Y-102166295D01*
X153338471Y-101992437D01*
X153396916Y-101803632D01*
X153417575Y-101607070D01*
X153399662Y-101410239D01*
X153343859Y-101220636D01*
X153252291Y-101045483D01*
X153128446Y-100891451D01*
X152977042Y-100764408D01*
X152803845Y-100669192D01*
X152615452Y-100609430D01*
X152419040Y-100587399D01*
X152404900Y-100587300D01*
X152395100Y-100587300D01*
X152198399Y-100606587D01*
X152009190Y-100663712D01*
X151834680Y-100756501D01*
X151681517Y-100881418D01*
X151612400Y-100964966D01*
X151612400Y-99694976D01*
X151671554Y-99768549D01*
X151822958Y-99895592D01*
X151996155Y-99990808D01*
X152184548Y-100050570D01*
X152380960Y-100072601D01*
X152395100Y-100072700D01*
X152404900Y-100072700D01*
X152601601Y-100053413D01*
X152790810Y-99996288D01*
X152965320Y-99903499D01*
X153118483Y-99778582D01*
X153244466Y-99626295D01*
X153338471Y-99452437D01*
X153396916Y-99263632D01*
X153417575Y-99067070D01*
X153399662Y-98870239D01*
X153343859Y-98680636D01*
X153252291Y-98505483D01*
X153128446Y-98351451D01*
X152977042Y-98224408D01*
X152803845Y-98129192D01*
X152615452Y-98069430D01*
X152419040Y-98047399D01*
X152404900Y-98047300D01*
X152395100Y-98047300D01*
X152198399Y-98066587D01*
X152009190Y-98123712D01*
X151834680Y-98216501D01*
X151681517Y-98341418D01*
X151612400Y-98424966D01*
X151612400Y-97785180D01*
X151964290Y-97433290D01*
X151996155Y-97450808D01*
X152184548Y-97510570D01*
X152380960Y-97532601D01*
X152395100Y-97532700D01*
X152404900Y-97532700D01*
X152601601Y-97513413D01*
X152790810Y-97456288D01*
X152965320Y-97363499D01*
X153118483Y-97238582D01*
X153244466Y-97086295D01*
X153338471Y-96912437D01*
X153396916Y-96723632D01*
X153417575Y-96527070D01*
X153399662Y-96330239D01*
X153343859Y-96140636D01*
X153252291Y-95965483D01*
X153128446Y-95811451D01*
X152977042Y-95684408D01*
X152803845Y-95589192D01*
X152615452Y-95529430D01*
X152419040Y-95507399D01*
X152404900Y-95507300D01*
X152395100Y-95507300D01*
X152198399Y-95526587D01*
X152009190Y-95583712D01*
X151834680Y-95676501D01*
X151681517Y-95801418D01*
X151555534Y-95953705D01*
X151461529Y-96127563D01*
X151403084Y-96316368D01*
X151382425Y-96512930D01*
X151400338Y-96709761D01*
X151456141Y-96899364D01*
X151485980Y-96956440D01*
X151089729Y-97352691D01*
X151089729Y-95860481D01*
X152028988Y-94921223D01*
X152184548Y-94970570D01*
X152380960Y-94992601D01*
X152395100Y-94992700D01*
X152404900Y-94992700D01*
X152601601Y-94973413D01*
X152790810Y-94916288D01*
X152965320Y-94823499D01*
X153118483Y-94698582D01*
X153244466Y-94546295D01*
X153338471Y-94372437D01*
X153396916Y-94183632D01*
X153417575Y-93987070D01*
X153399662Y-93790239D01*
X153343859Y-93600636D01*
X153252291Y-93425483D01*
X153128446Y-93271451D01*
X152977042Y-93144408D01*
X152803845Y-93049192D01*
X152803200Y-93048987D01*
X152803200Y-92710000D01*
X152799565Y-92672923D01*
X152796320Y-92635831D01*
X152795728Y-92633792D01*
X152795521Y-92631685D01*
X152784757Y-92596034D01*
X152774365Y-92560264D01*
X152773390Y-92558384D01*
X152772777Y-92556352D01*
X152755290Y-92523464D01*
X152738152Y-92490401D01*
X152736828Y-92488742D01*
X152735834Y-92486873D01*
X152712316Y-92458037D01*
X152689059Y-92428903D01*
X152686150Y-92425954D01*
X152686099Y-92425891D01*
X152686041Y-92425843D01*
X152685105Y-92424894D01*
X151993729Y-91733519D01*
X151993729Y-90790000D01*
X151991028Y-90756128D01*
X151973237Y-90698678D01*
X151940145Y-90648459D01*
X151894372Y-90609448D01*
X151839543Y-90584733D01*
X151780000Y-90576271D01*
X150836482Y-90576271D01*
X150090658Y-89830447D01*
X150580803Y-89830447D01*
X150648469Y-90013295D01*
X150867111Y-90086614D01*
X151095855Y-90115869D01*
X151325912Y-90099937D01*
X151548440Y-90039428D01*
X151611531Y-90013295D01*
X151679197Y-89830447D01*
X151130000Y-89281250D01*
X150580803Y-89830447D01*
X150090658Y-89830447D01*
X149637105Y-89376895D01*
X149608334Y-89353262D01*
X149579795Y-89329314D01*
X149577937Y-89328293D01*
X149576299Y-89326947D01*
X149543427Y-89309321D01*
X149510837Y-89291405D01*
X149508822Y-89290766D01*
X149506948Y-89289761D01*
X149471282Y-89278857D01*
X149435830Y-89267611D01*
X149433723Y-89267375D01*
X149431696Y-89266755D01*
X149394650Y-89262992D01*
X149357630Y-89258839D01*
X149353489Y-89258810D01*
X149353407Y-89258802D01*
X149353331Y-89258809D01*
X149352000Y-89258800D01*
X135128000Y-89258800D01*
X135090968Y-89262431D01*
X135053831Y-89265680D01*
X135051792Y-89266272D01*
X135049685Y-89266479D01*
X135014020Y-89277247D01*
X134978265Y-89287635D01*
X134976386Y-89288609D01*
X134974352Y-89289223D01*
X134941426Y-89306730D01*
X134908402Y-89323848D01*
X134906745Y-89325170D01*
X134904873Y-89326166D01*
X134876015Y-89349701D01*
X134846903Y-89372941D01*
X134843953Y-89375850D01*
X134843891Y-89375901D01*
X134843843Y-89375959D01*
X134842895Y-89376894D01*
X133643519Y-90576271D01*
X132700000Y-90576271D01*
X132666128Y-90578972D01*
X132608678Y-90596763D01*
X132558459Y-90629855D01*
X132519448Y-90675628D01*
X132494733Y-90730457D01*
X132486271Y-90790000D01*
X130973900Y-90790000D01*
X130973900Y-89830447D01*
X132800803Y-89830447D01*
X132868469Y-90013295D01*
X133087111Y-90086614D01*
X133315855Y-90115869D01*
X133545912Y-90099937D01*
X133768440Y-90039428D01*
X133831531Y-90013295D01*
X133899197Y-89830447D01*
X133350000Y-89281250D01*
X132800803Y-89830447D01*
X130973900Y-89830447D01*
X130973900Y-88908019D01*
X130974112Y-88905855D01*
X132174131Y-88905855D01*
X132190063Y-89135912D01*
X132250572Y-89358440D01*
X132276705Y-89421531D01*
X132459553Y-89489197D01*
X133008750Y-88940000D01*
X133691250Y-88940000D01*
X134240447Y-89489197D01*
X134423295Y-89421531D01*
X134496614Y-89202889D01*
X134525869Y-88974145D01*
X134521140Y-88905855D01*
X149954131Y-88905855D01*
X149970063Y-89135912D01*
X150030572Y-89358440D01*
X150056705Y-89421531D01*
X150239553Y-89489197D01*
X150788750Y-88940000D01*
X151471250Y-88940000D01*
X152020447Y-89489197D01*
X152203295Y-89421531D01*
X152276614Y-89202889D01*
X152305869Y-88974145D01*
X152289937Y-88744088D01*
X152229428Y-88521560D01*
X152203295Y-88458469D01*
X152020447Y-88390803D01*
X151471250Y-88940000D01*
X150788750Y-88940000D01*
X150239553Y-88390803D01*
X150056705Y-88458469D01*
X149983386Y-88677111D01*
X149954131Y-88905855D01*
X134521140Y-88905855D01*
X134509937Y-88744088D01*
X134449428Y-88521560D01*
X134423295Y-88458469D01*
X134240447Y-88390803D01*
X133691250Y-88940000D01*
X133008750Y-88940000D01*
X132459553Y-88390803D01*
X132276705Y-88458469D01*
X132203386Y-88677111D01*
X132174131Y-88905855D01*
X130974112Y-88905855D01*
X130995737Y-88685311D01*
X131058088Y-88478794D01*
X131159360Y-88288330D01*
X131295701Y-88121159D01*
X131461914Y-87983655D01*
X131651674Y-87881052D01*
X131857747Y-87817261D01*
X132080008Y-87793901D01*
X132080287Y-87793900D01*
X133103201Y-87793900D01*
X132931560Y-87840572D01*
G36*
X139296800Y-90649657D02*
X139193711Y-90523257D01*
X139031859Y-90389362D01*
X138847083Y-90289454D01*
X138646420Y-90227338D01*
X138437514Y-90205381D01*
X138228321Y-90224419D01*
X138026811Y-90283727D01*
X137840658Y-90381046D01*
X137676952Y-90512668D01*
X137541930Y-90673581D01*
X137440735Y-90857655D01*
X137377220Y-91057880D01*
X137353805Y-91266628D01*
X137353700Y-91281655D01*
X137353700Y-91598345D01*
X137374198Y-91807399D01*
X137434911Y-92008491D01*
X137533527Y-92193960D01*
X137666289Y-92356743D01*
X137828141Y-92490638D01*
X138012917Y-92590546D01*
X138213580Y-92652662D01*
X138422486Y-92674619D01*
X138631679Y-92655581D01*
X138833189Y-92596273D01*
X139019342Y-92498954D01*
X139183048Y-92367332D01*
X139296800Y-92231768D01*
X139296800Y-93050300D01*
X139134680Y-93136501D01*
X138981517Y-93261418D01*
X138855534Y-93413705D01*
X138761529Y-93587563D01*
X138703084Y-93776368D01*
X138682425Y-93972930D01*
X138700338Y-94169761D01*
X138756141Y-94359364D01*
X138847709Y-94534517D01*
X138971554Y-94688549D01*
X139122958Y-94815592D01*
X139296155Y-94910808D01*
X139484548Y-94970570D01*
X139680960Y-94992601D01*
X139695100Y-94992700D01*
X139704900Y-94992700D01*
X139901601Y-94973413D01*
X140090810Y-94916288D01*
X140265320Y-94823499D01*
X140418483Y-94698582D01*
X140544466Y-94546295D01*
X140638471Y-94372437D01*
X140696916Y-94183632D01*
X140717575Y-93987070D01*
X140699662Y-93790239D01*
X140643859Y-93600636D01*
X140552291Y-93425483D01*
X140428446Y-93271451D01*
X140277042Y-93144408D01*
X140103845Y-93049192D01*
X140103200Y-93048987D01*
X140103200Y-92230343D01*
X140206289Y-92356743D01*
X140368141Y-92490638D01*
X140552917Y-92590546D01*
X140753580Y-92652662D01*
X140962486Y-92674619D01*
X141171679Y-92655581D01*
X141373189Y-92596273D01*
X141559342Y-92498954D01*
X141723048Y-92367332D01*
X141858070Y-92206419D01*
X141959265Y-92022345D01*
X142022780Y-91822120D01*
X142046195Y-91613372D01*
X142046300Y-91598345D01*
X142046300Y-91281655D01*
X142025802Y-91072601D01*
X141965089Y-90871509D01*
X141866473Y-90686040D01*
X141733711Y-90523257D01*
X141571859Y-90389362D01*
X141387083Y-90289454D01*
X141186420Y-90227338D01*
X140977514Y-90205381D01*
X140768321Y-90224419D01*
X140566811Y-90283727D01*
X140380658Y-90381046D01*
X140216952Y-90512668D01*
X140103200Y-90648232D01*
X140103200Y-90065200D01*
X147965263Y-90065200D01*
X147852815Y-90121706D01*
X147639525Y-90287926D01*
X147462761Y-90492563D01*
X147329317Y-90727753D01*
X147244320Y-90984457D01*
X147343641Y-91198700D01*
X148348700Y-91198700D01*
X148348700Y-91178700D01*
X148831300Y-91178700D01*
X148831300Y-91198700D01*
X149836359Y-91198700D01*
X149935680Y-90984457D01*
X149852238Y-90732448D01*
X150266271Y-91146482D01*
X150266271Y-92090000D01*
X150268972Y-92123872D01*
X150286763Y-92181322D01*
X150319855Y-92231541D01*
X150365628Y-92270552D01*
X150420457Y-92295267D01*
X150480000Y-92303729D01*
X151423519Y-92303729D01*
X151996800Y-92877011D01*
X151996800Y-93050300D01*
X151834680Y-93136501D01*
X151681517Y-93261418D01*
X151555534Y-93413705D01*
X151461529Y-93587563D01*
X151403084Y-93776368D01*
X151382425Y-93972930D01*
X151400338Y-94169761D01*
X151454841Y-94354948D01*
X150367119Y-95442671D01*
X148844000Y-95442671D01*
X148810128Y-95445372D01*
X148752678Y-95463163D01*
X148702459Y-95496255D01*
X148663448Y-95542028D01*
X148638733Y-95596857D01*
X148630271Y-95656400D01*
X148630271Y-96992918D01*
X146780895Y-98842295D01*
X146757262Y-98871066D01*
X146733314Y-98899605D01*
X146732293Y-98901463D01*
X146730947Y-98903101D01*
X146713321Y-98935973D01*
X146695405Y-98968563D01*
X146694766Y-98970578D01*
X146693761Y-98972452D01*
X146682857Y-99008118D01*
X146671611Y-99043570D01*
X146671375Y-99045677D01*
X146670755Y-99047704D01*
X146666992Y-99084750D01*
X146662839Y-99121770D01*
X146662810Y-99125911D01*
X146662802Y-99125993D01*
X146662809Y-99126069D01*
X146662800Y-99127400D01*
X146662800Y-99510100D01*
X146641802Y-99518584D01*
X146492276Y-99616431D01*
X146364603Y-99741458D01*
X146311500Y-99819013D01*
X146311500Y-92637975D01*
X146453189Y-92596273D01*
X146639342Y-92498954D01*
X146803048Y-92367332D01*
X146938070Y-92206419D01*
X147039265Y-92022345D01*
X147079488Y-91895543D01*
X147244320Y-91895543D01*
X147329317Y-92152247D01*
X147462761Y-92387437D01*
X147639525Y-92592074D01*
X147852815Y-92758294D01*
X148094434Y-92879709D01*
X148138434Y-92900977D01*
X148348700Y-92823092D01*
X148348700Y-91681300D01*
X148831300Y-91681300D01*
X148831300Y-92823092D01*
X149041566Y-92900977D01*
X149085566Y-92879709D01*
X149327185Y-92758294D01*
X149540475Y-92592074D01*
X149717239Y-92387437D01*
X149850683Y-92152247D01*
X149935680Y-91895543D01*
X149836359Y-91681300D01*
X148831300Y-91681300D01*
X148348700Y-91681300D01*
X147343641Y-91681300D01*
X147244320Y-91895543D01*
X147079488Y-91895543D01*
X147102780Y-91822120D01*
X147126195Y-91613372D01*
X147126300Y-91598345D01*
X147126300Y-91281655D01*
X147105802Y-91072601D01*
X147045089Y-90871509D01*
X146946473Y-90686040D01*
X146813711Y-90523257D01*
X146651859Y-90389362D01*
X146467083Y-90289454D01*
X146266420Y-90227338D01*
X146057514Y-90205381D01*
X145848321Y-90224419D01*
X145646811Y-90283727D01*
X145460658Y-90381046D01*
X145296952Y-90512668D01*
X145161930Y-90673581D01*
X145060735Y-90857655D01*
X144997220Y-91057880D01*
X144973805Y-91266628D01*
X144973700Y-91281655D01*
X144973700Y-91598345D01*
X144994198Y-91807399D01*
X145054911Y-92008491D01*
X145153527Y-92193960D01*
X145286289Y-92356743D01*
X145448141Y-92490638D01*
X145632917Y-92590546D01*
X145636100Y-92591531D01*
X145636100Y-93432769D01*
X145632291Y-93425483D01*
X145508446Y-93271451D01*
X145357042Y-93144408D01*
X145183845Y-93049192D01*
X144995452Y-92989430D01*
X144799040Y-92967399D01*
X144784900Y-92967300D01*
X144775100Y-92967300D01*
X144578399Y-92986587D01*
X144389190Y-93043712D01*
X144344862Y-93067282D01*
X143882798Y-92605218D01*
X143913189Y-92596273D01*
X144099342Y-92498954D01*
X144263048Y-92367332D01*
X144398070Y-92206419D01*
X144499265Y-92022345D01*
X144562780Y-91822120D01*
X144586195Y-91613372D01*
X144586300Y-91598345D01*
X144586300Y-91281655D01*
X144565802Y-91072601D01*
X144505089Y-90871509D01*
X144406473Y-90686040D01*
X144273711Y-90523257D01*
X144111859Y-90389362D01*
X143927083Y-90289454D01*
X143726420Y-90227338D01*
X143517514Y-90205381D01*
X143308321Y-90224419D01*
X143106811Y-90283727D01*
X142920658Y-90381046D01*
X142756952Y-90512668D01*
X142621930Y-90673581D01*
X142520735Y-90857655D01*
X142457220Y-91057880D01*
X142433805Y-91266628D01*
X142433700Y-91281655D01*
X142433700Y-91598345D01*
X142454198Y-91807399D01*
X142514911Y-92008491D01*
X142613527Y-92193960D01*
X142746289Y-92356743D01*
X142908141Y-92490638D01*
X143092917Y-92590546D01*
X143172300Y-92615119D01*
X143172300Y-92710000D01*
X143175349Y-92741096D01*
X143178063Y-92772121D01*
X143178557Y-92773823D01*
X143178731Y-92775593D01*
X143187746Y-92805450D01*
X143196450Y-92835411D01*
X143197269Y-92836991D01*
X143197781Y-92838687D01*
X143212423Y-92866225D01*
X143226781Y-92893924D01*
X143227887Y-92895309D01*
X143228722Y-92896880D01*
X143248441Y-92921058D01*
X143267899Y-92945433D01*
X143270338Y-92947906D01*
X143270378Y-92947955D01*
X143270424Y-92947993D01*
X143271210Y-92948790D01*
X143865553Y-93543133D01*
X143841529Y-93587563D01*
X143783084Y-93776368D01*
X143762425Y-93972930D01*
X143780338Y-94169761D01*
X143836141Y-94359364D01*
X143927709Y-94534517D01*
X144051554Y-94688549D01*
X144202958Y-94815592D01*
X144376155Y-94910808D01*
X144564548Y-94970570D01*
X144760960Y-94992601D01*
X144775100Y-94992700D01*
X144784900Y-94992700D01*
X144981601Y-94973413D01*
X145170810Y-94916288D01*
X145345320Y-94823499D01*
X145498483Y-94698582D01*
X145624466Y-94546295D01*
X145636100Y-94524778D01*
X145636100Y-95972769D01*
X145632291Y-95965483D01*
X145508446Y-95811451D01*
X145357042Y-95684408D01*
X145183845Y-95589192D01*
X144995452Y-95529430D01*
X144799040Y-95507399D01*
X144784900Y-95507300D01*
X144775100Y-95507300D01*
X144578399Y-95526587D01*
X144389190Y-95583712D01*
X144214680Y-95676501D01*
X144061517Y-95801418D01*
X143935534Y-95953705D01*
X143841529Y-96127563D01*
X143783084Y-96316368D01*
X143762425Y-96512930D01*
X143780338Y-96709761D01*
X143836141Y-96899364D01*
X143927709Y-97074517D01*
X144051554Y-97228549D01*
X144202958Y-97355592D01*
X144376155Y-97450808D01*
X144564548Y-97510570D01*
X144760960Y-97532601D01*
X144775100Y-97532700D01*
X144784900Y-97532700D01*
X144981601Y-97513413D01*
X145170810Y-97456288D01*
X145345320Y-97363499D01*
X145498483Y-97238582D01*
X145624466Y-97086295D01*
X145636100Y-97064778D01*
X145636100Y-98512769D01*
X145632291Y-98505483D01*
X145508446Y-98351451D01*
X145357042Y-98224408D01*
X145183845Y-98129192D01*
X144995452Y-98069430D01*
X144799040Y-98047399D01*
X144784900Y-98047300D01*
X144775100Y-98047300D01*
X144578399Y-98066587D01*
X144389190Y-98123712D01*
X144214680Y-98216501D01*
X144061517Y-98341418D01*
X143935534Y-98493705D01*
X143841529Y-98667563D01*
X143783084Y-98856368D01*
X143762425Y-99052930D01*
X143780338Y-99249761D01*
X143836141Y-99439364D01*
X143927709Y-99614517D01*
X144051554Y-99768549D01*
X144202958Y-99895592D01*
X144301599Y-99949821D01*
X143415910Y-100835510D01*
X143396079Y-100859652D01*
X143376059Y-100883511D01*
X143375205Y-100885065D01*
X143374076Y-100886439D01*
X143359319Y-100913961D01*
X143344308Y-100941266D01*
X143343771Y-100942957D01*
X143342932Y-100944523D01*
X143333799Y-100974396D01*
X143324380Y-101004088D01*
X143324183Y-101005848D01*
X143323662Y-101007551D01*
X143320505Y-101038634D01*
X143319281Y-101049541D01*
X143298954Y-101010658D01*
X143167332Y-100846952D01*
X143006419Y-100711930D01*
X142822345Y-100610735D01*
X142622120Y-100547220D01*
X142413372Y-100523805D01*
X142398345Y-100523700D01*
X142081655Y-100523700D01*
X141872601Y-100544198D01*
X141671509Y-100604911D01*
X141486040Y-100703527D01*
X141323257Y-100836289D01*
X141189362Y-100998141D01*
X141180700Y-101014161D01*
X141180700Y-99648680D01*
X141181046Y-99649342D01*
X141312668Y-99813048D01*
X141473581Y-99948070D01*
X141657655Y-100049265D01*
X141857880Y-100112780D01*
X142066628Y-100136195D01*
X142081655Y-100136300D01*
X142398345Y-100136300D01*
X142607399Y-100115802D01*
X142808491Y-100055089D01*
X142993960Y-99956473D01*
X143156743Y-99823711D01*
X143290638Y-99661859D01*
X143390546Y-99477083D01*
X143452662Y-99276420D01*
X143474619Y-99067514D01*
X143455581Y-98858321D01*
X143396273Y-98656811D01*
X143298954Y-98470658D01*
X143167332Y-98306952D01*
X143006419Y-98171930D01*
X142822345Y-98070735D01*
X142622120Y-98007220D01*
X142413372Y-97983805D01*
X142398345Y-97983700D01*
X142081655Y-97983700D01*
X141872601Y-98004198D01*
X141671509Y-98064911D01*
X141486040Y-98163527D01*
X141323257Y-98296289D01*
X141189362Y-98458141D01*
X141180700Y-98474161D01*
X141180700Y-97663000D01*
X141177651Y-97631904D01*
X141174937Y-97600879D01*
X141174443Y-97599177D01*
X141174269Y-97597407D01*
X141172015Y-97589941D01*
X141224000Y-97597329D01*
X143256000Y-97597329D01*
X143289872Y-97594628D01*
X143347322Y-97576837D01*
X143397541Y-97543745D01*
X143436552Y-97497972D01*
X143461267Y-97443143D01*
X143469729Y-97383600D01*
X143469729Y-95656400D01*
X143467028Y-95622528D01*
X143449237Y-95565078D01*
X143416145Y-95514859D01*
X143370372Y-95475848D01*
X143315543Y-95451133D01*
X143256000Y-95442671D01*
X141224000Y-95442671D01*
X141190128Y-95445372D01*
X141132678Y-95463163D01*
X141082459Y-95496255D01*
X141043448Y-95542028D01*
X141018733Y-95596857D01*
X141010271Y-95656400D01*
X141010271Y-97352691D01*
X140614447Y-96956867D01*
X140638471Y-96912437D01*
X140696916Y-96723632D01*
X140717575Y-96527070D01*
X140699662Y-96330239D01*
X140643859Y-96140636D01*
X140552291Y-95965483D01*
X140428446Y-95811451D01*
X140277042Y-95684408D01*
X140103845Y-95589192D01*
X139915452Y-95529430D01*
X139719040Y-95507399D01*
X139704900Y-95507300D01*
X139695100Y-95507300D01*
X139498399Y-95526587D01*
X139309190Y-95583712D01*
X139264862Y-95607282D01*
X136327309Y-92669729D01*
X136753600Y-92669729D01*
X136787472Y-92667028D01*
X136844922Y-92649237D01*
X136895141Y-92616145D01*
X136934152Y-92570372D01*
X136958867Y-92515543D01*
X136967329Y-92456000D01*
X136967329Y-90424000D01*
X136964628Y-90390128D01*
X136946837Y-90332678D01*
X136913745Y-90282459D01*
X136867972Y-90243448D01*
X136813143Y-90218733D01*
X136753600Y-90210271D01*
X135149940Y-90210271D01*
X135295011Y-90065200D01*
X139296800Y-90065200D01*
X139296800Y-90649657D01*
X139296800Y-90649657D01*
G37*
X139296800Y-90649657D02*
X139193711Y-90523257D01*
X139031859Y-90389362D01*
X138847083Y-90289454D01*
X138646420Y-90227338D01*
X138437514Y-90205381D01*
X138228321Y-90224419D01*
X138026811Y-90283727D01*
X137840658Y-90381046D01*
X137676952Y-90512668D01*
X137541930Y-90673581D01*
X137440735Y-90857655D01*
X137377220Y-91057880D01*
X137353805Y-91266628D01*
X137353700Y-91281655D01*
X137353700Y-91598345D01*
X137374198Y-91807399D01*
X137434911Y-92008491D01*
X137533527Y-92193960D01*
X137666289Y-92356743D01*
X137828141Y-92490638D01*
X138012917Y-92590546D01*
X138213580Y-92652662D01*
X138422486Y-92674619D01*
X138631679Y-92655581D01*
X138833189Y-92596273D01*
X139019342Y-92498954D01*
X139183048Y-92367332D01*
X139296800Y-92231768D01*
X139296800Y-93050300D01*
X139134680Y-93136501D01*
X138981517Y-93261418D01*
X138855534Y-93413705D01*
X138761529Y-93587563D01*
X138703084Y-93776368D01*
X138682425Y-93972930D01*
X138700338Y-94169761D01*
X138756141Y-94359364D01*
X138847709Y-94534517D01*
X138971554Y-94688549D01*
X139122958Y-94815592D01*
X139296155Y-94910808D01*
X139484548Y-94970570D01*
X139680960Y-94992601D01*
X139695100Y-94992700D01*
X139704900Y-94992700D01*
X139901601Y-94973413D01*
X140090810Y-94916288D01*
X140265320Y-94823499D01*
X140418483Y-94698582D01*
X140544466Y-94546295D01*
X140638471Y-94372437D01*
X140696916Y-94183632D01*
X140717575Y-93987070D01*
X140699662Y-93790239D01*
X140643859Y-93600636D01*
X140552291Y-93425483D01*
X140428446Y-93271451D01*
X140277042Y-93144408D01*
X140103845Y-93049192D01*
X140103200Y-93048987D01*
X140103200Y-92230343D01*
X140206289Y-92356743D01*
X140368141Y-92490638D01*
X140552917Y-92590546D01*
X140753580Y-92652662D01*
X140962486Y-92674619D01*
X141171679Y-92655581D01*
X141373189Y-92596273D01*
X141559342Y-92498954D01*
X141723048Y-92367332D01*
X141858070Y-92206419D01*
X141959265Y-92022345D01*
X142022780Y-91822120D01*
X142046195Y-91613372D01*
X142046300Y-91598345D01*
X142046300Y-91281655D01*
X142025802Y-91072601D01*
X141965089Y-90871509D01*
X141866473Y-90686040D01*
X141733711Y-90523257D01*
X141571859Y-90389362D01*
X141387083Y-90289454D01*
X141186420Y-90227338D01*
X140977514Y-90205381D01*
X140768321Y-90224419D01*
X140566811Y-90283727D01*
X140380658Y-90381046D01*
X140216952Y-90512668D01*
X140103200Y-90648232D01*
X140103200Y-90065200D01*
X147965263Y-90065200D01*
X147852815Y-90121706D01*
X147639525Y-90287926D01*
X147462761Y-90492563D01*
X147329317Y-90727753D01*
X147244320Y-90984457D01*
X147343641Y-91198700D01*
X148348700Y-91198700D01*
X148348700Y-91178700D01*
X148831300Y-91178700D01*
X148831300Y-91198700D01*
X149836359Y-91198700D01*
X149935680Y-90984457D01*
X149852238Y-90732448D01*
X150266271Y-91146482D01*
X150266271Y-92090000D01*
X150268972Y-92123872D01*
X150286763Y-92181322D01*
X150319855Y-92231541D01*
X150365628Y-92270552D01*
X150420457Y-92295267D01*
X150480000Y-92303729D01*
X151423519Y-92303729D01*
X151996800Y-92877011D01*
X151996800Y-93050300D01*
X151834680Y-93136501D01*
X151681517Y-93261418D01*
X151555534Y-93413705D01*
X151461529Y-93587563D01*
X151403084Y-93776368D01*
X151382425Y-93972930D01*
X151400338Y-94169761D01*
X151454841Y-94354948D01*
X150367119Y-95442671D01*
X148844000Y-95442671D01*
X148810128Y-95445372D01*
X148752678Y-95463163D01*
X148702459Y-95496255D01*
X148663448Y-95542028D01*
X148638733Y-95596857D01*
X148630271Y-95656400D01*
X148630271Y-96992918D01*
X146780895Y-98842295D01*
X146757262Y-98871066D01*
X146733314Y-98899605D01*
X146732293Y-98901463D01*
X146730947Y-98903101D01*
X146713321Y-98935973D01*
X146695405Y-98968563D01*
X146694766Y-98970578D01*
X146693761Y-98972452D01*
X146682857Y-99008118D01*
X146671611Y-99043570D01*
X146671375Y-99045677D01*
X146670755Y-99047704D01*
X146666992Y-99084750D01*
X146662839Y-99121770D01*
X146662810Y-99125911D01*
X146662802Y-99125993D01*
X146662809Y-99126069D01*
X146662800Y-99127400D01*
X146662800Y-99510100D01*
X146641802Y-99518584D01*
X146492276Y-99616431D01*
X146364603Y-99741458D01*
X146311500Y-99819013D01*
X146311500Y-92637975D01*
X146453189Y-92596273D01*
X146639342Y-92498954D01*
X146803048Y-92367332D01*
X146938070Y-92206419D01*
X147039265Y-92022345D01*
X147079488Y-91895543D01*
X147244320Y-91895543D01*
X147329317Y-92152247D01*
X147462761Y-92387437D01*
X147639525Y-92592074D01*
X147852815Y-92758294D01*
X148094434Y-92879709D01*
X148138434Y-92900977D01*
X148348700Y-92823092D01*
X148348700Y-91681300D01*
X148831300Y-91681300D01*
X148831300Y-92823092D01*
X149041566Y-92900977D01*
X149085566Y-92879709D01*
X149327185Y-92758294D01*
X149540475Y-92592074D01*
X149717239Y-92387437D01*
X149850683Y-92152247D01*
X149935680Y-91895543D01*
X149836359Y-91681300D01*
X148831300Y-91681300D01*
X148348700Y-91681300D01*
X147343641Y-91681300D01*
X147244320Y-91895543D01*
X147079488Y-91895543D01*
X147102780Y-91822120D01*
X147126195Y-91613372D01*
X147126300Y-91598345D01*
X147126300Y-91281655D01*
X147105802Y-91072601D01*
X147045089Y-90871509D01*
X146946473Y-90686040D01*
X146813711Y-90523257D01*
X146651859Y-90389362D01*
X146467083Y-90289454D01*
X146266420Y-90227338D01*
X146057514Y-90205381D01*
X145848321Y-90224419D01*
X145646811Y-90283727D01*
X145460658Y-90381046D01*
X145296952Y-90512668D01*
X145161930Y-90673581D01*
X145060735Y-90857655D01*
X144997220Y-91057880D01*
X144973805Y-91266628D01*
X144973700Y-91281655D01*
X144973700Y-91598345D01*
X144994198Y-91807399D01*
X145054911Y-92008491D01*
X145153527Y-92193960D01*
X145286289Y-92356743D01*
X145448141Y-92490638D01*
X145632917Y-92590546D01*
X145636100Y-92591531D01*
X145636100Y-93432769D01*
X145632291Y-93425483D01*
X145508446Y-93271451D01*
X145357042Y-93144408D01*
X145183845Y-93049192D01*
X144995452Y-92989430D01*
X144799040Y-92967399D01*
X144784900Y-92967300D01*
X144775100Y-92967300D01*
X144578399Y-92986587D01*
X144389190Y-93043712D01*
X144344862Y-93067282D01*
X143882798Y-92605218D01*
X143913189Y-92596273D01*
X144099342Y-92498954D01*
X144263048Y-92367332D01*
X144398070Y-92206419D01*
X144499265Y-92022345D01*
X144562780Y-91822120D01*
X144586195Y-91613372D01*
X144586300Y-91598345D01*
X144586300Y-91281655D01*
X144565802Y-91072601D01*
X144505089Y-90871509D01*
X144406473Y-90686040D01*
X144273711Y-90523257D01*
X144111859Y-90389362D01*
X143927083Y-90289454D01*
X143726420Y-90227338D01*
X143517514Y-90205381D01*
X143308321Y-90224419D01*
X143106811Y-90283727D01*
X142920658Y-90381046D01*
X142756952Y-90512668D01*
X142621930Y-90673581D01*
X142520735Y-90857655D01*
X142457220Y-91057880D01*
X142433805Y-91266628D01*
X142433700Y-91281655D01*
X142433700Y-91598345D01*
X142454198Y-91807399D01*
X142514911Y-92008491D01*
X142613527Y-92193960D01*
X142746289Y-92356743D01*
X142908141Y-92490638D01*
X143092917Y-92590546D01*
X143172300Y-92615119D01*
X143172300Y-92710000D01*
X143175349Y-92741096D01*
X143178063Y-92772121D01*
X143178557Y-92773823D01*
X143178731Y-92775593D01*
X143187746Y-92805450D01*
X143196450Y-92835411D01*
X143197269Y-92836991D01*
X143197781Y-92838687D01*
X143212423Y-92866225D01*
X143226781Y-92893924D01*
X143227887Y-92895309D01*
X143228722Y-92896880D01*
X143248441Y-92921058D01*
X143267899Y-92945433D01*
X143270338Y-92947906D01*
X143270378Y-92947955D01*
X143270424Y-92947993D01*
X143271210Y-92948790D01*
X143865553Y-93543133D01*
X143841529Y-93587563D01*
X143783084Y-93776368D01*
X143762425Y-93972930D01*
X143780338Y-94169761D01*
X143836141Y-94359364D01*
X143927709Y-94534517D01*
X144051554Y-94688549D01*
X144202958Y-94815592D01*
X144376155Y-94910808D01*
X144564548Y-94970570D01*
X144760960Y-94992601D01*
X144775100Y-94992700D01*
X144784900Y-94992700D01*
X144981601Y-94973413D01*
X145170810Y-94916288D01*
X145345320Y-94823499D01*
X145498483Y-94698582D01*
X145624466Y-94546295D01*
X145636100Y-94524778D01*
X145636100Y-95972769D01*
X145632291Y-95965483D01*
X145508446Y-95811451D01*
X145357042Y-95684408D01*
X145183845Y-95589192D01*
X144995452Y-95529430D01*
X144799040Y-95507399D01*
X144784900Y-95507300D01*
X144775100Y-95507300D01*
X144578399Y-95526587D01*
X144389190Y-95583712D01*
X144214680Y-95676501D01*
X144061517Y-95801418D01*
X143935534Y-95953705D01*
X143841529Y-96127563D01*
X143783084Y-96316368D01*
X143762425Y-96512930D01*
X143780338Y-96709761D01*
X143836141Y-96899364D01*
X143927709Y-97074517D01*
X144051554Y-97228549D01*
X144202958Y-97355592D01*
X144376155Y-97450808D01*
X144564548Y-97510570D01*
X144760960Y-97532601D01*
X144775100Y-97532700D01*
X144784900Y-97532700D01*
X144981601Y-97513413D01*
X145170810Y-97456288D01*
X145345320Y-97363499D01*
X145498483Y-97238582D01*
X145624466Y-97086295D01*
X145636100Y-97064778D01*
X145636100Y-98512769D01*
X145632291Y-98505483D01*
X145508446Y-98351451D01*
X145357042Y-98224408D01*
X145183845Y-98129192D01*
X144995452Y-98069430D01*
X144799040Y-98047399D01*
X144784900Y-98047300D01*
X144775100Y-98047300D01*
X144578399Y-98066587D01*
X144389190Y-98123712D01*
X144214680Y-98216501D01*
X144061517Y-98341418D01*
X143935534Y-98493705D01*
X143841529Y-98667563D01*
X143783084Y-98856368D01*
X143762425Y-99052930D01*
X143780338Y-99249761D01*
X143836141Y-99439364D01*
X143927709Y-99614517D01*
X144051554Y-99768549D01*
X144202958Y-99895592D01*
X144301599Y-99949821D01*
X143415910Y-100835510D01*
X143396079Y-100859652D01*
X143376059Y-100883511D01*
X143375205Y-100885065D01*
X143374076Y-100886439D01*
X143359319Y-100913961D01*
X143344308Y-100941266D01*
X143343771Y-100942957D01*
X143342932Y-100944523D01*
X143333799Y-100974396D01*
X143324380Y-101004088D01*
X143324183Y-101005848D01*
X143323662Y-101007551D01*
X143320505Y-101038634D01*
X143319281Y-101049541D01*
X143298954Y-101010658D01*
X143167332Y-100846952D01*
X143006419Y-100711930D01*
X142822345Y-100610735D01*
X142622120Y-100547220D01*
X142413372Y-100523805D01*
X142398345Y-100523700D01*
X142081655Y-100523700D01*
X141872601Y-100544198D01*
X141671509Y-100604911D01*
X141486040Y-100703527D01*
X141323257Y-100836289D01*
X141189362Y-100998141D01*
X141180700Y-101014161D01*
X141180700Y-99648680D01*
X141181046Y-99649342D01*
X141312668Y-99813048D01*
X141473581Y-99948070D01*
X141657655Y-100049265D01*
X141857880Y-100112780D01*
X142066628Y-100136195D01*
X142081655Y-100136300D01*
X142398345Y-100136300D01*
X142607399Y-100115802D01*
X142808491Y-100055089D01*
X142993960Y-99956473D01*
X143156743Y-99823711D01*
X143290638Y-99661859D01*
X143390546Y-99477083D01*
X143452662Y-99276420D01*
X143474619Y-99067514D01*
X143455581Y-98858321D01*
X143396273Y-98656811D01*
X143298954Y-98470658D01*
X143167332Y-98306952D01*
X143006419Y-98171930D01*
X142822345Y-98070735D01*
X142622120Y-98007220D01*
X142413372Y-97983805D01*
X142398345Y-97983700D01*
X142081655Y-97983700D01*
X141872601Y-98004198D01*
X141671509Y-98064911D01*
X141486040Y-98163527D01*
X141323257Y-98296289D01*
X141189362Y-98458141D01*
X141180700Y-98474161D01*
X141180700Y-97663000D01*
X141177651Y-97631904D01*
X141174937Y-97600879D01*
X141174443Y-97599177D01*
X141174269Y-97597407D01*
X141172015Y-97589941D01*
X141224000Y-97597329D01*
X143256000Y-97597329D01*
X143289872Y-97594628D01*
X143347322Y-97576837D01*
X143397541Y-97543745D01*
X143436552Y-97497972D01*
X143461267Y-97443143D01*
X143469729Y-97383600D01*
X143469729Y-95656400D01*
X143467028Y-95622528D01*
X143449237Y-95565078D01*
X143416145Y-95514859D01*
X143370372Y-95475848D01*
X143315543Y-95451133D01*
X143256000Y-95442671D01*
X141224000Y-95442671D01*
X141190128Y-95445372D01*
X141132678Y-95463163D01*
X141082459Y-95496255D01*
X141043448Y-95542028D01*
X141018733Y-95596857D01*
X141010271Y-95656400D01*
X141010271Y-97352691D01*
X140614447Y-96956867D01*
X140638471Y-96912437D01*
X140696916Y-96723632D01*
X140717575Y-96527070D01*
X140699662Y-96330239D01*
X140643859Y-96140636D01*
X140552291Y-95965483D01*
X140428446Y-95811451D01*
X140277042Y-95684408D01*
X140103845Y-95589192D01*
X139915452Y-95529430D01*
X139719040Y-95507399D01*
X139704900Y-95507300D01*
X139695100Y-95507300D01*
X139498399Y-95526587D01*
X139309190Y-95583712D01*
X139264862Y-95607282D01*
X136327309Y-92669729D01*
X136753600Y-92669729D01*
X136787472Y-92667028D01*
X136844922Y-92649237D01*
X136895141Y-92616145D01*
X136934152Y-92570372D01*
X136958867Y-92515543D01*
X136967329Y-92456000D01*
X136967329Y-90424000D01*
X136964628Y-90390128D01*
X136946837Y-90332678D01*
X136913745Y-90282459D01*
X136867972Y-90243448D01*
X136813143Y-90218733D01*
X136753600Y-90210271D01*
X135149940Y-90210271D01*
X135295011Y-90065200D01*
X139296800Y-90065200D01*
X139296800Y-90649657D01*
M02*
