%TF.GenerationSoftware,KiCad,Pcbnew,4.0.4-stable*%
%TF.CreationDate,2016-11-09T11:25:41+01:00*%
%TF.ProjectId,potmux,706F746D75782E6B696361645F706362,1*%
%TF.FileFunction,Legend,Top*%
%FSLAX46Y46*%
G04 Gerber Fmt 4.6, Leading zero omitted, Abs format (unit mm)*
G04 Created by KiCad (PCBNEW 4.0.4-stable) date 11/09/16 11:25:41*
%MOMM*%
%LPD*%
G01*
G04 APERTURE LIST*
%ADD10C,0.100000*%
%ADD11C,0.150000*%
%ADD12C,0.200000*%
%ADD13R,1.700000X1.700000*%
%ADD14C,1.700000*%
%ADD15R,2.432000X2.127200*%
%ADD16O,2.432000X2.127200*%
%ADD17C,1.797000*%
%ADD18O,2.000000X2.000000*%
%ADD19R,2.127200X2.432000*%
%ADD20O,2.127200X2.432000*%
G04 APERTURE END LIST*
D10*
D11*
X136906429Y-109698571D02*
X136906429Y-109984285D01*
X136306429Y-109984285D01*
X136906429Y-109498571D02*
X136506429Y-109498571D01*
X136306429Y-109498571D02*
X136335000Y-109527142D01*
X136363571Y-109498571D01*
X136335000Y-109469999D01*
X136306429Y-109498571D01*
X136363571Y-109498571D01*
X136877857Y-108955714D02*
X136906429Y-109012857D01*
X136906429Y-109127143D01*
X136877857Y-109184285D01*
X136849286Y-109212857D01*
X136792143Y-109241428D01*
X136620714Y-109241428D01*
X136563571Y-109212857D01*
X136535000Y-109184285D01*
X136506429Y-109127143D01*
X136506429Y-109012857D01*
X136535000Y-108955714D01*
X136877857Y-108469999D02*
X136906429Y-108527142D01*
X136906429Y-108641428D01*
X136877857Y-108698571D01*
X136820714Y-108727142D01*
X136592143Y-108727142D01*
X136535000Y-108698571D01*
X136506429Y-108641428D01*
X136506429Y-108527142D01*
X136535000Y-108469999D01*
X136592143Y-108441428D01*
X136649286Y-108441428D01*
X136706429Y-108727142D01*
X136506429Y-108184285D02*
X136906429Y-108184285D01*
X136563571Y-108184285D02*
X136535000Y-108155713D01*
X136506429Y-108098571D01*
X136506429Y-108012856D01*
X136535000Y-107955713D01*
X136592143Y-107927142D01*
X136906429Y-107927142D01*
X136877857Y-107669999D02*
X136906429Y-107612856D01*
X136906429Y-107498571D01*
X136877857Y-107441428D01*
X136820714Y-107412856D01*
X136792143Y-107412856D01*
X136735000Y-107441428D01*
X136706429Y-107498571D01*
X136706429Y-107584285D01*
X136677857Y-107641428D01*
X136620714Y-107669999D01*
X136592143Y-107669999D01*
X136535000Y-107641428D01*
X136506429Y-107584285D01*
X136506429Y-107498571D01*
X136535000Y-107441428D01*
X136877857Y-106927142D02*
X136906429Y-106984285D01*
X136906429Y-107098571D01*
X136877857Y-107155714D01*
X136820714Y-107184285D01*
X136592143Y-107184285D01*
X136535000Y-107155714D01*
X136506429Y-107098571D01*
X136506429Y-106984285D01*
X136535000Y-106927142D01*
X136592143Y-106898571D01*
X136649286Y-106898571D01*
X136706429Y-107184285D01*
X136906429Y-106384285D02*
X136306429Y-106384285D01*
X136877857Y-106384285D02*
X136906429Y-106441428D01*
X136906429Y-106555714D01*
X136877857Y-106612856D01*
X136849286Y-106641428D01*
X136792143Y-106669999D01*
X136620714Y-106669999D01*
X136563571Y-106641428D01*
X136535000Y-106612856D01*
X136506429Y-106555714D01*
X136506429Y-106441428D01*
X136535000Y-106384285D01*
X136506429Y-105384285D02*
X136906429Y-105384285D01*
X136506429Y-105641428D02*
X136820714Y-105641428D01*
X136877857Y-105612856D01*
X136906429Y-105555714D01*
X136906429Y-105469999D01*
X136877857Y-105412856D01*
X136849286Y-105384285D01*
X136506429Y-105098571D02*
X136906429Y-105098571D01*
X136563571Y-105098571D02*
X136535000Y-105069999D01*
X136506429Y-105012857D01*
X136506429Y-104927142D01*
X136535000Y-104869999D01*
X136592143Y-104841428D01*
X136906429Y-104841428D01*
X136906429Y-104298571D02*
X136306429Y-104298571D01*
X136877857Y-104298571D02*
X136906429Y-104355714D01*
X136906429Y-104470000D01*
X136877857Y-104527142D01*
X136849286Y-104555714D01*
X136792143Y-104584285D01*
X136620714Y-104584285D01*
X136563571Y-104555714D01*
X136535000Y-104527142D01*
X136506429Y-104470000D01*
X136506429Y-104355714D01*
X136535000Y-104298571D01*
X136877857Y-103784285D02*
X136906429Y-103841428D01*
X136906429Y-103955714D01*
X136877857Y-104012857D01*
X136820714Y-104041428D01*
X136592143Y-104041428D01*
X136535000Y-104012857D01*
X136506429Y-103955714D01*
X136506429Y-103841428D01*
X136535000Y-103784285D01*
X136592143Y-103755714D01*
X136649286Y-103755714D01*
X136706429Y-104041428D01*
X136906429Y-103498571D02*
X136506429Y-103498571D01*
X136620714Y-103498571D02*
X136563571Y-103469999D01*
X136535000Y-103441428D01*
X136506429Y-103384285D01*
X136506429Y-103327142D01*
X136849286Y-102327142D02*
X136877857Y-102355713D01*
X136906429Y-102441427D01*
X136906429Y-102498570D01*
X136877857Y-102584285D01*
X136820714Y-102641427D01*
X136763571Y-102669999D01*
X136649286Y-102698570D01*
X136563571Y-102698570D01*
X136449286Y-102669999D01*
X136392143Y-102641427D01*
X136335000Y-102584285D01*
X136306429Y-102498570D01*
X136306429Y-102441427D01*
X136335000Y-102355713D01*
X136363571Y-102327142D01*
X136592143Y-102069999D02*
X136592143Y-101869999D01*
X136906429Y-101784285D02*
X136906429Y-102069999D01*
X136306429Y-102069999D01*
X136306429Y-101784285D01*
X136906429Y-101184285D02*
X136620714Y-101384285D01*
X136906429Y-101527142D02*
X136306429Y-101527142D01*
X136306429Y-101298570D01*
X136335000Y-101241428D01*
X136363571Y-101212856D01*
X136420714Y-101184285D01*
X136506429Y-101184285D01*
X136563571Y-101212856D01*
X136592143Y-101241428D01*
X136620714Y-101298570D01*
X136620714Y-101527142D01*
X136906429Y-100927142D02*
X136306429Y-100927142D01*
X136906429Y-100584285D01*
X136306429Y-100584285D01*
X136306429Y-99727142D02*
X136306429Y-99612856D01*
X136335000Y-99555714D01*
X136392143Y-99498571D01*
X136506429Y-99469999D01*
X136706429Y-99469999D01*
X136820714Y-99498571D01*
X136877857Y-99555714D01*
X136906429Y-99612856D01*
X136906429Y-99727142D01*
X136877857Y-99784285D01*
X136820714Y-99841428D01*
X136706429Y-99869999D01*
X136506429Y-99869999D01*
X136392143Y-99841428D01*
X136335000Y-99784285D01*
X136306429Y-99727142D01*
X136906429Y-99212857D02*
X136306429Y-99212857D01*
X136592143Y-99212857D02*
X136592143Y-98870000D01*
X136906429Y-98870000D02*
X136306429Y-98870000D01*
X136906429Y-98298572D02*
X136906429Y-98584286D01*
X136306429Y-98584286D01*
X136506429Y-97698572D02*
X136906429Y-97555715D01*
X136506429Y-97412857D01*
X136849286Y-97184286D02*
X136877857Y-97155714D01*
X136906429Y-97184286D01*
X136877857Y-97212857D01*
X136849286Y-97184286D01*
X136906429Y-97184286D01*
X136906429Y-96584286D02*
X136906429Y-96927143D01*
X136906429Y-96755715D02*
X136306429Y-96755715D01*
X136392143Y-96812858D01*
X136449286Y-96870000D01*
X136477857Y-96927143D01*
X136849286Y-96327143D02*
X136877857Y-96298571D01*
X136906429Y-96327143D01*
X136877857Y-96355714D01*
X136849286Y-96327143D01*
X136906429Y-96327143D01*
X136363571Y-96070000D02*
X136335000Y-96041429D01*
X136306429Y-95984286D01*
X136306429Y-95841429D01*
X136335000Y-95784286D01*
X136363571Y-95755715D01*
X136420714Y-95727143D01*
X136477857Y-95727143D01*
X136563571Y-95755715D01*
X136906429Y-96098572D01*
X136906429Y-95727143D01*
X137556429Y-109798570D02*
X137956429Y-109684284D01*
X137670714Y-109569998D01*
X137956429Y-109455713D01*
X137556429Y-109341427D01*
X137556429Y-109169999D02*
X137956429Y-109055713D01*
X137670714Y-108941427D01*
X137956429Y-108827142D01*
X137556429Y-108712856D01*
X137556429Y-108541428D02*
X137956429Y-108427142D01*
X137670714Y-108312856D01*
X137956429Y-108198571D01*
X137556429Y-108084285D01*
X137899286Y-107855714D02*
X137927857Y-107827142D01*
X137956429Y-107855714D01*
X137927857Y-107884285D01*
X137899286Y-107855714D01*
X137956429Y-107855714D01*
X137956429Y-107570000D02*
X137356429Y-107570000D01*
X137956429Y-107312857D02*
X137642143Y-107312857D01*
X137585000Y-107341428D01*
X137556429Y-107398571D01*
X137556429Y-107484286D01*
X137585000Y-107541428D01*
X137613571Y-107570000D01*
X137927857Y-106798571D02*
X137956429Y-106855714D01*
X137956429Y-106970000D01*
X137927857Y-107027143D01*
X137870714Y-107055714D01*
X137642143Y-107055714D01*
X137585000Y-107027143D01*
X137556429Y-106970000D01*
X137556429Y-106855714D01*
X137585000Y-106798571D01*
X137642143Y-106770000D01*
X137699286Y-106770000D01*
X137756429Y-107055714D01*
X137556429Y-106512857D02*
X137956429Y-106512857D01*
X137613571Y-106512857D02*
X137585000Y-106484285D01*
X137556429Y-106427143D01*
X137556429Y-106341428D01*
X137585000Y-106284285D01*
X137642143Y-106255714D01*
X137956429Y-106255714D01*
X137556429Y-105970000D02*
X137956429Y-105970000D01*
X137613571Y-105970000D02*
X137585000Y-105941428D01*
X137556429Y-105884286D01*
X137556429Y-105798571D01*
X137585000Y-105741428D01*
X137642143Y-105712857D01*
X137956429Y-105712857D01*
X137956429Y-105427143D02*
X137556429Y-105427143D01*
X137356429Y-105427143D02*
X137385000Y-105455714D01*
X137413571Y-105427143D01*
X137385000Y-105398571D01*
X137356429Y-105427143D01*
X137413571Y-105427143D01*
X137556429Y-105141429D02*
X137956429Y-105141429D01*
X137613571Y-105141429D02*
X137585000Y-105112857D01*
X137556429Y-105055715D01*
X137556429Y-104970000D01*
X137585000Y-104912857D01*
X137642143Y-104884286D01*
X137956429Y-104884286D01*
X137556429Y-104341429D02*
X138042143Y-104341429D01*
X138099286Y-104370000D01*
X138127857Y-104398572D01*
X138156429Y-104455715D01*
X138156429Y-104541429D01*
X138127857Y-104598572D01*
X137927857Y-104341429D02*
X137956429Y-104398572D01*
X137956429Y-104512858D01*
X137927857Y-104570000D01*
X137899286Y-104598572D01*
X137842143Y-104627143D01*
X137670714Y-104627143D01*
X137613571Y-104598572D01*
X137585000Y-104570000D01*
X137556429Y-104512858D01*
X137556429Y-104398572D01*
X137585000Y-104341429D01*
X137727857Y-104055715D02*
X137727857Y-103598572D01*
X137956429Y-103312858D02*
X137356429Y-103312858D01*
X137585000Y-103312858D02*
X137556429Y-103255715D01*
X137556429Y-103141429D01*
X137585000Y-103084286D01*
X137613571Y-103055715D01*
X137670714Y-103027144D01*
X137842143Y-103027144D01*
X137899286Y-103055715D01*
X137927857Y-103084286D01*
X137956429Y-103141429D01*
X137956429Y-103255715D01*
X137927857Y-103312858D01*
X137927857Y-102541429D02*
X137956429Y-102598572D01*
X137956429Y-102712858D01*
X137927857Y-102770001D01*
X137870714Y-102798572D01*
X137642143Y-102798572D01*
X137585000Y-102770001D01*
X137556429Y-102712858D01*
X137556429Y-102598572D01*
X137585000Y-102541429D01*
X137642143Y-102512858D01*
X137699286Y-102512858D01*
X137756429Y-102798572D01*
X137956429Y-102255715D02*
X137356429Y-102255715D01*
X137727857Y-102198572D02*
X137956429Y-102027143D01*
X137556429Y-102027143D02*
X137785000Y-102255715D01*
X137927857Y-101541429D02*
X137956429Y-101598572D01*
X137956429Y-101712858D01*
X137927857Y-101770001D01*
X137870714Y-101798572D01*
X137642143Y-101798572D01*
X137585000Y-101770001D01*
X137556429Y-101712858D01*
X137556429Y-101598572D01*
X137585000Y-101541429D01*
X137642143Y-101512858D01*
X137699286Y-101512858D01*
X137756429Y-101798572D01*
X137956429Y-101170001D02*
X137927857Y-101227143D01*
X137870714Y-101255715D01*
X137356429Y-101255715D01*
X137899286Y-100941429D02*
X137927857Y-100912857D01*
X137956429Y-100941429D01*
X137927857Y-100970000D01*
X137899286Y-100941429D01*
X137956429Y-100941429D01*
X137956429Y-100398572D02*
X137356429Y-100398572D01*
X137927857Y-100398572D02*
X137956429Y-100455715D01*
X137956429Y-100570001D01*
X137927857Y-100627143D01*
X137899286Y-100655715D01*
X137842143Y-100684286D01*
X137670714Y-100684286D01*
X137613571Y-100655715D01*
X137585000Y-100627143D01*
X137556429Y-100570001D01*
X137556429Y-100455715D01*
X137585000Y-100398572D01*
X137927857Y-99884286D02*
X137956429Y-99941429D01*
X137956429Y-100055715D01*
X137927857Y-100112858D01*
X137870714Y-100141429D01*
X137642143Y-100141429D01*
X137585000Y-100112858D01*
X137556429Y-100055715D01*
X137556429Y-99941429D01*
X137585000Y-99884286D01*
X137642143Y-99855715D01*
X137699286Y-99855715D01*
X137756429Y-100141429D01*
X137327857Y-99170000D02*
X138099286Y-99684286D01*
X137556429Y-98970001D02*
X138156429Y-98970001D01*
X137585000Y-98970001D02*
X137556429Y-98912858D01*
X137556429Y-98798572D01*
X137585000Y-98741429D01*
X137613571Y-98712858D01*
X137670714Y-98684287D01*
X137842143Y-98684287D01*
X137899286Y-98712858D01*
X137927857Y-98741429D01*
X137956429Y-98798572D01*
X137956429Y-98912858D01*
X137927857Y-98970001D01*
X137956429Y-98341430D02*
X137927857Y-98398572D01*
X137899286Y-98427144D01*
X137842143Y-98455715D01*
X137670714Y-98455715D01*
X137613571Y-98427144D01*
X137585000Y-98398572D01*
X137556429Y-98341430D01*
X137556429Y-98255715D01*
X137585000Y-98198572D01*
X137613571Y-98170001D01*
X137670714Y-98141430D01*
X137842143Y-98141430D01*
X137899286Y-98170001D01*
X137927857Y-98198572D01*
X137956429Y-98255715D01*
X137956429Y-98341430D01*
X137556429Y-97970001D02*
X137556429Y-97741430D01*
X137356429Y-97884287D02*
X137870714Y-97884287D01*
X137927857Y-97855715D01*
X137956429Y-97798573D01*
X137956429Y-97741430D01*
X137956429Y-97541430D02*
X137556429Y-97541430D01*
X137613571Y-97541430D02*
X137585000Y-97512858D01*
X137556429Y-97455716D01*
X137556429Y-97370001D01*
X137585000Y-97312858D01*
X137642143Y-97284287D01*
X137956429Y-97284287D01*
X137642143Y-97284287D02*
X137585000Y-97255716D01*
X137556429Y-97198573D01*
X137556429Y-97112858D01*
X137585000Y-97055716D01*
X137642143Y-97027144D01*
X137956429Y-97027144D01*
X137556429Y-96484287D02*
X137956429Y-96484287D01*
X137556429Y-96741430D02*
X137870714Y-96741430D01*
X137927857Y-96712858D01*
X137956429Y-96655716D01*
X137956429Y-96570001D01*
X137927857Y-96512858D01*
X137899286Y-96484287D01*
X137956429Y-96255716D02*
X137556429Y-95941430D01*
X137556429Y-96255716D02*
X137956429Y-95941430D01*
X134321786Y-106780715D02*
X133571786Y-106780715D01*
X133571786Y-106495000D01*
X133607500Y-106423572D01*
X133643214Y-106387857D01*
X133714643Y-106352143D01*
X133821786Y-106352143D01*
X133893214Y-106387857D01*
X133928929Y-106423572D01*
X133964643Y-106495000D01*
X133964643Y-106780715D01*
X134321786Y-105923572D02*
X134286071Y-105995000D01*
X134250357Y-106030715D01*
X134178929Y-106066429D01*
X133964643Y-106066429D01*
X133893214Y-106030715D01*
X133857500Y-105995000D01*
X133821786Y-105923572D01*
X133821786Y-105816429D01*
X133857500Y-105745000D01*
X133893214Y-105709286D01*
X133964643Y-105673572D01*
X134178929Y-105673572D01*
X134250357Y-105709286D01*
X134286071Y-105745000D01*
X134321786Y-105816429D01*
X134321786Y-105923572D01*
X133821786Y-105459286D02*
X133821786Y-105173572D01*
X133571786Y-105352144D02*
X134214643Y-105352144D01*
X134286071Y-105316429D01*
X134321786Y-105245001D01*
X134321786Y-105173572D01*
X134321786Y-104923573D02*
X133571786Y-104923573D01*
X134107500Y-104673573D01*
X133571786Y-104423573D01*
X134321786Y-104423573D01*
X133821786Y-103745001D02*
X134321786Y-103745001D01*
X133821786Y-104066430D02*
X134214643Y-104066430D01*
X134286071Y-104030715D01*
X134321786Y-103959287D01*
X134321786Y-103852144D01*
X134286071Y-103780715D01*
X134250357Y-103745001D01*
X134321786Y-103459287D02*
X133821786Y-103066430D01*
X133821786Y-103459287D02*
X134321786Y-103066430D01*
X134321786Y-101780715D02*
X133964643Y-102030715D01*
X134321786Y-102209287D02*
X133571786Y-102209287D01*
X133571786Y-101923572D01*
X133607500Y-101852144D01*
X133643214Y-101816429D01*
X133714643Y-101780715D01*
X133821786Y-101780715D01*
X133893214Y-101816429D01*
X133928929Y-101852144D01*
X133964643Y-101923572D01*
X133964643Y-102209287D01*
X134286071Y-101173572D02*
X134321786Y-101245001D01*
X134321786Y-101387858D01*
X134286071Y-101459287D01*
X134214643Y-101495001D01*
X133928929Y-101495001D01*
X133857500Y-101459287D01*
X133821786Y-101387858D01*
X133821786Y-101245001D01*
X133857500Y-101173572D01*
X133928929Y-101137858D01*
X134000357Y-101137858D01*
X134071786Y-101495001D01*
X133821786Y-100887858D02*
X134321786Y-100709287D01*
X133821786Y-100530715D01*
X134250357Y-100245001D02*
X134286071Y-100209286D01*
X134321786Y-100245001D01*
X134286071Y-100280715D01*
X134250357Y-100245001D01*
X134321786Y-100245001D01*
X134321786Y-99495000D02*
X134321786Y-99923572D01*
X134321786Y-99709286D02*
X133571786Y-99709286D01*
X133678929Y-99780715D01*
X133750357Y-99852143D01*
X133786071Y-99923572D01*
X135025357Y-108495000D02*
X134989643Y-108566428D01*
X134989643Y-108709285D01*
X135025357Y-108780714D01*
X135096786Y-108852143D01*
X135168214Y-108887857D01*
X135311071Y-108887857D01*
X135382500Y-108852143D01*
X135453929Y-108780714D01*
X135489643Y-108709285D01*
X135489643Y-108566428D01*
X135453929Y-108495000D01*
X134739643Y-108637857D02*
X134775357Y-108816428D01*
X134882500Y-108995000D01*
X135061071Y-109102143D01*
X135239643Y-109137857D01*
X135418214Y-109102143D01*
X135596786Y-108995000D01*
X135703929Y-108816428D01*
X135739643Y-108637857D01*
X135703929Y-108459285D01*
X135596786Y-108280714D01*
X135418214Y-108173571D01*
X135239643Y-108137857D01*
X135061071Y-108173571D01*
X134882500Y-108280714D01*
X134775357Y-108459285D01*
X134739643Y-108637857D01*
X134918214Y-107852143D02*
X134882500Y-107816429D01*
X134846786Y-107745000D01*
X134846786Y-107566429D01*
X134882500Y-107495000D01*
X134918214Y-107459286D01*
X134989643Y-107423571D01*
X135061071Y-107423571D01*
X135168214Y-107459286D01*
X135596786Y-107887857D01*
X135596786Y-107423571D01*
X134846786Y-106959285D02*
X134846786Y-106887857D01*
X134882500Y-106816428D01*
X134918214Y-106780714D01*
X134989643Y-106745000D01*
X135132500Y-106709285D01*
X135311071Y-106709285D01*
X135453929Y-106745000D01*
X135525357Y-106780714D01*
X135561071Y-106816428D01*
X135596786Y-106887857D01*
X135596786Y-106959285D01*
X135561071Y-107030714D01*
X135525357Y-107066428D01*
X135453929Y-107102143D01*
X135311071Y-107137857D01*
X135132500Y-107137857D01*
X134989643Y-107102143D01*
X134918214Y-107066428D01*
X134882500Y-107030714D01*
X134846786Y-106959285D01*
X135596786Y-105994999D02*
X135596786Y-106423571D01*
X135596786Y-106209285D02*
X134846786Y-106209285D01*
X134953929Y-106280714D01*
X135025357Y-106352142D01*
X135061071Y-106423571D01*
X134846786Y-105352142D02*
X134846786Y-105494999D01*
X134882500Y-105566428D01*
X134918214Y-105602142D01*
X135025357Y-105673571D01*
X135168214Y-105709285D01*
X135453929Y-105709285D01*
X135525357Y-105673571D01*
X135561071Y-105637856D01*
X135596786Y-105566428D01*
X135596786Y-105423571D01*
X135561071Y-105352142D01*
X135525357Y-105316428D01*
X135453929Y-105280713D01*
X135275357Y-105280713D01*
X135203929Y-105316428D01*
X135168214Y-105352142D01*
X135132500Y-105423571D01*
X135132500Y-105566428D01*
X135168214Y-105637856D01*
X135203929Y-105673571D01*
X135275357Y-105709285D01*
X135596786Y-104387856D02*
X134846786Y-104387856D01*
X135203929Y-104387856D02*
X135203929Y-103959284D01*
X135596786Y-103959284D02*
X134846786Y-103959284D01*
X135561071Y-103316427D02*
X135596786Y-103387856D01*
X135596786Y-103530713D01*
X135561071Y-103602142D01*
X135489643Y-103637856D01*
X135203929Y-103637856D01*
X135132500Y-103602142D01*
X135096786Y-103530713D01*
X135096786Y-103387856D01*
X135132500Y-103316427D01*
X135203929Y-103280713D01*
X135275357Y-103280713D01*
X135346786Y-103637856D01*
X135096786Y-102959285D02*
X135596786Y-102959285D01*
X135168214Y-102959285D02*
X135132500Y-102923570D01*
X135096786Y-102852142D01*
X135096786Y-102744999D01*
X135132500Y-102673570D01*
X135203929Y-102637856D01*
X135596786Y-102637856D01*
X135096786Y-102280714D02*
X135596786Y-102280714D01*
X135168214Y-102280714D02*
X135132500Y-102244999D01*
X135096786Y-102173571D01*
X135096786Y-102066428D01*
X135132500Y-101994999D01*
X135203929Y-101959285D01*
X135596786Y-101959285D01*
X135596786Y-101602143D02*
X135096786Y-101602143D01*
X134846786Y-101602143D02*
X134882500Y-101637857D01*
X134918214Y-101602143D01*
X134882500Y-101566428D01*
X134846786Y-101602143D01*
X134918214Y-101602143D01*
X135096786Y-101245000D02*
X135596786Y-101245000D01*
X135168214Y-101245000D02*
X135132500Y-101209285D01*
X135096786Y-101137857D01*
X135096786Y-101030714D01*
X135132500Y-100959285D01*
X135203929Y-100923571D01*
X135596786Y-100923571D01*
X135096786Y-100245000D02*
X135703929Y-100245000D01*
X135775357Y-100280714D01*
X135811071Y-100316429D01*
X135846786Y-100387857D01*
X135846786Y-100495000D01*
X135811071Y-100566429D01*
X135561071Y-100245000D02*
X135596786Y-100316429D01*
X135596786Y-100459286D01*
X135561071Y-100530714D01*
X135525357Y-100566429D01*
X135453929Y-100602143D01*
X135239643Y-100602143D01*
X135168214Y-100566429D01*
X135132500Y-100530714D01*
X135096786Y-100459286D01*
X135096786Y-100316429D01*
X135132500Y-100245000D01*
X135203929Y-99066429D02*
X135239643Y-98959286D01*
X135275357Y-98923571D01*
X135346786Y-98887857D01*
X135453929Y-98887857D01*
X135525357Y-98923571D01*
X135561071Y-98959286D01*
X135596786Y-99030714D01*
X135596786Y-99316429D01*
X134846786Y-99316429D01*
X134846786Y-99066429D01*
X134882500Y-98995000D01*
X134918214Y-98959286D01*
X134989643Y-98923571D01*
X135061071Y-98923571D01*
X135132500Y-98959286D01*
X135168214Y-98995000D01*
X135203929Y-99066429D01*
X135203929Y-99316429D01*
X135561071Y-98280714D02*
X135596786Y-98352143D01*
X135596786Y-98495000D01*
X135561071Y-98566429D01*
X135489643Y-98602143D01*
X135203929Y-98602143D01*
X135132500Y-98566429D01*
X135096786Y-98495000D01*
X135096786Y-98352143D01*
X135132500Y-98280714D01*
X135203929Y-98245000D01*
X135275357Y-98245000D01*
X135346786Y-98602143D01*
X135596786Y-97923572D02*
X134846786Y-97923572D01*
X135311071Y-97852143D02*
X135596786Y-97637857D01*
X135096786Y-97637857D02*
X135382500Y-97923572D01*
X135561071Y-97030714D02*
X135596786Y-97102143D01*
X135596786Y-97245000D01*
X135561071Y-97316429D01*
X135489643Y-97352143D01*
X135203929Y-97352143D01*
X135132500Y-97316429D01*
X135096786Y-97245000D01*
X135096786Y-97102143D01*
X135132500Y-97030714D01*
X135203929Y-96995000D01*
X135275357Y-96995000D01*
X135346786Y-97352143D01*
X135596786Y-96566429D02*
X135561071Y-96637857D01*
X135489643Y-96673572D01*
X134846786Y-96673572D01*
D12*
X145491200Y-88188800D02*
X146608800Y-88188800D01*
D11*
X153302857Y-90295000D02*
X153338571Y-90330714D01*
X153374286Y-90437857D01*
X153374286Y-90509286D01*
X153338571Y-90616429D01*
X153267143Y-90687857D01*
X153195714Y-90723572D01*
X153052857Y-90759286D01*
X152945714Y-90759286D01*
X152802857Y-90723572D01*
X152731429Y-90687857D01*
X152660000Y-90616429D01*
X152624286Y-90509286D01*
X152624286Y-90437857D01*
X152660000Y-90330714D01*
X152695714Y-90295000D01*
X152695714Y-90009286D02*
X152660000Y-89973572D01*
X152624286Y-89902143D01*
X152624286Y-89723572D01*
X152660000Y-89652143D01*
X152695714Y-89616429D01*
X152767143Y-89580714D01*
X152838571Y-89580714D01*
X152945714Y-89616429D01*
X153374286Y-90045000D01*
X153374286Y-89580714D01*
X131712857Y-90295000D02*
X131748571Y-90330714D01*
X131784286Y-90437857D01*
X131784286Y-90509286D01*
X131748571Y-90616429D01*
X131677143Y-90687857D01*
X131605714Y-90723572D01*
X131462857Y-90759286D01*
X131355714Y-90759286D01*
X131212857Y-90723572D01*
X131141429Y-90687857D01*
X131070000Y-90616429D01*
X131034286Y-90509286D01*
X131034286Y-90437857D01*
X131070000Y-90330714D01*
X131105714Y-90295000D01*
X131784286Y-89580714D02*
X131784286Y-90009286D01*
X131784286Y-89795000D02*
X131034286Y-89795000D01*
X131141429Y-89866429D01*
X131212857Y-89937857D01*
X131248571Y-90009286D01*
X141329286Y-114004286D02*
X141079286Y-113647143D01*
X140900714Y-114004286D02*
X140900714Y-113254286D01*
X141186429Y-113254286D01*
X141257857Y-113290000D01*
X141293572Y-113325714D01*
X141329286Y-113397143D01*
X141329286Y-113504286D01*
X141293572Y-113575714D01*
X141257857Y-113611429D01*
X141186429Y-113647143D01*
X140900714Y-113647143D01*
X141936429Y-113968571D02*
X141865000Y-114004286D01*
X141722143Y-114004286D01*
X141650714Y-113968571D01*
X141615000Y-113897143D01*
X141615000Y-113611429D01*
X141650714Y-113540000D01*
X141722143Y-113504286D01*
X141865000Y-113504286D01*
X141936429Y-113540000D01*
X141972143Y-113611429D01*
X141972143Y-113682857D01*
X141615000Y-113754286D01*
X142222143Y-113504286D02*
X142400714Y-114004286D01*
X142579286Y-113504286D01*
X142865000Y-113932857D02*
X142900715Y-113968571D01*
X142865000Y-114004286D01*
X142829286Y-113968571D01*
X142865000Y-113932857D01*
X142865000Y-114004286D01*
X143615001Y-114004286D02*
X143186429Y-114004286D01*
X143400715Y-114004286D02*
X143400715Y-113254286D01*
X143329286Y-113361429D01*
X143257858Y-113432857D01*
X143186429Y-113468571D01*
X141347143Y-94446286D02*
X141347143Y-93696286D01*
X141597143Y-94232000D01*
X141847143Y-93696286D01*
X141847143Y-94446286D01*
X142525715Y-93946286D02*
X142525715Y-94446286D01*
X142204286Y-93946286D02*
X142204286Y-94339143D01*
X142240001Y-94410571D01*
X142311429Y-94446286D01*
X142418572Y-94446286D01*
X142490001Y-94410571D01*
X142525715Y-94374857D01*
X142811429Y-94446286D02*
X143204286Y-93946286D01*
X142811429Y-93946286D02*
X143204286Y-94446286D01*
X141490000Y-93557286D02*
X141490000Y-92807286D01*
X141775715Y-92807286D01*
X141847143Y-92843000D01*
X141882858Y-92878714D01*
X141918572Y-92950143D01*
X141918572Y-93057286D01*
X141882858Y-93128714D01*
X141847143Y-93164429D01*
X141775715Y-93200143D01*
X141490000Y-93200143D01*
X142347143Y-93557286D02*
X142275715Y-93521571D01*
X142240000Y-93485857D01*
X142204286Y-93414429D01*
X142204286Y-93200143D01*
X142240000Y-93128714D01*
X142275715Y-93093000D01*
X142347143Y-93057286D01*
X142454286Y-93057286D01*
X142525715Y-93093000D01*
X142561429Y-93128714D01*
X142597143Y-93200143D01*
X142597143Y-93414429D01*
X142561429Y-93485857D01*
X142525715Y-93521571D01*
X142454286Y-93557286D01*
X142347143Y-93557286D01*
X142811429Y-93057286D02*
X143097143Y-93057286D01*
X142918571Y-92807286D02*
X142918571Y-93450143D01*
X142954286Y-93521571D01*
X143025714Y-93557286D01*
X143097143Y-93557286D01*
X148018572Y-88525000D02*
X147947143Y-88489286D01*
X147840000Y-88489286D01*
X147732857Y-88525000D01*
X147661429Y-88596429D01*
X147625714Y-88667857D01*
X147590000Y-88810714D01*
X147590000Y-88917857D01*
X147625714Y-89060714D01*
X147661429Y-89132143D01*
X147732857Y-89203571D01*
X147840000Y-89239286D01*
X147911429Y-89239286D01*
X148018572Y-89203571D01*
X148054286Y-89167857D01*
X148054286Y-88917857D01*
X147911429Y-88917857D01*
X148375714Y-89239286D02*
X148375714Y-88489286D01*
X148804286Y-89239286D01*
X148804286Y-88489286D01*
X149161428Y-89239286D02*
X149161428Y-88489286D01*
X149340000Y-88489286D01*
X149447143Y-88525000D01*
X149518571Y-88596429D01*
X149554286Y-88667857D01*
X149590000Y-88810714D01*
X149590000Y-88917857D01*
X149554286Y-89060714D01*
X149518571Y-89132143D01*
X149447143Y-89203571D01*
X149340000Y-89239286D01*
X149161428Y-89239286D01*
X145496429Y-88846429D02*
X145746429Y-88846429D01*
X145853572Y-89239286D02*
X145496429Y-89239286D01*
X145496429Y-88489286D01*
X145853572Y-88489286D01*
X146175000Y-89239286D02*
X146175000Y-88489286D01*
X146603572Y-89239286D01*
X146603572Y-88489286D01*
X143206428Y-88846429D02*
X143313571Y-88882143D01*
X143349286Y-88917857D01*
X143385000Y-88989286D01*
X143385000Y-89096429D01*
X143349286Y-89167857D01*
X143313571Y-89203571D01*
X143242143Y-89239286D01*
X142956428Y-89239286D01*
X142956428Y-88489286D01*
X143206428Y-88489286D01*
X143277857Y-88525000D01*
X143313571Y-88560714D01*
X143349286Y-88632143D01*
X143349286Y-88703571D01*
X143313571Y-88775000D01*
X143277857Y-88810714D01*
X143206428Y-88846429D01*
X142956428Y-88846429D01*
X143670714Y-88560714D02*
X143706428Y-88525000D01*
X143777857Y-88489286D01*
X143956428Y-88489286D01*
X144027857Y-88525000D01*
X144063571Y-88560714D01*
X144099286Y-88632143D01*
X144099286Y-88703571D01*
X144063571Y-88810714D01*
X143635000Y-89239286D01*
X144099286Y-89239286D01*
X140666428Y-88846429D02*
X140773571Y-88882143D01*
X140809286Y-88917857D01*
X140845000Y-88989286D01*
X140845000Y-89096429D01*
X140809286Y-89167857D01*
X140773571Y-89203571D01*
X140702143Y-89239286D01*
X140416428Y-89239286D01*
X140416428Y-88489286D01*
X140666428Y-88489286D01*
X140737857Y-88525000D01*
X140773571Y-88560714D01*
X140809286Y-88632143D01*
X140809286Y-88703571D01*
X140773571Y-88775000D01*
X140737857Y-88810714D01*
X140666428Y-88846429D01*
X140416428Y-88846429D01*
X141559286Y-89239286D02*
X141130714Y-89239286D01*
X141345000Y-89239286D02*
X141345000Y-88489286D01*
X141273571Y-88596429D01*
X141202143Y-88667857D01*
X141130714Y-88703571D01*
X137894286Y-89025000D02*
X138251429Y-89025000D01*
X137822858Y-89239286D02*
X138072858Y-88489286D01*
X138322858Y-89239286D01*
X138537143Y-88560714D02*
X138572857Y-88525000D01*
X138644286Y-88489286D01*
X138822857Y-88489286D01*
X138894286Y-88525000D01*
X138930000Y-88560714D01*
X138965715Y-88632143D01*
X138965715Y-88703571D01*
X138930000Y-88810714D01*
X138501429Y-89239286D01*
X138965715Y-89239286D01*
X135354286Y-89025000D02*
X135711429Y-89025000D01*
X135282858Y-89239286D02*
X135532858Y-88489286D01*
X135782858Y-89239286D01*
X136425715Y-89239286D02*
X135997143Y-89239286D01*
X136211429Y-89239286D02*
X136211429Y-88489286D01*
X136140000Y-88596429D01*
X136068572Y-88667857D01*
X135997143Y-88703571D01*
X145883428Y-113123286D02*
X145883428Y-113623286D01*
X145704857Y-112837571D02*
X145526285Y-113373286D01*
X145990571Y-113373286D01*
X146419143Y-112873286D02*
X146490571Y-112873286D01*
X146562000Y-112909000D01*
X146597714Y-112944714D01*
X146633428Y-113016143D01*
X146669143Y-113159000D01*
X146669143Y-113337571D01*
X146633428Y-113480429D01*
X146597714Y-113551857D01*
X146562000Y-113587571D01*
X146490571Y-113623286D01*
X146419143Y-113623286D01*
X146347714Y-113587571D01*
X146312000Y-113551857D01*
X146276285Y-113480429D01*
X146240571Y-113337571D01*
X146240571Y-113159000D01*
X146276285Y-113016143D01*
X146312000Y-112944714D01*
X146347714Y-112909000D01*
X146419143Y-112873286D01*
X147347714Y-112873286D02*
X146990571Y-112873286D01*
X146954857Y-113230429D01*
X146990571Y-113194714D01*
X147062000Y-113159000D01*
X147240571Y-113159000D01*
X147312000Y-113194714D01*
X147347714Y-113230429D01*
X147383429Y-113301857D01*
X147383429Y-113480429D01*
X147347714Y-113551857D01*
X147312000Y-113587571D01*
X147240571Y-113623286D01*
X147062000Y-113623286D01*
X146990571Y-113587571D01*
X146954857Y-113551857D01*
X147669143Y-112944714D02*
X147704857Y-112909000D01*
X147776286Y-112873286D01*
X147954857Y-112873286D01*
X148026286Y-112909000D01*
X148062000Y-112944714D01*
X148097715Y-113016143D01*
X148097715Y-113087571D01*
X148062000Y-113194714D01*
X147633429Y-113623286D01*
X148097715Y-113623286D01*
X133183428Y-113123286D02*
X133183428Y-113623286D01*
X133004857Y-112837571D02*
X132826285Y-113373286D01*
X133290571Y-113373286D01*
X133719143Y-112873286D02*
X133790571Y-112873286D01*
X133862000Y-112909000D01*
X133897714Y-112944714D01*
X133933428Y-113016143D01*
X133969143Y-113159000D01*
X133969143Y-113337571D01*
X133933428Y-113480429D01*
X133897714Y-113551857D01*
X133862000Y-113587571D01*
X133790571Y-113623286D01*
X133719143Y-113623286D01*
X133647714Y-113587571D01*
X133612000Y-113551857D01*
X133576285Y-113480429D01*
X133540571Y-113337571D01*
X133540571Y-113159000D01*
X133576285Y-113016143D01*
X133612000Y-112944714D01*
X133647714Y-112909000D01*
X133719143Y-112873286D01*
X134647714Y-112873286D02*
X134290571Y-112873286D01*
X134254857Y-113230429D01*
X134290571Y-113194714D01*
X134362000Y-113159000D01*
X134540571Y-113159000D01*
X134612000Y-113194714D01*
X134647714Y-113230429D01*
X134683429Y-113301857D01*
X134683429Y-113480429D01*
X134647714Y-113551857D01*
X134612000Y-113587571D01*
X134540571Y-113623286D01*
X134362000Y-113623286D01*
X134290571Y-113587571D01*
X134254857Y-113551857D01*
X134969143Y-112944714D02*
X135004857Y-112909000D01*
X135076286Y-112873286D01*
X135254857Y-112873286D01*
X135326286Y-112909000D01*
X135362000Y-112944714D01*
X135397715Y-113016143D01*
X135397715Y-113087571D01*
X135362000Y-113194714D01*
X134933429Y-113623286D01*
X135397715Y-113623286D01*
X149880000Y-91690000D02*
X149880000Y-88690000D01*
X152380000Y-88690000D02*
X152380000Y-91690000D01*
X132100000Y-91690000D02*
X132100000Y-88690000D01*
X134600000Y-88690000D02*
X134600000Y-91690000D01*
X143510000Y-97790000D02*
X143510000Y-113030000D01*
X143510000Y-113030000D02*
X140970000Y-113030000D01*
X140970000Y-113030000D02*
X140970000Y-97790000D01*
X143790000Y-94970000D02*
X143790000Y-96520000D01*
X143510000Y-97790000D02*
X140970000Y-97790000D01*
X140690000Y-96520000D02*
X140690000Y-94970000D01*
X140690000Y-94970000D02*
X143790000Y-94970000D01*
X151130000Y-97790000D02*
X151130000Y-113030000D01*
X151130000Y-113030000D02*
X148590000Y-113030000D01*
X148590000Y-113030000D02*
X148590000Y-97790000D01*
X151410000Y-94970000D02*
X151410000Y-96520000D01*
X151130000Y-97790000D02*
X148590000Y-97790000D01*
X148310000Y-96520000D02*
X148310000Y-94970000D01*
X148310000Y-94970000D02*
X151410000Y-94970000D01*
X132215000Y-91685000D02*
X132215000Y-92955000D01*
X139565000Y-91685000D02*
X139565000Y-92955000D01*
X139565000Y-114055000D02*
X139565000Y-112785000D01*
X132215000Y-114055000D02*
X132215000Y-112785000D01*
X132215000Y-91685000D02*
X139565000Y-91685000D01*
X132215000Y-114055000D02*
X139565000Y-114055000D01*
X132215000Y-92955000D02*
X131280000Y-92955000D01*
X144915000Y-91685000D02*
X144915000Y-92955000D01*
X152265000Y-91685000D02*
X152265000Y-92955000D01*
X152265000Y-114055000D02*
X152265000Y-112785000D01*
X144915000Y-114055000D02*
X144915000Y-112785000D01*
X144915000Y-91685000D02*
X152265000Y-91685000D01*
X144915000Y-114055000D02*
X152265000Y-114055000D01*
X144915000Y-92955000D02*
X143980000Y-92955000D01*
X134340000Y-92740000D02*
X135890000Y-92740000D01*
X134340000Y-91440000D02*
X134340000Y-92740000D01*
X135763000Y-87249000D02*
X135763000Y-81407000D01*
X135763000Y-81407000D02*
X136017000Y-81407000D01*
X136017000Y-81407000D02*
X136017000Y-87249000D01*
X136017000Y-87249000D02*
X135890000Y-87249000D01*
X135890000Y-87249000D02*
X135890000Y-81407000D01*
X135636000Y-89916000D02*
X135636000Y-90297000D01*
X136144000Y-89916000D02*
X136144000Y-90297000D01*
X138176000Y-89916000D02*
X138176000Y-90297000D01*
X138684000Y-89916000D02*
X138684000Y-90297000D01*
X140716000Y-89916000D02*
X140716000Y-90297000D01*
X141224000Y-89916000D02*
X141224000Y-90297000D01*
X148844000Y-89916000D02*
X148844000Y-90297000D01*
X148336000Y-89916000D02*
X148336000Y-90297000D01*
X146304000Y-89916000D02*
X146304000Y-90297000D01*
X145796000Y-89916000D02*
X145796000Y-90297000D01*
X143764000Y-89916000D02*
X143764000Y-90297000D01*
X143256000Y-89916000D02*
X143256000Y-90297000D01*
X134620000Y-89916000D02*
X134620000Y-87376000D01*
X137160000Y-89916000D02*
X137160000Y-87376000D01*
X137160000Y-89916000D02*
X139700000Y-89916000D01*
X139700000Y-89916000D02*
X139700000Y-87376000D01*
X138176000Y-87376000D02*
X138176000Y-81280000D01*
X138176000Y-81280000D02*
X138684000Y-81280000D01*
X138684000Y-81280000D02*
X138684000Y-87376000D01*
X139700000Y-87376000D02*
X137160000Y-87376000D01*
X137160000Y-87376000D02*
X134620000Y-87376000D01*
X136144000Y-81280000D02*
X136144000Y-87376000D01*
X135636000Y-81280000D02*
X136144000Y-81280000D01*
X135636000Y-87376000D02*
X135636000Y-81280000D01*
X137160000Y-89916000D02*
X137160000Y-87376000D01*
X134620000Y-89916000D02*
X137160000Y-89916000D01*
X144780000Y-89916000D02*
X144780000Y-87376000D01*
X144780000Y-89916000D02*
X147320000Y-89916000D01*
X147320000Y-89916000D02*
X147320000Y-87376000D01*
X145796000Y-87376000D02*
X145796000Y-81280000D01*
X145796000Y-81280000D02*
X146304000Y-81280000D01*
X146304000Y-81280000D02*
X146304000Y-87376000D01*
X147320000Y-87376000D02*
X144780000Y-87376000D01*
X149860000Y-87376000D02*
X147320000Y-87376000D01*
X148844000Y-81280000D02*
X148844000Y-87376000D01*
X148336000Y-81280000D02*
X148844000Y-81280000D01*
X148336000Y-87376000D02*
X148336000Y-81280000D01*
X149860000Y-89916000D02*
X149860000Y-87376000D01*
X147320000Y-89916000D02*
X149860000Y-89916000D01*
X147320000Y-89916000D02*
X147320000Y-87376000D01*
X142240000Y-89916000D02*
X142240000Y-87376000D01*
X142240000Y-89916000D02*
X144780000Y-89916000D01*
X144780000Y-89916000D02*
X144780000Y-87376000D01*
X143256000Y-87376000D02*
X143256000Y-81280000D01*
X143256000Y-81280000D02*
X143764000Y-81280000D01*
X143764000Y-81280000D02*
X143764000Y-87376000D01*
X144780000Y-87376000D02*
X142240000Y-87376000D01*
X142240000Y-87376000D02*
X139700000Y-87376000D01*
X141224000Y-81280000D02*
X141224000Y-87376000D01*
X140716000Y-81280000D02*
X141224000Y-81280000D01*
X140716000Y-87376000D02*
X140716000Y-81280000D01*
X142240000Y-89916000D02*
X142240000Y-87376000D01*
X139700000Y-89916000D02*
X142240000Y-89916000D01*
X139700000Y-89916000D02*
X139700000Y-87376000D01*
X135128095Y-93432381D02*
X135128095Y-94241905D01*
X135175714Y-94337143D01*
X135223333Y-94384762D01*
X135318571Y-94432381D01*
X135509048Y-94432381D01*
X135604286Y-94384762D01*
X135651905Y-94337143D01*
X135699524Y-94241905D01*
X135699524Y-93432381D01*
X136699524Y-94432381D02*
X136128095Y-94432381D01*
X136413809Y-94432381D02*
X136413809Y-93432381D01*
X136318571Y-93575238D01*
X136223333Y-93670476D01*
X136128095Y-93718095D01*
X147828095Y-93432381D02*
X147828095Y-94241905D01*
X147875714Y-94337143D01*
X147923333Y-94384762D01*
X148018571Y-94432381D01*
X148209048Y-94432381D01*
X148304286Y-94384762D01*
X148351905Y-94337143D01*
X148399524Y-94241905D01*
X148399524Y-93432381D01*
X148828095Y-93527619D02*
X148875714Y-93480000D01*
X148970952Y-93432381D01*
X149209048Y-93432381D01*
X149304286Y-93480000D01*
X149351905Y-93527619D01*
X149399524Y-93622857D01*
X149399524Y-93718095D01*
X149351905Y-93860952D01*
X148780476Y-94432381D01*
X149399524Y-94432381D01*
%LPC*%
D13*
X151130000Y-91440000D03*
D14*
X151130000Y-88940000D03*
D13*
X133350000Y-91440000D03*
D14*
X133350000Y-88940000D03*
D15*
X142240000Y-96520000D03*
D16*
X142240000Y-99060000D03*
X142240000Y-101600000D03*
X142240000Y-104140000D03*
X142240000Y-106680000D03*
X142240000Y-109220000D03*
X142240000Y-111760000D03*
D15*
X149860000Y-96520000D03*
D16*
X149860000Y-99060000D03*
X149860000Y-101600000D03*
X149860000Y-104140000D03*
X149860000Y-106680000D03*
X149860000Y-109220000D03*
X149860000Y-111760000D03*
D17*
X147066000Y-100330000D03*
X147066000Y-107950000D03*
D18*
X132080000Y-93980000D03*
X132080000Y-96520000D03*
X132080000Y-99060000D03*
X132080000Y-101600000D03*
X132080000Y-104140000D03*
X132080000Y-106680000D03*
X132080000Y-109220000D03*
X132080000Y-111760000D03*
X139700000Y-111760000D03*
X139700000Y-109220000D03*
X139700000Y-106680000D03*
X139700000Y-104140000D03*
X139700000Y-101600000D03*
X139700000Y-99060000D03*
X139700000Y-96520000D03*
X139700000Y-93980000D03*
X144780000Y-93980000D03*
X144780000Y-96520000D03*
X144780000Y-99060000D03*
X144780000Y-101600000D03*
X144780000Y-104140000D03*
X144780000Y-106680000D03*
X144780000Y-109220000D03*
X144780000Y-111760000D03*
X152400000Y-111760000D03*
X152400000Y-109220000D03*
X152400000Y-106680000D03*
X152400000Y-104140000D03*
X152400000Y-101600000D03*
X152400000Y-99060000D03*
X152400000Y-96520000D03*
X152400000Y-93980000D03*
D19*
X135890000Y-91440000D03*
D20*
X138430000Y-91440000D03*
X140970000Y-91440000D03*
X143510000Y-91440000D03*
X146050000Y-91440000D03*
X148590000Y-91440000D03*
M02*
